<svg xmlns="http://www.w3.org/2000/svg" width="1921" height="1080" viewBox="0 0 1921 1080"><defs><style>.a{fill:#80e0dd;}.a,.b,.c,.f{font-size:29px;}.a,.b,.c,.d,.e,.f,.g,.h,.i{font-family:SegoeUI, Segoe UI;}.b,.h{fill:#73c97e;}.c,.g{fill:#78ffd6;}.d,.i{fill:#0691ad;}.d{font-size:33px;}.e{fill:#7bce97;}.e,.g,.h,.i{font-size:27px;}.f{fill:#506270;}</style></defs><g transform="translate(46 169.808)"><g transform="translate(-46 -170)"><text class="a" transform="translate(1483 817.192)"><tspan x="-9.36" y="0"></tspan></text><text class="a" transform="translate(1911 60.192)"><tspan x="-9.36" y="0"></tspan></text><text class="b" transform="translate(1179 690.192)"><tspan x="-9.36" y="0"></tspan></text><text class="c" transform="translate(1415 213.192)"><tspan x="-9.36" y="0"></tspan></text><text class="d" transform="translate(1001 236.192)"><tspan x="-10.651" y="0"></tspan></text><text class="d" transform="translate(1810 582.192)"><tspan x="-10.651" y="0"></tspan></text><text class="e" transform="translate(1417 1060.192)"><tspan x="-8.714" y="0"></tspan></text><text class="f" transform="translate(841 817.192)"><tspan x="-9.36" y="0"></tspan></text><text class="a" transform="translate(114 31.192)"><tspan x="-9.36" y="0"></tspan></text><text class="d" transform="translate(833 64.192)"><tspan x="-10.651" y="0"></tspan></text><text class="g" transform="translate(9 596.192)"><tspan x="-8.714" y="0"></tspan></text><text class="h" transform="translate(436 688.192)"><tspan x="-8.714" y="0"></tspan></text><text class="b" transform="translate(1295 447.191)"><tspan x="-9.36" y="0"></tspan></text><text class="b" transform="translate(287 248.191)"><tspan x="-9.36" y="0"></tspan></text><text class="c" transform="translate(1646 135.191)"><tspan x="-9.36" y="0"></tspan></text><text class="a" transform="translate(1599 552.191)"><tspan x="-9.36" y="0"></tspan></text><text class="g" transform="translate(1748 920.191)"><tspan x="-8.714" y="0"></tspan></text><text class="d" transform="translate(541 905.191)"><tspan x="-10.651" y="0"></tspan></text><text class="b" transform="translate(888 514.191)"><tspan x="-9.36" y="0"></tspan></text><text class="b" transform="translate(1655 768.191)"><tspan x="-9.36" y="0"></tspan></text><text class="g" transform="translate(194 768.191)"><tspan x="-8.714" y="0"></tspan></text><text class="g" transform="translate(485 422.192)"><tspan x="-8.714" y="0"></tspan></text><text class="i" transform="translate(376 1073.192)"><tspan x="-8.714" y="0"></tspan></text></g></g></svg>