<svg id="Capa_1" enable-background="new 0 0 512 512" height="512" viewBox="0 0 512 512" width="512" xmlns="http://www.w3.org/2000/svg"><g><path d="m4.627 265.964c-2.487 0-4.517-1.99-4.569-4.476-.039-1.825-.058-3.654-.058-5.488 0-141.385 114.615-256 256-256s256 114.615 256 256c0 1.493-.013 2.983-.038 4.471-.052 3.051-2.553 5.493-5.605 5.493z" fill="#20b7a1"/><path d="m20.621 265.964c-1.943 0-3.528-1.554-3.569-3.496-.03-1.425-.045-2.854-.045-4.286 0-110.432 89.523-199.955 199.955-199.955s199.955 89.523 199.955 199.955c0 1.166-.01 2.33-.03 3.492-.041 2.383-1.994 4.291-4.378 4.291h-391.888z" fill="#24d3b5"/><path d="m511.969 260c-2.137 139.54-115.92 252-255.969 252s-253.832-112.46-255.969-252z" fill="#3d4ec6"/><path d="m266.907 352.94h-164.056v-189.77h164.056z" fill="#ffc14f"/><path d="m136.893 352.94h-34.043v-189.77h34.043z" fill="#ffa90b"/><path d="m256.907 169.763h-144.056c-5.523 0-10-4.477-10-10v-27.403c0-5.523 4.477-10 10-10h144.056c5.523 0 10 4.477 10 10v27.403c0 5.523-4.477 10-10 10z" fill="#a7d0fc"/><path d="m290.95 169.763h-144.057c-5.523 0-10-4.477-10-10v-27.403c0-5.523 4.477-10 10-10h144.057c5.523 0 10 4.477 10 10v27.403c0 5.523-4.477 10-10 10z" fill="#c8e2fd"/><path d="m256.907 171.037h-161.194c-5.523 0-10-4.477-10-10 0-5.523 4.477-10 10-10h161.194c5.523 0 10 4.477 10 10 0 5.523-4.477 10-10 10z" fill="#c8e2fd"/><path d="m293.179 171.037h-161.195c-5.523 0-10-4.477-10-10 0-5.523 4.477-10 10-10h161.194c5.523 0 10 4.477 10 10 .001 5.523-4.476 10-9.999 10z" fill="#e9f3fe"/><path d="m464.5 299v101c0 16.568-13.431 30-30 30h-170c-16.569 0-30-13.432-30-30v-278c0-16.568 13.431-30 30-30h14c8.284 0 15-6.716 15-15v-47h70v239h71c16.569 0 30 13.432 30 30z" fill="#f44545"/><path d="m455.5 146.061v113.939s8.179 31.868 6.638 37.663c-8.012 30.134-35.482 52.337-68.138 52.337-38.936 0-70.5-31.564-70.5-70.5v-249.5h82v47c0 8.284 6.716 15 15 15h14c16.569 0 30 13.432 30 30v8z" fill="#fb5858"/><path d="m395.5 10v50c0 5.523-4.477 10-10 10h-92c-5.523 0-10-4.477-10-10v-50c0-5.523 4.477-10 10-10h92c5.523 0 10 4.477 10 10z" fill="#a7d0fc"/><path d="m415.5 10v50c0 5.523-4.477 10-10 10h-92c-5.523 0-10-4.477-10-10v-50c0-5.523 4.477-10 10-10h92c5.523 0 10 4.477 10 10z" fill="#c8e2fd"/><path d="m344.5 15v40c0 2.761-2.239 5-5 5s-5-2.239-5-5v-40c0-2.761 2.239-5 5-5s5 2.239 5 5zm-25-5c-2.761 0-5 2.239-5 5v40c0 2.761 2.239 5 5 5s5-2.239 5-5v-40c0-2.761-2.239-5-5-5zm-20 0c-2.761 0-5 2.239-5 5v40c0 2.761 2.239 5 5 5s5-2.239 5-5v-40c0-2.761-2.239-5-5-5zm100 0c-2.761 0-5 2.239-5 5v40c0 2.761 2.239 5 5 5s5-2.239 5-5v-40c0-2.761-2.239-5-5-5zm-20 0c-2.761 0-5 2.239-5 5v40c0 2.761 2.239 5 5 5s5-2.239 5-5v-40c0-2.761-2.239-5-5-5zm-20 0c-2.761 0-5 2.239-5 5v40c0 2.761 2.239 5 5 5s5-2.239 5-5v-40c0-2.761-2.239-5-5-5z" fill="#86befb"/><path d="m455.5 145v140c0 8.284-6.716 15-15 15h-110c-8.284 0-15-6.716-15-15v-140c0-8.284 6.716-15 15-15h110c8.284 0 15 6.716 15 15z" fill="#c8e2fd"/><path d="m464.5 130v170h-101c-8.284 0-15-6.716-15-15v-140c0-8.284 6.716-15 15-15z" fill="#e9f3fe"/><path d="m385.5 236c0-2.761 2.239-5 5-5h40c2.761 0 5 2.239 5 5s-2.239 5-5 5h-40c-2.761 0-5-2.239-5-5zm45 15h-40c-2.761 0-5 2.239-5 5s2.239 5 5 5h40c2.761 0 5-2.239 5-5s-2.239-5-5-5zm0 20h-40c-2.761 0-5 2.239-5 5s2.239 5 5 5h40c2.761 0 5-2.239 5-5s-2.239-5-5-5z" fill="#a7d0fc"/><path d="m366.915 242v197c0 8.284-6.716 15-15 15h-320c-8.284 0-15-6.716-15-15v-197c0-8.284 6.716-15 15-15h320c8.284 0 15 6.716 15 15z" fill="#8c96dd"/><path d="m366.915 242v197c0 8.284-6.716 15-15 15h-91.5c-62.684 0-113.5-50.815-113.5-113.5 0-62.685 50.816-113.5 113.5-113.5h91.5c8.284 0 15 6.716 15 15z" fill="#a6aee5"/><path d="m335.915 340.5c0 4.142-3.358 7.5-7.5 7.5h-275c-4.142 0-7.5-3.358-7.5-7.5s3.358-7.5 7.5-7.5h275c4.142 0 7.5 3.358 7.5 7.5zm-103.333-30.5c16.569 0 30-13.432 30-30s-13.431-30-30-30-30 13.432-30 30 13.431 30 30 30zm81.333 0c16.569 0 30-13.432 30-30s-13.431-30-30-30-30 13.432-30 30 13.431 30 30 30zm-244 0c16.569 0 30-13.432 30-30s-13.431-30-30-30-30 13.432-30 30 13.431 30 30 30zm81.333 0c16.569 0 30-13.432 30-30s-13.431-30-30-30-30 13.432-30 30 13.432 30 30 30zm81.334 60c-16.569 0-30 13.432-30 30s13.431 30 30 30 30-13.432 30-30-13.432-30-30-30zm81.333 0c-16.569 0-30 13.432-30 30s13.431 30 30 30 30-13.432 30-30-13.432-30-30-30zm-244 0c-16.569 0-30 13.432-30 30s13.431 30 30 30 30-13.432 30-30-13.432-30-30-30zm81.333 0c-16.569 0-30 13.432-30 30s13.431 30 30 30 30-13.432 30-30-13.431-30-30-30z" fill="#717ed6"/><path d="m415.542 157.958c7.967 7.967 3.661 25.189-9.617 38.467s-30.5 17.583-38.467 9.617c-7.967-7.967-3.661-25.189 9.617-38.467s30.5-17.583 38.467-9.617zm-89 279c-7.967-7.967-25.189-3.661-38.467 9.617s-17.583 30.5-9.616 38.466c7.967 7.967 25.189 3.661 38.467-9.617s17.582-30.499 9.616-38.466z" fill="#ffa90b"/><path d="m415.542 157.958c6.939 6.939 4.567 20.898-4.933 33.158-7.876 5.445-18.804 4.604-25.719-2.262-.041-.041-.082-.081-.122-.122-.041-.041-.081-.082-.122-.123-6.866-6.915-7.707-17.842-2.263-25.718 12.26-9.5 26.22-11.871 33.159-4.933zm-89 279c-6.938-6.939-20.898-4.568-33.158 4.933-5.444 7.876-4.603 18.804 2.263 25.718.041.041.081.082.122.123s.082.081.123.122c6.915 6.866 17.842 7.708 25.719 2.262 9.498-12.259 11.869-26.219 4.931-33.158z" fill="#ffc14f"/><path d="m252.582 280c0 11.046-8.954 20-20 20s-20-8.954-20-20 8.954-20 20-20 20 8.954 20 20zm61.333 20c11.046 0 20-8.954 20-20s-8.954-20-20-20-20 8.954-20 20 8.954 20 20 20zm-244-40c-11.046 0-20 8.954-20 20s8.954 20 20 20 20-8.954 20-20-8.954-20-20-20zm81.333 0c-11.046 0-20 8.954-20 20s8.954 20 20 20 20-8.954 20-20-8.954-20-20-20zm81.334 120c-11.046 0-20 8.954-20 20s8.954 20 20 20 20-8.954 20-20-8.955-20-20-20zm81.333 0c-11.046 0-20 8.954-20 20s8.954 20 20 20 20-8.954 20-20-8.954-20-20-20zm-244 0c-11.046 0-20 8.954-20 20s8.954 20 20 20 20-8.954 20-20-8.954-20-20-20zm81.333 0c-11.046 0-20 8.954-20 20s8.954 20 20 20 20-8.954 20-20-8.954-20-20-20zm210.252 84c0 11.046-8.954 20-20 20s-20-8.954-20-20 8.954-20 20-20 20 8.954 20 20z" fill="#c8e2fd"/><path d="m252.582 280c0 2.392-.42 4.685-1.19 6.811-2.126.77-4.419 1.189-6.81 1.189-11.046 0-20-8.954-20-20 0-2.392.42-4.685 1.19-6.811 2.126-.77 4.419-1.189 6.81-1.189 11.045 0 20 8.954 20 20zm73.333 8c2.391 0 4.685-.42 6.81-1.189.77-2.126 1.19-4.419 1.19-6.811 0-11.046-8.954-20-20-20-2.391 0-4.685.42-6.81 1.189-.77 2.126-1.19 4.419-1.19 6.811 0 11.046 8.954 20 20 20zm-256-28c-2.391 0-4.685.42-6.81 1.189-.77 2.126-1.19 4.419-1.19 6.811 0 11.046 8.954 20 20 20 2.391 0 4.685-.42 6.81-1.189.77-2.126 1.19-4.419 1.19-6.811 0-11.046-8.954-20-20-20zm81.333 0c-2.391 0-4.685.42-6.81 1.189-.77 2.126-1.19 4.419-1.19 6.811 0 11.046 8.954 20 20 20 2.391 0 4.685-.42 6.81-1.189.77-2.126 1.19-4.419 1.19-6.811 0-11.046-8.954-20-20-20zm81.334 120c-2.391 0-4.685.42-6.81 1.189-.77 2.126-1.19 4.419-1.19 6.811 0 11.046 8.954 20 20 20 2.391 0 4.685-.42 6.81-1.189.77-2.126 1.19-4.419 1.19-6.811 0-11.046-8.955-20-20-20zm81.333 0c-2.391 0-4.685.42-6.81 1.189-.77 2.126-1.19 4.419-1.19 6.811 0 11.046 8.954 20 20 20 2.391 0 4.685-.42 6.81-1.189.77-2.126 1.19-4.419 1.19-6.811 0-11.046-8.954-20-20-20zm-244 0c-2.391 0-4.685.42-6.81 1.189-.77 2.126-1.19 4.419-1.19 6.811 0 11.046 8.954 20 20 20 2.391 0 4.685-.42 6.81-1.189.77-2.126 1.19-4.419 1.19-6.811 0-11.046-8.954-20-20-20zm81.333 0c-2.391 0-4.685.42-6.81 1.189-.77 2.126-1.19 4.419-1.19 6.811 0 11.046 8.954 20 20 20 2.391 0 4.685-.42 6.81-1.189.77-2.126 1.19-4.419 1.19-6.811 0-11.046-8.954-20-20-20zm210.252 84c0 2.392-.42 4.685-1.19 6.811-2.126.77-4.419 1.189-6.81 1.189-11.046 0-20-8.954-20-20 0-2.392.42-4.685 1.19-6.811 2.126-.77 4.419-1.189 6.81-1.189 11.046 0 20 8.954 20 20z" fill="#e9f3fe"/></g></svg>