<svg id="Capa_1" enable-background="new 0 0 512 512" height="512" viewBox="0 0 512 512" width="512" xmlns="http://www.w3.org/2000/svg"><g><path d="m0 256c0-141.2 114.315-255.7 255.445-255.999 141.203-.299 255.353 112.59 256.545 253.788.632 74.806-30.825 142.274-81.433 189.471-5.321 4.962-13.413 5.342-19.192.923-43.084-32.947-96.939-52.52-155.365-52.52-58.669 0-112.728 19.736-155.901 52.93-5.452 4.192-13.102 3.818-18.144-.858-50.409-46.754-81.955-113.56-81.955-187.735z" fill="#ffc14f"/><path d="m477.332 240.618c0 108.983-88.349 197.332-197.332 197.332s-197.332-88.349-197.332-197.332 88.349-197.332 197.332-197.332 197.332 88.348 197.332 197.332z" fill="#ffcd71"/><path d="m310.667 213.625v186.196c0 29.949-24.155 54.461-54.104 54.526-.188 0-.375.001-.563.001-57.351 0-110.298-18.859-152.977-50.715-13.829-10.323-22.023-26.53-22.023-43.787v-146.221c0-25.163 7.93-49.824 22.893-71.188l14.881-21.248c14.962-21.365 22.893-46.026 22.893-71.189h108.333c0 25.163 7.93 49.824 22.893 71.188l14.881 21.248c14.962 21.365 22.893 46.026 22.893 71.189z" fill="#717ed6"/><path d="m183.39 50c0 25.163-7.93 49.824-22.893 71.188l-14.88 21.248c-14.963 21.365-22.893 46.025-22.893 71.188v250.747c0 4.485-5.005 7.151-8.734 4.66-11.714-7.824-22.747-16.589-32.99-26.187v-229.219c0-25.163 7.931-49.824 22.893-71.188l14.881-21.248c14.962-21.365 22.893-46.026 22.893-71.189z" fill="#5766ce"/><path d="m242.34 50v20c0 5.523-4.477 10-10 10-5.523 0-10 4.477-10 10v30c0 5.743-4.842 10.355-10.666 9.979-5.315-.344-9.334-4.995-9.334-10.321v-69.658z" fill="#fff5f5"/><path d="m177.255 10v40c0 5.523-4.477 10-10 10h-27.422c-5.523 0-10-4.477-10-10v-40c0-5.523 4.477-10 10-10h27.422c5.523 0 10 4.477 10 10z" fill="#93e2c6"/><path d="m261.833 10v40c0 5.523-4.477 10-10 10h-92c-5.523 0-10-4.477-10-10v-40c0-5.523 4.477-10 10-10h92c5.523 0 10 4.477 10 10z" fill="#adebdc"/><path d="m190.833 15v30c0 2.761-2.239 5-5 5s-5-2.239-5-5v-30c0-2.761 2.239-5 5-5 2.762 0 5 2.239 5 5zm-25-5c-2.761 0-5 2.239-5 5v30c0 2.761 2.239 5 5 5s5-2.239 5-5v-30c0-2.761-2.238-5-5-5zm-20 0c-2.761 0-5 2.239-5 5v30c0 2.761 2.239 5 5 5s5-2.239 5-5v-30c0-2.761-2.238-5-5-5zm100 0c-2.761 0-5 2.239-5 5v30c0 2.761 2.239 5 5 5s5-2.239 5-5v-30c0-2.761-2.238-5-5-5zm-20 0c-2.761 0-5 2.239-5 5v30c0 2.761 2.239 5 5 5s5-2.239 5-5v-30c0-2.761-2.238-5-5-5zm-20 0c-2.761 0-5 2.239-5 5v30c0 2.761 2.239 5 5 5s5-2.239 5-5v-30c0-2.761-2.238-5-5-5z" fill="#24d3b5"/><path d="m278.167 230.833v243.443c0 21.25-17.767 38.299-38.987 37.177-.168-.009-.324-.018-.467-.028-46.157-3.078-88.966-18.389-125.213-42.72v-232.872c0-2.761 2.239-5 5-5z" fill="#ffd993"/><path d="m144.108 398.815v-167.982h134.059v168.14c0 47.882-48.986 80.537-92.946 61.558-.431-.186-.861-.373-1.291-.562-24.243-10.626-39.822-34.685-39.822-61.154z" fill="#ffe1aa"/><path d="m155.539 236.484v36.388h-42.039v-37.039c0-2.761 2.239-5 5-5h31.388c3.121 0 5.651 2.53 5.651 5.651z" fill="#ffe7c0"/><path d="m269.851 272.872h-125.743v-37.039c0-2.761 2.239-5 5-5h120.743z" fill="#fff5f5"/><path d="m431 185v257.846c-8.531 7.993-17.61 15.409-27.174 22.185-3.527 2.499-13.862-3.842-17.518-1.52-30.525 19.385-65.433 32.485-102.904 37.479-7.976 1.063-9.327 10.512-17.518 10.823-3.28.125-6.576.187-9.886.187-5.81 0-11.574-.193-17.287-.574v-326.426c0-2.761 2.239-5 5-5h182.287c2.761 0 5 2.239 5 5z" fill="#24d3b5"/><path d="m431 185v193.856c0 39.292-31.852 71.144-71.143 71.144-39.292 0-71.144-31.852-71.144-71.144v-198.856h137.287c2.761 0 5 2.239 5 5z" fill="#93e2c6"/><path d="m403.826 269.934v195.097c-39.244 27.804-86.661 44.834-137.94 46.782v-216.813c0-2.761 2.239-5 5-5h1.986c19.339 0 38.521-3.84 56.629-11.337l17.697-7.326c14.877-6.16 30.48-9.85 46.298-10.971 5.574-.395 10.33 3.98 10.33 9.568z" fill="#ffe7c0"/><path d="m347.198 271.337c16.494-6.829 33.879-10.623 51.463-11.246 2.824-.1 5.166 2.18 5.166 5.006v169.692c-12.103 9.527-27.373 15.211-43.97 15.211-39.292 0-71.144-31.852-71.144-71.144v-89.718c13.928-1.518 27.642-5.033 40.788-10.476z" fill="#fff5f5"/><path d="m284.793 254.747c-5.052-5.052-6.242-12.796-2.941-19.132l12.808-24.581c.718-1.378 2.69-1.378 3.409 0l12.808 24.581c3.301 6.336 2.11 14.08-2.941 19.132-6.392 6.39-16.752 6.39-23.143 0zm52.947-62.487c-8.158-8.158-10.08-20.664-4.75-30.895l20.683-39.696c1.16-2.226 4.345-2.226 5.504 0l20.682 39.696c5.331 10.231 3.408 22.738-4.75 30.895-10.318 10.32-27.049 10.32-37.369 0z" fill="#fff5f5"/><path d="m312.007 238.371c1.757 5.712.266 12.038-4.072 16.376-6.39 6.39-16.751 6.39-23.141 0-4.338-4.338-5.829-10.664-4.072-16.376.766 2.497 2.135 4.83 4.072 6.767 6.39 6.39 16.751 6.39 23.141 0 1.937-1.937 3.306-4.27 4.072-6.767zm69.68-72.556c-1.237 4.034-3.448 7.801-6.576 10.929-10.32 10.319-27.051 10.319-37.37 0-3.128-3.128-5.339-6.895-6.576-10.929-2.837 9.226-.43 19.439 6.576 26.445 10.32 10.32 27.051 10.32 37.37 0 7.006-7.006 9.413-17.219 6.576-26.445z" fill="#ffe7c0"/></g></svg>