<svg id="Capa_1" enable-background="new 0 0 512 512" height="512" viewBox="0 0 512 512" width="512" xmlns="http://www.w3.org/2000/svg"><g><path d="m512 256c0 141.385-114.615 256-256 256s-256-114.615-256-256 114.615-256 256-256 256 114.615 256 256z" fill="#199a8e"/><path d="m490.197 248.955c0 105.398-85.442 190.84-190.84 190.84s-190.839-85.442-190.839-190.84 85.442-190.84 190.839-190.84 190.84 85.443 190.84 190.84z" fill="#20b7a1"/><path d="m180.304 440.909c-7.442 7.442-17.546 10.6-27.248 9.474-1.793-.208-3.231-1.647-3.439-3.439-1.126-9.701 2.031-19.806 9.474-27.248 7.442-7.442 17.546-10.6 27.248-9.474 1.793.208 3.231 1.646 3.439 3.439 1.126 9.702-2.032 19.806-9.474 27.248zm-3.965-301.131c1.793-.208 3.231-1.646 3.439-3.439 1.126-9.702-2.031-19.806-9.474-27.248-7.442-7.442-17.546-10.6-27.248-9.474-1.793.208-3.231 1.647-3.439 3.439-1.126 9.701 2.031 19.805 9.474 27.248 7.442 7.443 17.546 10.6 27.248 9.474z" fill="#ffe7c0"/><path d="m321.288 270.627c-17.458-1.981-34.766-5.585-51.681-10.814-12.888-3.984-22.997-14.093-26.981-26.981-14.846-48.026-16.6-99.229-5.261-148.005 7.292-31.367 26.874-55.637 51.851-70.031 1.186-.683 39.655 60.142 63.814 88.132-13.767 13.787-24.11 31.561-28.977 52.497-8.79 37.811-9.712 77.083-2.765 115.202z" fill="#554640"/><path d="m487.644 213.222c-14.394 24.977-38.665 44.559-70.032 51.851-37.379 8.69-76.184 9.69-113.891 3.002-6.689-37.708-5.688-76.512 3.002-113.892 5.911-25.428 19.9-46.192 38.291-60.813 9.459 11.601 19.594 22.834 30.407 33.647 34.381 34.382 112.906 85.02 112.223 86.205z" fill="#69564e"/><path d="m454.587 99.743c-40.651-2.567-81.107 3.657-118.687 17.592-23.565-30.976-39.126-66.094-46.684-102.541 30.964-17.844 70.218-20.508 104.627-2.692 5.158 2.67 9.189 7.072 11.558 12.374 3.96 8.86 8.412 17.602 13.366 26.192 9.689 16.799 20.842 32.228 33.205 46.217.86.972 1.732 1.925 2.615 2.858z" fill="#7c665d"/><path d="m487.644 213.223c-47.199-9.787-92.169-32.996-128.801-69.627-11.005-11.005-20.798-22.763-29.381-35.108 34.147-40.586 95.65-53.008 144.074-20.95 2.14 1.417 4.265 2.866 6.375 4.348 1.481 2.109 2.931 4.234 4.347 6.375 24.281 36.673 23.046 80.849 3.386 114.962z" fill="#8f766c"/><path d="m491.048 109.993c-.392.652-.855 1.248-1.389 1.782-9.763 9.763-39.839-4.483-67.175-31.82-27.337-27.337-41.583-57.412-31.82-67.175.534-.534 1.13-.997 1.782-1.389 3.98 1.989 7.898 4.249 11.734 6.789 15.567 10.306 30.338 22.315 44.051 36.028s25.722 28.484 36.028 44.051c2.54 3.836 4.8 7.754 6.789 11.734z" fill="#9f887e"/><path d="m491.048 109.993c-.392.652-.855 1.248-1.389 1.782-9.763 9.763-39.839-4.483-67.175-31.82-3.502-3.502-6.79-7.05-9.84-10.594 20.679-.188 41.802 5.537 60.893 18.175 2.14 1.417 4.265 2.866 6.375 4.348 1.481 2.109 2.931 4.234 4.347 6.375 2.54 3.836 4.8 7.754 6.789 11.734z" fill="#bcaca5"/><path d="m148.897 378.28c-33.401-9.228-63.324-35.315-75.198-71.793-36.478-11.873-62.566-41.797-71.793-75.197-10.62-38.44 24.876-73.936 63.316-63.316 33.401 9.228 63.324 35.315 75.198 71.793 36.478 11.874 62.565 41.797 71.793 75.198 10.62 38.439-24.876 73.935-63.316 63.315z" fill="#f29500"/><path d="m204.748 358.138c-37.966-19.663-73.595-45.417-105.44-77.261-31.845-31.845-57.598-67.474-77.26-105.439 11.843-8.352 27.256-11.862 43.174-7.464 33.401 9.227 63.324 35.315 75.198 71.792 36.477 11.874 62.565 41.797 71.793 75.198 4.397 15.918.887 31.331-7.465 43.174z" fill="#ffb52d"/><path d="m71.048 200.806c6.503 6.503 9.139 14.411 5.888 17.663-3.252 3.252-11.16.616-17.663-5.888-6.503-6.503-9.139-14.411-5.888-17.663s11.16-.615 17.663 5.888zm94.202 94.202c-6.503-6.503-14.411-9.139-17.663-5.888-3.252 3.252-.616 11.16 5.888 17.663s14.411 9.139 17.663 5.888c3.251-3.252.615-11.16-5.888-17.663zm-79.483-38.27c-4.877 4.877-.924 16.739 8.831 26.494s21.617 13.709 26.494 8.832.924-16.739-8.831-26.494-21.616-13.709-26.494-8.832z" fill="#f29500"/><path d="m419.939 375.781c-10.776 42.777-44.607 81.293-92.169 94.544-25.673 7.153-51.799 10.998-77.68 11.501-5.598.109-10.197-4.491-10.089-10.088.503-25.881 4.348-52.007 11.501-77.68 13.251-47.562 51.767-81.394 94.544-92.169 44.544-11.22 85.114 29.349 73.893 73.892z" fill="#ffc14f"/><path d="m419.939 375.781c-10.776 42.778-44.607 81.293-92.169 94.545-24.235 6.752-48.874 10.556-73.329 11.384 18.654-33.332 42.152-64.683 70.493-93.023 25.737-25.737 53.954-47.478 83.884-65.227 10.992 13.978 16.047 32.767 11.121 52.321z" fill="#ffcd71"/><path d="m325.226 445.187c-11.021 3.924-21.109 3.865-22.532-.132s6.357-10.418 17.378-14.342 21.109-3.865 22.532.132-6.357 10.418-17.378 14.342zm30.481-115.142c-3.227-4.966-16.943-1.78-30.635 7.117-13.693 8.897-22.177 20.135-18.95 25.101s16.943 1.78 30.635-7.117 22.177-20.135 18.95-25.101zm32.983 39.542c-4.188-4.188-12.328-2.837-18.182 3.017s-7.204 13.994-3.017 18.182c4.188 4.188 12.328 2.837 18.182-3.017s7.205-13.994 3.017-18.182zm-60.21 14.667c-4.188-4.188-12.328-2.837-18.182 3.017s-7.204 13.994-3.017 18.182c4.188 4.188 12.328 2.837 18.182-3.017s7.205-13.995 3.017-18.182z" fill="#ffb52d"/></g></svg>