<svg id="Capa_1" enable-background="new 0 0 512 512" height="512" viewBox="0 0 512 512" width="512" xmlns="http://www.w3.org/2000/svg"><g><path d="m512 256c0 141.385-114.615 256-256 256s-256-114.615-256-256 114.615-256 256-256 256 114.615 256 256z" fill="#faa598"/><path d="m486.745 233.778c0 111.268-90.2 201.468-201.468 201.468s-201.468-90.2-201.468-201.468 90.2-201.468 201.468-201.468c111.267 0 201.468 90.2 201.468 201.468z" fill="#fbb3a8"/><path d="m228.2 409.422c2.228 18.972 2.38 37.906.498 56.426-.948 9.327-9.74 15.745-18.913 13.806-18.213-3.851-36.199-9.767-53.59-17.67-18.594-8.45-33.572-21.63-44.316-37.24-9.395-13.65-12.176-27.558-10.319-40.281 1.067-7.316-1.917-14.56-7.883-18.927-13.278-9.722-23.453-24.496-27.618-42.364-3.335-14.307-2.338-28.538 2.099-41.132 2.493-7.076.634-15.048-4.731-20.292-9.549-9.334-16.736-21.657-20.071-35.964-4.458-19.122-1.176-38.108 7.713-53.233 3.261-5.548 3.611-12.339.863-18.158-4.216-8.928-6.125-19.598-4.724-31.868 2.151-18.828 9.181-37.499 21.625-53.694 12.265-15.962 26.15-30.286 41.317-42.69 5.962-4.875 14.821-3.614 19.184 2.732 11.101 16.144 20.436 33.775 27.756 52.527 7.427 19.025 8.965 38.917 5.774 57.597-.944 5.526-2.452 10.545-4.428 15.071-2.626 6.013-2.076 13.009 1.494 18.514 4.546 7.01 8.002 14.981 10.032 23.687 3.335 14.307 2.338 28.538-2.099 41.133-2.493 7.076-.634 15.048 4.73 20.292 9.549 9.334 16.736 21.658 20.071 35.964 2.764 11.856 2.553 23.66-.126 34.524-1.708 6.927.463 14.245 5.748 19.039 2.77 2.512 5.43 5.386 7.951 8.646 11.593 14.988 19.581 33.271 21.963 53.555zm274.218-377.672c-17.2-3.251-34.978-4.522-52.945-3.743-18.23.791-35.044 6.707-49.161 16.052-9.2 6.09-15.404 13.527-19.09 21.54-2.403 5.223-7.249 8.885-12.919 9.842-15.455 2.607-30.331 11.27-40.853 25.306-7.873 10.501-12.175 22.499-13.075 34.394-.506 6.684-4.893 12.535-11.166 14.895-11.166 4.2-21.476 11.694-29.348 22.195-9.832 13.115-14.095 28.564-13.118 43.234.439 6.591-2.802 12.794-8.421 16.267-9.771 6.039-17.689 15.932-21.631 30.202-4.508 16.319-4.92 34.139-.019 51.715 4.583 16.439 10.87 32.144 18.698 46.817 3.943 7.39 13.385 9.718 20.311 5.008 13.752-9.352 26.619-20.334 38.319-32.758 12.51-13.283 20.43-29.252 24.025-45.796.782-3.597 1.22-7.068 1.348-10.407.243-6.37 4.003-12.059 9.724-14.87 8.971-4.409 17.169-11.046 23.693-19.748 7.872-10.501 12.175-22.499 13.075-34.394.506-6.684 4.892-12.535 11.166-14.895 11.166-4.2 21.476-11.694 29.348-22.195 4.791-6.39 8.259-13.334 10.443-20.472 1.715-5.605 6.186-10.001 11.809-11.659 4.232-1.248 8.532-3.1 12.855-5.629 14.613-8.548 27.34-21.028 36.09-37.04 8.624-15.781 15.324-32.297 19.993-49.168 1.836-6.629-2.39-13.416-9.151-14.693z" fill="#199a8e"/><path d="m228.2 409.422c2.035 17.33 2.338 34.627.941 51.607-8.658-2.886-17.219-6.247-25.639-10.073-18.593-8.45-33.572-21.63-44.316-37.24-9.395-13.65-12.176-27.559-10.319-40.281 1.067-7.317-1.917-14.56-7.883-18.928-13.278-9.721-23.453-24.496-27.618-42.364-3.335-14.307-2.338-28.538 2.099-41.132 2.493-7.076.634-15.048-4.731-20.292-9.549-9.334-16.736-21.657-20.071-35.964-4.458-19.121-1.177-38.107 7.712-53.232 3.261-5.549 3.611-12.34.863-18.16-4.216-8.928-6.125-19.598-4.723-31.867 2.151-18.828 9.181-37.499 21.625-53.695 5.737-7.467 11.829-14.575 18.241-21.296 8.907 14.019 16.527 29.056 22.71 44.894 7.427 19.025 8.965 38.917 5.774 57.597-.944 5.526-2.452 10.545-4.428 15.071-2.626 6.013-2.077 13.009 1.494 18.514 4.547 7.01 8.002 14.982 10.032 23.687 3.335 14.307 2.338 28.538-2.099 41.132-2.493 7.076-.634 15.048 4.731 20.292 9.549 9.334 16.736 21.658 20.071 35.964 2.764 11.855 2.553 23.659-.125 34.523-1.708 6.928.463 14.246 5.748 19.039 2.77 2.512 5.43 5.386 7.95 8.645 11.591 14.992 19.579 33.275 21.961 53.559zm255.996-355.385c-18.23.79-35.044 6.707-49.161 16.052-9.2 6.09-15.404 13.526-19.09 21.539-2.403 5.224-7.25 8.886-12.921 9.843-15.455 2.608-30.33 11.271-40.851 25.305-7.872 10.501-12.175 22.499-13.075 34.394-.506 6.684-4.892 12.535-11.166 14.895-11.166 4.2-21.476 11.694-29.348 22.195-9.832 13.115-14.095 28.564-13.118 43.234.439 6.591-2.802 12.794-8.421 16.267-9.771 6.039-17.69 15.932-21.631 30.202-4.507 16.319-4.92 34.139-.019 51.715 2.219 7.96 4.838 15.747 7.838 23.329 12.42-8.799 24.08-18.944 34.768-30.292 12.51-13.283 20.43-29.252 24.025-45.796.782-3.597 1.22-7.068 1.348-10.406.243-6.37 4.003-12.059 9.724-14.871 8.971-4.409 17.169-11.046 23.692-19.748 7.872-10.501 12.175-22.499 13.075-34.394.506-6.684 4.893-12.535 11.166-14.895 11.166-4.2 21.476-11.694 29.348-22.195 4.791-6.39 8.259-13.334 10.443-20.472 1.715-5.605 6.186-10.001 11.809-11.659 4.232-1.248 8.532-3.1 12.855-5.629 14.613-8.548 27.34-21.028 36.09-37.04 7.284-13.329 13.195-27.182 17.669-41.33-8.281-.523-16.644-.608-25.049-.243z" fill="#20b7a1"/><path d="m76.33 112.273c3.115-21.871 18.304-37.797 33.926-35.572s25.761 21.758 22.646 43.629-18.304 37.797-33.926 35.572-25.761-21.758-22.646-43.629zm39.41 137.708c15.367-3.583 23.76-23.927 18.744-45.442-5.015-21.515-21.539-36.052-36.907-32.469s-23.759 23.927-18.744 45.442c5.016 21.515 21.539 36.052 36.907 32.469zm22.703 97.389c15.368-3.582 23.759-23.927 18.744-45.442-5.016-21.515-21.539-36.051-36.907-32.469-15.367 3.583-23.76 23.928-18.744 45.442 5.016 21.515 21.54 36.052 36.907 32.469zm2.275 21.972c-12.745 9.303-12.518 31.31.507 49.154 13.025 17.843 33.916 24.766 46.661 15.462s12.518-31.31-.507-49.154c-13.026-17.844-33.916-24.766-46.661-15.462zm327.167-308.472c-7.453-11.967-27.075-13.209-43.829-2.776s-24.293 28.593-16.841 40.559c7.453 11.967 27.075 13.209 43.829 2.776s24.294-28.592 16.841-40.559zm-73.546 90.02c11.839-15.792 12.292-35.448 1.012-43.905-11.28-8.456-30.021-2.509-41.86 13.282s-12.292 35.448-1.012 43.905 30.021 2.51 41.86-13.282zm-52.578 27.579c-11.28-8.456-30.021-2.51-41.86 13.282s-12.292 35.449-1.012 43.905 30.021 2.51 41.86-13.282 12.292-35.449 1.012-43.905zm-56.597 71.366c-13.688-3.375-28.614 9.423-33.339 28.586s2.54 37.433 16.228 40.808 28.614-9.423 33.339-28.586-2.54-37.433-16.228-40.808zm123.407 50.165c-15.779 0-28.571 17.909-28.571 40s12.792 40 28.571 40c15.78 0 28.572-17.909 28.572-40s-12.792-40-28.572-40z" fill="#168c80"/><path d="m76.33 112.273c3.115-21.871 18.304-37.797 33.926-35.572 4.096.583 7.815 2.357 11.017 5.051-10.768 4.762-19.639 17.661-21.937 33.798-2.298 16.136 2.619 30.999 11.629 38.578-3.827 1.692-7.893 2.357-11.989 1.774-15.622-2.225-25.761-21.758-22.646-43.629zm39.41 137.708c4.029-.939 7.579-3.031 10.533-5.995-11.143-3.802-21.108-15.876-24.809-31.75-3.7-15.873-.102-31.11 8.211-39.447-3.96-1.351-8.069-1.658-12.098-.719-15.367 3.583-23.759 23.928-18.744 45.442 5.016 21.515 21.539 36.052 36.907 32.469zm22.703 97.389c4.029-.939 7.579-3.031 10.533-5.995-11.143-3.802-21.108-15.876-24.808-31.75-3.7-15.873-.102-31.11 8.211-39.447-3.96-1.351-8.069-1.658-12.098-.719-15.367 3.583-23.759 23.928-18.744 45.442 5.015 21.515 21.539 36.052 36.906 32.469zm21.551 57.424c-9.61-13.165-12.252-28.595-7.859-39.519-4.173.304-8.075 1.627-11.417 4.067-12.745 9.303-12.518 31.31.507 49.154 13.025 17.843 33.916 24.766 46.661 15.462 3.342-2.439 5.791-5.753 7.352-9.635-11.743.855-25.634-6.365-35.244-19.529zm307.891-343.924c-7.453-11.967-27.075-13.209-43.829-2.776s-24.293 28.593-16.841 40.559c1.954 3.138 4.745 5.538 8.102 7.184.009-10.519 7.353-22.422 19.714-30.12s26.283-9.039 35.727-4.408c.004-3.737-.919-7.301-2.873-10.439zm-66.076 54.806c-1.351-3.486-3.501-6.473-6.459-8.691-11.28-8.456-30.021-2.509-41.859 13.282-11.839 15.792-12.292 35.448-1.012 43.905 2.958 2.217 6.428 3.444 10.153 3.763-3.801-9.808-1.264-23.563 7.47-35.214 8.735-11.651 21.227-17.943 31.707-17.045zm-60.048 62.793c-11.28-8.456-30.021-2.509-41.86 13.282-11.839 15.792-12.292 35.449-1.012 43.905 2.958 2.217 6.428 3.444 10.153 3.763-3.8-9.808-1.264-23.563 7.47-35.214 8.735-11.651 21.227-17.942 31.707-17.045-1.349-3.486-3.5-6.473-6.458-8.691zm-56.597 71.366c-13.688-3.375-28.614 9.423-33.339 28.586s2.541 37.433 16.228 40.808c3.589.885 7.263.657 10.816-.505-7.332-7.543-10.373-21.195-6.887-35.333s12.526-24.811 22.523-28.081c-2.605-2.681-5.752-4.59-9.341-5.475zm135.026 53.612c-3.55-2.215-7.482-3.447-11.619-3.447-15.779 0-28.571 17.909-28.571 40s12.792 40 28.571 40c4.137 0 8.069-1.232 11.619-3.447-9.989-6.233-16.952-20.254-16.952-36.553s6.964-30.321 16.952-36.553z" fill="#126e66"/><path d="m361.931 446.36c-8.229 8.229-24.239 5.561-35.76-5.96-11.521-11.52-14.189-27.531-5.96-35.759 8.229-8.229 24.239-5.561 35.759 5.96 11.522 11.52 14.19 27.53 5.961 35.759z" fill="#20b7a1"/><path d="m366.193 438.503c-.696 3.006-2.104 5.699-4.262 7.857-8.229 8.229-24.239 5.561-35.76-5.96-11.52-11.52-14.189-27.531-5.96-35.759 2.157-2.158 4.85-3.566 7.857-4.262-1.959 8.459 1.722 19.403 10.221 27.903 8.501 8.499 19.444 12.18 27.904 10.221z" fill="#199a8e"/></g></svg>