<svg id="Capa_1" enable-background="new 0 0 512 512" height="512" viewBox="0 0 512 512" width="512" xmlns="http://www.w3.org/2000/svg"><g><path d="m0 256c0-141.384 114.615-256 255.999-256 141.529 0 256.681 115.735 255.998 257.262-.441 91.338-48.716 171.369-121.059 216.328-8.274 5.142-18.566 5.861-27.404 1.764-32.695-15.154-69.127-23.612-107.534-23.612s-74.838 8.458-107.533 23.612c-8.738 4.05-18.954 3.474-27.14-1.599-72.824-45.134-121.327-125.78-121.327-217.755z" fill="#55a4f9"/><path d="m457.553 256c0 111.315-90.238 201.553-201.553 201.553s-201.553-90.238-201.553-201.553 90.238-201.553 201.553-201.553 201.553 90.238 201.553 201.553z" fill="#76b6fa"/><path d="m391 280v74.566l-1.436 1.861c-3.4 4.407-5.245 9.816-5.245 15.383 0 6.166 2.263 12.118 6.359 16.728l.322.362v55.468l-1.806 2.134c-4.223 4.989-3.399 12.499 1.806 16.454v10.596c-39.192 24.371-85.452 38.448-135 38.448-15.281 0-30.25-1.339-44.796-3.906-2.349-.415-3.282-3.552-5.609-4.03-6.774-1.393-13.45-3.052-20.017-4.968-3.27-.954-7.919.719-11.133-.361-5.482-1.841-10.882-3.863-16.191-6.058l-.054-.022c-3.148-1.303-5.2-4.374-5.2-7.781v-204.874z" fill="#fb5858"/><path d="m160 280v213.391c-13.622-5.514-26.661-12.167-39-19.84v-16.868l5.617-19.641-5.617-14.693v-142.349z" fill="#f44545"/><path d="m391 320.04v18.587l-270 67.783v-18.587zm-270 153.512c7.072 4.397 14.373 8.459 21.883 12.165l248.117-62.29v-18.587l-270 67.783z" fill="#f44545"/><path d="m391 354.566v34.334l-231.807 58.195c-3.144.789-6.193-1.588-6.193-4.83v-24.065c0-2.283 1.553-4.274 3.768-4.83zm-179.795 153.527 179.795-45.137v-18.587l-216.555 54.366c11.888 3.992 24.165 7.136 36.76 9.358z" fill="#f87b67"/><path d="m160 412.559v34.334l-39 9.791v-34.334z" fill="#f76c57"/><path d="m160 481.419-17.117 4.297c-7.51-3.705-14.811-7.767-21.883-12.165v-.929l39-9.791zm-39-93.596v18.587l39-9.791v-18.587z" fill="#d63030"/><path d="m209.681 15v270c0 8.284-6.716 15-15 15h-49.5c-8.284 0-15-6.716-15-15v-270c0-8.284 6.716-15 15-15h49.5c8.284 0 15 6.716 15 15z" fill="#69564e"/><path d="m381.819 15v270c0 8.284-6.716 15-15 15h-181.819c-8.284 0-15-6.716-15-15v-270c0-8.284 6.716-15 15-15h181.819c8.284 0 15 6.716 15 15z" fill="#7c665d"/><path d="m280.5 135v60c0 2.761-2.239 5-5 5h-39c-2.761 0-5-2.239-5-5v-60c0-2.761 2.239-5 5-5h39c2.761 0 5 2.239 5 5zm-5 95h-39c-2.761 0-5 2.239-5 5v60c0 2.761 2.239 5 5 5h39c2.761 0 5-2.239 5-5v-60c0-2.761-2.239-5-5-5zm-75.5-200h-39c-2.761 0-5 2.239-5 5v60c0 2.761 2.239 5 5 5h39c2.761 0 5-2.239 5-5v-60c0-2.761-2.239-5-5-5zm0 100h-39c-2.761 0-5 2.239-5 5v60c0 2.761 2.239 5 5 5h39c2.761 0 5-2.239 5-5v-60c0-2.761-2.239-5-5-5zm0 100h-39c-2.761 0-5 2.239-5 5v60c0 2.761 2.239 5 5 5h39c2.761 0 5-2.239 5-5v-60c0-2.761-2.239-5-5-5zm151-200h-39c-2.761 0-5 2.239-5 5v60c0 2.761 2.239 5 5 5h39c2.761 0 5-2.239 5-5v-60c0-2.761-2.239-5-5-5zm0 100h-39c-2.761 0-5 2.239-5 5v60c0 2.761 2.239 5 5 5h39c2.761 0 5-2.239 5-5v-60c0-2.761-2.239-5-5-5zm-75.5-100h-39c-2.761 0-5 2.239-5 5v60c0 2.761 2.239 5 5 5h39c2.761 0 5-2.239 5-5v-60c0-2.761-2.239-5-5-5zm75.5 200h-39c-2.761 0-5 2.239-5 5v60c0 2.761 2.239 5 5 5h39c2.761 0 5-2.239 5-5v-60c0-2.761-2.239-5-5-5z" fill="#69564e"/><path d="m200 122.5h-39c-6.893 0-12.5 5.607-12.5 12.5v60c0 6.893 5.607 12.5 12.5 12.5h39c6.893 0 12.5-5.607 12.5-12.5v-60c0-6.893-5.607-12.5-12.5-12.5zm-2.5 70h-34v-55h34zm2.5 30h-39c-6.893 0-12.5 5.607-12.5 12.5v60c0 6.893 5.607 12.5 12.5 12.5h39c6.893 0 12.5-5.607 12.5-12.5v-60c0-6.893-5.607-12.5-12.5-12.5zm-2.5 70h-34v-55h34zm153.5-270h-39c-6.893 0-12.5 5.607-12.5 12.5v60c0 6.893 5.607 12.5 12.5 12.5h39c6.893 0 12.5-5.607 12.5-12.5v-60c0-6.893-5.607-12.5-12.5-12.5zm-2.5 70h-34v-55h34zm-73 130h-39c-6.893 0-12.5 5.607-12.5 12.5v60c0 6.893 5.607 12.5 12.5 12.5h39c6.893 0 12.5-5.607 12.5-12.5v-60c0-6.893-5.607-12.5-12.5-12.5zm-2.5 70h-34v-55h34zm78-70h-39c-6.893 0-12.5 5.607-12.5 12.5v60c0 6.893 5.607 12.5 12.5 12.5h39c6.893 0 12.5-5.607 12.5-12.5v-60c0-6.893-5.607-12.5-12.5-12.5zm-2.5 70h-34v-55h34zm-73-170h-39c-6.893 0-12.5 5.607-12.5 12.5v60c0 6.893 5.607 12.5 12.5 12.5h39c6.893 0 12.5-5.607 12.5-12.5v-60c0-6.893-5.607-12.5-12.5-12.5zm-2.5 70h-34v-55h34zm-73-170h-39c-6.893 0-12.5 5.607-12.5 12.5v60c0 6.893 5.607 12.5 12.5 12.5h39c6.893 0 12.5-5.607 12.5-12.5v-60c0-6.893-5.607-12.5-12.5-12.5zm-2.5 70h-34v-55h34zm78-70h-39c-6.893 0-12.5 5.607-12.5 12.5v60c0 6.893 5.607 12.5 12.5 12.5h39c6.893 0 12.5-5.607 12.5-12.5v-60c0-6.893-5.607-12.5-12.5-12.5zm-2.5 70h-34v-55h34zm78 30h-39c-6.893 0-12.5 5.607-12.5 12.5v60c0 6.893 5.607 12.5 12.5 12.5h39c6.893 0 12.5-5.607 12.5-12.5v-60c0-6.893-5.607-12.5-12.5-12.5zm-2.5 70h-34v-55h34z" fill="#554640"/><path d="m216.225 343.816-68.574 23.556c-4.214 1.448-8.8-.819-10.209-5.046l-27.442-82.326 82.066-7.869z" fill="#ffa90b"/><path d="m402 280-191.562 65.804c-24.714 8.49-50.438-9.873-50.438-36.005 0-19.618 14.908-36.023 34.436-37.896l179.692-17.231c14.943-1.432 27.872 10.316 27.872 25.328z" fill="#ffb52d"/><path d="m402 280-28.404 85.213c-.879 2.636-3.739 4.051-6.368 3.148l-257.228-88.361c0-15.012 12.929-26.76 27.872-25.327z" fill="#ffc14f"/><path d="m402 280-28.404 85.213c-.879 2.636-3.739 4.051-6.368 3.148l-135.381-46.505c-11.858-4.073-19.82-15.227-19.82-27.765 0-17.321 14.918-30.877 32.16-29.223z" fill="#ffcd71"/><path d="m320 287.357v7.325c0 1.191-.531 2.321-1.449 3.081l-11 9.11c-1.48 1.226-3.623 1.226-5.103 0l-10.609-8.786c-1.133-.938-1.659-2.423-1.371-3.865l2.902-14.508c.481-2.406 2.995-3.816 5.299-2.971l18.708 6.859c1.576.577 2.623 2.077 2.623 3.755zm37.944 40.529-9.252-19.966c-1.032-2.226-3.806-3.008-5.848-1.646l-15.082 10.055c-1.224.816-1.901 2.238-1.764 3.703l1.446 15.382c.228 2.422 2.546 4.082 4.912 3.516l22.889-5.471c2.458-.588 3.762-3.28 2.699-5.573zm-40.064 59.031c-.197-3.073-3.648-4.781-6.21-3.073l-19.033 12.689c-2.428 1.619-2.361 5.209.125 6.737l20.66 12.689c2.764 1.698 6.293-.427 6.085-3.664z" fill="#554640"/></g></svg>