<svg id="Capa_1" enable-background="new 0 0 512 512" height="512" viewBox="0 0 512 512" width="512" xmlns="http://www.w3.org/2000/svg"><g><path d="m511.984 253.126c.904 82.382-37.11 155.922-96.795 203.373-3.11 2.473-7.483 2.552-10.719.244-41.873-29.861-93.12-47.427-148.47-47.427-55.103 0-106.14 17.41-147.91 47.028-3.574 2.534-8.395 2.461-11.817-.274-58.682-46.91-96.273-119.1-96.273-200.07 0-124.429 88.773-228.125 206.44-251.206 16.142 3.19 32.817 4.854 49.865 4.834 16.849-.02 33.316-1.667 49.254-4.793 116.39 23.002 205.077 125.372 206.425 248.291z" fill="#69564e"/><path d="m462.745 228.705c0 114.182-92.563 206.745-206.745 206.745s-206.745-92.564-206.745-206.745 92.563-206.745 206.745-206.745 206.745 92.563 206.745 206.745z" fill="#7c665d"/><path d="m386 97.5v154.096c0 4.642-3.763 8.404-8.404 8.404h-89.096c-11.396 0-42.665-258.045-32.5-254.452 10.165-3.593 21.104-5.548 32.5-5.548 53.848 0 97.5 43.652 97.5 97.5z" fill="#fff68e"/><path d="m191.5 97.5v154.096c0 4.642 3.763 8.404 8.404 8.404h-65.5c-4.642 0-8.404-3.763-8.404-8.404v-154.096c0-53.848 43.652-97.5 97.5-97.5 11.396 0 22.335 1.955 32.5 5.548 10.165-3.593 21.104-5.548 32.5-5.548.083 0 .167 0 .25.001-53.733.135-97.25 43.734-97.25 97.499z" fill="#ffcd71"/><path d="m171 174.25v10c0 13.807-11.193 25-25 25s-25-11.193-25-25v-10c0-13.807 11.193-25 25-25s25 11.193 25 25z" fill="#faa68e"/><path d="m201.045 299.25c-35.872 3.022-64.045 33.096-64.045 69.75v38.546c0 16.661-18.939 26.2-32.368 16.338-.132-.096-.263-.193-.395-.29-5.186-3.823-8.237-9.895-8.237-16.339v-38.005c0-38.66 31.34-70 70-70z" fill="#a7d0fc"/><path d="m416 369.25v36.968s-42.94 79.039-67.5 88.56c-28.689 11.122-59.882 17.222-92.5 17.222-33.587 0-65.664-6.468-95.052-18.227-21.08-8.434-34.948-28.798-34.948-51.502v-73.021c0-38.66 31.34-70 70-70h150c38.66 0 70 31.34 70 70z" fill="#c8e2fd"/><path d="m256 351.426c-24.348 0-44.085-19.738-44.085-44.085v-8.09h88.17v8.09c0 24.347-19.737 44.085-44.085 44.085z" fill="#a7d0fc"/><path d="m136 169.25v20c0 8.178 3.927 15.439 9.998 20-13.806-.001-24.998-11.194-24.998-25v-10c0-13.806 11.192-24.999 24.998-25-6.071 4.561-9.998 11.822-9.998 20zm230-20v-20c0-60.751-49.249-110-110-110-60.751 0-110 49.249-110 110v40c0 50.351 33.83 92.801 80 105.859v34.141c0 16.569 13.431 30 30 30s30-13.431 30-30v-34.141c33.586-9.499 60.641-34.551 72.895-66.883 2.252.666 4.637 1.024 7.105 1.024 13.807 0 25-11.193 25-25v-10c0-13.807-11.193-25-25-25z" fill="#e09380"/><path d="m366 129.25v40c0 50.792-34.425 93.543-81.216 106.195-9.023 2.439-18.545 2.439-27.568 0-46.791-12.652-81.216-55.403-81.216-106.195v-40c0-55.663 41.345-101.669 95-108.985 53.655 7.316 95 53.322 95 108.985z" fill="#faa68e"/><path d="m286.303 213.917c2.929 2.93 2.929 7.678 0 10.607-2.929 2.928-7.678 2.928-10.606 0-10.861-10.861-28.532-10.861-39.394 0-2.929 2.928-7.678 2.928-10.606 0-2.929-2.93-2.929-7.678 0-10.607 8.354-8.354 19.329-12.531 30.303-12.531s21.949 4.177 30.303 12.531zm-30.303-31.927c5.475 0 10.625-2.134 14.5-6.009 2.929-2.93 2.929-7.678 0-10.607-2.929-2.928-7.678-2.928-10.606 0-1.042 1.042-2.424 1.616-3.893 1.616s-2.851-.574-3.893-1.616c-2.929-2.928-7.678-2.928-10.606 0-2.929 2.93-2.929 7.678 0 10.607 3.873 3.875 9.023 6.009 14.498 6.009zm-21.554-61.043c-2.929-2.929-7.678-2.93-10.607-.001-4.874 4.873-12.804 4.873-17.678 0-2.93-2.928-7.677-2.929-10.607.001-2.929 2.929-2.928 7.678 0 10.606 5.361 5.36 12.403 8.041 19.445 8.041s14.084-2.681 19.445-8.041c2.93-2.928 2.931-7.677.002-10.606zm82 0c-2.929-2.929-7.678-2.93-10.607-.001-4.874 4.873-12.804 4.873-17.678 0-2.93-2.928-7.677-2.929-10.607.001-2.929 2.929-2.928 7.678 0 10.606 5.361 5.36 12.403 8.041 19.445 8.041s14.084-2.681 19.445-8.041c2.93-2.928 2.931-7.677.002-10.606z" fill="#f87b67"/><path d="m348.5 406.218h67.5v49.633c-20.214 16.205-42.94 29.405-67.5 38.926zm-185 0h-67.5v49.633c20.214 16.205 42.94 29.405 67.5 38.926z" fill="#e09380"/><path d="m126 406.218v70.364c-10.505-6.205-20.528-13.138-30-20.731v-49.633z" fill="#d47f6c"/><path d="m133 442.5c0 4.142-3.358 7.5-7.5 7.5s-7.5-3.358-7.5-7.5 3.358-7.5 7.5-7.5 7.5 3.358 7.5 7.5zm254-22.5c-2.761 0-5 2.239-5 5s2.239 5 5 5 5-2.239 5-5-2.239-5-5-5zm12 27c-2.761 0-5 2.239-5 5s2.239 5 5 5 5-2.239 5-5-2.239-5-5-5zm-118.5-369c-4.142 0-7.5 3.358-7.5 7.5s3.358 7.5 7.5 7.5 7.5-3.358 7.5-7.5-3.358-7.5-7.5-7.5zm-66 81c-4.142 0-7.5 3.358-7.5 7.5s3.358 7.5 7.5 7.5 7.5-3.358 7.5-7.5-3.358-7.5-7.5-7.5zm130 12c-4.142 0-7.5 3.358-7.5 7.5s3.358 7.5 7.5 7.5 7.5-3.358 7.5-7.5-3.358-7.5-7.5-7.5zm-84.5 59c-2.761 0-5 2.239-5 5s2.239 5 5 5 5-2.239 5-5-2.239-5-5-5z" fill="#f76c57"/><path d="m321.5 170.5c0 8.284-6.716 15-15 15s-15-6.716-15-15 6.716-15 15-15 15 6.716 15 15z" fill="#f76c57"/><path d="m209 189.5c0 4.142-3.358 7.5-7.5 7.5s-7.5-3.358-7.5-7.5 3.358-7.5 7.5-7.5 7.5 3.358 7.5 7.5zm-33-45.5c-2.761 0-5 2.239-5 5s2.239 5 5 5 5-2.239 5-5-2.239-5-5-5zm-30 276c-2.761 0-5 2.239-5 5s2.239 5 5 5 5-2.239 5-5-2.239-5-5-5zm173-219c-2.761 0-5 2.239-5 5s2.239 5 5 5 5-2.239 5-5-2.239-5-5-5zm47.5 234c-4.142 0-7.5 3.358-7.5 7.5s3.358 7.5 7.5 7.5 7.5-3.358 7.5-7.5-3.358-7.5-7.5-7.5zm-139.5-352c-2.761 0-5 2.239-5 5s2.239 5 5 5 5-2.239 5-5-2.239-5-5-5z" fill="#e5554e"/><path d="m291 245c0 2.761-2.239 5-5 5s-5-2.239-5-5 2.239-5 5-5 5 2.239 5 5zm-97-177.5c-4.142 0-7.5 3.358-7.5 7.5s3.358 7.5 7.5 7.5 7.5-3.358 7.5-7.5-3.358-7.5-7.5-7.5zm112.5 95.5c-4.142 0-7.5 3.358-7.5 7.5s3.358 7.5 7.5 7.5 7.5-3.358 7.5-7.5-3.358-7.5-7.5-7.5z" fill="#f44545"/><path d="m386 97.5v61.891c-34.637-8.182-62.135-34.837-71.522-68.992-23.602-.964-46.92-10.456-64.94-28.475l-34.656-34.656s-.82-.845-2.139-2.213c-8.988-9.324-2.504-25.014 10.447-25.055h.31c11.396 0 22.335 1.955 32.5 5.548 10.165-3.593 21.104-5.548 32.5-5.548 53.848 0 97.5 43.652 97.5 97.5z" fill="#fff68e"/><path d="m172.32 405.723c0 4.142-3.358 7.5-7.5 7.5h-70.465c-4.142 0-7.5-3.358-7.5-7.5s3.358-7.5 7.5-7.5h70.465c4.142 0 7.5 3.358 7.5 7.5zm245.325-7.5h-70.465c-4.142 0-7.5 3.358-7.5 7.5s3.358 7.5 7.5 7.5h70.465c4.142 0 7.5-3.358 7.5-7.5s-3.358-7.5-7.5-7.5z" fill="#86befb"/></g></svg>