<svg id="Capa_1" enable-background="new 0 0 512 512" height="512" viewBox="0 0 512 512" width="512" xmlns="http://www.w3.org/2000/svg"><g><path d="m0 256c0-141.385 114.615-256 256-256s256 114.615 256 256c0 87.38-43.779 164.535-110.598 210.728-41.298-28.549-91.397-45.272-145.402-45.272s-104.104 16.723-145.402 45.272c-66.819-46.193-110.598-123.348-110.598-210.728z" fill="#ffc14f"/><path d="m468.298 237.304c0 108.965-88.333 197.298-197.298 197.298s-197.298-88.333-197.298-197.298 88.333-197.298 197.298-197.298 197.298 88.333 197.298 197.298z" fill="#ffcd71"/><path d="m171 185.25v10c0 13.807-11.193 25-25 25s-25-11.193-25-25v-10c0-13.807 11.193-25 25-25s25 11.193 25 25z" fill="#faa68e"/><path d="m210.997 310.25c-38.66 0-70 31.34-70 70v104.526c-16.038-8.078-31.11-17.792-44.997-28.925v-75.601c0-38.66 31.34-70 70-70z" fill="#168c80"/><path d="m416 380.25v75.602c-43.827 35.133-99.459 56.148-160 56.148-47.457 0-91.897-12.913-130-35.417v-96.333c0-38.66 31.34-70 70-70h150c38.66 0 70 31.34 70 70z" fill="#199a8e"/><path d="m256 368.56c-24.877 0-45.044-20.167-45.044-45.044v-13.266h90.088v13.266c0 24.877-20.167 45.044-45.044 45.044zm116.021 94.652v-65.57c0-4.142-3.358-7.5-7.5-7.5-4.142 0-7.5 3.358-7.5 7.5v65.57c0 4.142 3.358 7.5 7.5 7.5 4.142 0 7.5-3.358 7.5-7.5zm-224.542 7.5c-4.142 0-7.5-3.358-7.5-7.5v-65.57c0-4.142 3.358-7.5 7.5-7.5 4.142 0 7.5 3.358 7.5 7.5v65.57c0 4.142-3.358 7.5-7.5 7.5z" fill="#147d73"/><path d="m136 180.25v20c0 8.178 3.927 15.439 9.998 20-13.806-.001-24.998-11.194-24.998-25v-10c0-13.807 11.192-24.999 24.998-25-6.071 4.561-9.998 11.822-9.998 20zm230-20v-20c0-60.751-49.249-110-110-110-60.751 0-110 49.249-110 110v40c0 50.351 33.83 92.8 80 105.859v34.141c0 16.568 13.431 30 30 30s30-13.432 30-30v-34.141c33.586-9.499 60.641-34.551 72.895-66.883 2.252.667 4.637 1.024 7.105 1.024 13.807 0 25-11.193 25-25v-10c0-13.807-11.193-25-25-25z" fill="#e09380"/><path d="m366 140.25v40c0 50.792-34.425 93.543-81.216 106.195-9.023 2.439-18.545 2.439-27.568 0-46.791-12.652-81.216-55.403-81.216-106.195v-40c0-55.664 41.345-101.669 95-108.985 53.655 7.316 95 53.321 95 108.985z" fill="#faa68e"/><path d="m201.226 100h-8.233c-5.098 11.268-16.16 19.26-29.159 19.951.109.834.166 1.685.166 2.549 0 10.77-8.73 19.5-19.5 19.5s-19.5-8.73-19.5-19.5c0-7.063 3.756-13.25 9.379-16.671-4.014-5.581-6.379-12.429-6.379-19.829 0-12.386 6.623-23.224 16.52-29.168-.013-.442-.02-.886-.02-1.332 0-24.577 19.923-44.5 44.5-44.5h12.226c-11.783 9.671-19.524 25.993-19.524 44.5 0 .95.021 1.894.061 2.831 8.619 6.168 14.237 16.262 14.237 27.669 0 2.726-.321 5.376-.927 7.917 1.894 2.24 3.953 4.277 6.153 6.083z" fill="#554640"/><path d="m318.356 147.749c0 8.284-6.716 15-15 15s-15-6.716-15-15 6.716-15 15-15 15 6.715 15 15zm-110-15c-8.284 0-15 6.716-15 15s6.716 15 15 15 15-6.716 15-15-6.715-15-15-15z" fill="#4c2c21"/><path d="m225.856 140.249c0 4.142-3.358 7.5-7.5 7.5s-7.5-3.358-7.5-7.5 3.358-7.5 7.5-7.5 7.5 3.357 7.5 7.5zm87.5-7.5c-4.142 0-7.5 3.358-7.5 7.5s3.358 7.5 7.5 7.5 7.5-3.358 7.5-7.5-3.357-7.5-7.5-7.5z" fill="#fff5f5"/><path d="m241.357 186.98c-2.929-2.93-2.929-7.678 0-10.607 2.929-2.928 7.678-2.928 10.606 0 1.042 1.042 2.424 1.616 3.893 1.616s2.851-.574 3.893-1.616c2.929-2.928 7.678-2.928 10.606 0 2.929 2.93 2.929 7.678 0 10.607-3.875 3.875-9.024 6.009-14.5 6.009s-10.623-2.134-14.498-6.009zm32.866 26.958h-36.447c-4.142 0-7.5 3.358-7.5 7.5 0 4.143 3.358 7.5 7.5 7.5h36.447c4.142 0 7.5-3.357 7.5-7.5 0-4.142-3.358-7.5-7.5-7.5z" fill="#f87b67"/><path d="m309.664 415.518-172.657 92.895c-14.591 7.85-32.783 2.386-40.633-12.205l-3.553-6.605c-7.85-14.591-2.386-32.783 12.205-40.633l172.657-92.895c14.591-7.85 32.783-2.386 40.633 12.205l3.554 6.605c7.849 14.591 2.384 32.783-12.206 40.633z" fill="#e09380"/><path d="m346.669 380.704-11.735 6.314c2.022.472 3.84 1.777 4.902 3.75 1.963 3.647.596 8.196-3.051 10.158l-30.822 16.583c-.014.008-.028.015-.042.022l-64.521 34.703c-14.591 7.851-32.783 2.386-40.633-12.205l-3.553-6.605c-7.85-14.59-2.386-32.783 12.205-40.633l68.252-36.709 43.237-23.263c3.648-1.962 8.196-.597 10.158 3.051 1.338 2.487 1.128 5.392-.296 7.611 2.637.034 5.177 1.46 6.515 3.947s1.128 5.393-.296 7.612c2.637.034 5.177 1.459 6.515 3.946s1.128 5.393-.296 7.612c2.637.034 5.177 1.459 6.515 3.947 1.96 3.648.594 8.197-3.054 10.159z" fill="#faa68e"/><path d="m419.18 489.604-3.553 6.605c-7.85 14.59-26.042 20.055-40.633 12.205l-172.657-92.895c-14.591-7.85-20.055-26.042-12.205-40.633l3.554-6.605c7.85-14.591 26.042-20.055 40.633-12.205l172.657 92.895c14.59 7.85 20.055 26.042 12.204 40.633z" fill="#ffbeaa"/><path d="m250.892 399.059-3.553 6.605c-7.85 14.59-26.042 20.055-40.633 12.205l-.662-.356c-.002-.001-.004-.002-.005-.003l-30.822-16.583c-3.647-1.962-5.014-6.511-3.051-10.158 1.061-1.973 2.879-3.278 4.902-3.75l-11.735-6.314c-3.648-1.962-5.014-6.511-3.051-10.158 1.338-2.487 3.878-3.913 6.515-3.947-1.425-2.219-1.635-5.125-.296-7.612 1.338-2.487 3.878-3.913 6.515-3.946-1.425-2.219-1.634-5.125-.296-7.612s3.878-3.913 6.515-3.947c-1.425-2.219-1.634-5.125-.296-7.611 1.962-3.648 6.51-5.014 10.158-3.051l47.593 25.606c14.588 7.849 20.052 26.041 12.202 40.632z" fill="#ffcdbe"/><path d="m385.054 80.613c-.821 21.418-18.405 38.791-39.831 39.372-7.921.215-15.351-1.818-21.701-5.507-4.534-2.634-9.987-3.096-15.026-1.643-1.718.495-3.534.761-5.411.761-5.082 0-9.709-1.944-13.18-5.128-6.124-5.619-14.296-8.467-22.607-8.467h-.786c-8.376 0-16.321 3.313-22.555 8.907-6.993 6.275-16.237 10.092-26.372 10.092-11.178 0-21.271-4.643-28.456-12.106-3.176-3.298-7.359-5.362-11.9-5.948-.066-.009-.133-.017-.199-.027-9.495-1.312-17.029-9.094-18.058-18.624-1.034-9.574 4.314-18.039 12.322-21.669-.194-1.682-.294-3.392-.294-5.126 0-17.537 10.145-32.704 24.885-39.954 8.516-9.54 20.907-15.546 34.7-15.546 8.624 0 16.7 2.348 23.623 6.439 5.065 2.993 10.843 4.561 16.726 4.561h8.303c5.883 0 11.661-1.568 16.726-4.561 6.922-4.091 14.998-6.439 23.622-6.439 24.938 0 45.291 19.631 46.448 44.283.026.045.048.083.074.128 11.831 7.548 19.53 20.998 18.947 36.202z" fill="#69564e"/><path d="m480.549 31.451c35.268 35.268 35.268 92.448 0 127.716s-92.448 35.268-127.716 0-35.268-92.448 0-127.716 92.449-35.268 127.716 0z" fill="#f76c57"/><path d="m480.549 31.451c35.268 35.268 35.268 92.448 0 127.715-11.337 11.337-24.938 19.029-39.347 23.078-14.409-4.048-28.01-11.741-39.347-23.078-35.268-35.268-35.268-92.448 0-127.715 11.337-11.336 24.938-19.029 39.347-23.077 14.41 4.048 28.01 11.74 39.347 23.077z" fill="#f87b67"/><path d="m367.31 93.865 47.26-47.26c1.172-1.172 3.071-1.172 4.243 0l47.26 47.26c1.89 1.89.551 5.121-2.121 5.121h-94.52c-2.673 0-4.012-3.231-2.122-5.121z" fill="#fff68e"/><path d="m387.268 98.986h-17.836c-2.673 0-4.011-3.231-2.121-5.121l47.26-47.26c1.171-1.171 3.071-1.171 4.242 0l6.797 6.797-40.463 40.463c-1.89 1.889-.552 5.121 2.121 5.121z" fill="#ffcd71"/><path d="m451.16 128.419v7.081c0 2.209-1.791 4-4 4h-60.936c-2.209 0-4-1.791-4-4v-7.081c-15.985-6.638-26.468-17.764-26.468-30.371 0-.167.002-.333.005-.499.06-2.714 2.291-4.879 5.005-4.879h111.851c2.715 0 4.945 2.165 5.005 4.879.004.166.005.332.005.499.001 12.607-10.482 23.733-26.467 30.371z" fill="#c8e2fd"/><path d="m472.617 92.67c2.715 0 4.945 2.165 5.005 4.879.004.166.005.332.005.499 0 12.606-10.483 23.733-26.468 30.371v7.081c0 2.209-1.791 4-4 4h-37.001c-10.865-13.859-17.108-30.162-18.73-46.83z" fill="#e9f3fe"/><path d="m448.383 93.128c0 2.761-2.239 5-5 5s-5-2.239-5-5 2.239-5 5-5 5 2.238 5 5zm-34.787-29.447c-3.76 0-6.809 3.048-6.809 6.809 0 3.76 3.048 6.809 6.809 6.809 3.76 0 6.809-3.048 6.809-6.809-.001-3.761-3.049-6.809-6.809-6.809zm-32.468 10.507c-3.76 0-6.809 3.048-6.809 6.809s3.048 6.809 6.809 6.809c3.76 0 6.809-3.048 6.809-6.809s-3.049-6.809-6.809-6.809zm53.4 44.123c-2.761 0-5 2.239-5 5s2.239 5 5 5 5-2.239 5-5c0-2.762-2.239-5-5-5z" fill="#ffcd71"/><path d="m457 76.234c0 3.76-3.048 6.809-6.809 6.809-3.76 0-6.809-3.048-6.809-6.809 0-3.76 3.048-6.809 6.809-6.809 3.761.001 6.809 3.049 6.809 6.809zm-21.181-19.362c-3.76 0-6.809 3.048-6.809 6.809s3.048 6.809 6.809 6.809c3.76 0 6.809-3.048 6.809-6.809s-3.049-6.809-6.809-6.809zm20.556 47.758c-2.761 0-5 2.239-5 5s2.239 5 5 5 5-2.239 5-5-2.239-5-5-5z" fill="#fff68e"/><path d="m484.084 27.916c-18.001-18.002-41.935-27.916-67.393-27.916s-49.391 9.914-67.392 27.916c-18.002 18.001-27.916 41.935-27.916 67.393s9.914 49.392 27.916 67.393c18.001 18.002 41.935 27.916 67.393 27.916s49.392-9.914 67.393-27.916 27.915-41.935 27.915-67.393-9.914-49.392-27.916-67.393zm-127.715 7.07c16.113-16.112 37.536-24.986 60.322-24.986 21.112 0 41.053 7.618 56.686 21.553l-120.44 120.44c-29.787-33.459-28.643-84.931 3.432-117.007zm120.645 120.645c-32.075 32.075-83.548 33.219-117.007 3.433l120.44-120.44c13.935 15.631 21.553 35.573 21.553 56.685 0 22.786-8.874 44.209-24.986 60.322z" fill="#d63030"/></g></svg>