<svg id="Capa_1" enable-background="new 0 0 512 512" height="512" viewBox="0 0 512 512" width="512" xmlns="http://www.w3.org/2000/svg"><g><path d="m512 256c0 141.385-114.615 256-256 256s-256-114.615-256-256 114.615-256 256-256 256 114.615 256 256z" fill="#ffc14f"/><path d="m472.876 222.5c0 109.425-88.707 198.132-198.132 198.132s-198.131-88.707-198.131-198.132 88.707-198.132 198.132-198.132 198.131 88.707 198.131 198.132z" fill="#ffcd71"/><path d="m273.504 288.358c-3.984 12.888-14.093 22.997-26.981 26.981-48.026 14.846-99.229 16.6-148.005 5.26-74.207-17.25-108.703-103.287-66.647-166.813 10.306-15.567 22.315-30.338 36.028-44.051s28.484-25.722 44.051-36.028c63.526-42.056 149.563-7.56 166.814 66.647 11.34 48.776 9.587 99.979-5.26 148.004z" fill="#f44545"/><path d="m264.84 195.37c-2.188 2.365-4.431 4.698-6.729 6.996-51.621 51.621-120.547 75.391-188.104 71.31-31.267-1.889-55.929-27.354-56.308-58.676-.251-20.781 5.468-42.024 18.172-61.214 10.306-15.567 22.315-30.338 36.028-44.051 13.714-13.714 28.487-25.724 44.055-36.03 63.528-42.057 149.558-7.56 166.811 66.649.159.682.315 1.365.468 2.049 4.249 18.914-1.229 38.736-14.393 52.967z" fill="#fb5858"/><path d="m413.099 470.416c3.417 1.445 3.033 6.446-.58 7.292-.04.009-.081.019-.121.028-33.845 7.868-69.375 6.652-102.699-3.65-8.931-2.761-15.962-9.792-18.722-18.723-10.302-33.325-11.518-68.854-3.65-102.699 8.352-35.928 39.941-58.44 73.248-58.854 5.796-.072 8.214 7.443 3.506 10.825-31.711 22.776-42.454 68.153-19.06 103.49 7.151 10.802 15.484 21.052 25 30.567 9.515 9.515 19.765 17.849 30.567 25 4.054 2.684 8.241 4.918 12.511 6.724zm31.642-246.915c-1.656 5.357-5.882 9.583-11.239 11.239-20.005 6.184-41.334 6.915-61.652 2.191-22.434-5.216-36.155-25.523-35.296-46.384.099-2.409 3.02-3.534 4.746-1.85 11.276 11 28.079 16.143 44.938 11.05 7.444-2.249 14.775-5.272 21.888-9.103s13.672-8.286 19.647-13.264c5.574-4.643 9.692-10.235 12.401-16.287 1.38-3.085 5.96-2.645 6.733.645.009.037.017.073.026.11 4.722 20.319 3.992 41.648-2.192 61.653z" fill="#d63030"/><path d="m412.397 477.736c-.474.11-.948.218-1.422.325-13.125 2.949-26.879-.853-36.753-9.987-1.641-1.518-3.26-3.075-4.855-4.669-35.819-35.819-52.313-83.646-49.482-130.524 1.311-21.696 18.981-38.809 40.715-39.071 14.42-.174 29.16 3.794 42.476 12.609 10.802 7.151 21.051 15.484 30.567 25s17.85 19.767 25.001 30.569c29.184 44.081 5.246 103.777-46.247 115.748zm34.73-315.033c-.064-.285-.129-.569-.195-.854-7.186-30.912-43.023-45.282-69.485-27.763-6.485 4.293-12.638 9.296-18.351 15.009-5.712 5.712-10.715 11.865-15.008 18.35-5.292 7.993-7.674 16.842-7.569 25.499.158 13.047 10.43 23.655 23.455 24.442 28.141 1.7 56.852-8.201 78.355-29.704.957-.958 1.892-1.929 2.803-2.914 5.483-5.929 7.765-14.186 5.995-22.065z" fill="#f44545"/><path d="m409.611 447.809c-24.993 5.81-51.229 4.912-75.837-2.696-6.604-2.042-11.784-7.221-13.825-13.825-7.607-24.608-8.506-50.844-2.695-75.837 8.84-38.023 52.924-55.699 85.475-34.149 7.976 5.281 15.545 11.434 22.572 18.461s13.18 14.595 18.461 22.572c21.548 32.549 3.872 76.634-34.151 85.474z" fill="#fb5858"/><path d="m401.194 418.39c-17.64 2.923-36.162 2.342-54.501-1.669-4.011-18.339-4.592-36.861-1.67-54.501 6.186-37.336 48.96-51.921 82.941-28.157.272.19.543.381.814.573.192.271.383.542.573.814 23.765 33.98 9.18 76.753-28.157 82.94z" fill="#f87b67"/><path d="m401.089 383.975c-10.461 4.788-20.794 7.759-30.414 8.764 1.005-9.62 3.976-19.953 8.764-30.414 10.134-22.141 36.835-37.976 51.751-30.636.119.059.238.118.357.178.06.119.119.237.178.357 7.34 14.916-8.496 41.617-30.636 51.751z" fill="#fbb3a8"/><path d="m147.856 250.879c1.573 5.644 2.323 11.401 2.242 17.074-5.673.081-11.43-.669-17.074-2.242-4.629-1.29-8.59-3.81-11.654-7.049-12.023-12.71 6.727-31.46 19.437-19.437 3.239 3.064 5.759 7.025 7.049 11.654zm2.676-77.948c-12.709-12.023-31.46 6.727-19.437 19.437 3.064 3.239 7.025 5.76 11.654 7.05 5.644 1.573 11.401 2.323 17.074 2.242.081-5.673-.669-11.43-2.242-17.074-1.289-4.63-3.81-8.591-7.049-11.655zm32.121-44.649c-2.343-4.196-5.724-7.452-9.593-9.669-15.181-8.696-28.995 13.939-14.319 23.463 3.74 2.427 8.182 3.946 12.985 4.11 5.856.201 11.627-.424 17.122-1.837-1.255-5.533-3.339-10.951-6.195-16.067zm234.714 25.836c-.938-3.366-2.77-6.245-5.125-8.473-9.241-8.742-22.874 4.891-14.132 14.132 2.228 2.355 5.107 4.188 8.473 5.125 4.104 1.143 8.289 1.689 12.414 1.63.059-4.125-.487-8.31-1.63-12.414zm-340.2 106.32c-12.71-12.023-31.46 6.727-19.437 19.437 3.064 3.239 7.025 5.76 11.654 7.049 5.644 1.573 11.401 2.323 17.074 2.242.081-5.673-.669-11.43-2.242-17.074-1.289-4.629-3.81-8.59-7.049-11.654zm114.792 22.864c-9.241-8.742-22.874 4.891-14.132 14.132 2.228 2.355 5.107 4.188 8.473 5.125 4.104 1.143 8.289 1.689 12.414 1.63.059-4.125-.487-8.31-1.63-12.414-.938-3.365-2.77-6.245-5.125-8.473zm-91.718-82.725c-9.525-14.675-32.16-.862-23.463 14.32 2.216 3.869 5.473 7.25 9.669 9.593 5.116 2.856 10.535 4.94 16.068 6.195 1.413-5.495 2.038-11.267 1.837-17.122-.166-4.804-1.684-9.246-4.111-12.986zm155.358 19.086c-9.241-8.742-22.874 4.891-14.132 14.132 2.228 2.355 5.107 4.188 8.473 5.125 4.104 1.143 8.289 1.689 12.414 1.63.059-4.125-.487-8.31-1.63-12.414-.938-3.366-2.77-6.245-5.125-8.473zm156.632-31.581c-9.241-8.742-22.874 4.891-14.132 14.132 2.228 2.355 5.107 4.188 8.473 5.125 4.104 1.144 8.289 1.689 12.414 1.63.059-4.125-.487-8.31-1.63-12.414-.937-3.366-2.77-6.245-5.125-8.473zm-195.405-24.876c-12.71-12.023-31.46 6.727-19.437 19.437 3.064 3.239 7.025 5.76 11.654 7.049 5.644 1.573 11.401 2.323 17.074 2.242.081-5.673-.669-11.43-2.242-17.074-1.289-4.63-3.81-8.59-7.049-11.654zm30.504-34.912c.081-5.673-.669-11.43-2.242-17.074-1.29-4.629-3.81-8.59-7.049-11.654-12.709-12.023-31.46 6.727-19.437 19.437 3.064 3.239 7.025 5.76 11.654 7.049 5.645 1.573 11.401 2.323 17.074 2.242zm-47.3 94.134c-12.71-12.023-31.46 6.727-19.437 19.437 3.064 3.239 7.025 5.76 11.654 7.049 5.644 1.573 11.401 2.323 17.074 2.242.081-5.673-.669-11.43-2.242-17.074-1.29-4.629-3.81-8.589-7.049-11.654z" fill="#d63030"/><path d="m119.614 122.924c1.081 11.656.321 23.901-2.218 36.309-12.408 2.539-24.652 3.298-36.309 2.218-29.417-2.727-40.172-33.504-24.028-62.554 29.052-16.145 59.828-5.39 62.555 24.027zm346.694 197.501c.75-8.088.223-16.584-1.539-25.194-8.61-1.762-17.106-2.289-25.194-1.539-20.412 1.892-27.875 23.248-16.672 43.405 20.156 11.203 41.512 3.741 43.405-16.672zm-113.812-190.938c-4.855-.45-9.956-.134-15.124.924-1.057 5.169-1.374 10.269-.924 15.124 1.136 12.254 13.956 16.734 26.057 10.009 6.725-12.101 2.245-24.921-10.009-26.057z" fill="#20b7a1"/><path d="m76.046 107.166c10.815 13.557 10.572 36.161-4.009 56.899-8.044 11.442-17.444 22.066-27.854 31.529-6.844-5.773-12.689-12.625-17.381-20.399-8.918 1.737-17.901 2.545-26.789 2.418-.177-12.376 1.46-24.936 4.891-37.249 6.275-22.521 25.9-37.785 46.489-40.295 2.248-1.474 4.589-2.822 7.012-4.025 4.466 1.124 8.392 2.985 11.734 5.441 1.503.434 2.99.948 4.455 1.547.556 1.361 1.039 2.741 1.452 4.134zm360.029 224.195c7.506-9.407 7.337-25.092-2.78-39.483-5.582-7.94-12.104-15.312-19.328-21.878-4.749 4.006-8.805 8.761-12.06 14.155-6.188-1.205-12.421-1.766-18.589-1.678-.123 8.588 1.013 17.303 3.394 25.847 4.354 15.627 17.972 26.219 32.259 27.96 1.56 1.022 3.183 1.958 4.865 2.793 3.099-.78 5.821-2.071 8.14-3.775 1.043-.301 2.076-.658 3.093-1.074.385-.944.719-1.901 1.006-2.867zm-74.648-181.264c-.181-.626-.395-1.246-.645-1.857-.567-.231-1.141-.432-1.721-.604-5.647-4.506-15.063-4.405-23.702 1.669-4.766 3.351-9.192 7.266-13.133 11.603 2.405 2.851 5.259 5.286 8.497 7.24-.723 3.715-1.06 7.457-1.007 11.159 5.155.074 10.387-.608 15.516-2.037 9.381-2.614 15.74-10.789 16.785-19.366.614-.936 1.175-1.911 1.677-2.92-.469-1.86-1.244-3.495-2.267-4.887z" fill="#199a8e"/><path d="m472.501 358.856c1.573 7.025 2.314 14.127 2.213 21.146-8.588.123-17.303-1.013-25.847-3.394-17.419-4.853-31.017-35.502-29.987-40.443 4.616-18.347 27.162-23.547 47.199-9.46 7.94 5.582 15.311 12.104 21.878 19.328-4.325 5.128-9.523 9.447-15.456 12.823zm-340.237-289.46c2.293-10.179 3.373-20.473 3.228-30.644-12.377-.177-25.389.124-37.249 4.891-43.71 17.569-44.628 53.105-46.362 56.597 6.652 26.441 39.144 33.935 68.021 13.633 11.442-8.044 22.066-17.444 31.529-27.854-5.467-6.48-11.9-12.064-19.167-16.623zm254.999 70.885c-2.721 13.262-24.602 17.387-25.094 17.632-11.014-2.771-14.136-16.306-5.679-28.334 3.351-4.766 7.266-9.192 11.603-13.134 3.219 2.716 5.908 6.005 7.973 9.772 4.393-1.029 8.841-1.515 13.234-1.453.074 5.156-.967 10.301-2.037 15.517z" fill="#24d3b5"/></g></svg>