<svg id="Capa_1" enable-background="new 0 0 512 512" height="512" viewBox="0 0 512 512" width="512" xmlns="http://www.w3.org/2000/svg"><g><path d="m498.1 339.422c-34.579 100.371-129.817 172.497-241.912 172.578-141.112.101-256.188-114.889-256.188-256.001 0-141.384 114.616-255.999 256-255.999 63.627 0 121.833 23.213 166.61 61.631 4.979 4.272 7.029 11.039 5.355 17.382-5.521 20.914-8.463 42.876-8.463 65.525 0 70.95 28.863 135.159 75.488 181.525 3.516 3.496 4.725 8.671 3.11 13.359z" fill="#ffc14f"/><path d="m493.963 240c0 115.407-93.556 208.963-208.963 208.963s-208.963-93.556-208.963-208.963 93.556-208.963 208.963-208.963 208.963 93.556 208.963 208.963z" fill="#ffcd71"/><path d="m335 320h-270c-8.284 0-15-6.716-15-15v-230c0-8.284 6.716-15 15-15h270c8.284 0 15 6.716 15 15v230c0 8.284-6.716 15-15 15z" fill="#a7d0fc"/><path d="m270 60h150.69c47.158 39.666 79.796 96.038 88.798 160 1.655 11.762-31.423 23.781-31.423 36 0 22.099-2.8 43.544-8.065 64h-200c-71.797 0-130-58.203-130-130s58.203-130 130-130z" fill="#c8e2fd"/><path d="m125 220h267.456c19.725 0 35.887 15.908 35.915 35.633v.367c0 19.292-2.134 38.085-6.179 56.157-3.653 16.322-18.273 27.843-34.998 27.843h-262.194c-8.284 0-15-6.716-15-15v-90c0-8.284 6.716-15 15-15z" fill="#5766ce"/><path d="m512 256c0 29.423-4.964 57.687-14.1 84h-117.9c-28.119 0-50.914-22.795-50.914-50.914v-18.173c0-28.118 22.795-50.913 50.914-50.913h129.488c1.656 11.762 2.512 23.781 2.512 36z" fill="#717ed6"/><path d="m134.915 272.585h376.477c-.321 5.041-.788 10.042-1.396 15h-375.081c-2.761 0-5 2.239-5 5v7.5c0 2.761 2.239 5 5 5h372.315c-.98 5.055-2.108 10.056-3.38 15h-368.935c-2.761 0-5 2.239-5 5 0 8.284 6.716 15 15 15h-30c-8.284 0-15-6.716-15-15v-90c0-8.284 6.716-15 15-15h30c-8.284 0-15 6.716-15 15 0 2.761 2.239 5 5 5h376.508c.306 4.963.471 9.964.49 15h-376.998c-2.761 0-5 2.239-5 5v7.5c0 2.762 2.238 5 5 5z" fill="#3342ae"/><path d="m470 370c0 5.523-4.477 10-10 10s-10-4.477-10-10 4.477-10 10-10 10 4.477 10 10zm-400-30c-5.523 0-10 4.477-10 10s4.477 10 10 10 10-4.477 10-10-4.477-10-10-10zm30 70c-5.523 0-10 4.477-10 10s4.477 10 10 10 10-4.477 10-10-4.477-10-10-10zm150 0c-5.523 0-10 4.477-10 10s4.477 10 10 10 10-4.477 10-10-4.477-10-10-10z" fill="#f76c57"/><path d="m145 390c-8.284 0-15-6.716-15-15s6.716-15 15-15 15 6.716 15 15-6.716 15-15 15zm-97.963-1.854c-6.547 0-11.854 5.307-11.854 11.854s5.308 11.854 11.854 11.854c6.547 0 11.854-5.307 11.854-11.854s-5.307-11.854-11.854-11.854zm112.963 31.854c-5.523 0-10 4.477-10 10s4.477 10 10 10 10-4.477 10-10-4.477-10-10-10zm135-60c-8.284 0-15 6.716-15 15s6.716 15 15 15 15-6.716 15-15-6.716-15-15-15zm85 108.146c-6.547 0-11.854 5.307-11.854 11.854s5.307 11.854 11.854 11.854 11.854-5.307 11.854-11.854-5.307-11.854-11.854-11.854zm-90 11.854c-5.523 0-10 4.477-10 10s4.477 10 10 10 10-4.477 10-10-4.477-10-10-10zm90-70c0-5.523-4.477-10-10-10s-10 4.477-10 10 4.477 10 10 10 10-4.477 10-10z" fill="#f44545"/><path d="m203.25 413.334c7.209 7.209 11.18 16.787 11.18 26.97 0 10.184-3.971 19.762-11.18 26.971-.976.977-2.256 1.465-3.535 1.465s-2.56-.488-3.535-1.465c-1.953-1.952-1.953-5.118 0-7.07 10.973-10.973 10.973-28.827 0-39.8-14.872-14.871-14.872-39.068 0-53.939 1.951-1.953 5.119-1.953 7.07 0 1.953 1.952 1.953 5.118 0 7.07-10.972 10.972-10.972 28.825 0 39.798zm120-39.799c1.953-1.952 1.953-5.118 0-7.07-1.951-1.953-5.119-1.953-7.07 0-14.872 14.871-14.872 39.068 0 53.939 10.973 10.973 10.973 28.827 0 39.8-1.953 1.952-1.953 5.118 0 7.07.976.977 2.256 1.465 3.535 1.465s2.56-.488 3.535-1.465c7.209-7.209 11.18-16.787 11.18-26.971 0-10.183-3.971-19.761-11.18-26.97-10.972-10.972-10.972-28.825 0-39.798zm51.75 13.674c0-5.731 2.235-11.123 6.295-15.184 1.953-1.952 1.953-5.118 0-7.07-1.951-1.953-5.119-1.953-7.07 0-5.949 5.948-9.225 13.852-9.225 22.254 0 8.401 3.275 16.305 9.225 22.253 4.059 4.06 6.295 9.451 6.295 15.183s-2.236 11.123-6.295 15.183c-1.953 1.952-1.953 5.118 0 7.07.976.977 2.256 1.465 3.535 1.465s2.56-.488 3.535-1.465c5.948-5.947 9.225-13.851 9.225-22.253s-3.276-16.306-9.225-22.253c-4.06-4.061-6.295-9.453-6.295-15.183zm60.776-15.184c1.952-1.952 1.952-5.118-.001-7.071-1.953-1.951-5.118-1.952-7.071.001-12.27 12.271-12.27 32.236 0 44.507.977.977 2.257 1.465 3.536 1.465s2.56-.488 3.535-1.464c1.953-1.953 1.953-5.119.001-7.071-8.371-8.372-8.371-21.995 0-30.367zm-172.24-6.043c1.952-1.952 1.952-5.118-.001-7.071-1.953-1.951-5.118-1.952-7.071.001-16.952 16.954-16.952 44.539 0 61.492 13.055 13.056 13.055 34.297.001 47.352-1.953 1.952-1.953 5.118 0 7.07.976.977 2.256 1.465 3.535 1.465s2.56-.488 3.535-1.465c16.953-16.953 16.953-44.538 0-61.492-13.054-13.055-13.054-34.296.001-47.352z" fill="#a6aee5"/><path d="m126.638 140h-31.638c-2.761 0-5-2.239-5-5v-40c0-2.761 2.239-5 5-5h31.638c13.807 0 25 11.193 25 25 0 13.807-11.193 25-25 25z" fill="#20b7a1"/><path d="m235 140h-120c-2.761 0-5-2.239-5-5v-40c0-2.761 2.239-5 5-5h120c2.761 0 5 2.239 5 5v40c0 2.761-2.239 5-5 5z" fill="#24d3b5"/><path d="m125 121.649v-14.511c0-2.761 2.239-5 5-5 2.761 0 5 2.239 5 5v14.511c0 2.761-2.239 5-5 5-2.761 0-5-2.239-5-5zm-15 5c2.761 0 5-2.239 5-5v-14.511c0-2.761-2.239-5-5-5-2.761 0-5 2.239-5 5v14.511c0 2.761 2.239 5 5 5zm60 0c2.761 0 5-2.239 5-5v-14.511c0-2.761-2.239-5-5-5-2.761 0-5 2.239-5 5v14.511c0 2.761 2.239 5 5 5zm-20-7.255c2.761 0 5-2.239 5-5 0-2.761-2.239-5-5-5-2.761 0-5 2.239-5 5 0 2.761 2.239 5 5 5z" fill="#adebdc"/><path d="m300 115c0 8.284-6.716 15-15 15s-15-6.716-15-15 6.716-15 15-15 15 6.716 15 15z" fill="#199a8e"/><path d="m298.974 120.463c-2.184 5.583-7.617 9.537-13.974 9.537-8.284 0-15-6.716-15-15 0-6.357 3.954-11.79 9.537-13.974-.662 1.693-1.026 3.536-1.026 5.463 0 8.284 6.716 15 15 15 1.927 0 3.77-.364 5.463-1.026z" fill="#147d73"/><path d="m350 115c0 8.284-6.716 15-15 15s-15-6.716-15-15 6.716-15 15-15 15 6.716 15 15z" fill="#a7d0fc"/><path d="m350 115c0 2.158-.456 4.209-1.276 6.064-1.854.82-3.906 1.276-6.064 1.276-8.284 0-15-6.716-15-15 0-2.158.456-4.209 1.276-6.064 1.854-.82 3.906-1.276 6.064-1.276 8.284 0 15 6.716 15 15zm-122.745-10.606c0-2.761-2.239-5-5-5h-14.511c-2.761 0-5 2.239-5 5 0 2.761 2.239 5 5 5h14.511c2.762 0 5-2.239 5-5zm0 20c0-2.761-2.239-5-5-5h-14.511c-2.761 0-5 2.239-5 5 0 2.761 2.239 5 5 5h14.511c2.762 0 5-2.239 5-5z" fill="#fff5f5"/></g></svg>