<svg id="Capa_1" enable-background="new 0 0 512 512" height="512" viewBox="0 0 512 512" width="512" xmlns="http://www.w3.org/2000/svg"><g><path d="m512 256.001c0 141.384-114.615 255.999-256 255.999s-256-114.615-256-255.999 114.615-255.999 256-255.999 256 114.614 256 255.999z" fill="#20b7a1"/><path d="m470.759 265.555c0 109.368-88.66 198.028-198.029 198.028s-198.028-88.66-198.028-198.028 88.66-198.027 198.028-198.027 198.029 88.66 198.029 198.027z" fill="#24d3b5"/><path d="m59.598 234.339-10.909 10.909c-2.929 2.929-7.678 2.929-10.606 0-2.929-2.929-2.929-7.678 0-10.607l10.909-10.909-10.909-10.909c-2.929-2.929-2.929-7.678 0-10.606 2.929-2.929 7.677-2.929 10.606 0l10.909 10.909 10.909-10.909c2.929-2.929 7.678-2.929 10.607 0s2.929 7.677 0 10.606l-10.909 10.909 10.909 10.909c2.929 2.929 2.929 7.678 0 10.607s-7.678 2.929-10.607 0zm45.778 178.006h-15.428v-15.427c0-4.142-3.358-7.5-7.5-7.5s-7.5 3.358-7.5 7.5v15.427h-15.427c-4.142 0-7.5 3.358-7.5 7.5s3.358 7.5 7.5 7.5h15.427v15.427c0 4.142 3.358 7.5 7.5 7.5 4.142 0 7.5-3.358 7.5-7.5v-15.427h15.427c4.142 0 7.5-3.358 7.5-7.5.001-4.142-3.357-7.5-7.499-7.5zm227.468-302.799h15.428v15.427c0 4.142 3.358 7.5 7.5 7.5s7.5-3.358 7.5-7.5v-15.427h15.427c4.142 0 7.5-3.358 7.5-7.5s-3.358-7.5-7.5-7.5h-15.427v-15.427c0-4.142-3.358-7.5-7.5-7.5-4.142 0-7.5 3.358-7.5 7.5v15.427h-15.427c-4.142 0-7.5 3.358-7.5 7.5-.001 4.142 3.357 7.5 7.499 7.5zm32.192 126.612c.984.435 2.013.641 3.024.641 2.88 0 5.627-1.669 6.865-4.474 6.016-13.628-.177-29.61-13.806-35.626-3.787-1.672-8.216.043-9.89 3.833-1.673 3.789.043 8.217 3.833 9.89 2.939 1.298 5.197 3.659 6.355 6.649 1.159 2.99 1.082 6.256-.216 9.197-1.671 3.79.045 8.217 3.835 9.89zm42.088 7.211c-6.725-2.605-14.068-2.436-20.674.479-3.79 1.673-5.506 6.101-3.833 9.89 1.673 3.79 6.103 5.505 9.89 3.833 6.064-2.674 13.17.078 15.847 6.141 1.238 2.805 3.984 4.474 6.865 4.474 1.012 0 2.04-.206 3.024-.641 3.79-1.673 5.506-6.101 3.833-9.89-2.916-6.606-8.226-11.68-14.952-14.286zm-177.001-135.553c-4.683 4.685-12.309 4.687-16.993 0-2.93-2.928-7.678-2.928-10.607 0-1.545 1.546-2.275 3.598-2.189 5.622-2.024-.085-4.075.644-5.621 2.189-2.929 2.93-2.929 7.678 0 10.607 4.686 4.685 4.686 12.309 0 16.993-2.929 2.93-2.929 7.678 0 10.607 1.465 1.464 3.385 2.196 5.304 2.196s3.839-.732 5.304-2.196c5.105-5.106 7.917-11.891 7.917-19.104 0-3.673-.73-7.235-2.12-10.521 3.351 1.41 6.93 2.115 10.509 2.115 6.919 0 13.837-2.634 19.104-7.9 2.929-2.93 2.929-7.678 0-10.607-2.93-2.929-7.678-2.929-10.608-.001zm149.448 85.369c-2.929 2.93-2.929 7.678 0 10.607 4.686 4.685 4.686 12.309 0 16.995-2.929 2.929-2.929 7.678.001 10.606 1.464 1.464 3.384 2.196 5.303 2.196.106 0 .212-.003.317-.007-.085 2.024.645 4.075 2.189 5.62 1.465 1.464 3.385 2.196 5.304 2.196s3.839-.732 5.304-2.196c4.683-4.685 12.309-4.687 16.995 0 2.928 2.928 7.677 2.929 10.606-.001 2.929-2.929 2.929-7.678-.001-10.606-7.998-7.998-19.804-9.922-29.635-5.776 4.146-9.832 2.221-21.637-5.776-29.635-2.929-2.927-7.677-2.927-10.607.001zm-290.031-86.25c4.108 2.314 8.642 3.494 13.229 3.494 2.438 0 4.891-.333 7.302-1.007 6.947-1.94 12.726-6.474 16.27-12.766 2.033-3.608.756-8.183-2.854-10.215-3.606-2.034-8.182-.756-10.215 2.854-1.578 2.8-4.147 4.817-7.236 5.68-3.087.864-6.33.47-9.132-1.108-3.609-2.034-8.183-.756-10.216 2.853-2.034 3.608-.756 8.182 2.852 10.215zm169.675 158.513c31.288-1.866 56.172-27.912 56.172-59.66v-2.057c0-17.012-13.841-30.852-30.853-30.852-4.143 0-7.5 3.357-7.5 7.5s3.357 7.5 7.5 7.5c8.741 0 15.853 7.111 15.853 15.852v2.057c0 24.288-19.442 44.12-43.58 44.752-2.728-11.8-7.367-23.216-13.857-33.863l-2.187-3.587c-15.837-25.978-49.855-34.23-75.831-18.394-3.537 2.156-4.656 6.771-2.501 10.308 2.157 3.538 6.772 4.656 10.308 2.501 18.917-11.532 43.686-5.523 55.216 13.393l2.187 3.588c13.806 22.646 17.972 49.293 11.729 75.03-1.616 6.665-3.882 13.065-6.744 19.129-6.695-37.876-39.848-66.737-79.615-66.737h-2.888c-22.205 0-40.271 18.065-40.271 40.27 0 4.143 3.357 7.5 7.5 7.5s7.5-3.357 7.5-7.5c0-13.935 11.336-25.27 25.271-25.27h2.888c36.309 0 65.849 29.54 65.849 65.849 0 1.917.719 3.665 1.902 4.991-7.192 9.064-16.011 16.881-26.191 23.087-3.537 2.156-4.656 6.771-2.501 10.308 1.413 2.318 3.882 3.598 6.411 3.598 1.331 0 2.678-.354 3.896-1.097 26.069-15.891 44.384-40.961 51.57-70.593 3.028-12.49 3.929-25.166 2.767-37.603zm155.829 37.94h-2.058c-31.749 0-57.794 24.883-59.66 56.171-12.438-1.162-25.113-.26-37.601 2.769-29.632 7.187-54.702 25.501-70.593 51.57-2.155 3.536-1.036 8.151 2.501 10.308 3.535 2.156 8.151 1.038 10.308-2.501 6.206-10.181 14.023-19 23.087-26.192 1.326 1.183 3.074 1.902 4.991 1.902 36.309 0 65.849 29.54 65.849 65.849v2.887c0 13.935-11.336 25.27-25.271 25.27-4.143 0-7.5 3.357-7.5 7.5s3.357 7.5 7.5 7.5c22.205 0 40.271-18.065 40.271-40.27v-2.887c0-39.767-28.859-72.92-66.735-79.616 6.064-2.862 12.463-5.127 19.127-6.743 25.739-6.242 52.386-2.077 75.033 11.728l3.585 2.186c9.173 5.591 15.616 14.41 18.144 24.832s.841 21.212-4.751 30.384c-2.155 3.537-1.036 8.152 2.5 10.309 1.22.743 2.566 1.097 3.897 1.097 2.529 0 4.998-1.279 6.411-3.597 7.677-12.594 9.992-27.413 6.52-41.728s-12.319-26.428-24.914-34.104l-3.586-2.186c-10.648-6.491-22.064-11.13-33.864-13.857.632-24.138 20.464-43.58 44.752-43.58h2.058c8.74 0 15.852 7.111 15.852 15.852 0 4.143 3.357 7.5 7.5 7.5s7.5-3.357 7.5-7.5c-.001-17.013-13.841-30.853-30.853-30.853zm-270.161-154.17c1.012 0 2.04-.206 3.025-.641 13.628-6.017 19.82-21.998 13.805-35.626-1.674-3.79-6.103-5.506-9.89-3.833-3.79 1.673-5.506 6.101-3.833 9.89 2.676 6.062-.079 13.171-6.141 15.847-3.789 1.673-5.505 6.101-3.832 9.891 1.239 2.803 3.985 4.472 6.866 4.472zm50.906-85.865c-1.673 3.789.043 8.217 3.833 9.89 3.537 1.562 7.232 2.301 10.871 2.301 10.381 0 20.301-6.016 24.755-16.106 1.673-3.789-.043-8.217-3.833-9.89-3.787-1.671-8.217.043-9.89 3.833-1.298 2.939-3.659 5.197-6.649 6.355-2.992 1.159-6.256 1.081-9.197-.216-3.786-1.671-8.216.043-9.89 3.833zm-18.26-48.99c2.94 1.298 5.197 3.659 6.356 6.649s1.082 6.257-.216 9.197c-1.673 3.789.043 8.217 3.833 9.89.984.435 2.013.641 3.024.641 2.88 0 5.627-1.669 6.865-4.474 6.016-13.628-.178-29.61-13.807-35.626-3.786-1.672-8.216.043-9.89 3.833-1.671 3.789.045 8.217 3.835 9.89z" fill="#168c80"/><path d="m55.664 243.89c-10.318-.379-15.191-11.387-14.618-21.805.513-9.321 39.357-4.979 43.541.513.058.076.116.153.174.23.405.536.405 1.274 0 1.81-4.225 5.589-9.088 10.469-14.451 14.477-4.635 3.463-9.71 4.956-14.646 4.775zm11.217 169.048c-.959 6.626-.946 13.516.018 20.455.092.665.615 1.188 1.28 1.28.095.013.191.026.286.039 6.842.925 37.379-23.471 31.151-30.425-6.961-7.772-18.191-12.11-25.755-5.082-3.619 3.362-6.151 8.006-6.98 13.733zm274.68-319.282c-.959 6.626-.946 13.516.018 20.455.092.665.615 1.188 1.28 1.28.095.013.191.026.286.039 6.842.925 37.379-23.471 31.151-30.425-6.961-7.772-18.191-12.11-25.755-5.082-3.619 3.362-6.152 8.007-6.98 13.733zm-219.893-45.94c-2.478-1.225-3.128-4.456-1.294-6.524 19.004-21.433 49.891-33.498 70.664-14.198 9.889 9.188 16.811 21.882 19.075 37.532 2.623 18.126 2.586 36.975-.057 55.957-.251 1.8-1.691 3.196-3.491 3.446-.646.09-1.293.177-1.939.26-2.24.29-4.433-.746-5.657-2.644-11.559-17.91-25.109-33.982-40.309-48.105-11.653-10.827-24.056-19.33-36.992-25.724zm90.762 379.967c38.748-77.97 101.575-141.862 178.751-181.948 4.364-2.267 6.876-7.004 6.238-11.88-.169-1.294-.344-2.588-.524-3.882-.585-4.212-3.91-7.512-8.121-8.097-43.851-6.091-87.393-6.17-129.269-.111-36.196 5.237-65.554 21.245-86.805 44.118-44.558 47.957-16.835 119.221 32.568 163.193 2.257 2.008 5.818 1.312 7.162-1.393z" fill="#3d4ec6"/><path d="m84.587 222.598c-6.203 3.86-13.525 6.09-21.369 6.09-8.185 0-15.802-2.428-22.172-6.603.513-9.321 5.385-18.17 14.618-18.509 4.936-.181 10.011 1.312 14.646 4.775 5.29 3.952 10.093 8.754 14.277 14.247zm4.048 212.093c5.726-.828 10.371-3.361 13.733-6.98 6.288-6.768 3.477-16.471-2.752-23.425-7.456 1.552-14.559 5.222-20.347 11.009-5.546 5.546-9.147 12.301-10.804 19.416 6.843.926 13.634.926 20.17-.02zm274.679-319.281c5.726-.829 10.371-3.361 13.733-6.98 6.288-6.768 3.477-16.471-2.752-23.425-7.456 1.552-14.559 5.222-20.347 11.009-5.546 5.546-9.147 12.301-10.804 19.416 6.843.926 13.635.925 20.17-.02zm-157.531 8.627c-18.7 2.529-37.263 2.527-55.124-.057-15.65-2.264-28.344-9.186-37.532-19.075-17.187-18.498-9.502-45.015 7.521-64.02 20.378 4.241 39.791 14.271 55.608 30.088 15.157 15.157 25 33.617 29.527 53.064zm191.36 107.74c-44.977 10.471-87.671 33.235-122.729 68.291-36.582 36.582-59.778 81.482-69.588 128.611 43.955 39.371 105.285 57.143 148.067 17.394 22.872-21.251 38.881-50.608 44.118-86.805 5.976-41.308 5.98-84.24.132-127.491z" fill="#5766ce"/><path d="m279.32 362.589c6.388 6.388 2.911 20.223-7.768 30.901-10.678 10.678-24.513 14.156-30.901 7.768s-2.911-20.223 7.768-30.901 24.513-14.157 30.901-7.768zm60.712 15.556c-4.41-4.41-13.96-2.009-21.332 5.362-7.371 7.372-9.772 16.922-5.362 21.332s13.96 2.009 21.332-5.362c7.371-7.371 9.772-16.922 5.362-21.332zm-15.016-92.197c-4.41-4.41-13.961-2.009-21.332 5.362s-9.772 16.922-5.362 21.332 13.961 2.009 21.332-5.362 9.772-16.922 5.362-21.332z" fill="#3342ae"/></g></svg>