<svg id="Capa_1" enable-background="new 0 0 512 512" height="512" viewBox="0 0 512 512" width="512" xmlns="http://www.w3.org/2000/svg"><g><path d="m512 256c0 141.385-114.615 256-256 256s-256-114.615-256-256 114.615-256 256-256 256 114.615 256 256z" fill="#f44545"/><path d="m423.979 280.692c0 106.303-86.176 192.479-192.479 192.479s-192.479-86.176-192.479-192.479 86.176-192.479 192.479-192.479 192.479 86.175 192.479 192.479z" fill="#fb5858"/><path d="m361.784 314.513c-59.817 59.817-145.889 77.375-221.121 52.676-19.972 9.025-43.469 7.73-62.429-3.886-11.616-18.959-12.911-42.457-3.886-62.429-24.699-75.232-7.141-161.304 52.676-221.121s145.89-77.375 221.121-52.677c19.972-9.025 43.469-7.73 62.429 3.886 11.616 18.959 12.911 42.457 3.886 62.429 24.7 75.233 7.141 161.305-52.676 221.122z" fill="#ffb52d"/><path d="m361.784 314.513c-59.817 59.817-145.889 77.375-221.121 52.676-4.432 2.003-9.039 3.497-13.73 4.484-4.533-19.07-6.933-38.966-6.933-59.423 0-141.385 114.615-256 256-256 15.048 0 29.793 1.299 44.128 3.79.98 11.31-.909 22.821-5.668 33.353 24.7 75.231 7.141 161.303-52.676 221.12z" fill="#ffc14f"/><path d="m150 226.25c0 5.523-4.477 10-10 10s-10-4.477-10-10 4.477-10 10-10 10 4.477 10 10zm-10 50c-5.523 0-10 4.477-10 10s4.477 10 10 10 10-4.477 10-10-4.477-10-10-10zm80-180c-5.523 0-10 4.477-10 10s4.477 10 10 10 10-4.477 10-10-4.477-10-10-10zm-100 150c-5.523 0-10 4.477-10 10s4.477 10 10 10 10-4.477 10-10-4.477-10-10-10zm220-120c-5.523 0-10 4.477-10 10s4.477 10 10 10 10-4.477 10-10-4.477-10-10-10zm30-30c-5.523 0-10 4.477-10 10s4.477 10 10 10 10-4.477 10-10-4.477-10-10-10z" fill="#f29500"/><path d="m504.5 332.25c0 86.156-69.844 156-156 156s-156-69.844-156-156 69.844-156 156-156 156 69.844 156 156z" fill="#fff36c"/><path d="m376.585 485.728c-9.111 1.656-18.497 2.522-28.085 2.522-86.156 0-156-69.844-156-156s69.844-156 156-156c9.588 0 18.975.866 28.085 2.522-72.752 13.227-127.915 76.91-127.915 153.478s55.163 140.251 127.915 153.478z" fill="#fff04a"/><path d="m467 332.25c0 65.446-53.054 118.5-118.5 118.5s-118.5-53.054-118.5-118.5 53.054-118.5 118.5-118.5 118.5 53.054 118.5 118.5z" fill="#fffac1"/><path d="m375.062 391.599c6.042 11.596 3.863 25.772-5.383 35.018-11.697 11.697-30.661 11.697-42.357 0-9.246-9.246-11.425-23.422-5.383-35.018l23.443-44.993c1.314-2.523 4.924-2.523 6.239 0zm-29.681-73.705c1.314 2.523 4.924 2.523 6.239 0l23.443-44.993c6.042-11.596 3.863-25.772-5.383-35.018-11.697-11.697-30.661-11.697-42.357 0-9.246 9.246-11.425 23.422-5.383 35.018zm95.433 43.199c-3.384-12.631-14.571-21.606-27.635-22.171l-50.687-2.195c-2.842-.123-4.647 3.003-3.12 5.403l27.244 42.799c7.022 11.031 20.388 16.231 33.018 12.847 15.979-4.282 25.461-20.706 21.18-36.683zm-156.993-35.514 50.687 2.195c2.842.123 4.647-3.003 3.12-5.403l-27.244-42.799c-7.022-11.031-20.388-16.231-33.018-12.847-15.978 4.281-25.46 20.705-21.179 36.683 3.383 12.63 14.57 21.605 27.634 22.171zm78.672 2.194 50.687-2.195c13.064-.565 24.25-9.541 27.635-22.171 4.281-15.978-5.201-32.401-21.179-36.683-12.63-3.384-25.996 1.816-33.018 12.847l-27.244 42.799c-1.529 2.4.277 5.526 3.119 5.403zm-27.986 8.954-50.687 2.195c-13.064.565-24.25 9.541-27.635 22.171-4.281 15.978 5.201 32.401 21.179 36.683 12.63 3.384 25.996-1.816 33.018-12.847l27.244-42.799c1.529-2.4-.277-5.526-3.119-5.403z" fill="#fff36c"/><path d="m377.132 396.643c3.216 10.456.487 22.033-7.454 29.974-11.697 11.697-30.661 11.697-42.357 0-7.941-7.941-10.669-19.518-7.454-29.974 1.402 4.572 3.908 8.842 7.454 12.387 11.697 11.697 30.661 11.697 42.357 0 3.546-3.545 6.052-7.815 7.454-12.387zm-7.453-158.761c-11.697-11.697-30.661-11.697-42.357 0-7.941 7.941-10.669 19.518-7.454 29.974 1.402-4.572 3.908-8.842 7.454-12.387 11.697-11.697 30.661-11.697 42.357 0 3.545 3.545 6.052 7.815 7.454 12.387 3.215-10.456.487-22.033-7.454-29.974zm71.135 123.211c-2.907-10.847-11.568-18.999-22.232-21.442 3.258 3.5 5.703 7.805 7 12.648 4.281 15.978-5.201 32.401-21.179 36.683-4.843 1.298-9.794 1.333-14.454.262 7.448 8.013 18.838 11.438 29.685 8.532 15.979-4.282 25.461-20.706 21.18-36.683zm-163.449-94.368c-15.978 4.281-25.46 20.705-21.179 36.683 2.907 10.847 11.568 18.999 22.232 21.442-3.258-3.5-5.703-7.805-7-12.648-4.281-15.978 5.201-32.401 21.179-36.683 4.843-1.298 9.794-1.333 14.454-.262-7.449-8.013-18.839-11.439-29.686-8.532zm127.039 8.794c15.978 4.281 25.46 20.705 21.179 36.683-1.298 4.843-3.743 9.148-7 12.648 10.663-2.443 19.325-10.595 22.231-21.442 4.281-15.978-5.201-32.401-21.179-36.683-10.847-2.906-22.238.519-29.685 8.532 4.66-1.071 9.611-1.036 14.454.262zm-111.808 113.462c-15.978-4.281-25.46-20.705-21.179-36.683 1.298-4.843 3.743-9.148 7-12.648-10.663 2.443-19.325 10.594-22.231 21.442-4.281 15.978 5.201 32.401 21.179 36.683 10.847 2.906 22.238-.519 29.685-8.532-4.66 1.071-9.611 1.036-14.454-.262z" fill="#fff04a"/><path d="m348.5 168.75c-90.154 0-163.5 73.346-163.5 163.5s73.346 163.5 163.5 163.5 163.5-73.346 163.5-163.5-73.346-163.5-163.5-163.5zm0 312c-81.883 0-148.5-66.617-148.5-148.5s66.617-148.5 148.5-148.5 148.5 66.617 148.5 148.5-66.617 148.5-148.5 148.5z" fill="#ffb52d"/></g></svg>