<svg id="Capa_1" enable-background="new 0 0 512 512" height="512" viewBox="0 0 512 512" width="512" xmlns="http://www.w3.org/2000/svg"><g><path d="m512 256c0 104.196-62.25 193.853-151.589 233.809-4.585 2.051-9.218-5.87-13.941-4.086-28.122 10.623-58.629 18.383-90.47 18.383-31.859 0-62.335-7.766-90.47-18.4-6.053-2.288-12.02 5.042-17.844 2.318-87.244-40.797-147.686-129.352-147.686-232.024s60.442-191.227 147.685-232.024c4.112-1.923 13.768 9.497 17.995 7.79 29.593-11.95 57.786-22.213 91.66-22.213 29.458 0 51.149 5.119 77.488 14.276 6.913 2.403 18.954-4.603 25.583-1.638 89.339 39.956 151.589 129.613 151.589 233.809z" fill="#3342ae"/><path d="m451.863 256c0 108.172-87.691 195.863-195.863 195.863s-195.863-87.691-195.863-195.863 87.691-195.863 195.863-195.863 195.863 87.691 195.863 195.863z" fill="#3d4ec6"/><path d="m402.84 120.003c-4.142 0-7.5 3.358-7.5 7.5v23.964c0 4.142 3.358 7.5 7.5 7.5s7.5-3.358 7.5-7.5v-23.964c0-4.142-3.357-7.5-7.5-7.5zm41.523 169.525c-4.142 0-7.5 3.358-7.5 7.5v23.964c0 4.142 3.358 7.5 7.5 7.5s7.5-3.358 7.5-7.5v-23.964c0-4.142-3.358-7.5-7.5-7.5zm-363.927 26.244c-4.142 0-7.5 3.358-7.5 7.5v23.964c0 4.142 3.358 7.5 7.5 7.5s7.5-3.358 7.5-7.5v-23.964c0-4.142-3.358-7.5-7.5-7.5z" fill="#5766ce"/><path d="m364.702 76.691c-4.142 0-7.5 3.358-7.5 7.5v23.964c0 4.142 3.358 7.5 7.5 7.5s7.5-3.358 7.5-7.5v-23.964c0-4.142-3.358-7.5-7.5-7.5z" fill="#717ed6"/><path d="m141.883 231.971c-4.142 0-7.5 3.358-7.5 7.5v23.964c0 4.142 3.358 7.5 7.5 7.5s7.5-3.358 7.5-7.5v-23.964c0-4.142-3.358-7.5-7.5-7.5z" fill="#a6aee5"/><path d="m150 118.335v-62.565c0-12.379 2.29-24.476 6.716-35.805 30.531-12.858 64.077-19.965 99.284-19.965 34.743 0 67.869 6.921 98.075 19.459-2.597 6.057-5.817 11.878-9.635 17.384-11.487 16.566-27.54 29.059-46.419 36.127l-138.612 51.89c-.792.296-1.619.442-2.442.442-1.4 0-2.788-.422-3.97-1.242-1.877-1.302-2.997-3.441-2.997-5.725zm216.89 102.993c-2.02-1.401-4.6-1.724-6.903-.861l-149.226 55.863c-20.326 7.609-37.607 21.058-49.974 38.893s-18.904 38.734-18.904 60.438v67.356c0 2.459 1.206 4.762 3.226 6.163 1.273.883 2.767 1.337 4.274 1.337.886 0 1.776-.157 2.629-.476l149.227-55.863c20.325-7.609 37.606-21.058 49.974-38.893 12.367-17.835 18.904-38.734 18.904-60.438v-67.356c0-2.459-1.205-4.762-3.227-6.163z" fill="#5766ce"/><path d="m150 118.159v-62.389c0-8.98 1.205-17.812 3.557-26.31 1.66-5.997 6.15-10.814 11.971-13.014 3.945-1.491 7.937-2.887 11.972-4.186 1.606-.517 1.839 3.142 3.46 2.656 2.073-.622 4.158-1.218 6.253-1.789 1.298-.353 3.981-4.857 5.287-5.19 6.771-1.728 13.65-3.186 20.625-4.362 1.063-.179 2.51 2.4 3.577 2.234 2.603-.405 5.218-.771 7.847-1.097 1.317-.163 2.254-3.068 3.577-3.212 6.799-.736 13.677-1.206 20.625-1.399 2.408-.067 4.825 5.878 7.25 5.878 2.593 0 5.176-5.94 7.75-5.864 6.948.207 13.827.69 20.625 1.44 1.232.136 2.491 2.1 3.718 2.254 2.533.317 5.055.67 7.564 1.06 1.252.195 2.472-1.422 3.718-1.209 6.974 1.19 13.853 2.663 20.624 4.405 1.304.336 2.683 2.792 3.979 3.148 2.613.717 5.208 1.474 7.787 2.271 1.107.342 2.134-1.419 3.235-1.062 4.13 1.339 8.214 2.779 12.249 4.319 3.786 1.445 5.487 5.898 3.611 9.49-2.223 4.256-4.769 8.372-7.629 12.318-11.585 15.988-27.897 27.94-46.388 34.862l-137.434 51.449c-.792.296-1.619.442-2.442.442-2.11 0-4.193-.958-5.586-2.794-.942-1.241-1.382-2.792-1.382-4.349zm216.89 103.169c-2.02-1.401-4.6-1.724-6.903-.861l-149.226 55.863c-20.326 7.609-37.607 21.058-49.974 38.893s-18.904 38.734-18.904 60.438v67.356c0 2.459 1.206 4.762 3.226 6.163 1.273.883 2.767 1.337 4.274 1.337.886 0 1.776-.157 2.629-.476l149.227-55.863c20.325-7.609 37.606-21.058 49.974-38.893 12.367-17.835 18.904-38.734 18.904-60.438v-67.356c0-2.459-1.205-4.762-3.227-6.163z" fill="#5766ce"/><path d="m357.557 286.54c-.844 0-1.691-.149-2.504-.453l-142.145-53.213c-19.362-7.248-35.822-20.059-47.603-37.048-11.78-16.989-18.007-36.896-18.007-57.57v-64.16c0-2.342 1.148-4.536 3.073-5.871 1.926-1.335 4.383-1.641 6.576-.82l142.146 53.213c19.361 7.248 35.822 20.059 47.602 37.048s18.007 36.896 18.007 57.57v64.16c0 2.342-1.148 4.536-3.073 5.871-1.212.84-2.636 1.273-4.072 1.273zm-6.955 198.739c-2.16-4.079-4.618-8.027-7.365-11.819-11.586-15.992-27.899-27.947-46.393-34.87l-137.435-51.449c-2.804-1.05-6.053-.21-7.994 2.307-.964 1.25-1.415 2.823-1.415 4.401v62.382c0 8.321 1.035 16.514 3.057 24.432 1.818 7.116 7.038 12.882 13.925 15.436 3.451 1.28 6.937 2.488 10.456 3.621.854.275 2.554-.961 3.412-.695 2.978.924 5.979 1.796 9.002 2.613 1.161.314 1.481 2.127 2.649 2.425 6.771 1.728 13.65 3.186 20.625 4.362.802.135 2.293-1.433 3.097-1.305 2.919.464 5.855.878 8.806 1.242 1.259.155 1.833 2.001 3.097 2.138 6.799.736 13.677 1.206 20.625 1.399 2.725.076 3.745-4.194 6.941-3.074.854.299 1.754.074 2.619-.189 1.231-.374 4.073 3.289 5.44 3.248 6.948-.207 13.827-.69 20.625-1.44.877-.097 1.784-2.132 2.658-2.237 3.247-.392 6.475-.845 9.683-1.357.898-.143 1.764 1.642 2.658 1.489 6.975-1.19 13.854-2.663 20.625-4.406 1.043-.268 1.418-1.959 2.455-2.24 3.106-.842 6.189-1.74 9.247-2.695.879-.274 2.423.862 3.298.578 3.954-1.281 7.865-2.656 11.732-4.122 4.065-1.539 5.905-6.332 3.87-10.175z" fill="#717ed6"/><path d="m316.113 181.82c8.028 11.577 12.271 25.143 12.271 39.231v7.077c0 1.596-.782 3.091-2.094 4.001-.826.573-1.796.868-2.775.868-.575 0-1.152-.102-1.706-.309l-96.864-36.261c-13.194-4.939-24.411-13.669-32.439-25.246s-12.271-25.143-12.271-39.231v-7.077c0-1.596.783-3.091 2.094-4.001 1.312-.91 2.987-1.118 4.481-.559l96.865 36.262c13.192 4.938 24.41 13.668 32.438 25.245z" fill="#8c96dd"/><path d="m224.944 308.566 96.865-36.262c1.494-.559 3.169-.351 4.481.559s2.094 2.404 2.094 4.001v7.078c0 14.088-4.243 27.654-12.271 39.231s-19.245 20.307-32.439 25.246l-96.864 36.261c-.554.207-1.132.309-1.706.309-.979 0-1.949-.295-2.775-.868-1.312-.91-2.094-2.404-2.094-4.001v-7.077c0-14.088 4.243-27.654 12.271-39.231 8.027-11.577 19.244-20.307 32.438-25.246z" fill="#717ed6"/><path d="m106.798 100.521c-4.142 0-7.5 3.358-7.5 7.5v23.964c0 4.142 3.358 7.5 7.5 7.5s7.5-3.358 7.5-7.5v-23.964c0-4.142-3.358-7.5-7.5-7.5z" fill="#20b7a1"/><path d="m366.891 221.328c-2.02-1.401-4.6-1.724-6.903-.861l-149.226 55.863c-20.326 7.609-37.607 21.058-49.974 38.893s-18.904 38.734-18.904 60.438v67.356c0 2.459 1.206 4.762 3.226 6.163 1.273.883 2.767 1.337 4.274 1.337.886 0 1.776-.157 2.629-.476l149.227-55.863c20.325-7.609 37.606-21.058 49.974-38.893 12.367-17.835 18.904-38.734 18.904-60.438v-67.356c-.001-2.459-1.206-4.762-3.227-6.163zm-82.516 163.147-20.625 7.721v-118.946c0-.245-.012-.487-.035-.726l20.66-7.734zm-56.25-98.628 20.625-7.721v119.685l-20.625 7.721zm-15 5.673v119.628l-20.625 7.721v-115.369c0-.007 0-.014 0-.021 6.242-4.821 13.157-8.865 20.625-11.959zm-56.242 84.142c0-21.367 7.606-41.615 20.617-57.569v104.407c0 .654.084 1.289.241 1.893l-20.858 7.808zm142.492 3.118v-119.405c0-.067-.001-.133-.003-.2l20.628-7.722v115.188c-6.233 4.884-13.149 8.989-20.625 12.139zm55.742-83.933c0 21.092-7.412 41.094-20.117 56.951v-105.96l20.117-7.531zm-213.234-168.847v-67.356c0-11.924 1.973-23.604 5.802-34.668 6.555-3.065 13.261-5.861 20.104-8.373-7.001 12.994-10.906 27.73-10.906 43.041v56.54l21.144-7.916c-.34-.857-.528-1.791-.528-2.769v-92.239c4.936-1.589 9.938-3.031 15-4.323v93.914l20.625-7.721v-90.555c4.953-.835 9.955-1.528 15-2.074v87.014l20.625-7.721v-80.693c2.409-.067 4.826-.101 7.251-.101 2.593 0 5.176.039 7.75.115v75.063l20.625-7.721v-65.902c5.046.556 10.047 1.26 15 2.105v58.102c7.476-3.15 14.392-7.255 20.625-12.138v-41.559c5.062 1.303 10.064 2.757 15 4.357v22.358c4.516-5.637 8.364-11.797 11.447-18.344 4.723 1.784 9.379 3.704 13.964 5.754-2.574 5.576-5.645 10.953-9.198 16.077-12.367 17.835-29.648 31.284-49.974 38.893l-149.227 55.863c-.853.319-1.743.476-2.629.476-1.507 0-3.001-.454-4.274-1.337-2.02-1.4-3.226-3.703-3.226-6.162z" fill="#20b7a1"/><path d="m228.125 323.922v55.851c0 4.142-3.358 7.5-7.5 7.5s-7.5-3.358-7.5-7.5v-55.851c0-4.142 3.358-7.5 7.5-7.5s7.5 3.358 7.5 7.5zm-43.125 10.375c-4.142 0-7.5 3.358-7.5 7.5v47.851c0 4.142 3.358 7.5 7.5 7.5s7.5-3.358 7.5-7.5v-47.851c0-4.142-3.358-7.5-7.5-7.5zm71.25-30.25c-4.142 0-7.5 3.358-7.5 7.5v52.851c0 4.142 3.358 7.5 7.5 7.5s7.5-3.358 7.5-7.5v-52.851c0-4.142-3.358-7.5-7.5-7.5zm71.25-10.675c-4.142 0-7.5 3.358-7.5 7.5v35.776c0 4.142 3.358 7.5 7.5 7.5s7.5-3.358 7.5-7.5v-35.776c0-4.142-3.358-7.5-7.5-7.5zm-35.625-3.2c-4.142 0-7.5 3.358-7.5 7.5v52.851c0 4.142 3.358 7.5 7.5 7.5s7.5-3.358 7.5-7.5v-52.851c0-4.142-3.358-7.5-7.5-7.5zm-106.875-253.907c-4.142 0-7.5 3.358-7.5 7.5v35.435c0 4.142 3.358 7.5 7.5 7.5s7.5-3.358 7.5-7.5v-35.435c0-4.142-3.358-7.5-7.5-7.5zm142.5-18.351c-4.142 0-7.5 3.358-7.5 7.5v10.089c0 4.142 3.358 7.5 7.5 7.5s7.5-3.358 7.5-7.5v-10.089c0-4.142-3.358-7.5-7.5-7.5zm-35.625 0c-4.142 0-7.5 3.358-7.5 7.5v23.964c0 4.142 3.358 7.5 7.5 7.5s7.5-3.358 7.5-7.5v-23.964c0-4.142-3.358-7.5-7.5-7.5zm-35.625 3.544c-4.142 0-7.5 3.358-7.5 7.5v34.466c0 4.142 3.358 7.5 7.5 7.5s7.5-3.358 7.5-7.5v-34.466c0-4.143-3.358-7.5-7.5-7.5zm-35.625 7.307c-4.142 0-7.5 3.358-7.5 7.5v32.584c0 4.142 3.358 7.5 7.5 7.5s7.5-3.358 7.5-7.5v-32.584c0-4.142-3.358-7.5-7.5-7.5z" fill="#24d3b5"/><path d="m334.829 361.793c-4.142 0-7.5 3.358-7.5 7.5v23.964c0 4.142 3.358 7.5 7.5 7.5s7.5-3.358 7.5-7.5v-23.964c0-4.142-3.358-7.5-7.5-7.5z" fill="#c8e2fd"/><path d="m351.213 156.715c-12.367-17.835-29.648-31.284-49.974-38.893l-149.226-55.864c-2.302-.862-4.881-.541-6.903.861-2.021 1.401-3.226 3.704-3.226 6.163v67.356c0 21.704 6.537 42.603 18.904 60.438s29.648 31.284 49.974 38.893l149.226 55.863c.854.319 1.743.476 2.629.476 1.508 0 3.002-.454 4.274-1.337 2.021-1.401 3.227-3.704 3.227-6.163v-67.356c-.001-21.703-6.538-42.602-18.905-60.437zm-31.211-11.355c-.001.047-.002.094-.002.14v115.047l-20.625-7.721v-119.606c7.476 3.15 14.393 7.256 20.627 12.14zm-91.877 80.015v-118.907l20.696 7.748c-.047.338-.071.683-.071 1.034v118.624l-20.663-7.735c.025-.252.038-.506.038-.764zm35.625 13.875v-119.446l20.626 7.721c0 .033-.001.066-.001.099v119.586l-20.629-7.723c.002-.078.004-.157.004-.237zm-106.867-102.912v-56.54l20.617 7.718v106.391c-13.01-15.954-20.617-36.202-20.617-57.569zm35.617 72.183v-115.389l20.643 7.728c-.012.17-.018.342-.018.516v119.104c-7.468-3.094-14.383-7.138-20.625-11.959zm162.617 65.172-20.288-7.595c.112-.515.171-1.05.171-1.598v-104.298c12.706 15.857 20.117 35.859 20.117 56.951zm-3.904 200.039c3.553 5.124 6.625 10.501 9.198 16.077-4.585 2.051-9.241 3.97-13.964 5.754-3.083-6.547-6.931-12.707-11.447-18.344v22.358c-4.936 1.6-9.938 3.054-15 4.357v-41.559c-6.233-4.883-13.149-8.988-20.625-12.138v58.103c-4.953.845-9.954 1.548-15 2.105v-65.902l-20.625-7.721v75.063c-2.574.076-5.157.115-7.75.115-2.425 0-4.842-.034-7.25-.101v-80.693l-20.625-7.721v87.015c-5.045-.546-10.047-1.239-15-2.074v-90.556l-20.625-7.721v93.914c-5.062-1.292-10.064-2.735-15-4.323v-95.206l-20.617-7.718v56.54c0 15.311 3.906 30.047 10.906 43.041-6.843-2.512-13.549-5.307-20.104-8.373-3.829-11.063-5.802-22.744-5.802-34.668v-67.356c0-2.459 1.206-4.762 3.226-6.163 2.022-1.402 4.602-1.723 6.903-.861l149.227 55.863c20.325 7.609 37.607 21.058 49.974 38.893z" fill="#a7d0fc"/><path d="m185 176.5c-4.142 0-7.5-3.358-7.5-7.5v-54.5c0-4.142 3.358-7.5 7.5-7.5 4.142 0 7.5 3.358 7.5 7.5v54.5c0 4.142-3.358 7.5-7.5 7.5zm43.125 15.438v-54.5c0-4.142-3.358-7.5-7.5-7.5-4.142 0-7.5 3.358-7.5 7.5v54.5c0 4.142 3.358 7.5 7.5 7.5 4.142 0 7.5-3.358 7.5-7.5zm35.625-5.063v-54.5c0-4.142-3.358-7.5-7.5-7.5-4.142 0-7.5 3.358-7.5 7.5v54.5c0 4.142 3.358 7.5 7.5 7.5 4.142 0 7.5-3.358 7.5-7.5zm35.625 19.688v-56c0-4.142-3.358-7.5-7.5-7.5-4.142 0-7.5 3.358-7.5 7.5v56c0 4.142 3.358 7.5 7.5 7.5 4.142 0 7.5-3.358 7.5-7.5zm35.625 15.937v-52c0-4.142-3.358-7.5-7.5-7.5-4.142 0-7.5 3.358-7.5 7.5v52c0 4.142 3.358 7.5 7.5 7.5 4.142 0 7.5-3.358 7.5-7.5zm-142.5 256.75v-54.5c0-4.142-3.358-7.5-7.5-7.5-4.142 0-7.5 3.358-7.5 7.5v54.5c0 4.142 3.358 7.5 7.5 7.5 4.142 0 7.5-3.358 7.5-7.5zm35.625 4.918v-42.543c0-4.142-3.358-7.5-7.5-7.5-4.142 0-7.5 3.358-7.5 7.5v42.543c0 4.142 3.358 7.5 7.5 7.5 4.142 0 7.5-3.358 7.5-7.5zm35.625 3.357v-41.3c0-4.142-3.358-7.5-7.5-7.5-4.142 0-7.5 3.358-7.5 7.5v41.3c0 4.142 3.358 7.5 7.5 7.5 4.142 0 7.5-3.358 7.5-7.5zm35.625 3.209v-27.922c0-4.142-3.358-7.5-7.5-7.5-4.142 0-7.5 3.358-7.5 7.5v27.922c0 4.142 3.358 7.5 7.5 7.5 4.142 0 7.5-3.358 7.5-7.5zm35.625-9.484v-10.854c0-4.142-3.358-7.5-7.5-7.5-4.142 0-7.5 3.358-7.5 7.5v10.854c0 4.142 3.358 7.5 7.5 7.5 4.142 0 7.5-3.358 7.5-7.5z" fill="#c8e2fd"/></g></svg>