<svg id="Capa_1" enable-background="new 0 0 512 512" height="512" viewBox="0 0 512 512" width="512" xmlns="http://www.w3.org/2000/svg"><g><path d="m511.99 253.75c.703 81.802-36.965 154.834-96.091 202.182-4.1 3.283-9.869 3.55-14.185.557-41.357-28.682-91.573-45.489-145.714-45.489-54.361 0-104.765 16.944-146.218 45.839-3.956 2.758-9.289 2.59-13.062-.413-58.938-46.901-96.72-119.251-96.72-200.426 0-119.184 81.447-219.345 191.718-247.862 20.659 5.379 42.314 8.231 64.609 8.203 22.085-.028 43.515-2.852 63.955-8.138 109.273 28.452 190.695 127.626 191.708 245.547z" fill="#f44545"/><path d="m462.446 247.21c0 114.017-92.429 206.446-206.446 206.446s-206.446-92.429-206.446-206.446 92.429-206.445 206.446-206.445 206.446 92.429 206.446 206.445z" fill="#fb5858"/><path d="m405 129c0 18.778-15.222 34-34 34s-34-15.222-34-34c0-3.897.656-7.641 1.864-11.128-25.037-5.149-43.864-27.312-43.864-53.872 0-30.376 24.624-55 55-55s55 24.624 55 55c0 14.332-5.482 27.383-14.462 37.171 8.746 6.153 14.462 16.323 14.462 27.829z" fill="#fff68e"/><path d="m385.999 97c-.269 53.618-43.818 97-97.498 97-11.396 0-22.335-1.955-32.5-5.548-10.165 3.593-21.104 5.548-32.5 5.548-27.418 0-52.193-11.318-69.907-29.536-3.885 3.444-8.995 5.536-14.594 5.536-12.15 0-22-9.85-22-22 0-9.339 5.819-17.318 14.028-20.511-3.211-9.585-4.973-19.835-5.027-30.489.269-53.618 43.818-97 97.498-97 11.396 0 22.335 1.955 32.5 5.548 10.166-3.593 21.105-5.548 32.501-5.548 53.681 0 97.229 43.382 97.499 97z" fill="#ffcd71"/><path d="m96 455.852v-86.602c0-38.66 31.34-70 70-70h35.045c-35.872 3.022-64.045 33.096-64.045 69.75v102.684c0 5.004-5.431 8.15-9.753 5.63-10.96-6.39-21.401-13.57-31.247-21.462z" fill="#ffb52d"/><path d="m416 369.25v86.602c-32.701 26.214-71.975 44.569-114.956 52.198-4.502.799-5.483-8.471-10.063-7.91-10.297 1.26-24.344 3.2-34.981 3.2-12.075 0-20.392-2.128-32.021-3.745-3.173-.441-9.889 9.011-13.023 8.454-30.532-5.42-59.192-16.251-84.956-31.467v-107.332c0-38.66 31.34-70 70-70h14.956l9.789 5.963h69.957l10.342-5.963h44.956c38.66 0 70 31.34 70 70z" fill="#ffc14f"/><path d="m210.956 508.049v-191.155c0-3.808 3.087-6.894 6.894-6.894h76.299c3.808 0 6.894 3.087 6.894 6.894v191.155c-14.622 2.596-29.674 3.951-45.043 3.951s-30.421-1.355-45.044-3.951z" fill="#ffe7c0"/><path d="m372.021 484.26v-97.618c0-4.142-3.358-7.5-7.5-7.5-4.142 0-7.5 3.358-7.5 7.5v104.653c5.088-2.187 10.09-4.534 15-7.035zm-217.042 7.035v-104.653c0-4.142-3.358-7.5-7.5-7.5-4.142 0-7.5 3.358-7.5 7.5v97.618c4.91 2.501 9.912 4.848 15 7.035z" fill="#ffb52d"/><path d="m146 209.25c-13.807 0-25-11.193-25-25v-10c0-13.807 11.193-25 25-25 13.807 0 25 11.193 25 25v10c0 13.807-11.193 25-25 25z" fill="#faa68e"/><path d="m391 174.25v10c0 13.807-11.193 25-25 25-2.468 0-4.853-.358-7.105-1.024-12.254 32.332-39.309 57.384-72.895 66.883v24.141h15.044v17.712c0 24.58-19.898 44.558-44.478 44.575-.377 0-.755 0-1.132 0-24.58-.017-44.478-19.995-44.478-44.575v-17.712h15.044v-15.808c-18.643 6.648-40.271 2.51-55.197-12.416l-17.208-17.208c-12.429-12.429-17.378-29.506-14.847-45.637-10.271-3.108-17.748-12.646-17.748-23.931v-10c0-13.806 11.192-24.999 24.998-25-6.071 4.561-9.998 11.822-9.998 20v20c0 4.944 1.436 9.553 3.913 13.433 1.52-5.672 4-11.14 7.438-16.147-.889-5.631-1.351-11.405-1.351-17.286v-40c0-60.751 49.249-110 110-110 60.751 0 110 49.249 110 110v20c13.807 0 25 11.193 25 25z" fill="#e09380"/><path d="m358.405 253.818-17.208 17.208c-18.334 18.334-46.781 20.392-67.386 6.173-5.568.296-11.172-.288-16.595-1.754-46.791-12.652-81.216-55.403-81.216-106.195v-40c0-55.663 41.345-101.669 95-108.985 53.655 7.316 95 53.322 95 108.985v40c0 5.881-.462 11.654-1.351 17.285 14.141 20.597 12.06 48.979-6.244 67.283z" fill="#faa68e"/><path d="m247 128.5c0 14.635-14.327 26.5-32 26.5s-32-11.865-32-26.5 14.327-26.5 32-26.5 32 11.865 32 26.5zm50-26.5c-17.673 0-32 11.865-32 26.5s14.327 26.5 32 26.5 32-11.865 32-26.5-14.327-26.5-32-26.5z" fill="#e09380"/><path d="m234.446 120.947c2.929 2.929 2.928 7.678 0 10.606-5.361 5.36-12.403 8.041-19.445 8.041s-14.084-2.681-19.445-8.041c-2.929-2.929-2.929-7.678 0-10.606 2.93-2.93 7.677-2.929 10.607-.001 4.874 4.873 12.804 4.873 17.678 0 2.927-2.928 7.676-2.927 10.605.001zm82 0c-2.929-2.929-7.678-2.93-10.607-.001-4.874 4.873-12.804 4.873-17.678 0-2.93-2.928-7.677-2.929-10.607.001-2.929 2.929-2.928 7.678 0 10.606 5.361 5.36 12.403 8.041 19.445 8.041s14.084-2.681 19.445-8.041c2.93-2.928 2.931-7.677.002-10.606z" fill="#b2705b"/><path d="m272 171.5v18c0 4.142-3.358 7.5-7.5 7.5s-7.5-3.358-7.5-7.5v-18c0-4.142 3.358-7.5 7.5-7.5s7.5 3.358 7.5 7.5z" fill="#e9f3fe"/><path d="m241.5 175.981c-2.929-2.93-2.929-7.678 0-10.607 2.929-2.928 7.678-2.928 10.606 0 1.042 1.042 2.424 1.616 3.893 1.616s2.851-.574 3.893-1.616c2.929-2.928 7.678-2.928 10.606 0 2.929 2.93 2.929 7.678 0 10.607-3.875 3.875-9.024 6.009-14.5 6.009s-10.623-2.134-14.498-6.009zm44.803 37.936c-8.354-8.354-19.329-12.531-30.303-12.531s-21.949 4.177-30.303 12.531c-2.929 2.93-2.929 7.678 0 10.607 2.929 2.928 7.678 2.928 10.606 0 10.861-10.861 28.532-10.861 39.394 0 2.929 2.928 7.678 2.928 10.606 0 2.929-2.929 2.929-7.677 0-10.607z" fill="#f87b67"/><path d="m386 97.5.148 61.947c-34.637-8.182-62.284-34.893-71.671-69.048-23.602-.964-46.92-10.456-64.94-28.475l-34.537-34.538s-.868-.894-2.256-2.334c-8.987-9.323-2.504-25.011 10.446-25.052h.31c11.396 0 22.335 1.955 32.5 5.548 10.165-3.593 21.104-5.548 32.5-5.548 53.848 0 97.5 43.652 97.5 97.5z" fill="#fff68e"/><path d="m176.064 180.335c-5.052-5.052-6.242-12.796-2.941-19.132l12.808-24.581c.718-1.378 2.69-1.378 3.409 0l12.808 24.581c3.301 6.336 2.11 14.08-2.941 19.132-6.392 6.391-16.753 6.391-23.143 0zm-15.062-58.709c-3.164-3.164-3.91-8.015-1.842-11.983l8.022-15.396c.45-.863 1.685-.863 2.135 0l8.022 15.396c2.068 3.968 1.322 8.819-1.842 11.983-4.003 4.003-10.492 4.003-14.495 0z" fill="#a6aee5"/><path d="m199.205 180.335c-6.39 6.39-16.751 6.39-23.141 0-4.338-4.338-5.829-10.664-4.072-16.376.766 2.498 2.135 4.831 4.072 6.767 6.39 6.39 16.751 6.39 23.141 0 1.937-1.937 3.306-4.27 4.072-6.767 1.757 5.713.267 12.038-4.072 16.376zm-23.708-58.709c2.717-2.717 3.651-6.679 2.551-10.257-.48 1.564-1.337 3.025-2.551 4.239-4.002 4.002-10.492 4.002-14.494 0-1.213-1.213-2.071-2.674-2.551-4.239-1.1 3.578-.167 7.54 2.551 10.257 4.002 4.003 10.491 4.003 14.494 0z" fill="#8c96dd"/></g></svg>