<svg id="Capa_1" enable-background="new 0 0 512 512" height="512" viewBox="0 0 512 512" width="512" xmlns="http://www.w3.org/2000/svg"><g><path d="m512 256c0 141.385-114.615 256-256 256-50.462 0-97.514-14.6-137.162-39.807-2.323-1.477.603-5.944-1.668-7.492-6.737-4.594-13.243-9.501-19.498-14.701-2.009-1.67-9.215-.417-11.171-2.147-53.051-46.905-86.501-115.472-86.501-191.853 0-141.385 114.615-256 256-256s256 114.615 256 256z" fill="#55a4f9"/><path d="m476.843 225.885c0 100.763-81.684 182.447-182.447 182.447s-182.447-81.684-182.447-182.447 81.685-182.446 182.447-182.446 182.447 81.684 182.447 182.446z" fill="#76b6fa"/><path d="m321.245 86.693v159.785l-138.378 79.892-138.377-79.892v-159.785l138.377-79.892z" fill="#ffa90b"/><path d="m283.458 125.431v82.309c0 10.471-5.586 20.147-14.655 25.382l-71.282 41.155c-9.068 5.236-20.241 5.236-29.309 0l-71.282-41.154c-9.068-5.236-14.655-14.911-14.655-25.382v-82.309c0-10.471 5.586-20.147 14.655-25.382l71.282-41.155c9.068-5.236 20.241-5.236 29.309 0l71.282 41.155c9.069 5.234 14.655 14.91 14.655 25.381z" fill="#ffb52d"/><path d="m324.995 80.897-138.378-79.892c-2.32-1.34-5.18-1.34-7.5 0l-138.377 79.892c-2.32 1.34-3.75 3.815-3.75 6.495v159.785c0 2.68 1.43 5.155 3.75 6.495l138.377 79.893c1.16.67 2.455 1.005 3.75 1.005s2.59-.335 3.75-1.005l138.378-79.893c2.32-1.34 3.75-3.815 3.75-6.495v-159.784c0-2.68-1.43-5.156-3.75-6.496zm-11.25 161.95-130.878 75.563-130.877-75.563v-151.124l130.877-75.563 130.878 75.563z" fill="#f29500"/><path d="m156.25 63.893v85.417l-73.973 42.708-73.974-42.708v-85.417l73.973-42.708z" fill="#ffb52d"/><path d="m123.212 92.205v28.793c0 5.716-3.05 10.998-8 13.856l-24.936 14.397c-4.95 2.858-11.05 2.858-16 0l-24.936-14.396c-4.95-2.858-8-8.14-8-13.856v-28.794c0-5.716 3.05-10.998 8-13.856l24.936-14.397c4.95-2.858 11.05-2.858 16 0l24.936 14.397c4.95 2.857 8 8.14 8 13.856z" fill="#ffc14f"/><path d="m160 57.398-73.974-42.709c-2.32-1.34-5.18-1.34-7.5 0l-73.973 42.709c-2.32 1.34-3.75 3.815-3.75 6.495v85.417c0 2.68 1.43 5.155 3.75 6.495l73.974 42.708c1.16.67 2.455 1.005 3.75 1.005s2.59-.335 3.75-1.005l73.973-42.708c2.32-1.34 3.75-3.815 3.75-6.495v-85.417c0-2.68-1.43-5.155-3.75-6.495zm-11.25 87.582-66.474 38.378-66.473-38.378v-76.757l66.474-38.379 66.474 38.379v76.757z" fill="#f29500"/><path d="m470.73 209.133-31.309 31.308c-32.359 32.359-84.824 32.359-117.184 0-32.359-32.359-32.359-84.824 0-117.184l31.309-31.308c32.359-32.359 84.824-32.359 117.184 0 32.36 32.36 32.36 84.825 0 117.184z" fill="#fff36c"/><path d="m475.976 97.705c-21.904-.554-43.985 7.526-60.702 24.243l-63.038 63.038c-16.716 16.717-24.797 38.798-24.243 60.702-1.979-1.642-3.9-3.39-5.755-5.245-32.359-32.359-32.359-84.824 0-117.184l31.309-31.308c32.359-32.359 84.824-32.359 117.184 0 1.854 1.853 3.602 3.774 5.245 5.754z" fill="#fff04a"/><path d="m321.855 440.024c-10.515-10.515-12.993-26.635-6.122-39.822l26.658-51.165c1.495-2.869 5.6-2.869 7.095 0l26.658 51.165c6.871 13.187 4.393 29.307-6.122 39.822-13.3 13.301-34.865 13.301-48.167 0zm85.885-87.764c-8.158-8.158-10.08-20.664-4.75-30.895l20.683-39.696c1.16-2.226 4.345-2.226 5.504 0l20.682 39.696c5.331 10.231 3.408 22.738-4.75 30.895-10.318 10.32-27.049 10.32-37.369 0zm-285.039-139.521c-13.856-13.856-17.122-35.1-8.067-52.478l35.131-67.426c1.97-3.781 7.38-3.781 9.35 0l35.131 67.426c9.054 17.378 5.789 38.622-8.067 52.478-17.53 17.529-45.949 17.529-63.478 0z" fill="#fff36c"/><path d="m378.499 405.938c3.657 11.891.554 25.056-8.476 34.086-13.301 13.301-34.867 13.301-48.168 0-9.03-9.03-12.133-22.195-8.476-34.086 1.595 5.199 4.445 10.054 8.476 14.086 13.301 13.301 34.867 13.301 48.168 0 4.032-4.032 6.882-8.887 8.476-14.086zm73.188-80.123c2.837 9.225.43 19.439-6.576 26.445-10.32 10.32-27.051 10.32-37.37 0-7.006-7.006-9.413-17.22-6.576-26.445 1.237 4.033 3.448 7.801 6.576 10.928 10.32 10.32 27.051 10.32 37.37 0 3.128-3.127 5.339-6.895 6.576-10.928zm-254.34-157.995c4.819 15.67.73 33.019-11.17 44.919-17.528 17.528-45.948 17.528-63.476 0-11.9-11.9-15.989-29.249-11.17-44.919 2.101 6.851 5.857 13.25 11.17 18.563 17.528 17.528 45.948 17.528 63.476 0 5.313-5.313 9.069-11.712 11.17-18.563z" fill="#fff04a"/><path d="m379.328 211.693-260.473 260.474c-11.423-7.265-22.232-15.41-32.332-24.338l264.47-264.47z" fill="#7c665d"/><path d="m378.806 212.157-197.99 197.99c-3.905 3.905-10.237 3.905-14.142 0s-3.905-10.237 0-14.142l197.99-197.99c3.905-3.905 10.237-3.905 14.142 0s3.906 10.237 0 14.142z" fill="#8f766c"/><path d="m453.76 159.831-70.711 70.711-50.912-50.912 70.711-70.711z" fill="#f29500"/><path d="m403.321 214.816c5.858 5.858 5.858 15.355 0 21.213l-3.857 3.857c-5.858 5.858-15.355 5.858-21.213 0l-55.458-55.457c-5.858-5.858-5.858-15.355 0-21.213l3.857-3.857c5.858-5.858 15.355-5.858 21.213 0zm-30.364-97.218c-5.858-5.858-15.355-5.858-21.213 0l-3.857 3.857c-5.858 5.858-5.858 15.355 0 21.213l72.125 72.125c5.858 5.858 15.355 5.858 21.213 0l3.857-3.857c5.858-5.858 5.858-15.355 0-21.213zm97.218 30.364-55.458-55.458c-5.858-5.858-15.355-5.858-21.213 0l-3.857 3.857c-5.858 5.858-5.858 15.355 0 21.213l55.457 55.458c5.858 5.858 15.355 5.858 21.213 0l3.857-3.857c5.859-5.858 5.859-15.355.001-21.213z" fill="#ffb52d"/><path d="m437.866 115.654 32.309 32.309c5.858 5.858 5.858 15.355 0 21.213l-3.857 3.857c-5.855 5.855-15.347 5.858-21.205.008l-32.317-32.317c-5.858-5.858-5.858-15.355 0-21.213l3.857-3.857c5.858-5.858 15.355-5.858 21.213 0zm-66.862 66.845c-5.858-5.85-15.35-5.847-21.205.008l-3.857 3.857c-5.855 5.855-5.858 15.347-.008 21.205l32.317 32.317c5.858 5.858 15.355 5.858 21.213 0l3.857-3.857c5.858-5.858 5.858-15.355 0-21.213zm25.095-41.759c-5.859-5.851-15.351-5.849-21.207.006l-3.857 3.857c-5.858 5.858-5.858 15.355 0 21.213l48.982 48.982c5.859 5.851 15.351 5.849 21.207-.006l3.857-3.857c5.858-5.858 5.858-15.355 0-21.213z" fill="#ffc14f"/></g></svg>