<svg id="Capa_1" enable-background="new 0 0 512 512" height="512" viewBox="0 0 512 512" width="512" xmlns="http://www.w3.org/2000/svg"><g><path d="m54.318 413.689c-34.669-44.279-55.074-100.263-54.297-161.039 1.788-139.776 116.479-252.803 256.266-252.65 141.253.155 255.713 114.711 255.713 256 0 88.558-44.967 166.613-113.313 212.579-7.698 5.177-17.987 3.86-24.384-2.859-46.631-48.973-112.464-79.496-185.425-79.496-43.787 0-85.006 10.993-121.048 30.37-4.598 2.472-10.294 1.205-13.512-2.905z" fill="#3d4ec6"/><path d="m297.74 102.26c-8.158-8.158-10.08-20.664-4.75-30.895l20.683-39.696c1.16-2.226 4.345-2.226 5.504 0l20.682 39.696c5.331 10.231 3.408 22.738-4.75 30.895-10.318 10.32-27.049 10.32-37.369 0zm74.325 22.947c-5.052-5.052-6.242-12.796-2.941-19.132l12.808-24.581c.718-1.378 2.69-1.378 3.409 0l12.808 24.581c3.301 6.336 2.11 14.08-2.941 19.132-6.392 6.391-16.752 6.391-23.143 0z" fill="#a7d0fc"/><path d="m341.687 75.815c2.837 9.225.43 19.439-6.576 26.445-10.32 10.32-27.051 10.32-37.37 0-7.006-7.006-9.413-17.22-6.576-26.445 1.237 4.033 3.448 7.801 6.576 10.928 10.32 10.319 27.051 10.319 37.37 0 3.128-3.127 5.339-6.895 6.576-10.928zm57.592 33.016c-.766 2.498-2.135 4.831-4.072 6.768-6.39 6.39-16.751 6.39-23.141 0-1.937-1.937-3.306-4.27-4.072-6.768-1.757 5.713-.266 12.038 4.072 16.376 6.39 6.39 16.751 6.39 23.141 0 4.338-4.338 5.829-10.663 4.072-16.376z" fill="#86befb"/><path d="m236.878 60v90c0 11.046-8.954 20-20 20h-80c-11.046 0-20-8.954-20-20v-90c0-11.046 8.954-20 20-20h4v-20h-20c-5.523 0-10-4.477-10-10s4.477-10 10-10h40c5.523 0 10 4.477 10 10h42v30h4c11.045 0 20 8.954 20 20z" fill="#20b7a1"/><path d="m236.878 60v90c0 11.046-8.954 20-20 20h-56c-11.046 0-20-8.954-20-20v-90c0-11.046 8.954-20 20-20h56c11.045 0 20 8.954 20 20zm44-60h-120c-5.523 0-10 4.477-10 10s4.477 10 10 10h120c5.523 0 10-4.477 10-10s-4.477-10-10-10z" fill="#24d3b5"/><path d="m53.755 412.968v-252.968c0-33.137 26.863-60 60-60h126.245c33.137 0 60 26.863 60 60v282h-150.299c-19.122 0-37.08 2.777-52.646 7.647-3.91 1.223-8.185.318-11.244-2.407-11.697-10.417-22.432-21.891-32.056-34.272z" fill="#a7d0fc"/><path d="m240 380h-60c-33.137 0-60-26.863-60-60v-160c0-33.137 26.863-60 60-60h60c33.137 0 60 26.863 60 60v160c0 33.137-26.863 60-60 60z" fill="#c8e2fd"/><path d="m95.72 278.204h177.01v223.232c0 5.688-4.536 10.341-10.222 10.483-2.163.054-4.332.081-6.508.081-65.38 0-125.035-24.509-170.28-64.841v-158.955c0-5.523 4.478-10 10-10z" fill="#717ed6"/><path d="m120 278.204v41.796c0 33.137 26.863 60 60 60h60c12.075 0 23.318-3.567 32.73-9.706v-92.09zm34.277 35.945c-6.957 0-12.596-5.639-12.596-12.596s5.639-12.596 12.596-12.596c6.956 0 12.596 5.639 12.596 12.596s-5.64 12.596-12.596 12.596zm34.847 54.422c-9.495 0-17.191-7.697-17.191-17.191s7.697-17.192 17.191-17.192 17.192 7.697 17.192 17.192-7.698 17.191-17.192 17.191zm-42.568 39.761c0 6.956-5.639 12.596-12.596 12.596-6.956 0-12.596-5.639-12.596-12.596 0-6.956 5.639-12.596 12.596-12.596s12.596 5.64 12.596 12.596zm42.568 19.285c-9.495 0-17.191 7.697-17.191 17.191s7.696 17.192 17.191 17.192 17.191-7.697 17.191-17.191-7.697-17.192-17.191-17.192z" fill="#8c96dd"/><path d="m207.263 172.803c12.977-2.896 26.232-4.356 39.528-4.356h159.034c14.49 0 28.928 1.735 43.005 5.168l26.181 6.385-82.607 272.098c-5.032 16.572-20.312 27.902-37.631 27.902h-59.524c-17.319 0-32.6-11.33-37.631-27.902l-82.607-272.098z" fill="#ffb52d"/><path d="m405.825 168.447c14.49 0 28.928 1.735 43.005 5.168l26.18 6.385-52.249 172.102c-9.318 30.691-37.617 51.674-69.692 51.674-32.075 0-60.374-20.983-69.691-51.674l-55.458-182.671c6.264-.655 12.563-.984 18.871-.984z" fill="#ffc14f"/><path d="m281.447 508.957c.001 1.004-.716 1.866-1.715 1.957-6.722.618-13.518.976-20.38 1.064-5.22-.335-9.351-4.674-9.351-9.979v-45c0-5.523 4.477-10 10-10h21.818c-.242.983-.371 2.01-.371 3.068v58.87c-.001.007-.001.013-.001.02z" fill="#20b7a1"/><path d="m400.021 452v15.675c-35.225 24.013-76.753 39.463-121.59 43.355-3.371-1.608-5.7-5.047-5.7-9.031v-50c0-5.523 4.477-10 10-10h107.291c5.522.001 9.999 4.478 9.999 10.001z" fill="#24d3b5"/><path d="m400.021 462h-150.021v-14.064c0-3.278 2.658-5.936 5.936-5.936h138.149c3.278 0 5.936 2.658 5.936 5.936z" fill="#199a8e"/><path d="m272.73 447.936v14.064h-22.73v-14.064c0-3.278 2.658-5.936 5.936-5.936h22.73c-3.278 0-5.936 2.658-5.936 5.936zm75.765 4.064c0-5.523-4.477-10-10-10h-26.97c-5.523 0-10 4.477-10 10 0 5.523 4.477 10 10 10h26.97c5.523 0 10-4.477 10-10z" fill="#147d73"/><path d="m475.011 180h-300c0-16.569 13.431-30 30-30h240c16.568 0 30 13.431 30 30z" fill="#ffa90b"/><path d="m353.462 385.505h-56.903c-3.94 0-7.134-3.194-7.134-7.134 0-3.94 3.194-7.134 7.134-7.134h56.903c3.94 0 7.134 3.194 7.134 7.134 0 3.94-3.194 7.134-7.134 7.134zm-8.894 21.031c0-3.94-3.194-7.134-7.134-7.134h-24.847c-3.94 0-7.134 3.194-7.134 7.134 0 3.94 3.194 7.134 7.134 7.134h24.847c3.94 0 7.134-3.194 7.134-7.134zm-113.44-226.536h-55.788c0-16.569 13.432-30 30-30h55.787c-16.568 0-29.999 13.431-29.999 30zm-46.646 31.197h102.562c44.205 0 75.857 42.688 63.015 84.986-8.425 27.751-34.013 46.724-63.015 46.724h-62.575z" fill="#f29500"/><path d="m240.6 211.197h224.94l-39.987 131.711h-144.966z" fill="#ffa90b"/><path d="m298.813 306.727c-12.404-12.404-15.327-31.421-7.222-46.977l31.448-60.359c1.763-3.384 6.606-3.384 8.37 0l31.448 60.359c8.105 15.557 5.182 34.573-7.222 46.977-15.69 15.691-41.131 15.691-56.822 0z" fill="#fff79f"/><path d="m365.635 266.516c4.314 14.027.654 29.558-9.999 40.211-15.691 15.691-41.132 15.691-56.823 0-10.653-10.653-14.313-26.183-9.999-40.211 1.881 6.133 5.243 11.861 9.999 16.617 15.691 15.691 41.132 15.691 56.823 0 4.756-4.756 8.118-10.484 9.999-16.617z" fill="#fff36c"/></g></svg>