<svg id="Capa_1" enable-background="new 0 0 512 512" height="512" viewBox="0 0 512 512" width="512" xmlns="http://www.w3.org/2000/svg"><g><path d="m472.417 392.807c-45.378 71.635-125.343 119.193-216.416 119.193-141.134.001-256.002-114.867-256.001-256.001 0-88.934 45.35-167.276 114.186-213.162 5.446-3.631 12.267 2.119 9.641 8.114-13.762 31.416-21.398 66.127-21.398 102.621 0 141.499 114.503 256.001 256.002 256 38.548 0 75.105-8.521 107.893-23.78 4.374-2.037 8.675 2.939 6.093 7.015z" fill="#faa68e"/><path d="m512 256c0 52.799-15.984 101.865-43.378 142.622-40.757 27.394-89.823 43.378-142.622 43.378-141.385 0-256-114.615-256-256 0-52.799 15.984-101.865 43.378-142.622 40.757-27.394 89.823-43.378 142.622-43.378 141.385 0 256 114.615 256 256z" fill="#ffbeaa"/><path d="m366.316 85.753c38.1 18.222 70.991 45.589 95.829 79.26 15.54 21.066 15.45 49.891-.104 70.946-46.623 63.112-121.553 104.041-206.041 104.041s-159.417-40.929-206.041-104.041c-15.555-21.055-15.644-49.88-.104-70.946 24.838-33.671 57.729-61.038 95.829-79.26 33.928-16.226 73.471-14.78 106.674 2.882 1.208.643 2.422 1.276 3.642 1.9 1.22-.624 2.434-1.257 3.642-1.9 33.203-17.663 72.746-19.109 106.674-2.882z" fill="#f87b67"/><path d="m61.232 197.306c-13.98-3.713-20.08-20.376-11.55-32.058.057-.079.115-.157.173-.236 24.701-33.485 57.366-60.736 95.2-78.957 34.082-16.415 73.835-15.24 107.225 2.538 1.234.657 2.474 1.304 3.72 1.942 1.286-.658 2.565-1.326 3.838-2.004 33.265-17.733 72.88-18.915 106.86-2.594 37.938 18.222 70.692 45.518 95.447 79.076.058.079.116.157.173.236 8.53 11.682 2.43 28.345-11.55 32.058-59.063 15.687-125.091 24.46-194.768 24.46s-135.705-8.775-194.768-24.461z" fill="#fa9084"/><path d="m421 206c0 27.614-22.386 50-50 50h-230c-27.614 0-50-22.386-50-50 0-27.614 22.386-50 50-50h50c5.801 3.305 12.362 5.043 19.038 5.043h21.925c6.676 0 13.237-1.738 19.038-5.043h10l1.831.826c5.974 2.695 12.452 4.089 19.006 4.089h18.425c7.202 0 14.304-1.683 20.739-4.915h50c27.612 0 49.998 22.386 49.998 50z" fill="#fb5858"/><path d="m181.624 256h-40.624c-27.614 0-50-22.386-50-50 0-27.614 22.386-50 50-50h40.624c-27.614 0-50 22.386-50 50 0 27.614 22.386 50 50 50z" fill="#f44545"/><path d="m397.511 248.401c-7.686 4.815-16.773 7.599-26.511 7.599h-230c-9.738 0-18.825-2.784-26.511-7.599 40.537-26.939 89.191-42.635 141.511-42.635s100.974 15.696 141.511 42.635z" fill="#c42d2d"/><path d="m191 156h60v9c0 8.284-6.716 15-15 15h-30c-8.284 0-15-6.716-15-15zm70 0v9c0 8.284 6.716 15 15 15h30c8.284 0 15-6.716 15-15v-9z" fill="#c8e2fd"/><path d="m306 180h-16.042c-8.284 0-15-6.716-15-15v-9h46.042v9c0 8.284-6.716 15-15 15zm-55-15v-9h-46.042v9c0 8.284 6.716 15 15 15h16.042c8.284 0 15-6.716 15-15z" fill="#e9f3fe"/><path d="m179.38 230.797-74.185 86.583c-1.128 1.317-2.614 2.146-4.19 2.468-2.19.447-4.556-.086-6.385-1.653-3.146-2.695-3.511-7.429-.816-10.575l74.185-86.583c2.695-3.146 7.429-3.51 10.575-.816 3.147 2.696 3.511 7.43.816 10.576zm26.18.195c-4.103-.581-7.899 2.264-8.485 6.364l-10 70c-.585 4.101 2.264 7.899 6.364 8.485.36.051.717.076 1.07.076 3.672 0 6.881-2.7 7.416-6.44l10-70c.584-4.1-2.265-7.899-6.365-8.485zm194.635 76.628-74.185-86.583c-2.695-3.146-7.429-3.51-10.575-.816-3.146 2.695-3.51 7.43-.816 10.575l74.185 86.583c1.128 1.317 2.614 2.146 4.19 2.468 2.19.447 4.556-.086 6.385-1.653 3.146-2.694 3.511-7.428.816-10.574zm-103.269-70.264c-.586-4.101-4.382-6.945-8.485-6.364-4.101.586-6.95 4.385-6.364 8.485l10 70c.535 3.741 3.744 6.44 7.416 6.44.353 0 .71-.025 1.07-.076 4.101-.586 6.95-4.385 6.364-8.485z" fill="#ffeee5"/><path d="m132.5 375c-9.665 0-17.5-7.835-17.5-17.5s7.835-17.5 17.5-17.5 17.5 7.835 17.5 17.5-7.835 17.5-17.5 17.5zm197.5 12.5c0-9.665-7.835-17.5-17.5-17.5s-17.5 7.835-17.5 17.5 7.835 17.5 17.5 17.5 17.5-7.835 17.5-17.5zm-48.435 82.5c0-9.665-7.835-17.5-17.5-17.5s-17.5 7.835-17.5 17.5 7.835 17.5 17.5 17.5 17.5-7.835 17.5-17.5zm-226.565-87.5c0-9.665-7.835-17.5-17.5-17.5s-17.5 7.835-17.5 17.5 7.835 17.5 17.5 17.5 17.5-7.835 17.5-17.5zm416-204.5c-11.046 0-20 8.954-20 20s8.954 20 20 20 20-8.954 20-20-8.954-20-20-20zm-420 35c0 8.284-6.716 15-15 15s-15-6.716-15-15 6.716-15 15-15 15 6.716 15 15zm110 65c-5.523 0-10 4.477-10 10s4.477 10 10 10 10-4.477 10-10-4.477-10-10-10zm309 102c-5.523 0-10 4.477-10 10s4.477 10 10 10 10-4.477 10-10-4.477-10-10-10zm-240 20c-5.523 0-10 4.477-10 10s4.477 10 10 10 10-4.477 10-10-4.477-10-10-10z" fill="#20b7a1"/><path d="m150 357.5c0 7.285-4.451 13.53-10.782 16.164-6.331-2.634-10.782-8.879-10.782-16.164s4.451-13.53 10.782-16.164c6.331 2.634 10.782 8.879 10.782 16.164zm169.218 13.836c-6.331 2.634-10.782 8.879-10.782 16.164s4.451 13.53 10.782 16.164c6.331-2.634 10.782-8.879 10.782-16.164s-4.451-13.53-10.782-16.164zm-48.436 82.5c-6.331 2.634-10.782 8.879-10.782 16.164s4.451 13.53 10.782 16.164c6.331-2.634 10.782-8.879 10.782-16.164.001-7.285-4.451-13.53-10.782-16.164zm-226.564-87.5c-6.331 2.634-10.782 8.879-10.782 16.164s4.451 13.53 10.782 16.164c6.331-2.634 10.782-8.879 10.782-16.164s-4.451-13.53-10.782-16.164zm417.229-157.889c0 2.814.582 5.493 1.631 7.922 2.429 1.049 5.108 1.631 7.922 1.631 11.046 0 20-8.954 20-20 0-2.814-.582-5.493-1.631-7.922-2.429-1.049-5.108-1.631-7.922-1.631-11.046 0-20 8.954-20 20zm-320.447-.447c0 5.523-4.477 10-10 10s-10-4.477-10-10 4.477-10 10-10 10 4.477 10 10zm295 30c-8.284 0-15 6.716-15 15s6.716 15 15 15 15-6.716 15-15-6.716-15-15-15zm-16 92c-5.523 0-10 4.477-10 10s4.477 10 10 10 10-4.477 10-10-4.477-10-10-10zm-175-90c-8.284 0-15 6.716-15 15s6.716 15 15 15 15-6.716 15-15-6.716-15-15-15zm-174 18c-5.523 0-10 4.477-10 10s4.477 10 10 10 10-4.477 10-10-4.477-10-10-10zm39 142c-5.523 0-10 4.477-10 10s4.477 10 10 10 10-4.477 10-10-4.477-10-10-10zm281-172c-5.523 0-10 4.477-10 10s4.477 10 10 10 10-4.477 10-10-4.477-10-10-10z" fill="#24d3b5"/></g></svg>