<svg id="Capa_1" enable-background="new 0 0 512 512" height="512" viewBox="0 0 512 512" width="512" xmlns="http://www.w3.org/2000/svg"><g><path d="m512 256c0 71.356-29.194 135.893-76.29 182.319-2.39 2.357-6.201 2.439-8.698.196-45.332-40.722-105.279-65.496-171.012-65.496-65.469 0-125.198 24.576-170.465 65.006-2.811 2.511-7.091 2.432-9.767-.222-46.79-46.388-75.768-110.711-75.768-181.803 0-77.973 34.86-147.803 89.844-194.758 4.651-3.972 11.424-4.225 16.382-.642 42.112 30.43 93.849 48.363 149.774 48.363 53.973 0 104.045-16.703 145.329-45.222 7.876-5.44 18.411-4.768 25.536 1.623 52.258 46.87 85.135 114.913 85.135 190.636z" fill="#199a8e"/><path d="m471.994 226.771c0 119.29-96.704 215.994-215.994 215.994s-215.994-96.703-215.994-215.994 96.704-215.994 215.994-215.994 215.994 96.704 215.994 215.994z" fill="#20b7a1"/><path d="m439.673 392.156c0 15.645-1.208 30.931-3.51 45.715-46.258 45.826-109.905 74.129-180.163 74.129-70.474 0-134.297-28.477-180.589-74.552-2.26-14.653-3.445-29.796-3.445-45.292 0-46.55 10.689-89.924 29.115-126.365 17.229-34.074 24.624-72.416 19.454-110.247-4.386-32.089-14.773-64.029-31.072-93.976 44.768-38.38 102.944-61.568 166.537-61.568 65.899 0 125.983 24.9 171.356 65.805-23.169 44.342-33.523 92.812-30.782 139.537 1.386 23.625 7.734 46.638 17.693 68.104 16.144 34.799 25.406 75.378 25.406 118.71z" fill="#ffbeaa"/><path d="m89.117 450.135c-4.722-4.063-9.294-8.294-13.707-12.687-2.26-14.653-3.445-29.796-3.445-45.292 0-46.55 10.689-89.924 29.115-126.365 17.229-34.074 24.624-72.416 19.454-110.247-4.386-32.089-14.773-64.029-31.072-93.976 7.014-6.014 14.358-11.654 22-16.891 17.044 34.752 27.985 71.598 32.734 108.608 5.878 45.804-2.53 92.228-22.117 133.483-20.948 44.122-33.1 96.638-33.1 153 .001 3.471.047 6.927.138 10.367z" fill="#faa68e"/><path d="m275.402 381.277-12.921 130.642c-2.154.054-4.314.081-6.481.081-2.288 0-4.569-.03-6.843-.09l-12.919-130.633z" fill="#e09380"/><path d="m436.748 350.381c-58.433 16.494-109.068 51.579-145.113 98.464-18.014 23.432-53.618 23.432-71.632 0-36.045-46.885-86.679-81.97-145.112-98.464 1.087-20.147 6.619-38.02 13.518-55.047 48.824 25.543 106.125 40.251 167.411 40.251s118.587-14.708 167.411-40.251c7.641 16.857 12.067 34.73 13.517 55.047z" fill="#c8e2fd"/><path d="m436.748 350.381c-58.433 16.494-109.068 51.579-145.113 98.464-18.014 23.432-53.618 23.432-71.632 0-19.339-25.154-35.123-62.149-61.812-79.462-9.032-5.859-22.191-16-21.449-23.997 1.88-20.271 18.082-23.081 37.953-18.652 25.922 5.778 53.107 8.852 81.124 8.852 61.286 0 118.587-14.708 167.411-40.251 7.642 16.856 12.068 34.729 13.518 55.046z" fill="#e9f3fe"/><path d="m371.727 188.474c0 63.713-51.65 115.364-115.364 115.364s-115.363-51.651-115.363-115.364c0-63.714 51.65-115.364 115.364-115.364s115.363 51.65 115.363 115.364z" fill="#e09380"/><path d="m347.081 177.656c0 44.427-36.016 80.443-80.443 80.443s-80.443-36.016-80.443-80.443 36.016-80.443 80.443-80.443 80.443 36.016 80.443 80.443z" fill="#faa68e"/><path d="m240.736 220.089c-4.311-.22-7.867 3.335-7.647 7.646.35 6.846-8.089 10.341-12.682 5.253-2.893-3.204-7.921-3.204-10.814 0-4.594 5.088-13.032 1.592-12.682-5.253.22-4.311-3.336-7.867-7.647-7.646-6.846.35-10.341-8.089-5.253-12.682 3.204-2.893 3.204-7.921 0-10.814-5.088-4.593-1.593-13.032 5.253-12.682 4.311.22 7.867-3.335 7.647-7.646-.35-6.846 8.089-10.341 12.682-5.253 2.893 3.204 7.921 3.204 10.814 0 4.594-5.088 13.032-1.593 12.682 5.253-.22 4.311 3.336 7.867 7.647 7.646 6.846-.35 10.341 8.089 5.253 12.682-3.204 2.893-3.204 7.921 0 10.814 5.088 4.593 1.593 13.032-5.253 12.682z" fill="#d63030"/><path d="m215 185c9.389 0 17 7.611 17 17s-7.611 17-17 17-17-7.611-17-17 7.611-17 17-17zm-1.311-58.458c-5.881 0-10.649 4.768-10.649 10.649s4.768 10.649 10.649 10.649 10.649-4.768 10.649-10.649-4.768-10.649-10.649-10.649zm106 36c-5.881 0-10.649 4.768-10.649 10.649s4.768 10.649 10.649 10.649 10.649-4.768 10.649-10.649-4.768-10.649-10.649-10.649z" fill="#f76c57"/><path d="m286 189.5c0 4.142-3.358 7.5-7.5 7.5s-7.5-3.358-7.5-7.5 3.358-7.5 7.5-7.5 7.5 3.358 7.5 7.5zm-46.5 61.5c-4.142 0-7.5 3.358-7.5 7.5s3.358 7.5 7.5 7.5 7.5-3.358 7.5-7.5-3.358-7.5-7.5-7.5zm-9.694-40.64c-2.919 5.158-8.456 8.64-14.806 8.64-9.389 0-17-7.611-17-17 0-6.35 3.482-11.887 8.64-14.806-1.397 2.469-2.194 5.321-2.194 8.36 0 9.389 7.611 17 17 17 3.038.001 5.891-.797 8.36-2.194zm34.194-73.36c0 9.389 7.611 17 17 17s17-7.611 17-17-7.611-17-17-17-17 7.611-17 17z" fill="#e5554e"/><path d="m295.806 145.36c-2.919 5.158-8.456 8.64-14.806 8.64-9.389 0-17-7.611-17-17 0-6.35 3.482-11.887 8.64-14.806-1.397 2.469-2.194 5.321-2.194 8.36 0 9.389 7.611 17 17 17 3.038.001 5.891-.797 8.36-2.194zm-.306 80.14c-5.523 0-10 4.477-10 10s4.477 10 10 10 10-4.477 10-10-4.477-10-10-10z" fill="#d63030"/><path d="m256.363 68.11c-66.368 0-120.363 53.995-120.363 120.364s53.995 120.363 120.363 120.363c66.369 0 120.364-53.995 120.364-120.363s-53.995-120.364-120.364-120.364zm0 230.727c-60.854 0-110.363-49.509-110.363-110.363s49.509-110.364 110.363-110.364c60.855 0 110.364 49.509 110.364 110.363s-49.508 110.364-110.364 110.364z" fill="#ffdecf"/><path d="m446 189c0 2.761-2.239 5-5 5h-30c-2.761 0-5-2.239-5-5s2.239-5 5-5h30c2.761 0 5 2.239 5 5zm-28.536 18.358c-1.953-1.953-5.118-1.953-7.071 0-1.952 1.953-1.952 5.119 0 7.071l14.142 14.143c1.953 1.952 5.118 1.952 7.071 0 1.952-1.953 1.952-5.119 0-7.071zm-7.928-36.716c1.953 1.953 5.118 1.953 7.071 0l14.142-14.142c1.953-1.953 1.953-5.119 0-7.071s-5.118-1.952-7.071 0l-14.142 14.143c-1.953 1.951-1.953 5.117 0 7.07zm-308.536 13.358h-30c-2.761 0-5 2.239-5 5s2.239 5 5 5h30c2.761 0 5-2.239 5-5s-2.239-5-5-5zm-6.464-13.358c1.953 1.953 5.119 1.953 7.071 0 1.953-1.953 1.953-5.119 0-7.071l-14.142-14.143c-1.953-1.952-5.119-1.952-7.071 0-1.953 1.953-1.953 5.119 0 7.071zm.857 36.716-14.142 14.142c-1.953 1.953-1.953 5.118 0 7.071 1.953 1.952 5.118 1.952 7.071 0l14.142-14.143c1.953-1.952 1.953-5.118 0-7.071s-5.118-1.952-7.071.001z" fill="#ffeee5"/></g></svg>