<svg id="Capa_1" enable-background="new 0 0 512 512" height="512" viewBox="0 0 512 512" width="512" xmlns="http://www.w3.org/2000/svg"><g><path d="m512 256c0 141.385-114.615 256-256 256s-256-114.615-256-256 114.615-256 256-256c55.725 0 107.291 17.805 149.32 48.035 3.968 2.854-1.666 14.968 2.128 18.039 26.556 21.499 48.724 48.204 64.952 78.562 2.316 4.333 14.029-.408 16.098 4.069 15.085 32.634 23.502 68.981 23.502 107.295z" fill="#3342ae"/><path d="m479.914 237.22c0 107.599-87.226 194.825-194.824 194.825s-194.825-87.226-194.825-194.825 87.226-194.824 194.824-194.824 194.825 87.226 194.825 194.824z" fill="#3d4ec6"/><path d="m238.806 214.549 166.514-166.514c35.71 25.686 64.536 60.342 83.178 100.67l-157.768 157.768z" fill="#faa68e"/><path d="m420.886 216.317-40.771 40.771c-13.747 13.747-25.254 29.563-34.103 46.874l-58.403 114.248-42.717 82.944c-5.057 9.82-17.118 13.681-26.938 8.624-9.82-5.057-13.681-17.118-8.623-26.938l47.037-91.334c.919-1.784.579-3.957-.84-5.376-1.918-1.918-5.07-1.776-6.807.308l-85.407 102.425c-7.074 8.483-19.685 9.626-28.169 2.552-8.483-7.074-9.626-19.685-2.552-28.169l87.314-104.713c2.066-2.478 1.902-6.123-.38-8.405-2.436-2.436-6.385-2.436-8.821 0l-108.725 108.727c-7.982 7.982-21.031 7.807-28.791-.525-7.391-7.936-6.823-20.43.845-28.098l108.564-108.564c2.339-2.339 2.339-6.13 0-8.468-2.176-2.176-5.646-2.348-8.027-.4l-105.905 86.673c-8.548 6.996-21.149 5.737-28.144-2.811-6.996-8.548-5.737-21.148 2.811-28.144l99.535-81.46c4.001-3.275 4.301-9.288.645-12.944-2.187-2.187-5.366-3.055-8.361-2.283l-51.803 13.348c-10.696 2.756-21.602-3.68-24.358-14.377-2.756-10.696 3.68-21.602 14.377-24.358l130.695-33.678c12.35-3.182 24.34-7.626 35.781-13.261 18.275-9.001 34.947-20.942 49.352-35.347l39.765-39.765c25.384-25.384 66.54-25.384 91.924 0 25.384 25.384 25.384 66.54 0 91.924z" fill="#ffbeaa"/><path d="m283.625 268.384c1.952-1.953 1.952-5.119 0-7.071-1.953-1.952-5.119-1.952-7.071 0-22.186 22.186-58.286 22.186-80.472 0-1.953-1.952-5.119-1.952-7.071 0s-1.952 5.118 0 7.071c26.085 26.085 68.529 26.085 94.614 0z" fill="#faa68e"/><path d="m58.992 270.802c-.003-.013-.007-.027-.01-.04l101.979-26.279c5.348-1.378 10.801 1.84 12.179 7.188s-1.84 10.801-7.188 12.179l-83.872 21.612c-10.276 1.958-20.441-4.386-23.088-14.66zm121.745 24.031c-3.498-4.274-9.798-4.903-14.072-1.405l-126.142 103.234c6.996 8.548 19.596 9.806 28.144 2.811l110.664-90.568c4.274-3.498 4.903-9.798 1.406-14.072zm111.175 94.004c-4.91-2.529-10.94-.598-13.469 4.312l-60.151 116.796c9.757 4.799 21.601.915 26.6-8.793l52.246-101.447c.865-4.273-1.158-8.772-5.226-10.868zm-88.815-45.241c-3.905-3.905-10.237-3.905-14.142 0l-115.258 115.259c7.81 7.81 20.474 7.81 28.284 0l101.116-101.116c3.905-3.906 3.905-10.237 0-14.143zm50.521 21.354c-4.242-3.537-10.548-2.966-14.084 1.276l-104.388 125.189c8.483 7.074 21.095 5.931 28.169-2.552l91.579-109.828c3.538-4.243 2.966-10.548-1.276-14.085z" fill="#ffcdbe"/><path d="m460.196 154.158c-1.953 1.953-5.118 1.953-7.071 0l-27.467-27.467-27.459 27.459 27.356 27.356c1.953 1.953 1.953 5.118 0 7.071s-5.118 1.953-7.071 0l-27.356-27.356-27.459 27.459 27.577 27.577c1.953 1.953 1.953 5.118 0 7.071-1.953 1.952-5.118 1.952-7.071 0l-27.577-27.577-27.459 27.459 27.245 27.246c1.953 1.953 1.953 5.118 0 7.071s-5.118 1.953-7.071 0l-27.245-27.245-23.335 23.334c-1.953 1.953-5.118 1.953-7.071 0s-1.953-5.118 0-7.071l23.335-23.334-27.909-27.909c-1.953-1.952-1.953-5.118 0-7.071s5.118-1.953 7.071 0l27.909 27.909 27.459-27.459-27.577-27.577c-1.953-1.953-1.953-5.119 0-7.071 1.953-1.953 5.118-1.953 7.071 0l27.577 27.577 27.459-27.459-27.798-27.798c-1.953-1.952-1.953-5.118 0-7.071s5.118-1.953 7.071 0l27.798 27.798 27.459-27.459-27.687-27.688c-1.953-1.953-1.953-5.119 0-7.071 1.953-1.952 5.118-1.952 7.071 0l27.688 27.688 15.203-15.203c1.953-1.953 5.118-1.953 7.071 0 1.953 1.953 1.953 5.118 0 7.071l-15.203 15.203 27.467 27.467c1.952 1.952 1.952 5.118-.001 7.07z" fill="#20b7a1"/><path d="m100.198 55.788c-2.348 19.465-20.031 33.341-39.496 30.993l-28.791-3.473c-19.465-2.348-33.341-20.03-30.993-39.495 2.348-19.465 20.031-33.341 39.496-30.993l28.791 3.473c19.465 2.347 33.341 20.03 30.993 39.495z" fill="#f44545"/><path d="m71.467 51.819c-2.348 19.465-20.031 33.341-39.496 30.993-19.465-2.348-33.341-20.031-30.993-39.496 2.348-19.465 20.031-33.341 39.496-30.993 19.465 2.348 33.341 20.031 30.993 39.496z" fill="#fb5858"/><path d="m338.471 84.528c-.496 4.112-4.232 7.044-8.344 6.548l-73.968-8.922c-3.823 6.921-11.576 11.194-19.909 10.189l-142.418-17.178 4.79-39.712 142.418 17.178c8.333 1.005 14.848 6.999 16.916 14.631l73.968 8.922c4.112.496 7.043 4.232 6.547 8.344z" fill="#8c96dd"/><path d="m107.378 38.02-4.431 36.734c-.496 4.112-4.232 7.044-8.344 6.548-4.112-.496-7.044-4.232-6.548-8.344l4.431-36.734c.496-4.112 4.232-7.044 8.344-6.548 4.112.496 7.044 4.231 6.548 8.344zm133.662 14.611-107.825-13.006c-6.677-.805-12.555 4.407-12.555 11.132 0 5.673 4.238 10.453 9.87 11.132l109.013 13.149c7.347.886 14.244-2.331 18.393-7.849-2.089-7.597-8.589-13.556-16.896-14.558z" fill="#a6aee5"/><path d="m242.796 71.477-.24 1.986c-.496 4.113-4.232 7.044-8.344 6.548l-79.424-9.58c-4.112-.496-7.044-4.232-6.548-8.344l.24-1.986c.496-4.112 4.232-7.044 8.344-6.548l79.424 9.58c4.112.496 7.044 4.232 6.548 8.344z" fill="#fff79f"/><path d="m439.86 311.365c5.331 10.231 3.408 22.738-4.75 30.895-10.32 10.32-27.051 10.32-37.37 0-8.158-8.157-10.08-20.664-4.75-30.895l20.682-39.696c1.16-2.226 4.345-2.226 5.504 0zm41.016-65.29-12.808-24.581c-.718-1.378-2.69-1.378-3.409 0l-12.808 24.581c-3.301 6.336-2.11 14.08 2.941 19.132 6.39 6.39 16.751 6.39 23.141 0 5.053-5.051 6.244-12.796 2.943-19.132zm-125.536-154.581c-.718-1.378-2.69-1.378-3.409 0l-12.808 24.581c-3.301 6.336-2.11 14.08 2.941 19.132 6.39 6.39 16.751 6.39 23.141 0 5.052-5.052 6.242-12.796 2.941-19.132z" fill="#fff79f"/><path d="m441.687 315.815c2.837 9.225.43 19.439-6.576 26.445-10.32 10.32-27.051 10.32-37.37 0-7.006-7.006-9.413-17.22-6.576-26.445 1.237 4.033 3.448 7.801 6.576 10.928 10.32 10.319 27.051 10.319 37.37 0 3.128-3.127 5.339-6.895 6.576-10.928zm40.32-66.984c-.766 2.498-2.135 4.831-4.072 6.768-6.39 6.39-16.751 6.39-23.141 0-1.937-1.937-3.306-4.27-4.072-6.768-1.757 5.713-.266 12.038 4.072 16.376 6.39 6.39 16.751 6.39 23.141 0 4.338-4.338 5.829-10.663 4.072-16.376zm-116.8-123.232c-6.39 6.39-16.751 6.39-23.141 0-1.937-1.937-3.306-4.27-4.072-6.768-1.757 5.713-.266 12.038 4.072 16.376 6.39 6.39 16.751 6.39 23.141 0 4.338-4.339 5.829-10.663 4.072-16.376-.766 2.498-2.135 4.831-4.072 6.768z" fill="#fff36c"/></g></svg>