<svg id="Capa_1" enable-background="new 0 0 512 512" height="512" viewBox="0 0 512 512" width="512" xmlns="http://www.w3.org/2000/svg"><g><path d="m512 256c0 141.385-114.615 256-256 256s-256-114.615-256-256c0-58.145 19.385-111.763 52.044-154.742 2.332-3.069 13.486-1.434 15.952-4.392 16.794-20.153 36.625-37.685 58.791-51.894 3.633-2.329-1.426-9.218 2.329-11.365 37.401-21.385 80.715-33.607 126.884-33.607 68.602 0 130.902 26.985 176.864 70.918 2.796 2.672-.469 14.02 2.203 16.815 17.287 18.082 31.951 38.694 43.379 61.224 2.687 5.296 11.195 2.086 13.516 7.586 12.904 30.577 20.038 64.184 20.038 99.457z" fill="#168c80"/><path d="m480.053 239c0 112.641-91.314 203.956-203.956 203.956s-203.955-91.315-203.955-203.956 91.314-203.956 203.955-203.956 203.956 91.314 203.956 203.956z" fill="#199a8e"/><path d="m225.933 277.85 206.931-206.931c25.13 24.021 45.376 53.11 59.098 85.625l-193.668 193.668z" fill="#e09380"/><path d="m429.688 218.818-94.172 94.172c-9.724 9.724-17.849 20.926-24.074 33.189l-47.093 91.989-33.422 64.897c-3.881 7.537-13.013 11.039-20.724 7.516-8.233-3.761-11.57-13.583-7.473-21.538l37.027-71.897c.723-1.404.456-3.115-.661-4.232-1.51-1.51-3.991-1.398-5.358.242l-66.946 80.287c-5.429 6.511-15.104 7.941-21.863 2.825-7.217-5.463-8.336-15.776-2.606-22.648l68.733-82.429c1.627-1.951 1.497-4.82-.299-6.616-1.917-1.917-5.026-1.917-6.943 0l-85.274 85.275c-5.994 5.994-15.759 6.546-22.029.84-6.694-6.092-6.877-16.464-.551-22.79l85.727-85.727c1.841-1.841 1.841-4.825 0-6.666-1.713-1.713-4.444-1.849-6.318-.315l-83.368 68.228c-6.729 5.507-16.648 4.516-22.155-2.212-5.507-6.729-4.516-16.648 2.212-22.155l78.353-64.124c3.15-2.578 3.386-7.311.508-10.189-1.721-1.721-4.224-2.405-6.582-1.798l-40.348 10.397c-8.209 2.115-16.899-2.373-19.398-10.474-2.668-8.649 2.446-17.674 11.11-19.906l117.503-30.279 15.928-7.845c12.808-6.309 24.494-14.678 34.589-24.774l93.603-93.604c19.982-19.982 52.379-19.982 72.362 0 19.983 19.982 19.983 52.379.002 72.361z" fill="#faa68e"/><path d="m179.115 352.126-87.114 71.294c-6.729 5.507-16.648 4.516-22.155-2.212l99.297-81.265c3.365-2.754 8.324-2.258 11.078 1.106s2.258 8.324-1.106 11.077zm18.708 27.309c-3.074-3.074-8.058-3.074-11.133 0l-90.73 90.73c6.148 6.148 16.117 6.148 22.265 0l79.598-79.598c3.074-3.074 3.074-8.058 0-11.132zm-95.263-45.762 66.023-17.013c4.21-1.085 6.743-5.377 5.659-9.587-1.085-4.21-5.377-6.744-9.587-5.659l-80.278 20.686c.002.01.005.021.008.032 2.084 8.087 10.086 13.081 18.175 11.541zm165.177 81.375c-3.865-1.99-8.612-.471-10.602 3.394l-47.35 91.941c7.681 3.778 17.004.72 20.939-6.921l41.127-79.858c.681-3.365-.911-6.907-4.114-8.556zm-30.144-18.804c-3.339-2.784-8.303-2.334-11.087 1.005l-82.173 98.547c6.678 5.568 16.606 4.669 22.174-2.009l72.09-86.456c2.785-3.339 2.335-8.303-1.004-11.087z" fill="#ffbeaa"/><path d="m379.264 269.242-36.409 36.409c-19.982 19.982-52.379 19.982-72.361 0-19.982-19.982-19.982-52.379 0-72.361l36.408-36.408c19.982-19.982 52.379-19.982 72.361 0 19.983 19.98 19.983 52.378.001 72.36z" fill="#fa9084"/><path d="m269 341c0 3.866-3.134 7-7 7s-7-3.134-7-7 3.134-7 7-7 7 3.134 7 7zm113-176.651c0 3.866-3.134 7-7 7s-7-3.134-7-7 3.134-7 7-7 7 3.134 7 7z" fill="#f87b67"/><path d="m346 281.5c0 6.904-5.596 12.5-12.5 12.5s-12.5-5.596-12.5-12.5 5.596-12.5 12.5-12.5 12.5 5.596 12.5 12.5zm29-42.5c-3.866 0-7 3.134-7 7s3.134 7 7 7 7-3.134 7-7-3.134-7-7-7zm-17-42c-3.866 0-7 3.134-7 7s3.134 7 7 7 7-3.134 7-7-3.134-7-7-7z" fill="#d63030"/><path d="m307 322c0 3.866-3.134 7-7 7s-7-3.134-7-7 3.134-7 7-7 7 3.134 7 7zm-1-83c-3.866 0-7 3.134-7 7s3.134 7 7 7 7-3.134 7-7-3.134-7-7-7zm-23.5 44c-6.904 0-12.5 5.596-12.5 12.5s5.596 12.5 12.5 12.5 12.5-5.596 12.5-12.5-5.596-12.5-12.5-12.5zm111.5-79c-3.866 0-7 3.134-7 7s3.134 7 7 7 7-3.134 7-7-3.134-7-7-7zm-52.5 31c-6.904 0-12.5 5.596-12.5 12.5s5.596 12.5 12.5 12.5 12.5-5.596 12.5-12.5-5.596-12.5-12.5-12.5z" fill="#e5554e"/><path d="m194.498 98.988-72.362 72.361-70.092-70.092c20.823-27.402 47.041-50.48 77.072-67.651z" fill="#ffbeaa"/><path d="m350.584 242.345c-5.507 6.729-15.426 7.719-22.155 2.213l-83.368-68.228c-1.874-1.534-4.606-1.398-6.318.315-1.841 1.841-1.841 4.825 0 6.666l85.727 85.727c6.148 6.148 6.148 16.117 0 22.265-6.148 6.148-16.117 6.148-22.265 0l-85.589-85.589c-1.917-1.917-5.026-1.917-6.943 0-1.796 1.796-1.926 4.665-.299 6.616l68.733 82.429c5.568 6.678 4.669 16.606-2.009 22.174-6.678 5.569-16.606 4.669-22.174-2.009l-67.231-80.628c-1.368-1.64-3.848-1.752-5.359-.242-1.117 1.117-1.384 2.828-.661 4.232l37.027 71.897c3.981 7.73.942 17.224-6.788 21.205-7.73 3.981-17.224.942-21.205-6.788l-33.626-65.293-56.488-110.5.001-.001c-19.909-19.988-19.885-52.33.073-72.287 19.957-19.957 52.3-19.981 72.288-.073 23.451 11.551 48.028 20.659 73.343 27.183l79.431 20.468c8.42 2.17 13.487 10.754 11.317 19.174-2.17 8.42-10.754 13.487-19.174 11.317l-40.779-10.508c-2.357-.607-4.86.076-6.582 1.797-2.878 2.878-2.642 7.612.507 10.189l78.353 64.125c6.729 5.506 7.72 15.425 2.213 22.154z" fill="#ffcdbe"/><path d="m233.74 200.572 90.73 90.73c-6.148 6.148-16.117 6.148-22.265 0l-79.598-79.598c-3.074-3.074-3.074-8.058 0-11.133s8.059-3.073 11.133.001zm-50.903 16.809c-3.339 2.784-3.789 7.748-1.004 11.087l72.09 86.456c5.568 6.678 15.496 7.577 22.174 2.009l-82.173-98.547c-2.784-3.339-7.747-3.789-11.087-1.005zm68.45-56.301c-3.364-2.753-8.324-2.258-11.077 1.106-2.754 3.365-2.258 8.324 1.106 11.077l87.113 71.294c6.729 5.507 16.648 4.516 22.155-2.213zm.56-23.283 66.023 17.013c8.09 1.54 16.091-3.454 18.175-11.541.003-.01.005-.021.008-.032l-80.277-20.686c-4.21-1.085-8.502 1.448-9.587 5.659s1.448 8.503 5.658 9.587zm-99.153 98.388c-3.203 1.65-4.795 5.191-4.114 8.556l41.127 79.858c3.936 7.642 13.259 10.699 20.939 6.921l-47.35-91.941c-1.991-3.864-6.737-5.384-10.602-3.394z" fill="#ffbeaa"/><path d="m90.739 403.667c2.623 3.206 2.151 7.931-1.054 10.554l-3.869 3.167c-3.206 2.623-7.931 2.151-10.554-1.054-2.623-3.206-2.151-7.931 1.054-10.554l3.869-3.167c3.205-2.624 7.93-2.152 10.554 1.054zm15.553-79.028c4.011-1.034 6.425-5.123 5.391-9.134-1.033-4.011-5.123-6.425-9.134-5.391l-4.842 1.248c-4.011 1.033-6.425 5.123-5.391 9.134 1.033 4.011 5.123 6.425 9.134 5.391zm-.828 125.29-3.535 3.535c-2.929 2.929-2.929 7.678 0 10.607s7.678 2.929 10.607 0l3.535-3.535c2.929-2.929 2.929-7.678 0-10.607s-7.678-2.929-10.607 0zm57.3 24.706c-3.051-2.802-7.795-2.6-10.597.451l-3.382 3.683c-2.802 3.051-2.6 7.795.451 10.597s7.795 2.6 10.597-.451l3.382-3.683c2.802-3.051 2.6-7.796-.451-10.597zm59.815 11.475c-3.683-1.897-8.205-.449-10.102 3.234l-2.289 4.445c-1.897 3.683-.449 8.205 3.234 10.102 3.683 1.896 8.205.449 10.102-3.234l2.289-4.445c1.896-3.683.448-8.206-3.234-10.102z" fill="#ffcdbe"/><path d="m209.745 313.415c2.071 3.587.842 8.174-2.745 10.245s-8.174.842-10.245-2.745l-2.5-4.33c-2.071-3.587-.842-8.174 2.745-10.245s8.174-.842 10.245 2.745zm58.414-18.138c-2.653-3.181-7.382-3.61-10.563-.957-3.181 2.653-3.61 7.382-.957 10.563l3.202 3.84c2.653 3.181 7.382 3.61 10.563.957 3.181-2.653 3.61-7.382.957-10.563zm49.292-21.542-3.649-3.418c-3.023-2.831-7.77-2.676-10.601.348-2.831 3.023-2.676 7.77.348 10.601l3.649 3.418c3.023 2.831 7.77 2.676 10.601-.348 2.831-3.024 2.676-7.77-.348-10.601zm27.5-45.5-3.649-3.418c-3.023-2.831-7.77-2.676-10.601.348-2.831 3.023-2.676 7.77.348 10.601l3.649 3.418c3.023 2.831 7.77 2.676 10.601-.348 2.831-3.024 2.676-7.77-.348-10.601zm-24.659-96.874-4.842-1.248c-4.011-1.034-8.101 1.38-9.134 5.391-1.034 4.011 1.38 8.101 5.391 9.134l4.842 1.248c4.011 1.034 8.101-1.38 9.134-5.391 1.034-4.011-1.38-8.1-5.391-9.134z" fill="#faa68e"/></g></svg>