<svg id="Capa_1" enable-background="new 0 0 512 512" height="512" viewBox="0 0 512 512" width="512" xmlns="http://www.w3.org/2000/svg"><g><path d="m0 256c0-141.385 114.615-256 255.999-256 141.201 0 256.226 115.217 256.001 256.418-.151 94.504-51.509 176.999-127.811 221.225-9.109 5.28-19.433 8.108-29.961 8.108h-196.839c-10.242 0-20.284-2.744-29.154-7.863-76.648-44.231-128.235-127.035-128.235-221.888z" fill="#3342ae"/><path d="m367.237 284.784c0 89.478-72.536 162.014-162.014 162.014s-162.014-72.536-162.014-162.014 72.537-162.014 162.014-162.014 162.014 72.536 162.014 162.014z" fill="#3d4ec6"/><path d="m47.595 342.994 110.128-110.128 110.128 110.128z" fill="#5766ce"/><path d="m102.532 342.994 55.191-110.128 55.191 110.128z" fill="#717ed6"/><path d="m134.191 342.994 23.532-110.128 23.532 110.128z" fill="#8c96dd"/><path d="m403.723 150.5v180c0 59.276-48.225 107.5-107.5 107.5h-40c-26.934 0-52.7-10.007-72.556-28.178-19.727-18.053-31.967-42.6-34.466-69.119-.389-4.124 2.64-7.782 6.763-8.17 4.129-.388 7.782 2.64 8.171 6.763 4.498 47.719 44.087 83.704 92.088 83.704h40c51.005 0 92.5-41.495 92.5-92.5v-180c0-51.005-41.495-92.5-92.5-92.5h-40c-51.005 0-92.5 41.495-92.5 92.5 0 4.142-3.357 7.5-7.5 7.5s-7.5-3.358-7.5-7.5c0-59.276 48.225-107.5 107.5-107.5h40c59.276 0 107.5 48.224 107.5 107.5z" fill="#3493f8"/><path d="m124.223 10c0-5.523 4.477-10 10-10h47c5.523 0 10 4.477 10 10s-4.477 10-10 10h-47c-5.523 0-10-4.477-10-10zm57 197.596h-47c-5.523 0-10 4.477-10 10v20c0 5.523 4.477 10 10 10h47c5.523 0 10-4.477 10-10v-20c0-5.523-4.477-10-10-10z" fill="#55a4f9"/><path d="m156.702 10c0-5.523 4.477-10 10-10h14.521c5.523 0 10 4.477 10 10s-4.477 10-10 10h-14.521c-5.523 0-10-4.477-10-10zm24.521 197.596h-27c-5.523 0-10 4.477-10 10v20c0 5.523 4.477 10 10 10h27c5.523 0 10-4.477 10-10v-20c0-5.523-4.477-10-10-10z" fill="#76b6fa"/><path d="m183.707 345c.175 1.225.266 2.477.266 3.75 0 14.498-11.753 26.25-26.25 26.25s-26.25-11.752-26.25-26.25c0-1.273.091-2.525.266-3.75z" fill="#86befb"/><path d="m168.333 345c.415 1.173.64 2.435.64 3.75 0 6.213-5.037 11.25-11.25 11.25s-11.25-5.037-11.25-11.25c0-1.315.226-2.577.64-3.75z" fill="#55a4f9"/><path d="m206.129 507.145c-28.727-5.672-55.728-16.151-80.129-30.563v-2.082c0-8.284 6.716-15 15-15h78.099c11.367 0 18.549 12.205 13.037 22.146-7.346 13.247-17.315 27.215-26.007 25.499z" fill="#55a4f9"/><path d="m386 474.5v2.083c-38.103 22.504-82.543 35.417-130 35.417-17.065 0-33.74-1.67-49.871-4.855-11.251-2.222-19.342-12.125-19.342-23.594 0-13.283 10.768-24.051 24.051-24.051h23.162v-37c0-12.427 10.074-22.5 22.5-22.5s22.5 10.073 22.5 22.5v37h92c8.284 0 15 6.716 15 15z" fill="#86befb"/><path d="m256 460c-4.142 0-7.5-3.358-7.5-7.5v-30c0-4.142 3.358-7.5 7.5-7.5 4.142 0 7.5 3.358 7.5 7.5v30c0 4.142-3.358 7.5-7.5 7.5z" fill="#55a4f9"/><path d="m394.617 341c-11.046 0-20-8.954-20-20v-110.59c0-11.046 8.954-20 20-20 11.046 0 20 8.954 20 20v110.59c0 11.046-8.954 20-20 20z" fill="#55a4f9"/><path d="m394.617 251.265c-11.046 0-20-8.954-20-20v-112.467h40v112.467c0 11.046-8.954 20-20 20z" fill="#86befb"/><path d="m205.223 25v187.596c0 8.284-6.716 15-15 15h-65c-8.284 0-15-6.716-15-15v-187.596c0-8.284 6.716-15 15-15h65c8.285 0 15 6.716 15 15zm57.014 325h-209.028c-5.523 0-10-4.477-10-10 0-5.523 4.477-10 10-10h209.028c5.523 0 10 4.477 10 10 0 5.523-4.477 10-10 10zm157.38-231.202c0 13.807-11.193 25-25 25s-25-11.193-25-25 11.193-25 25-25 25 11.193 25 25zm0 207.328c0 13.807-11.193 25-25 25s-25-11.193-25-25 11.193-25 25-25 25 11.193 25 25z" fill="#a7d0fc"/><path d="m205.223 25v145.5c0 16.845-13.655 30.5-30.5 30.5-16.845 0-30.5-13.655-30.5-30.5v-145.5c0-8.284 6.716-15 15-15h31c8.285 0 15 6.716 15 15zm57.014 325h-166.556c-5.523 0-10-4.477-10-10 0-5.523 4.477-10 10-10h166.556c5.523 0 10 4.477 10 10 0 5.523-4.477 10-10 10zm134.529-256.319c-2.258-.189-4.459.13-6.569.507-3.346.597-5.793 3.492-5.793 6.891v.315c0 4.428 4.037 7.586 8.402 6.842.994-.169 2.034-.201 3.101-.077 4.896.572 8.85 4.58 9.363 9.482.115 1.096.064 2.162-.13 3.178-.82 4.296 2.266 8.328 6.639 8.328h.532c3.387 0 6.267-2.431 6.885-5.762.397-2.138.679-4.53.494-6.823-.973-12.054-10.872-21.874-22.924-22.881zm0 207.353c-2.258-.189-4.459.13-6.569.507-3.346.597-5.793 3.492-5.793 6.891v.315c0 4.428 4.037 7.586 8.402 6.842.994-.169 2.034-.201 3.101-.077 4.896.572 8.85 4.58 9.363 9.482.115 1.096.064 2.162-.13 3.178-.82 4.296 2.266 8.328 6.639 8.328h.532c3.387 0 6.267-2.431 6.885-5.762.397-2.138.679-4.53.494-6.823-.973-12.054-10.872-21.874-22.924-22.881z" fill="#c8e2fd"/><path d="m240.223 65c0 19.33-15.67 35-35 35s-35-15.67-35-35 15.67-35 35-35 35 15.67 35 35z" fill="#86befb"/><path d="m224.874 36.033c9.264 6.297 15.35 16.921 15.35 28.967s-6.085 22.67-15.35 28.967c-6.528 4.437-15.363-.219-15.363-8.112v-.632c0-3.193 1.669-6.086 4.287-7.914 3.884-2.711 6.425-7.213 6.425-12.309s-2.541-9.598-6.425-12.309c-2.618-1.827-4.287-4.721-4.287-7.914v-.632c0-7.893 8.835-12.549 15.363-8.112z" fill="#a7d0fc"/><path d="m220.223 65c0 8.284-6.716 15-15 15s-15-6.716-15-15 6.716-15 15-15 15 6.716 15 15zm185.108 53.798c0 5.917-4.797 10.714-10.714 10.714s-10.714-4.797-10.714-10.714 4.797-10.714 10.714-10.714 10.714 4.797 10.714 10.714zm0 207.328c0 5.917-4.797 10.714-10.714 10.714s-10.714-4.797-10.714-10.714 4.797-10.714 10.714-10.714c5.917-.001 10.714 4.796 10.714 10.714z" fill="#55a4f9"/></g></svg>