<svg id="Capa_1" enable-background="new 0 0 512 512" height="512" viewBox="0 0 512 512" width="512" xmlns="http://www.w3.org/2000/svg"><g><path d="m.486 271.909c-.378-6.166-.538-12.392-.472-18.669 1.487-141.035 115.639-253.614 256.681-253.239 141.065.375 255.305 114.846 255.305 255.999 0 5.775-.191 11.506-.568 17.185-.551 8.307-7.492 14.744-15.818 14.744h-478.024c-9.031.001-16.551-7.006-17.104-16.02z" fill="#3342ae"/><path d="m47.667 275.211c-.3-4.896-.427-9.838-.375-14.821 1.18-111.97 91.807-201.348 203.783-201.051 111.994.298 202.69 91.178 202.69 203.242 0 4.585-.152 9.134-.451 13.644-.437 6.595-5.948 11.706-12.558 11.706h-379.51c-7.17-.001-13.14-5.564-13.579-12.72z" fill="#3d4ec6"/><path d="m511.624 270c-7.27 134.874-118.936 242-255.624 242s-248.355-107.126-255.624-242z" fill="#168c80"/><path d="m453.766 270c-4.934 91.546-80.728 164.258-173.505 164.258s-168.57-72.712-173.504-164.258z" fill="#199a8e"/><path d="m323.74 314.375c-8.158-8.158-10.08-20.664-4.75-30.895l20.683-39.696c1.16-2.226 4.345-2.226 5.504 0l20.683 39.696c5.331 10.231 3.408 22.738-4.75 30.895-10.319 10.319-27.05 10.319-37.37 0zm-57.675-102.628c-5.052-5.052-6.242-12.796-2.941-19.132l12.808-24.581c.718-1.378 2.69-1.378 3.409 0l12.808 24.581c3.301 6.336 2.11 14.08-2.941 19.132-6.392 6.39-16.752 6.39-23.143 0zm88.189-3.998c-23.453-23.453-28.981-59.41-13.655-88.824l59.462-114.126c3.334-6.399 12.491-6.399 15.825 0l59.462 114.125c15.326 29.414 9.798 65.371-13.655 88.824-29.668 29.669-77.771 29.669-107.439.001z" fill="#c8e2fd"/><path d="m367.687 287.93c2.837 9.225.43 19.439-6.576 26.445-10.319 10.319-27.051 10.319-37.37 0-7.006-7.006-9.413-17.22-6.576-26.445 1.237 4.033 3.448 7.801 6.576 10.928 10.32 10.32 27.051 10.32 37.37 0 3.128-3.128 5.339-6.895 6.576-10.928zm-78.48-85.792c-6.39 6.39-16.751 6.39-23.141 0-1.937-1.937-3.306-4.27-4.072-6.767-1.757 5.713-.266 12.038 4.072 16.376 6.39 6.39 16.751 6.39 23.141 0 4.338-4.338 5.829-10.663 4.072-16.376-.766 2.497-2.135 4.83-4.072 6.767zm191.393-70.419c-3.557 11.596-9.914 22.427-18.906 31.419-29.669 29.669-77.771 29.669-107.44 0-8.993-8.993-15.349-19.823-18.906-31.419-8.156 26.523-1.236 55.888 18.906 76.03 29.669 29.668 77.771 29.668 107.44 0 20.141-20.143 27.062-49.508 18.906-76.03z" fill="#a7d0fc"/><path d="m220 147.195v203.09c0 9.481-7.686 17.168-17.168 17.168h-131.664c-9.482 0-17.168-7.687-17.168-17.168v-203.09c0-9.482 7.686-17.168 17.168-17.168h8.012c4.741 0 8.584-3.843 8.584-8.584v-26.896h98.473v26.896c0 4.741 3.843 8.584 8.584 8.584h8.012c9.481 0 17.167 7.687 17.167 17.168z" fill="#ffb52d"/><path d="m220 257.703c0 31.066-25.184 56.25-56.25 56.25-31.066 0-56.25-25.184-56.25-56.25v-163.156h78.736v26.896c0 4.741 3.843 8.584 8.584 8.584h8.012c9.482 0 17.168 7.686 17.168 17.168z" fill="#ffc14f"/><path d="m120 70v50c0 5.523-4.477 10-10 10h-29c-5.523 0-10-4.477-10-10v-50c0-5.523 4.477-10 10-10h29c5.523 0 10 4.477 10 10z" fill="#8c96dd"/><path d="m203 70v50c0 5.523-4.477 10-10 10h-92c-5.523 0-10-4.477-10-10v-50c0-5.523 4.477-10 10-10h92c5.523 0 10 4.477 10 10z" fill="#a6aee5"/><path d="m63.5 75c0-2.761 2.239-5 5-5h137c2.761 0 5 2.239 5 5s-2.239 5-5 5h-137c-2.761 0-5-2.239-5-5zm142 15h-137c-2.761 0-5 2.239-5 5s2.239 5 5 5h137c2.761 0 5-2.239 5-5s-2.239-5-5-5zm0 20h-137c-2.761 0-5 2.239-5 5s2.239 5 5 5h137c2.761 0 5-2.239 5-5s-2.239-5-5-5z" fill="#717ed6"/><path d="m163.75 261h-38.75c-2.761 0-5-2.239-5-5v-90c0-2.761 2.239-5 5-5h38.75z" fill="#c8e2fd"/><path d="m220 261h-71c-2.761 0-5-2.239-5-5v-90c0-2.761 2.239-5 5-5h71z" fill="#e9f3fe"/><path d="m435.093 132.189c4.153-4.6 11.782-1.44 11.466 4.749-.199 3.898 3.016 7.112 6.913 6.913 6.189-.316 9.349 7.313 4.749 11.466-2.897 2.615-2.897 7.161 0 9.777 4.6 4.153 1.44 11.782-4.749 11.466-3.898-.199-7.112 3.016-6.913 6.913.316 6.189-7.313 9.349-11.466 4.749-2.615-2.897-7.161-2.897-9.777 0-4.153 4.6-11.782 1.44-11.466-4.749.199-3.898-3.016-7.112-6.913-6.913-6.189.316-9.349-7.313-4.749-11.466 2.897-2.615 2.897-7.161 0-9.777-4.6-4.153-1.44-11.782 4.749-11.466 3.898.199 7.112-3.016 6.913-6.913-.316-6.189 7.313-9.349 11.466-4.749 2.616 2.896 7.162 2.896 9.777 0zm-25.716-71.807c-5.881 0-10.649 4.768-10.649 10.649s4.768 10.649 10.649 10.649 10.649-4.768 10.649-10.649-4.767-10.649-10.649-10.649z" fill="#fa9084"/><path d="m430.205 144.836c8.488 0 15.369 6.881 15.369 15.369s-6.881 15.369-15.369 15.369-15.369-6.881-15.369-15.369 6.881-15.369 15.369-15.369zm.172-55.454c-5.881 0-10.649 4.768-10.649 10.649s4.768 10.649 10.649 10.649 10.649-4.768 10.649-10.649-4.767-10.649-10.649-10.649z" fill="#fb5858"/><path d="m443.59 167.763c-2.639 4.663-7.645 7.811-13.385 7.811-8.488 0-15.369-6.881-15.369-15.369 0-5.741 3.148-10.746 7.811-13.385-1.263 2.232-1.984 4.811-1.984 7.558 0 8.488 6.881 15.369 15.369 15.369 2.748 0 5.327-.721 7.558-1.984zm-248.59 33.237h-15v-15c0-2.761-2.239-5-5-5h-10c-2.761 0-5 2.239-5 5v15h-15c-2.761 0-5 2.239-5 5v10c0 2.761 2.239 5 5 5h15v15c0 2.761 2.239 5 5 5h10c2.761 0 5-2.239 5-5v-15h15c2.761 0 5-2.239 5-5v-10c0-2.761-2.239-5-5-5zm194.821-66.15c0 8.201-6.649 14.85-14.85 14.85s-14.85-6.648-14.85-14.85 6.648-14.85 14.85-14.85c8.201 0 14.85 6.648 14.85 14.85z" fill="#d63030"/><path d="m316 381c0-4.025 3.263-7.287 7.287-7.287h175.426c4.025 0 7.287 3.263 7.287 7.287 0 4.025-3.263 7.287-7.287 7.287h-175.426c-4.024 0-7.287-3.262-7.287-7.287z" fill="#232e7a"/><path d="m88 421v-80h174c8.837 0 16 7.163 16 16v48c0 8.837-7.163 16-16 16z" fill="#8c96dd"/><path d="m278 357v8c0 8.836-7.163 16-16 16h-174v-40h174c8.837 0 16 7.163 16 16z" fill="#a6aee5"/><path d="m278 397v-32h84c8.837 0 16 7.163 16 16 0 8.837-7.163 16-16 16z" fill="#c8e2fd"/><path d="m33 397v-32h52.085c8.837 0 16 7.163 16 16 0 8.837-7.163 16-16 16z" fill="#c8e2fd"/><path d="m87 397v-32h31.66c8.837 0 16 7.163 16 16 0 8.837-7.163 16-16 16z" fill="#a7d0fc"/><path d="m43 342.5v77c0 4.142-3.358 7.5-7.5 7.5s-7.5-3.358-7.5-7.5v-77c0-4.142 3.358-7.5 7.5-7.5s7.5 3.358 7.5 7.5zm240.5 12.5c-4.142 0-7.5 3.358-7.5 7.5v37c0 4.142 3.358 7.5 7.5 7.5s7.5-3.358 7.5-7.5v-37c0-4.142-3.358-7.5-7.5-7.5z" fill="#a7d0fc"/><path d="m43 399.5v20c0 4.142-3.358 7.5-7.5 7.5s-7.5-3.358-7.5-7.5v-20c0 4.142 3.358 7.5 7.5 7.5s7.5-3.358 7.5-7.5zm240.5-12.5c-4.142 0-7.5-3.358-7.5-7.5v20c0 4.142 3.358 7.5 7.5 7.5s7.5-3.358 7.5-7.5v-20c0 4.142-3.358 7.5-7.5 7.5z" fill="#86befb"/><path d="m80 439.5v-47.138c0-4.142 3.358-7.5 7.5-7.5 4.142 0 7.5 3.358 7.5 7.5v47.138c0 4.142-3.358 7.5-7.5 7.5-4.142 0-7.5-3.358-7.5-7.5z" fill="#717ed6"/><path d="m80 399.885v-77.385c0-4.142 3.358-7.5 7.5-7.5 4.142 0 7.5 3.358 7.5 7.5v77.385c0 4.142-3.358 7.5-7.5 7.5-4.142 0-7.5-3.357-7.5-7.5z" fill="#8c96dd"/><path d="m148 387v-12c0-5.523 4.477-10 10-10h26.362c5.523 0 10 4.477 10 10v12c0 5.523-4.477 10-10 10h-26.362c-5.523 0-10-4.477-10-10z" fill="#d63030"/><path d="m174.617 387v-12c0-5.523 4.477-10 10-10h53.383c5.523 0 10 4.477 10 10v12c0 5.523-4.477 10-10 10h-53.383c-5.523 0-10-4.477-10-10z" fill="#f44545"/></g></svg>