<svg id="Capa_1" enable-background="new 0 0 512 512" height="512" viewBox="0 0 512 512" width="512" xmlns="http://www.w3.org/2000/svg"><g><path d="m470.991 395.033c-45.616 70.393-124.864 116.967-214.99 116.967-140.984 0-256.001-115.016-256.001-256.001 0-81.251 37.853-153.661 96.886-200.558 9.342-7.422 22.469 2.181 18.413 13.402-9.82 27.169-15.174 56.475-15.174 87.031 0 141.655 114.346 256.001 256.001 256.001 38.811 0 75.605-8.637 108.565-24.094 4.538-2.128 9.026 3.045 6.3 7.252z" fill="#faa68e"/><path d="m512 256c0 52.799-15.984 101.865-43.378 142.622-40.757 27.394-89.823 43.378-142.622 43.378-141.385 0-256-114.615-256-256 0-52.799 15.984-101.865 43.378-142.622 40.757-27.394 89.823-43.378 142.622-43.378 141.385 0 256 114.615 256 256z" fill="#ffbeaa"/><path d="m442.456 431.415c-43.847 46.589-305.166 57.255-345.613 25.109-9.696-7.706-18.82-16.1-27.299-25.109 21.44-22.781 47.008-41.633 75.51-55.36 34.082-16.415 73.835-15.24 107.225 2.538 1.234.657 2.474 1.304 3.721 1.942 1.286-.658 2.565-1.326 3.838-2.004 33.265-17.733 72.88-18.915 106.86-2.594 28.602 13.736 54.256 32.631 75.758 55.478z" fill="#f87b67"/><path d="m442.456 431.415c-8.479 9.009-17.603 17.403-27.299 25.109-8.408-15.781-25.028-26.524-44.157-26.524h-162.682c-17.849 0-32.318-14.469-32.318-32.318 0-19.756 17.559-34.823 37.108-31.969 13.523 1.975 26.785 6.285 39.171 12.879 1.234.657 2.474 1.304 3.721 1.942 1.226-.627 2.447-1.264 3.661-1.91 32.962-17.535 72.243-19.205 105.973-3.196 29.03 13.778 55.053 32.857 76.822 55.987z" fill="#fa9084"/><path d="m96.843 456.525c8.408-15.782 25.027-26.525 44.157-26.525h50c6.201 3.879 13.368 5.936 20.682 5.936h18.635c7.314 0 14.481-2.057 20.682-5.936h10l.114.072c6.236 3.942 13.461 6.034 20.838 6.034h18.095c7.377 0 14.603-2.092 20.839-6.034l.115-.072h50c19.129 0 35.749 10.743 44.157 26.525-20.799 16.531-44.229 29.893-69.56 39.359-27.886 10.42-151.307 10.42-179.193 0-25.332-9.466-48.762-22.829-69.561-39.359z" fill="#fb5858"/><path d="m133.355 480.763c-12.883-7.045-25.094-15.164-36.512-24.238 8.408-15.782 25.027-26.525 44.157-26.525h35c-18.043 0-33.853 20.312-42.645 50.763z" fill="#f44545"/><path d="m166.403 495.883c27.886-10.42 58.076-16.117 89.597-16.117s61.71 5.697 89.597 16.117c-27.886 10.42-58.076 16.117-89.597 16.117s-61.711-5.697-89.597-16.117z" fill="#d63030"/><path d="m191 430h60v9c0 8.284-6.716 15-15 15h-30c-8.284 0-15-6.716-15-15zm70 0v9c0 8.284 6.716 15 15 15h30c8.284 0 15-6.716 15-15v-9z" fill="#c8e2fd"/><path d="m306 454h-16.042c-8.284 0-15-6.716-15-15v-9h46.042v9c0 8.284-6.716 15-15 15zm-55-15v-9h-46.042v9c0 8.284 6.716 15 15 15h16.042c8.284 0 15-6.716 15-15z" fill="#e9f3fe"/><path d="m412.75 257.75c0 28.857-23.393 52.25-52.25 52.25h-209c-28.857 0-52.25-23.393-52.25-52.25 0-28.857 23.393-52.25 52.25-52.25h8.426l47.283-200.856c15.795-3.048 32.106-4.644 48.791-4.644h.5c27.757.053 51.762 19.393 58.123 46.411l37.451 159.089h8.426c28.857 0 52.25 23.393 52.25 52.25z" fill="#e09380"/><path d="m256 0c16.685 0 32.996 1.596 48.791 4.644l23.349 99.182c7.655 32.519-17.017 63.674-50.425 63.674-33.408 0-58.08-31.155-50.425-63.674l24.433-103.791c1.423-.023 2.849-.035 4.277-.035zm156.75 257.75c0-28.857-23.393-52.25-52.25-52.25h-152.95c-28.857 0-52.25 23.393-52.25 52.25 0 28.857 23.393 52.25 52.25 52.25h152.95c28.857 0 52.25-23.393 52.25-52.25zm-36.393-227.75h-6.495c-13.179 0-23.862 10.683-23.862 23.862 0 13.178 10.683 23.862 23.862 23.862h69.86c-18.442-19.002-39.805-35.151-63.365-47.724zm-304.078 47.723h69.86c13.178 0 23.861-10.683 23.861-23.861 0-13.179-10.683-23.862-23.862-23.862h-6.495c-23.56 12.573-44.923 28.722-63.364 47.723z" fill="#faa68e"/><path d="m237 302.813v7.187h-85.5v-7.188c0-29.179 28.587-49.783 56.269-40.556 17.456 5.819 29.231 22.155 29.231 40.557zm67.231-40.557c-17.456 5.819-29.231 22.155-29.231 40.557v7.187h85.5v-7.188c0-29.179-28.587-49.783-56.269-40.556z" fill="#f87b67"/><path d="m512 310c0 11.046-8.954 20-20 20s-20-8.954-20-20 8.954-20 20-20 20 8.954 20 20zm-422 60c0 5.523-4.477 10-10 10s-10-4.477-10-10 4.477-10 10-10 10 4.477 10 10zm320-30c0 5.523-4.477 10-10 10s-10-4.477-10-10 4.477-10 10-10 10 4.477 10 10zm-365 50c0 11.046-8.954 20-20 20s-20-8.954-20-20 8.954-20 20-20 20 8.954 20 20zm447 24.258c0 11.046-8.954 20-20 20s-20-8.954-20-20 8.954-20 20-20 20 8.954 20 20zm-443.195 35.977c0 6.574-5.329 11.902-11.902 11.902s-11.903-5.329-11.903-11.902 5.329-11.902 11.902-11.902 11.903 5.328 11.903 11.902z" fill="#5766ce"/><path d="m512 310c0 9.854-7.127 18.044-16.507 19.696-4.666-3.661-7.663-9.352-7.663-15.742 0-9.854 7.127-18.044 16.507-19.696 4.666 3.661 7.663 9.351 7.663 15.742zm-20 104.258c0 9.854-7.127 18.044-16.507 19.696-4.666-3.661-7.663-9.352-7.663-15.742 0-9.854 7.127-18.044 16.507-19.696 4.666 3.661 7.663 9.351 7.663 15.742zm-342-104.258c0 5.523-4.477 10-10 10s-10-4.477-10-10 4.477-10 10-10 10 4.477 10 10zm295 30c-8.284 0-15 6.716-15 15s6.716 15 15 15 15-6.716 15-15-6.716-15-15-15zm-275 40c-5.523 0-10 4.477-10 10s4.477 10 10 10 10-4.477 10-10-4.477-10-10-10zm85-50c-8.284 0-15 6.716-15 15s6.716 15 15 15 15-6.716 15-15-6.716-15-15-15zm-210-30c-8.284 0-15 6.716-15 15s6.716 15 15 15 15-6.716 15-15-6.716-15-15-15zm0 90c0 9.854-7.127 18.044-16.507 19.696-4.666-3.661-7.663-9.352-7.663-15.742 0-9.854 7.127-18.044 16.507-19.696 4.666 3.661 7.663 9.351 7.663 15.742z" fill="#717ed6"/><path d="m188.38 332.797-74.185 86.583c-1.128 1.317-2.614 2.146-4.19 2.468-2.19.447-4.556-.086-6.385-1.653-3.146-2.695-3.511-7.429-.816-10.575l74.185-86.583c2.695-3.146 7.43-3.51 10.575-.816 3.147 2.696 3.512 7.43.816 10.576zm26.18.195c-4.103-.581-7.899 2.264-8.485 6.364l-10 70c-.585 4.101 2.264 7.899 6.364 8.485.36.051.717.076 1.07.076 3.672 0 6.881-2.7 7.416-6.44l10-70c.584-4.1-2.265-7.899-6.365-8.485zm194.635 76.628-74.185-86.583c-2.695-3.146-7.43-3.51-10.575-.816-3.146 2.695-3.511 7.43-.816 10.575l74.185 86.583c1.128 1.317 2.614 2.146 4.19 2.468 2.19.447 4.556-.086 6.385-1.653 3.146-2.694 3.511-7.428.816-10.574zm-103.269-70.264c-.586-4.101-4.382-6.945-8.485-6.364-4.101.586-6.95 4.385-6.364 8.485l10 70c.535 3.741 3.744 6.44 7.416 6.44.353 0 .71-.025 1.07-.076 4.101-.586 6.95-4.385 6.364-8.485zm-154.926-228.32c0-2.761-2.239-5-5-5h-30c-2.761 0-5 2.239-5 5 0 2.761 2.239 5 5 5h30c2.761 0 5-2.239 5-5zm-4.393-18.358c1.953-1.953 1.953-5.118 0-7.071l-14.142-14.142c-1.953-1.953-5.118-1.953-7.071 0-1.953 1.953-1.953 5.118 0 7.071l14.142 14.142c1.952 1.952 5.118 1.952 7.071 0zm.857 36.715c-1.953-1.953-5.118-1.953-7.071 0l-14.142 14.142c-1.953 1.953-1.953 5.118 0 7.071 1.953 1.953 5.118 1.953 7.071 0l14.142-14.142c1.953-1.952 1.953-5.118 0-7.071zm213.536-18.357c0 2.761 2.239 5 5 5h30c2.761 0 5-2.239 5-5 0-2.761-2.239-5-5-5h-30c-2.761 0-5 2.238-5 5zm4.393 18.357c-1.953 1.953-1.953 5.118 0 7.071l14.142 14.142c1.953 1.953 5.118 1.953 7.071 0 1.953-1.953 1.953-5.118 0-7.071l-14.142-14.142c-1.952-1.952-5.118-1.952-7.071 0zm-.857-36.715c1.953 1.953 5.118 1.953 7.071 0l14.142-14.142c1.953-1.953 1.953-5.118 0-7.071-1.953-1.953-5.118-1.953-7.071 0l-14.142 14.142c-1.953 1.952-1.953 5.118 0 7.071z" fill="#ffeee5"/></g></svg>