<svg id="Capa_1" enable-background="new 0 0 512 512" height="512" viewBox="0 0 512 512" width="512" xmlns="http://www.w3.org/2000/svg"><g><path d="m512 256c0 141.385-114.615 256-256 256-50.582 0-97.738-14.67-137.444-39.987-5.547-3.537-3.951-15.018-9.196-18.959-41.486-31.173-73.192-74.659-89.692-125.032-1.951-5.956-10.688-4.272-12.205-10.411-4.876-19.735-7.463-40.371-7.463-61.611 0-141.385 114.615-256 256-256s256 114.615 256 256z" fill="#3d4ec6"/><path d="m473.75 251.362c0 109.358-88.652 198.01-198.01 198.01s-198.01-88.652-198.01-198.01 88.652-198.01 198.01-198.01 198.01 88.652 198.01 198.01z" fill="#5766ce"/><path d="m388.715 283.843-50.047 168.734-124.634-36.967 50.047-168.734z" fill="#76b6fa"/><path d="m503.26 122.764c-9.128-6.22-21.57-3.863-27.79 5.265l-57.852 84.897c-1.13 1.658-3.202 2.396-5.126 1.826-2.601-.771-3.979-3.61-2.976-6.13l49.305-123.912c4.173-10.488-1.15-22.404-11.871-26.235-10.212-3.649-21.463 1.815-25.472 11.892l-50.228 126.234c-1.193 2.998-4.475 4.591-7.569 3.674-3.302-.979-5.186-4.451-4.206-7.753l43.588-146.956c3.084-10.397-2.375-21.65-12.655-25.101-10.793-3.623-22.347 2.445-25.557 13.267l-43.795 147.654c-.94 3.171-4.273 4.979-7.444 4.038-2.95-.875-4.756-3.843-4.179-6.865l24.709-129.312c2.102-11-4.472-24.736-14.915-28.505-15.844-3.699-22.082 9-24.183 20l-23.355 122.225c-.97 5.078-6.113 8.209-11.07 6.739-2.965-.879-5.244-3.26-5.994-6.26l-12.968-51.899c-2.736-10.951-14.015-17.516-24.956-14.366-10.421 3.001-16.363 14.006-13.734 24.528l20.717 82.91c-6.883-1.12-14.155 1.398-18.83 7.226l-96.171 119.882c-2.157 2.689-6.087 3.12-8.775.961-2.516-2.021-3.077-5.626-1.293-8.315l75.064-113.153c5.995-9.037 4.074-21.396-4.745-27.708-9.258-6.627-22.083-4.21-28.323 5.196l-73.663 111.04c-1.504 2.268-4.631 2.754-6.753 1.05-1.568-1.259-2.143-3.387-1.423-5.264l36.582-95.37c3.884-10.125-.682-21.769-10.663-26.01-10.479-4.453-22.47.698-26.512 11.237l-50.716 132.219c15.968 64.63 56.487 119.585 111.093 154.402l110.105-41.634 109.08 32.354c5.295 1.57 10.86-1.449 12.431-6.744 1.57-5.295-1.449-10.86-6.744-12.431l-84.301-25.004c8.145-4.743 12.318-14.614 9.219-23.783-3.646-10.786-15.469-16.313-26.027-12.32l-50.021 18.914c-2.896 1.095-6.154.577-8.568-1.361-4.032-3.238-4.388-9.248-.768-12.94l59.96-61.144c-.794 28.716 17.661 55.516 46.508 64.073 30.486 9.042 63.412-5.009 77.388-32.329l89.169-130.011 52.538-77.099c6.221-9.127 3.863-21.569-5.265-27.789zm-354.601 242.151c-2.156 2.198-5.627 2.404-8.028.476-2.579-2.071-2.991-5.839-.922-8.419l93.058-116.001 7.451 29.819.029.729z" fill="#86befb"/><path d="m268.1 394.084c3.907 10.332-1.302 21.875-11.634 25.781l-78.511 29.687c-5.432 2.054-11.501-.685-13.555-6.117s.684-11.501 6.117-13.555l97.194-36.751c.137.313.267.632.389.955zm-35.131-185.325c-.041-.033-.082-.065-.123-.097l-113.932 142.02c-3.469 4.324-2.776 10.642 1.549 14.111 4.32 3.466 10.627 2.781 14.099-1.533 23.046-28.642 101.493-126.386 101.493-126.386 6.911-8.616 5.53-21.204-3.086-28.115zm-64.293-25.43-89.312 134.629c-2.99 4.507-1.76 10.585 2.747 13.575s10.585 1.76 13.575-2.747l78.258-117.966c6.029-9.091 3.655-21.307-5.268-27.491zm-83.968-9.171-49.08 127.954c-1.904 4.964.576 10.532 5.54 12.436s10.532-.576 12.436-5.541l41.923-109.293c3.866-10.079-.969-21.357-10.819-25.556zm170.312 32.29c5.358-1.339 8.616-6.768 7.277-12.126l-20.997-84.028c-3.181-9.966-13.604-15.876-23.896-13.304-.013.003-.027.007-.04.01l25.529 102.17c1.34 5.359 6.769 8.617 12.127 7.278zm64.207-185.706-30.592 160.103c-1.037 5.425 2.521 10.663 7.945 11.699 5.425 1.036 10.663-2.521 11.699-7.946l26.839-140.458c2.073-10.849-.927-20.714-15.891-23.398zm128.407 37.99-60.263 151.451c-2.042 5.132.463 10.947 5.594 12.989 5.132 2.042 10.947-.463 12.989-5.594l52.869-132.868c4.084-10.263-.926-21.894-11.189-25.978zm55.936 64.248-73.98 108.565c-3.11 4.564-1.931 10.785 2.632 13.895 3.782 2.577 8.701 2.209 12.046-.589l64.258-94.297c6.149-9.023 3.915-21.286-4.956-27.574zm-230.841 143.981c-.372-.365-.755-.712-1.147-1.042l-115.349 117.626c-4.166 4.249-4.1 11.07.149 15.236s11.07 4.1 15.236-.149l101.387-103.389c7.734-7.886 7.61-20.548-.276-28.282zm116.983-246.716-46.351 156.271c-1.57 5.295 1.449 10.86 6.744 12.431 5.295 1.57 10.86-1.449 12.431-6.744l40.664-137.097c3.141-10.59-2.898-21.72-13.488-24.861zm11.618 234.891c-5.56-3.829-16.635 2.603-24.737 14.366-8.102 11.764-10.163 24.404-4.603 28.233s16.635-2.603 24.737-14.366 10.163-24.404 4.603-28.233zm-31.672 52.217c-3.499-2.41-9.698.517-13.844 6.537-4.147 6.021-4.671 12.855-1.172 15.265s9.698-.517 13.844-6.537c4.147-6.02 4.671-12.854 1.172-15.265zm-234.966 105.852c-5.589-3.849-15.487.825-22.109 10.44s-7.46 20.53-1.871 24.379 15.487-.825 22.109-10.44 7.459-20.53 1.871-24.379z" fill="#a7d0fc"/></g></svg>