<svg id="Capa_1" enable-background="new 0 0 512 512" height="512" viewBox="0 0 512 512" width="512" xmlns="http://www.w3.org/2000/svg"><g><path d="m512 256c0 75.282-32.495 142.974-84.224 189.816-.721.653-2.558-1.928-3.287-1.284-3.048 2.697-6.16 5.323-9.335 7.875-1.156.929-1.207 5.078-2.379 5.987-41.492 32.187-93.148 51.897-149.338 53.5-2.471.07-4.95-11.171-7.437-11.171-2.53 0-5.051 11.24-7.563 11.167-56.142-1.629-107.752-21.333-149.213-53.496-1.818-1.411-2.388-9.684-4.167-11.142-1.871-1.534-3.72-3.093-5.547-4.678-1.365-1.185-3.947 4.454-5.287 3.241-51.728-46.841-84.223-114.533-84.223-189.815 0-141.385 114.615-256 256-256s256 114.615 256 256z" fill="#f44545"/><path d="m469.153 237.885c0 117.721-95.432 213.153-213.153 213.153s-213.153-95.432-213.153-213.153 95.432-213.153 213.153-213.153 213.153 95.432 213.153 213.153z" fill="#fb5858"/><path d="m282.671 9.164-18.841 82.886c-.836 3.677-4.241 6.103-7.893 5.816-3.651.288-7.057-2.138-7.893-5.816l-18.841-82.886c-.918-4.039 1.612-8.058 5.651-8.976 4.039-.918 8.058 1.612 8.976 5.651l12.107 53.262 12.107-53.262c.918-4.039 4.937-6.569 8.976-5.651 4.039.918 6.569 4.937 5.651 8.976zm-65.537 44.306c-3.939-1.28-8.171.876-9.451 4.815l-19.089 58.75-4.692-20.643c-.918-4.039-4.937-6.569-8.976-5.651s-6.569 4.937-5.651 8.976l9.056 39.839c.452 1.987 1.654 3.609 3.24 4.634.793 2.011 2.445 3.665 4.661 4.385 3.939 1.28 8.171-.876 9.45-4.815l26.267-80.84c1.28-3.939-.876-8.17-4.815-9.45zm-148.959 18.805c-4.142.036-7.471 3.422-7.435 7.564l.531 61.771-10.997-18.088c-2.152-3.539-6.765-4.664-10.305-2.512s-4.664 6.766-2.512 10.305l21.224 34.91c1.059 1.741 2.713 2.898 4.543 3.367 1.39 1.655 3.481 2.7 5.811 2.68 4.142-.036 7.471-3.422 7.435-7.564l-.73-84.997c-.037-4.143-3.423-7.471-7.565-7.436zm75.305 48.735c-3.539-2.152-8.153-1.027-10.305 2.512l-10.998 18.088.531-61.771c.036-4.142-3.293-7.529-7.435-7.564s-7.529 3.293-7.564 7.435l-.73 84.997c-.036 4.142 3.293 7.529 7.435 7.564 2.33.02 4.421-1.025 5.811-2.68 1.829-.47 3.484-1.626 4.543-3.367l21.224-34.91c2.153-3.539 1.028-8.152-2.512-10.304zm253.246-48.735c-4.142.036-7.471 3.422-7.435 7.564l.531 61.771-10.998-18.088c-2.152-3.539-6.765-4.664-10.305-2.512s-4.664 6.766-2.512 10.305l21.225 34.91c1.059 1.741 2.713 2.898 4.542 3.367 1.39 1.655 3.481 2.7 5.811 2.68 4.142-.036 7.471-3.422 7.435-7.564l-.73-84.997c-.035-4.143-3.422-7.471-7.564-7.436zm75.306 48.735c-3.539-2.152-8.153-1.027-10.305 2.512l-10.997 18.088.531-61.771c.036-4.142-3.293-7.529-7.435-7.564s-7.529 3.293-7.564 7.435l-.73 84.997c-.035 4.142 3.293 7.529 7.436 7.564 2.33.02 4.421-1.025 5.811-2.68 1.829-.47 3.484-1.626 4.543-3.367l21.224-34.91c2.15-3.539 1.025-8.152-2.514-10.304zm-134.958-30.269c-4.039-.918-8.058 1.612-8.976 5.651l-4.692 20.643-19.089-58.75c-1.28-3.939-5.511-6.095-9.451-4.815-3.939 1.28-6.095 5.511-4.815 9.451l26.267 80.84c1.28 3.939 5.511 6.095 9.45 4.815 2.216-.72 3.868-2.374 4.661-4.385 1.586-1.026 2.788-2.647 3.24-4.634l9.056-39.839c.919-4.04-1.611-8.058-5.651-8.977z" fill="#f29500"/><path d="m115.686 155.73v16.221c0 14.959-10.124 27.553-23.894 31.304-13.77-3.751-23.894-16.345-23.894-31.304v-16.221c0-14.959 10.124-27.553 23.894-31.304 13.77 3.751 23.894 16.345 23.894 31.304zm328.34 0v16.221c0 14.959-10.124 27.553-23.894 31.304-13.77-3.751-23.894-16.345-23.894-31.304v-16.221c0-14.959 10.124-27.553 23.894-31.304 13.77 3.751 23.894 16.345 23.894 31.304zm-152.906-50.692v23.884c0 22.026-14.907 40.57-35.182 46.093-20.275-5.524-35.182-24.067-35.182-46.093v-23.884c0-22.026 14.907-40.57 35.182-46.093 20.275 5.523 35.182 24.067 35.182 46.093z" fill="#ffc14f"/><path d="m94.356 202.455c-.826.3-1.667.567-2.522.8-13.77-3.751-23.894-16.345-23.894-31.304v-16.221c0-14.959 10.124-27.553 23.894-31.304.855.233 1.696.5 2.522.8-5.085 7.462-8.174 17.285-8.174 28.049v21.132c0 10.763 3.088 20.586 8.174 28.048zm328.34 0c-.826.3-1.667.567-2.522.8-13.77-3.751-23.894-16.345-23.894-31.304v-16.221c0-14.959 10.124-27.553 23.894-31.304.855.233 1.696.5 2.522.8-5.085 7.462-8.174 17.285-8.174 28.049v21.132c0 10.763 3.089 20.586 8.174 28.048zm-162.983-28.617c-1.216.441-2.454.834-3.713 1.177-20.275-5.523-35.182-24.067-35.182-46.093v-23.885c0-22.026 14.907-40.57 35.182-46.093 1.259.343 2.498.736 3.713 1.178-7.488 10.987-12.036 25.451-12.036 41.3v31.115c0 15.849 4.548 30.313 12.036 41.301z" fill="#ffb52d"/><path d="m77.144 171.036 10.152 10.152c9.362 9.362 10.908 23.58 4.638 34.546-10.966 6.27-25.184 4.724-34.546-4.637l-10.152-10.152c-9.362-9.362-10.908-23.58-4.638-34.546 10.966-6.27 25.184-4.725 34.546 4.637zm328.34 0 10.152 10.152c9.362 9.362 10.908 23.58 4.638 34.546-10.966 6.27-25.184 4.724-34.546-4.637l-10.152-10.152c-9.362-9.362-10.908-23.58-4.638-34.546 10.966-6.27 25.184-4.725 34.546 4.637zm-171.115-43.46 14.948 14.948c13.785 13.785 16.061 34.72 6.828 50.866-16.146 9.232-37.081 6.956-50.866-6.828l-14.948-14.948c-13.785-13.785-16.061-34.72-6.828-50.866 16.146-9.233 37.081-6.957 50.866 6.828z" fill="#ffd993"/><path d="m42.377 166.178c1.591-.91 3.472-1.434 5.176-2.015 2.373 9.346 8.176 19.433 16.924 28.181l16.318 16.318c3.014 3.014 6.186 5.677 9.432 7.972-10.7 5.191-23.956 3.346-32.839-5.537l-10.152-9.705c-9.362-9.362-11.129-24.249-4.859-35.214zm328.34 0c1.591-.91 3.472-1.434 5.176-2.015 2.373 9.346 8.176 19.433 16.924 28.181l16.318 16.318c3.014 3.014 6.186 5.677 9.432 7.972-10.7 5.191-23.956 3.346-32.839-5.537l-10.152-9.705c-9.362-9.362-11.129-24.249-4.859-35.214zm-187.54-45.756c2.343-1.34 5.113-2.111 7.621-2.966 3.494 13.762 12.038 28.613 24.92 41.495l24.027 24.027c4.437 4.437 9.108 8.359 13.888 11.738-15.756 7.644-35.274 4.927-48.354-8.153l-14.948-14.289c-13.784-13.787-16.386-35.706-7.154-51.852z" fill="#ffcd71"/><path d="m140.841 166.399c6.27 10.966 4.724 25.184-4.637 34.546l-10.152 10.152c-9.362 9.362-23.58 10.908-34.546 4.637-6.27-10.966-4.724-25.184 4.637-34.546l10.152-10.152c9.363-9.362 23.581-10.907 34.546-4.637zm328.341 0c6.27 10.966 4.724 25.184-4.638 34.546l-10.152 10.152c-9.362 9.362-23.58 10.908-34.546 4.637-6.27-10.966-4.724-25.184 4.637-34.546l10.152-10.152c9.363-9.362 23.581-10.907 34.547-4.637zm-141.022-45.652c9.232 16.146 6.956 37.081-6.828 50.866l-14.948 14.948c-13.785 13.785-34.72 16.061-50.866 6.828-9.232-16.146-6.956-37.081 6.828-50.866l14.948-14.948c13.785-13.784 34.72-16.06 50.866-6.828z" fill="#fff36c"/><path d="m136.204 201.391-10.152 9.705c-8.883 8.883-22.139 10.729-32.839 5.537 3.246-2.295 6.418-4.958 9.432-7.972l16.318-16.318c8.748-8.749 14.551-18.835 16.924-28.181 1.704.581 3.585 1.105 5.176 2.015 6.27 10.966 4.503 25.853-4.859 35.214zm328.34 0-10.152 9.705c-8.883 8.883-22.139 10.729-32.839 5.537 3.246-2.295 6.418-4.958 9.432-7.972l16.318-16.318c8.749-8.749 14.551-18.835 16.924-28.181 1.704.581 3.585 1.105 5.176 2.015 6.27 10.966 4.503 25.853-4.859 35.214zm-143.212-29.119-14.948 14.289c-13.08 13.08-32.598 15.797-48.354 8.153 4.78-3.379 9.451-7.301 13.888-11.738l24.027-24.027c12.882-12.882 21.425-27.733 24.92-41.495 2.509.855 5.278 1.627 7.621 2.966 9.232 16.148 6.63 38.067-7.154 51.852z" fill="#fff79f"/><path d="m140.698 198.998c6.27 10.966 4.724 25.184-4.637 34.546l-10.152 10.152c-9.261 9.26-23.273 10.873-34.188 4.838-10.916 6.035-24.928 4.423-34.188-4.838l-10.152-10.152c-9.362-9.362-10.907-23.58-4.637-34.546 10.966-6.27 25.184-4.724 34.546 4.638l10.152 10.152c1.678 1.678 3.104 3.512 4.28 5.455 1.176-1.943 2.603-3.777 4.28-5.455l10.152-10.152c9.36-9.363 23.578-10.908 34.544-4.638zm328.34 0c-10.966-6.27-25.184-4.724-34.545 4.638l-10.152 10.152c-1.678 1.678-3.105 3.512-4.281 5.455-1.176-1.943-2.602-3.777-4.28-5.455l-10.152-10.152c-9.362-9.362-23.58-10.908-34.546-4.638-6.27 10.966-4.724 25.184 4.638 34.546l10.152 10.152c9.26 9.261 23.273 10.873 34.188 4.838 10.916 6.035 24.927 4.423 34.188-4.838l10.152-10.152c9.362-9.363 10.908-23.581 4.638-34.546zm-191.956-23.423-14.948 14.948c-2.471 2.471-4.571 5.171-6.303 8.032-1.731-2.861-3.832-5.562-6.303-8.032l-14.948-14.948c-13.785-13.785-34.72-16.061-50.866-6.828-9.232 16.146-6.956 37.081 6.828 50.866l14.948 14.948c13.636 13.636 34.268 16.01 50.34 7.124 16.073 8.886 36.704 6.512 50.34-7.124l14.948-14.948c13.785-13.785 16.061-34.72 6.828-50.866-16.144-9.232-37.079-6.956-50.864 6.828z" fill="#ffc14f"/><path d="m136.06 233.99-10.152 9.705c-8.883 8.883-22.139 10.729-32.839 5.537 3.246-2.295 6.418-4.958 9.432-7.972l16.318-16.318c8.748-8.749 14.551-18.835 16.924-28.181 1.704.581 3.585 1.105 5.176 2.015 6.27 10.966 4.503 25.853-4.859 35.214zm328.34 0-10.152 9.705c-8.883 8.883-22.139 10.729-32.839 5.537 3.246-2.295 6.418-4.958 9.432-7.972l16.318-16.318c8.748-8.749 14.551-18.835 16.924-28.181 1.704.581 3.585 1.105 5.176 2.015 6.27 10.966 4.503 25.853-4.859 35.214zm-143.28-13.718-14.948 14.289c-13.08 13.08-32.598 15.797-48.354 8.153 4.78-3.379 9.451-7.301 13.888-11.738l24.027-24.027c12.882-12.882 21.425-27.733 24.92-41.495 2.509.855 5.278 1.627 7.621 2.967 9.232 16.147 6.63 38.066-7.154 51.851z" fill="#ffcd71"/><path d="m80.939 241.26c3.014 3.014 6.186 5.677 9.432 7.972-10.7 5.191-23.956 3.346-32.839-5.537l-10.152-9.705c-9.362-9.362-11.129-24.248-4.858-35.214 1.591-.91 3.472-1.434 5.176-2.015 2.373 9.346 8.176 19.432 16.924 28.181zm328.34 0-16.317-16.318c-8.749-8.749-14.551-18.835-16.924-28.181-1.704.581-3.584 1.105-5.176 2.015-6.27 10.966-4.503 25.852 4.859 35.214l10.152 9.705c8.883 8.883 22.139 10.729 32.839 5.537-3.247-2.294-6.42-4.958-9.433-7.972zm-193.349-34.31c-12.882-12.882-21.425-27.733-24.92-41.495-2.509.855-5.278 1.627-7.621 2.967-9.232 16.146-6.631 38.065 7.154 51.85l14.948 14.289c13.08 13.08 32.598 15.797 48.354 8.153-4.78-3.379-9.451-7.301-13.888-11.738z" fill="#ffb52d"/><path d="m77.287 236.234 10.152 10.152c9.362 9.362 10.908 23.58 4.637 34.546-10.966 6.27-25.184 4.724-34.546-4.638l-10.152-10.152c-9.362-9.362-10.908-23.58-4.638-34.546 10.968-6.269 25.186-4.724 34.547 4.638zm328.341 0 10.152 10.152c9.362 9.362 10.908 23.58 4.638 34.546-10.966 6.27-25.184 4.724-34.546-4.638l-10.152-10.152c-9.362-9.362-10.908-23.58-4.637-34.546 10.965-6.269 25.183-4.724 34.545 4.638zm-171.047-12.658 14.948 14.948c13.785 13.785 16.061 34.72 6.828 50.866-16.146 9.232-37.081 6.956-50.866-6.828l-14.948-14.948c-13.785-13.785-16.061-34.72-6.828-50.866 16.146-9.233 37.081-6.957 50.866 6.828z" fill="#ffd993"/><path d="m42.521 231.376c1.591-.91 3.472-1.434 5.176-2.015 2.373 9.346 8.176 19.433 16.924 28.181l16.318 16.318c3.014 3.014 6.186 5.677 9.432 7.972-10.7 5.191-23.956 3.346-32.839-5.537l-10.152-9.705c-9.362-9.362-11.129-24.249-4.859-35.214zm328.34 0c1.591-.91 3.472-1.434 5.176-2.015 2.373 9.346 8.176 19.433 16.924 28.181l16.318 16.318c3.014 3.014 6.186 5.677 9.432 7.972-10.7 5.191-23.956 3.346-32.839-5.537l-10.152-9.705c-9.362-9.362-11.129-24.249-4.859-35.214zm-187.472-14.954c2.343-1.34 5.113-2.111 7.621-2.967 3.494 13.762 12.038 28.613 24.92 41.495l24.027 24.027c4.437 4.437 9.108 8.359 13.888 11.738-15.756 7.644-35.274 4.927-48.354-8.153l-14.948-14.289c-13.784-13.786-16.386-35.705-7.154-51.851z" fill="#ffcd71"/><path d="m140.697 231.597c6.27 10.966 4.724 25.184-4.637 34.546l-10.152 10.152c-9.362 9.362-23.58 10.908-34.546 4.638-6.27-10.966-4.724-25.184 4.638-34.546l10.152-10.152c9.362-9.363 23.58-10.908 34.545-4.638zm328.341 0c6.27 10.966 4.724 25.184-4.637 34.546l-10.152 10.152c-9.362 9.362-23.58 10.908-34.546 4.638-6.27-10.966-4.724-25.184 4.638-34.546l10.152-10.152c9.361-9.363 23.579-10.908 34.545-4.638zm-141.09-14.85c9.232 16.146 6.956 37.081-6.828 50.866l-14.948 14.948c-13.785 13.785-34.72 16.061-50.866 6.828-9.232-16.146-6.956-37.081 6.828-50.866l14.948-14.948c13.785-13.784 34.72-16.06 50.866-6.828z" fill="#fff36c"/><path d="m136.06 266.59-10.152 9.705c-8.883 8.883-22.139 10.729-32.839 5.537 3.246-2.295 6.418-4.958 9.432-7.972l16.318-16.318c8.748-8.749 14.551-18.835 16.924-28.181 1.704.581 3.585 1.105 5.176 2.015 6.27 10.965 4.503 25.852-4.859 35.214zm328.34 0-10.152 9.705c-8.883 8.883-22.139 10.729-32.839 5.537 3.246-2.295 6.418-4.958 9.432-7.972l16.318-16.318c8.748-8.749 14.551-18.835 16.924-28.181 1.704.581 3.585 1.105 5.176 2.015 6.27 10.965 4.503 25.852-4.859 35.214zm-143.28 1.682-14.948 14.289c-13.08 13.08-32.598 15.797-48.354 8.153 4.78-3.379 9.451-7.301 13.888-11.738l24.027-24.027c12.882-12.882 21.425-27.733 24.92-41.495 2.509.855 5.278 1.627 7.621 2.967 9.232 16.147 6.63 38.066-7.154 51.851z" fill="#fff79f"/><path d="m140.698 264.196c6.27 10.966 4.724 25.184-4.637 34.545l-10.152 10.152c-9.261 9.261-23.273 10.873-34.188 4.838-10.916 6.035-24.928 4.423-34.188-4.838l-10.152-10.152c-9.362-9.362-10.907-23.58-4.637-34.545 10.966-6.27 25.184-4.724 34.546 4.637l10.152 10.152c1.678 1.678 3.104 3.512 4.28 5.455 1.176-1.943 2.603-3.777 4.28-5.455l10.152-10.152c9.36-9.362 23.578-10.907 34.544-4.637zm328.34 0c-10.966-6.27-25.184-4.724-34.545 4.637l-10.152 10.152c-1.678 1.678-3.105 3.512-4.281 5.455-1.176-1.943-2.602-3.777-4.28-5.455l-10.152-10.152c-9.362-9.362-23.58-10.908-34.546-4.637-6.27 10.966-4.724 25.184 4.638 34.545l10.152 10.152c9.26 9.261 23.273 10.873 34.188 4.838 10.916 6.035 24.927 4.423 34.188-4.838l10.152-10.152c9.362-9.362 10.908-23.58 4.638-34.545zm-191.956 7.379-14.948 14.948c-2.471 2.471-4.571 5.171-6.303 8.032-1.731-2.861-3.832-5.562-6.303-8.032l-14.948-14.948c-13.785-13.785-34.72-16.061-50.866-6.828-9.232 16.146-6.956 37.081 6.828 50.866l14.948 14.948c13.636 13.636 34.268 16.01 50.34 7.124 16.073 8.886 36.704 6.512 50.34-7.124l14.948-14.948c13.785-13.785 16.061-34.72 6.828-50.866-16.144-9.232-37.079-6.956-50.864 6.828z" fill="#ffc14f"/><path d="m136.06 299.189-10.152 9.705c-8.883 8.883-22.139 10.729-32.839 5.537 3.246-2.295 6.418-4.958 9.432-7.972l16.318-16.318c8.748-8.749 14.551-18.835 16.924-28.181 1.704.581 3.585 1.105 5.176 2.015 6.27 10.965 4.503 25.852-4.859 35.214zm328.34 0-10.152 9.705c-8.883 8.883-22.139 10.729-32.839 5.537 3.246-2.295 6.418-4.958 9.432-7.972l16.318-16.318c8.748-8.749 14.551-18.835 16.924-28.181 1.704.581 3.585 1.105 5.176 2.015 6.27 10.965 4.503 25.852-4.859 35.214zm-143.28 17.083-14.948 14.289c-13.08 13.08-32.598 15.797-48.354 8.153 4.78-3.379 9.451-7.301 13.888-11.738l24.027-24.027c12.882-12.882 21.425-27.733 24.92-41.495 2.509.855 5.278 1.627 7.621 2.966 9.232 16.148 6.63 38.067-7.154 51.852z" fill="#ffcd71"/><path d="m42.521 263.975c1.591-.91 3.472-1.434 5.176-2.015 2.373 9.346 8.176 19.433 16.924 28.181l16.318 16.318c3.014 3.014 6.186 5.677 9.432 7.972-10.7 5.191-23.956 3.346-32.839-5.537l-10.152-9.705c-9.362-9.362-11.129-24.249-4.859-35.214zm328.34 0c1.591-.91 3.472-1.434 5.176-2.015 2.373 9.346 8.176 19.433 16.924 28.181l16.318 16.318c3.014 3.014 6.186 5.677 9.432 7.972-10.7 5.191-23.956 3.346-32.839-5.537l-10.152-9.705c-9.362-9.362-11.129-24.249-4.859-35.214zm-187.472.447c2.343-1.34 5.113-2.111 7.621-2.966 3.494 13.762 12.038 28.613 24.92 41.495l24.027 24.027c4.437 4.437 9.108 8.359 13.888 11.738-15.756 7.644-35.274 4.927-48.354-8.153l-14.948-14.289c-13.784-13.787-16.386-35.706-7.154-51.852z" fill="#ffb52d"/><path d="m77.287 301.432 10.152 10.152c9.362 9.362 10.908 23.58 4.637 34.546-10.966 6.27-25.184 4.724-34.546-4.638l-10.151-10.152c-9.362-9.362-10.908-23.58-4.638-34.546 10.967-6.269 25.185-4.724 34.546 4.638zm328.341 0 10.152 10.152c9.362 9.362 10.908 23.58 4.638 34.546-10.966 6.27-25.184 4.724-34.546-4.638l-10.152-10.152c-9.362-9.362-10.908-23.58-4.637-34.546 10.965-6.269 25.183-4.724 34.545 4.638zm-171.047 18.144 14.948 14.948c13.785 13.785 16.061 34.72 6.828 50.866-16.146 9.232-37.081 6.956-50.866-6.828l-14.948-14.948c-13.785-13.785-16.061-34.72-6.828-50.866 16.146-9.233 37.081-6.957 50.866 6.828z" fill="#ffd993"/><path d="m42.521 296.574c1.591-.91 3.472-1.434 5.176-2.015 2.373 9.346 8.176 19.433 16.924 28.181l16.318 16.318c3.014 3.014 6.186 5.677 9.432 7.972-10.7 5.191-23.956 3.346-32.839-5.537l-10.152-9.705c-9.362-9.362-11.129-24.249-4.859-35.214zm328.34 0c1.591-.91 3.472-1.434 5.176-2.015 2.373 9.346 8.176 19.433 16.924 28.181l16.318 16.318c3.014 3.014 6.186 5.677 9.432 7.972-10.7 5.191-23.956 3.346-32.839-5.537l-10.152-9.705c-9.362-9.362-11.129-24.249-4.859-35.214zm-187.472 15.848c2.343-1.34 5.113-2.111 7.621-2.966 3.494 13.762 12.038 28.613 24.92 41.495l24.027 24.027c4.437 4.437 9.108 8.359 13.888 11.738-15.756 7.644-35.274 4.927-48.354-8.153l-14.948-14.289c-13.784-13.787-16.386-35.706-7.154-51.852z" fill="#ffcd71"/><path d="m140.697 296.795c6.27 10.966 4.724 25.184-4.637 34.546l-10.152 10.152c-9.362 9.362-23.58 10.908-34.546 4.638-6.27-10.966-4.724-25.184 4.638-34.546l10.152-10.152c9.362-9.363 23.58-10.908 34.545-4.638zm328.341 0c6.27 10.966 4.724 25.184-4.637 34.546l-10.152 10.152c-9.362 9.362-23.58 10.908-34.546 4.638-6.27-10.966-4.724-25.184 4.638-34.546l10.152-10.152c9.361-9.363 23.579-10.908 34.545-4.638zm-141.09 15.952c9.232 16.146 6.956 37.081-6.828 50.866l-14.948 14.948c-13.785 13.785-34.72 16.061-50.866 6.828-9.232-16.146-6.956-37.081 6.828-50.866l14.948-14.948c13.785-13.784 34.72-16.06 50.866-6.828z" fill="#fff36c"/><path d="m136.06 331.788-10.152 9.705c-8.883 8.883-22.139 10.729-32.839 5.537 3.246-2.295 6.418-4.958 9.432-7.972l16.318-16.318c8.748-8.749 14.551-18.835 16.924-28.181 1.704.581 3.585 1.105 5.176 2.015 6.27 10.965 4.503 25.852-4.859 35.214zm328.34 0-10.152 9.705c-8.883 8.883-22.139 10.729-32.839 5.537 3.246-2.295 6.418-4.958 9.432-7.972l16.318-16.318c8.748-8.749 14.551-18.835 16.924-28.181 1.704.581 3.585 1.105 5.176 2.015 6.27 10.965 4.503 25.852-4.859 35.214zm-143.28 32.484-14.948 14.289c-13.08 13.08-32.598 15.797-48.354 8.153 4.78-3.379 9.451-7.301 13.888-11.738l24.027-24.027c12.882-12.882 21.425-27.733 24.92-41.495 2.509.855 5.278 1.627 7.621 2.966 9.232 16.148 6.63 38.067-7.154 51.852z" fill="#fff79f"/><path d="m140.698 329.394c6.27 10.966 4.724 25.184-4.637 34.545l-10.152 10.152c-9.261 9.261-23.273 10.873-34.188 4.838-10.916 6.035-24.928 4.423-34.188-4.838l-10.152-10.152c-9.362-9.362-10.907-23.58-4.637-34.545 10.966-6.27 25.184-4.724 34.546 4.637l10.152 10.152c1.678 1.678 3.104 3.512 4.28 5.455 1.176-1.943 2.603-3.777 4.28-5.455l10.152-10.152c9.36-9.362 23.578-10.907 34.544-4.637zm328.34 0c-10.966-6.27-25.184-4.724-34.545 4.637l-10.152 10.152c-1.678 1.678-3.105 3.512-4.281 5.455-1.176-1.943-2.602-3.777-4.28-5.455l-10.152-10.152c-9.362-9.362-23.58-10.908-34.546-4.637-6.27 10.966-4.724 25.184 4.638 34.545l10.152 10.152c9.26 9.261 23.273 10.873 34.188 4.838 10.916 6.035 24.927 4.423 34.188-4.838l10.152-10.152c9.362-9.362 10.908-23.58 4.638-34.545zm-191.956 38.181-14.948 14.948c-2.471 2.471-4.571 5.171-6.303 8.032-1.731-2.861-3.832-5.562-6.303-8.032l-14.948-14.948c-13.785-13.785-34.72-16.061-50.866-6.828-9.232 16.146-6.956 37.081 6.828 50.866l14.948 14.948c13.636 13.636 34.268 16.01 50.34 7.124 16.073 8.886 36.704 6.512 50.34-7.124l14.948-14.948c13.785-13.785 16.061-34.72 6.828-50.866-16.144-9.232-37.079-6.956-50.864 6.828z" fill="#ffc14f"/><path d="m136.06 364.387-10.152 9.705c-8.883 8.883-22.139 10.729-32.839 5.537 3.246-2.295 6.418-4.958 9.432-7.972l16.318-16.318c8.748-8.749 14.551-18.835 16.924-28.181 1.704.581 3.585 1.105 5.176 2.015 6.27 10.965 4.503 25.852-4.859 35.214zm328.34 0-10.152 9.705c-8.883 8.883-22.139 10.729-32.839 5.537 3.246-2.295 6.418-4.958 9.432-7.972l16.318-16.318c8.748-8.749 14.551-18.835 16.924-28.181 1.704.581 3.585 1.105 5.176 2.015 6.27 10.965 4.503 25.852-4.859 35.214zm-143.28 47.885-14.948 14.289c-13.08 13.08-32.598 15.797-48.354 8.153 4.78-3.379 9.451-7.301 13.888-11.738l24.027-24.027c12.882-12.882 21.425-27.733 24.92-41.495 2.509.855 5.278 1.627 7.621 2.966 9.232 16.148 6.63 38.067-7.154 51.852z" fill="#ffcd71"/><path d="m42.521 329.173c1.591-.91 3.472-1.434 5.176-2.015 2.373 9.346 8.176 19.433 16.924 28.181l16.318 16.318c3.014 3.014 6.186 5.677 9.432 7.972-10.7 5.191-23.956 3.346-32.839-5.537l-10.152-9.705c-9.362-9.362-11.129-24.249-4.859-35.214zm328.34 0c1.591-.91 3.472-1.434 5.176-2.015 2.373 9.346 8.176 19.433 16.924 28.181l16.318 16.318c3.014 3.014 6.186 5.677 9.432 7.972-10.7 5.191-23.956 3.346-32.839-5.537l-10.152-9.705c-9.362-9.362-11.129-24.249-4.859-35.214zm-187.472 31.249c2.343-1.34 5.113-2.111 7.621-2.966 3.494 13.762 12.038 28.613 24.92 41.495l24.027 24.027c4.437 4.437 9.108 8.359 13.888 11.738-15.756 7.644-35.274 4.927-48.354-8.153l-14.948-14.289c-13.784-13.787-16.386-35.706-7.154-51.852z" fill="#ffb52d"/><path d="m427.776 177.383v268.432c-4.836 4.379-9.839 8.575-15 12.579v-281.011c0-4.142 3.358-7.5 7.5-7.5s7.5 3.358 7.5 7.5zm-336.052-7.5c-4.142 0-7.5 3.358-7.5 7.5v268.432c4.836 4.379 9.839 8.575 15 12.579v-281.011c0-4.142-3.358-7.5-7.5-7.5zm164.213-40.939c-4.142 0-7.5 3.358-7.5 7.5v375.446c2.512.073 5.033.11 7.563.11 2.488 0 4.967-.035 7.437-.106v-375.45c0-4.142-3.357-7.5-7.5-7.5z" fill="#ffc14f"/></g></svg>