<svg id="Capa_1" enable-background="new 0 0 512 512" height="512" viewBox="0 0 512 512" width="512" xmlns="http://www.w3.org/2000/svg"><g><path d="m512 256c0 141.385-114.615 256-256 256s-256-114.615-256-256 114.615-256 256-256 256 114.615 256 256z" fill="#69564e"/><path d="m486 256c0 120.95-102.974 219-230 219s-230-98.05-230-219 102.974-219 230-219 230 98.05 230 219z" fill="#d47f6c"/><path d="m486 256c0 104.667-77.114 192.183-180.195 213.852-22.054 4.635-42.805-12.136-42.805-34.672v-.984c0-18.194 13.79-33.318 31.88-35.26 108.51-11.646 191.12-71.209 191.12-142.936zm-180.195-213.852c-22.054-4.635-42.805 12.136-42.805 34.672v.984c0 18.194 13.79 33.318 31.88 35.26 108.51 11.646 191.12 71.209 191.12 142.936 0-104.667-77.114-192.183-180.195-213.852z" fill="#e09380"/><path d="m264 32.5v62.5c0 4.142-3.358 7.5-7.5 7.5s-7.5-3.358-7.5-7.5v-62.5c0-4.142 3.358-7.5 7.5-7.5s7.5 3.358 7.5 7.5zm-127.107 47.371c-2.726-3.119-7.464-3.437-10.583-.711s-3.437 7.464-.711 10.583l30.931 35.387c2.726 3.119 7.464 3.437 10.583.711 3.119-2.726 3.437-7.464.711-10.583zm-33.614 45.535-16.873-13.024c-3.279-2.531-7.989-1.925-10.52 1.354-2.531 3.279-1.925 7.989 1.354 10.52l16.873 13.024c3.279 2.531 7.989 1.925 10.52-1.354s1.925-7.989-1.354-10.52zm282.411-46.247c-3.119-2.726-7.857-2.408-10.583.711l-30.931 35.387c-2.726 3.119-2.408 7.857.711 10.583 3.119 2.726 7.857 2.408 10.583-.711l30.931-35.387c2.726-3.118 2.408-7.857-.711-10.583zm32.196 58.121 16.873-13.024c3.279-2.531 3.885-7.241 1.354-10.52-2.531-3.279-7.241-3.885-10.52-1.354l-16.873 13.024c-3.279 2.531-3.885 7.241-1.354 10.52s7.241 3.885 10.52 1.354zm-224.301-96.348c-1.233-3.954-5.438-6.161-9.392-4.928-3.954 1.233-6.161 5.438-4.928 9.392l19.569 62.77c1.233 3.954 5.438 6.161 9.392 4.928 3.954-1.233 6.161-5.438 4.928-9.392zm134.399-5.496c-3.954-1.233-8.159.973-9.392 4.928l-19.746 63.339c-1.233 3.954.973 8.159 4.928 9.392 3.954 1.233 8.16-.974 9.392-4.928l19.746-63.339c1.233-3.954-.973-8.159-4.928-9.392zm-72.484 374.064c-4.142 0-7.5 3.358-7.5 7.5v47c0 4.142 3.358 7.5 7.5 7.5s7.5-3.358 7.5-7.5v-47c0-4.142-3.358-7.5-7.5-7.5zm99.97-22.629c-2.726-3.119-7.464-3.437-10.583-.711-3.119 2.726-3.437 7.464-.711 10.583l30.931 35.387c2.726 3.119 7.464 3.437 10.583.711s3.437-7.464.711-10.583zm79.29.873-16.873-13.024c-3.279-2.531-7.989-1.925-10.52 1.354s-1.925 7.989 1.354 10.52l16.873 13.024c3.279 2.531 7.989 1.925 10.52-1.354s1.925-7.989-1.354-10.52zm-267.647-1.585c-3.119-2.726-7.857-2.408-10.583.711l-30.931 35.387c-2.726 3.119-2.408 7.857.711 10.583s7.857 2.408 10.583-.711l30.931-35.387c2.726-3.118 2.408-7.857-.711-10.583zm146.053 17.674c-1.233-3.954-5.438-6.161-9.392-4.928-3.954 1.233-6.161 5.438-4.928 9.392l13.989 44.87c1.233 3.954 5.438 6.161 9.392 4.928 3.954-1.233 6.161-5.438 4.928-9.392zm-104.939-4.928c-3.955-1.233-8.16.974-9.392 4.928l-13.989 44.87c-1.233 3.954.973 8.159 4.928 9.392 3.954 1.233 8.16-.974 9.392-4.928l13.989-44.87c1.232-3.954-.974-8.159-4.928-9.392z" fill="#b2705b"/><path d="m256 87c-127.026 0-230 75.664-230 169s102.974 169 230 169 230-75.664 230-169-102.975-169-230-169zm0 276.81c-103.502 0-191.035-45.384-219.906-107.81 28.871-62.426 116.404-107.81 219.906-107.81s191.035 45.384 219.906 107.81c-28.871 62.426-116.404 107.81-219.906 107.81z" fill="#faa68e"/><path d="m475.906 256c-28.871 61.378-116.404 106-219.906 106s-191.035-44.622-219.906-106c28.871-61.378 116.404-106 219.906-106s191.035 44.622 219.906 106z" fill="#ffdecf"/><path d="m475.906 256c-28.871 61.378-116.404 106-219.906 106-22.873 0-44.967-2.179-65.82-6.237-109.18-21.246-109.18-178.28 0-199.526 20.853-4.058 42.947-6.237 65.82-6.237 103.502 0 191.035 44.622 219.906 106z" fill="#ffeee5"/><path d="m256 134c62.96 0 114 51.04 114 114s-51.04 114-114 114-114-51.04-114-114 51.04-114 114-114z" fill="#20b7a1"/><path d="m355.285 304.063c-19.574 34.59-56.703 57.937-99.285 57.937-62.96 0-114-51.04-114-114 0-42.582 23.347-79.711 57.938-99.285-9.368 16.554-14.715 35.684-14.715 56.063 0 62.96 51.04 114 114 114 20.378-.001 39.508-5.348 56.062-14.715z" fill="#199a8e"/><path d="m317 267.5c0 33.413-27.087 60.5-60.5 60.5s-60.5-27.087-60.5-60.5 27.087-60.5 60.5-60.5 60.5 27.087 60.5 60.5z" fill="#2b3894"/><path d="m301.979 255.357c0 17.685-14.336 32.021-32.021 32.021s-32.021-14.336-32.021-32.021 14.336-32.021 32.021-32.021c17.684 0 32.021 14.337 32.021 32.021z" fill="#3342ae"/><path d="m304.5 233c11.322 0 20.5 9.178 20.5 20.5s-9.178 20.5-20.5 20.5-20.5-9.178-20.5-20.5 9.178-20.5 20.5-20.5z" fill="#e9f3fe"/><path d="m90.621 262.928-42.27-37.193c-2.073-1.824-2.275-4.984-.451-7.057 1.823-2.074 4.983-2.276 7.057-.451l13.947 12.273 31.718-6.516c2.703-.554 5.349 1.187 5.903 3.892.556 2.705-1.187 5.348-3.892 5.904l-24.323 4.997 18.916 16.644c2.073 1.824 2.275 4.984.451 7.057-.988 1.124-2.369 1.697-3.756 1.697-1.172-.001-2.35-.411-3.3-1.247zm27.47-1.625c-2.406-1.358-5.455-.51-6.813 1.895l-14.996 26.55-25.063 1.926c-2.754.211-4.814 2.615-4.603 5.369.201 2.623 2.393 4.617 4.979 4.617.129 0 .259-.005.389-.015l22.217-1.707-1.693 18.544-16.89 9.222c-2.424 1.323-3.315 4.361-1.992 6.784.908 1.663 2.623 2.605 4.394 2.605.81 0 1.631-.197 2.392-.613l19.229-10.5c1.463-.798 2.432-2.274 2.583-3.934l2.376-26.022c.021-.235.026-.468.015-.698l15.369-27.21c1.36-2.405.511-5.455-1.893-6.813zm327.383 6.224c-2.624-.859-5.448.573-6.307 3.197l-7.836 23.946-14.183-20.382c-1.578-2.267-4.694-2.825-6.96-1.248-1.983 1.379-2.658 3.936-1.742 6.071.131.306.296.604.493.888l18.495 26.578-5.778 17.656c-.393 1.203-.306 2.447.156 3.525.547 1.274 1.619 2.317 3.041 2.782 2.624.859 5.448-.573 6.307-3.197l17.511-53.51c.859-2.624-.572-5.448-3.197-6.306zm18.046-61.175c-.094-2.76-2.408-4.922-5.168-4.827l-21.897.748c-1.666.057-3.194.94-4.074 2.355l-13.807 22.185c-.125.201-.233.407-.327.617l-25.95 17.413c-2.293 1.538-2.905 4.645-1.366 6.938.497.741 1.158 1.306 1.902 1.68 1.559.784 3.484.727 5.036-.314l25.321-16.99 23.259 9.532c2.556 1.048 5.476-.175 6.523-2.73 1.047-2.554-.162-5.465-2.73-6.523l-20.618-8.45 9.839-15.81 19.232-.657c2.759-.093 4.92-2.407 4.825-5.167z" fill="#fa9084"/><path d="m256 111c-127.026 0-230 64.919-230 145s102.974 145 230 145 230-64.919 230-145-102.975-145-230-145zm0 237.5c-103.502 0-191.035-38.939-219.906-92.5 28.871-53.561 116.404-92.5 219.906-92.5s191.035 38.939 219.906 92.5c-28.871 53.561-116.404 92.5-219.906 92.5z" fill="#ffbeaa"/><path d="m486 256c0 80.081-102.975 145-230 145-15.54 0-30.72-.972-45.395-2.824-12.94-1.633-22.605-12.712-22.605-25.756 0-15.29 13.152-27.364 28.368-25.858 12.875 1.274 26.118 1.938 39.632 1.938 103.502 0 191.035-38.939 219.906-92.5-28.871-53.561-116.404-92.5-219.906-92.5-13.515 0-26.757.664-39.632 1.938-15.216 1.505-28.368-10.569-28.368-25.858 0-13.043 9.665-24.123 22.605-25.756 14.675-1.852 29.855-2.824 45.395-2.824 127.025 0 230 64.919 230 145z" fill="#ffcdbe"/><path d="m14.74 426.26c-8.158-8.158-10.08-20.664-4.75-30.895l20.683-39.696c1.16-2.226 4.345-2.226 5.504 0l20.683 39.696c5.331 10.231 3.408 22.738-4.75 30.895-10.319 10.32-27.05 10.32-37.37 0zm68.115-2.236c-10.515-10.515-12.993-26.635-6.122-39.822l26.658-51.165c1.495-2.869 5.6-2.869 7.095 0l26.658 51.165c6.871 13.187 4.393 29.307-6.122 39.822-13.3 13.301-34.865 13.301-48.167 0zm-63.79-105.277c-5.052-5.052-6.242-12.796-2.941-19.132l12.808-24.581c.718-1.378 2.69-1.378 3.409 0l12.808 24.581c3.301 6.336 2.11 14.08-2.941 19.132-6.392 6.39-16.752 6.39-23.143 0z" fill="#a6aee5"/><path d="m58.687 399.815c2.837 9.225.43 19.439-6.576 26.445-10.319 10.32-27.051 10.32-37.37 0-7.006-7.006-9.413-17.22-6.576-26.445 1.237 4.033 3.448 7.801 6.576 10.928 10.32 10.319 27.051 10.319 37.37 0 3.128-3.127 5.339-6.895 6.576-10.928zm80.812-9.877c-1.595 5.199-4.444 10.054-8.476 14.086-13.301 13.301-34.867 13.301-48.168 0-4.032-4.032-6.882-8.887-8.476-14.086-3.656 11.891-.554 25.056 8.476 34.086 13.301 13.301 34.867 13.301 48.168 0 9.03-9.03 12.133-22.195 8.476-34.086zm-120.434-71.191c6.39 6.39 16.751 6.39 23.141 0 4.338-4.338 5.829-10.663 4.072-16.376-.766 2.498-2.135 4.83-4.072 6.767-6.39 6.39-16.751 6.39-23.141 0-1.937-1.937-3.306-4.27-4.072-6.767-1.757 5.712-.266 12.037 4.072 16.376z" fill="#8c96dd"/></g></svg>