<svg id="Capa_1" enable-background="new 0 0 512 512" height="512" viewBox="0 0 512 512" width="512" xmlns="http://www.w3.org/2000/svg"><g><path d="m0 256c0-141.2 114.316-255.701 255.446-255.999 141.866-.3 256.269 113.61 256.553 255.476.202 101.08-58.178 188.544-143.086 230.341-3.68 1.811-7.97 1.884-11.737.262-31.035-13.366-65.241-20.771-101.177-20.771-35.454 0-69.225 7.207-99.927 20.237-4.568 1.939-9.759 1.887-14.199-.329-84.104-41.958-141.873-128.841-141.873-229.217z" fill="#ffc14f"/><path d="m454.613 302.371c0 109.691-88.922 198.613-198.613 198.613s-198.613-88.922-198.613-198.613 88.922-198.613 198.613-198.613 198.613 88.922 198.613 198.613z" fill="#ffcd71"/><path d="m371 222v262.778c-34.577 17.415-73.643 27.222-115 27.222s-80.423-9.807-115-27.222v-262.778c0-16.569 13.431-30 30-30h29v-62h70v62h71c16.569 0 30 13.431 30 30z" fill="#199a8e"/><path d="m371 222v157.5c0 38.936-31.564 70.5-70.5 70.5-38.936 0-70.5-31.564-70.5-70.5v-249.5h82v62h29c16.569 0 30 13.431 30 30z" fill="#20b7a1"/><path d="m261.727 140h-11.455c-11.598 0-21-9.402-21-21v-98c0-11.598 9.402-21 21-21h11.455c11.598 0 21 9.402 21 21v98c0 11.598-9.402 21-21 21z" fill="#a7d0fc"/><path d="m282.727 21v55.423c-3.349 2.258-7.384 3.577-11.727 3.577-11.598 0-21-9.402-21-21v-48c0-4.033 1.137-7.801 3.108-11h8.619c11.598 0 21 9.402 21 21zm-49.089 79h-33.638c-5.523 0-10 4.477-10 10v50c0 5.523 4.477 10 10 10h33.638c5.523 0 10-4.477 10-10v-50c0-5.523-4.477-10-10-10z" fill="#c8e2fd"/><path d="m312 170h-92c-5.523 0-10-4.477-10-10v-50c0-5.523 4.477-10 10-10h92c5.523 0 10 4.477 10 10v50c0 5.523-4.477 10-10 10z" fill="#e9f3fe"/><path d="m251 115v40c0 2.761-2.239 5-5 5s-5-2.239-5-5v-40c0-2.761 2.239-5 5-5s5 2.239 5 5zm-25-5c-2.761 0-5 2.239-5 5v40c0 2.761 2.239 5 5 5s5-2.239 5-5v-40c0-2.761-2.239-5-5-5zm-20 0c-2.761 0-5 2.239-5 5v40c0 2.761 2.239 5 5 5s5-2.239 5-5v-40c0-2.761-2.239-5-5-5zm100 0c-2.761 0-5 2.239-5 5v40c0 2.761 2.239 5 5 5s5-2.239 5-5v-40c0-2.761-2.239-5-5-5zm-20 0c-2.761 0-5 2.239-5 5v40c0 2.761 2.239 5 5 5s5-2.239 5-5v-40c0-2.761-2.239-5-5-5zm-20 0c-2.761 0-5 2.239-5 5v40c0 2.761 2.239 5 5 5s5-2.239 5-5v-40c0-2.761-2.239-5-5-5z" fill="#a7d0fc"/><path d="m311 410h-110c-8.284 0-15-6.716-15-15v-140c0-8.284 6.716-15 15-15h110c8.284 0 15 6.716 15 15v140c0 8.284-6.716 15-15 15z" fill="#c8e2fd"/><path d="m311 410h-86c-8.284 0-15-6.716-15-15v-140c0-8.284 6.716-15 15-15h86c8.284 0 15 6.716 15 15v140c0 8.284-6.716 15-15 15z" fill="#e9f3fe"/><path d="m231.916 363.024c-10.515-10.515-12.993-26.635-6.122-39.822l26.658-51.165c1.495-2.869 5.6-2.869 7.095 0l26.658 51.165c6.871 13.187 4.393 29.307-6.122 39.822-13.3 13.301-34.866 13.301-48.167 0z" fill="#717ed6"/><path d="m288.56 328.938c3.657 11.891.554 25.056-8.476 34.086-13.301 13.301-34.867 13.301-48.168 0-9.03-9.03-12.133-22.195-8.476-34.086 1.595 5.199 4.445 10.054 8.476 14.086 13.301 13.301 34.867 13.301 48.168 0 4.032-4.032 6.882-8.887 8.476-14.086z" fill="#5766ce"/><path d="m459.751 133.139c-13.301 13.301-34.867 13.301-48.168 0-10.514-10.514-12.993-26.635-6.122-39.822l26.658-51.165c1.495-2.869 5.6-2.869 7.095 0l26.658 51.165c6.872 13.187 4.394 29.307-6.121 39.822zm-83.573 8.645c-1.16-2.226-4.345-2.226-5.504 0l-20.682 39.696c-5.331 10.231-3.408 22.738 4.75 30.895 10.32 10.319 27.051 10.319 37.37 0 8.157-8.158 10.08-20.664 4.75-30.895z" fill="#5766ce"/><path d="m459.751 133.139c-13.301 13.301-34.867 13.301-48.168 0-9.03-9.03-12.133-22.195-8.476-34.086 1.595 5.199 4.445 10.054 8.476 14.086 13.301 13.301 34.867 13.301 48.168 0 4.032-4.032 6.882-8.887 8.476-14.086 3.657 11.89.554 25.055-8.476 34.086zm-67.64 63.719c-10.32 10.32-27.051 10.32-37.37 0-3.128-3.128-5.339-6.895-6.576-10.928-2.837 9.225-.43 19.439 6.576 26.445 10.32 10.319 27.051 10.319 37.37 0 7.006-7.006 9.413-17.22 6.576-26.445-1.237 4.033-3.448 7.8-6.576 10.928z" fill="#3d4ec6"/></g></svg>