<svg id="Capa_1" enable-background="new 0 0 512 512" height="512" viewBox="0 0 512 512" width="512" xmlns="http://www.w3.org/2000/svg"><g><path d="m512 256c0 141.385-114.615 256-256 256s-256-114.615-256-256 114.615-256 256-256c55.725 0 107.291 17.805 149.32 48.035 4.197 3.019 1.311 11.691 5.312 14.952 26.05 21.231 47.842 47.487 63.9 77.289 2.463 4.571 11.778 3.696 13.966 8.428 15.085 32.635 23.502 68.983 23.502 107.296z" fill="#3342ae"/><path d="m425.139 270c0 106.943-86.695 193.638-193.638 193.638s-193.638-86.695-193.638-193.638 86.694-193.638 193.637-193.638c106.944 0 193.639 86.695 193.639 193.638z" fill="#3d4ec6"/><path d="m488.498 148.705-157.768 157.769-91.924-91.924 166.514-166.515c35.711 25.686 64.536 60.342 83.178 100.67z" fill="#faa68e"/><path d="m420.886 216.317-27.834 27.834c-22.318 22.318-41 47.996-55.366 76.099l-50.076 97.958-42.717 82.944c-5.057 9.82-17.118 13.681-26.938 8.624-9.82-5.058-13.681-17.118-8.623-26.938l48.579-94.328-5.954-5.954-88.642 106.305c-7.074 8.483-19.685 9.626-28.169 2.552s-9.626-19.685-2.552-28.168l90.963-109.089-8.439-8.439-113.137 113.138c-7.81 7.811-20.474 7.811-28.284 0s-7.811-20.474 0-28.284l113.137-113.137-8.067-8.067-110.1 90.106c-8.548 6.996-21.149 5.737-28.144-2.811-6.996-8.548-5.737-21.148 2.811-28.144l107.008-87.576-10.357-10.357-56.635 14.594c-10.696 2.756-21.602-3.68-24.358-14.376s3.68-21.602 14.377-24.358l149.269-38.464c29.669-14.613 56.736-34 80.122-57.385l26.201-26.201c25.384-25.384 66.54-25.384 91.924 0 25.385 25.382 25.385 66.538.001 91.922z" fill="#ffbeaa"/><path d="m58.992 270.803c-.003-.014-.007-.027-.01-.041l101.979-26.279c5.348-1.378 10.801 1.84 12.179 7.188s-1.84 10.801-7.188 12.179l-83.872 21.612c-10.276 1.958-20.441-4.386-23.088-14.659zm121.745 24.03c-3.498-4.274-9.798-4.903-14.072-1.405l-126.142 103.234c6.996 8.548 19.596 9.807 28.144 2.811l110.664-90.567c4.274-3.499 4.903-9.799 1.406-14.073zm22.36 48.764c-3.905-3.906-10.237-3.905-14.142 0l-115.258 115.258c7.811 7.81 20.474 7.81 28.284 0l101.116-101.116c3.905-3.906 3.905-10.237 0-14.142zm50.521 21.353c-4.242-3.537-10.547-2.965-14.084 1.276l-104.388 125.189c8.483 7.074 21.095 5.931 28.169-2.552l91.579-109.828c3.538-4.243 2.966-10.548-1.276-14.085zm38.294 23.887c-4.91-2.529-10.94-.598-13.469 4.312l-60.151 116.796c9.757 4.799 21.601.916 26.6-8.792l52.245-101.447c.866-4.274-1.157-8.773-5.225-10.869z" fill="#ffcdbe"/><path d="m68.959 182.683c-10.515-10.515-12.993-26.635-6.122-39.822l26.658-51.165c1.495-2.869 5.6-2.869 7.095 0l26.658 51.165c6.871 13.187 4.393 29.307-6.122 39.822-13.3 13.301-34.866 13.301-48.167 0zm181.123-70.417c-8.158-8.158-10.08-20.664-4.75-30.895l20.683-39.696c1.16-2.226 4.345-2.226 5.504 0l20.682 39.696c5.331 10.231 3.408 22.738-4.75 30.895-10.318 10.32-27.05 10.32-37.369 0zm-116.23 269.367c-29.495-29.495-36.446-74.714-17.173-111.706l74.781-143.526c4.193-8.048 15.709-8.048 19.902 0l74.781 143.526c19.274 36.992 12.322 82.212-17.173 111.706-37.312 37.312-97.806 37.312-135.118 0z" fill="#e9f3fe"/><path d="m125.603 148.597c3.657 11.891.554 25.056-8.476 34.086-13.301 13.301-34.867 13.301-48.168 0-9.03-9.03-12.133-22.195-8.476-34.086 1.595 5.199 4.445 10.054 8.476 14.086 13.301 13.301 34.867 13.301 48.168 0 4.031-4.031 6.881-8.887 8.476-14.086zm168.425-62.776c2.837 9.225.43 19.439-6.576 26.445-10.32 10.32-27.051 10.32-37.37 0-7.006-7.006-9.413-17.22-6.576-26.445 1.237 4.033 3.448 7.801 6.576 10.928 10.32 10.32 27.051 10.32 37.37 0 3.128-3.127 5.339-6.895 6.576-10.928zm-1.281 200.195c10.257 33.355 1.554 70.285-23.777 95.616-37.312 37.312-97.806 37.312-135.118 0-25.331-25.331-34.034-62.261-23.777-95.616 4.473 14.583 12.468 28.204 23.777 39.513 37.312 37.312 97.806 37.312 135.118 0 11.31-11.309 19.304-24.93 23.777-39.513z" fill="#c8e2fd"/><path d="m179.982 219.271c0 4.142-3.358 7.5-7.5 7.5s-7.5-3.358-7.5-7.5 3.358-7.5 7.5-7.5 7.5 3.358 7.5 7.5zm13.929 46.5c-4.142 0-7.5 3.358-7.5 7.5s3.358 7.5 7.5 7.5 7.5-3.358 7.5-7.5-3.358-7.5-7.5-7.5zm-112.714-119.489c-4.142 0-7.5 3.358-7.5 7.5s3.358 7.5 7.5 7.5 7.5-3.358 7.5-7.5-3.358-7.5-7.5-7.5z" fill="#93e2c6"/><path d="m273.53 85.821c0 4.142-3.358 7.5-7.5 7.5s-7.5-3.358-7.5-7.5 3.358-7.5 7.5-7.5 7.5 3.358 7.5 7.5zm-176.509 36.998c-5.881 0-10.649 4.768-10.649 10.649s4.768 10.649 10.649 10.649 10.649-4.768 10.649-10.649c.001-5.881-4.767-10.649-10.649-10.649zm116.65 69.495c-5.881 0-10.649 4.768-10.649 10.649s4.768 10.649 10.649 10.649 10.649-4.768 10.649-10.649c0-5.882-4.768-10.649-10.649-10.649z" fill="#adebdc"/><path d="m299.923 233.217-90.454 127.079c-1.752 2.462-4.523 3.999-7.54 4.183-.203.013-.406.019-.608.019-2.8 0-5.482-1.175-7.383-3.256l-57.297-62.729c-3.725-4.078-3.438-10.403.639-14.128 4.079-3.725 10.403-3.438 14.127.64l48.947 53.587 83.274-116.992c3.201-4.498 9.446-5.553 13.945-2.348 4.502 3.202 5.553 9.446 2.35 13.945z" fill="#199a8e"/><path d="m231.647 321.894c-8.126 0-12.859-9.178-8.147-15.798l60.13-84.476c3.201-4.498 9.446-5.553 13.945-2.348 4.5 3.202 5.551 9.446 2.348 13.945l-60.129 84.476c-1.876 2.635-4.912 4.201-8.147 4.201z" fill="#20b7a1"/></g></svg>