<svg id="Capa_1" enable-background="new 0 0 512 512" height="512" viewBox="0 0 512 512" width="512" xmlns="http://www.w3.org/2000/svg"><g><path d="m512 256c0 141.385-114.615 256-256 256s-256-114.615-256-256 114.615-256 256-256 256 114.615 256 256z" fill="#faa598"/><path d="m477.013 256c0 122.062-98.951 221.013-221.013 221.013s-221.013-98.951-221.013-221.013 98.951-221.013 221.013-221.013 221.013 98.951 221.013 221.013z" fill="#fbb3a8"/><path d="m135.203 28.449 2.788-4.069c4.385-6.4 14.41-3.143 14.195 4.612l-.136 4.931c-.072 2.598 2.487 4.457 4.936 3.586l17.703-6.299c3.474-1.236 6.419 2.817 4.17 5.739l-11.461 14.89c-1.585 2.059-.607 5.068 1.885 5.802l4.732 1.394c7.442 2.192 7.442 12.733 0 14.926l-4.732 1.394c-2.493.734-3.47 3.743-1.885 5.802l11.461 14.89c2.249 2.922-.696 6.975-4.17 5.739l-17.703-6.299c-2.448-.871-5.008.988-4.936 3.586l.136 4.931c.215 7.755-9.81 11.012-14.195 4.612l-2.788-4.069c-1.469-2.144-4.632-2.144-6.101 0l-10.62 15.501c-2.084 3.042-6.849 1.494-6.747-2.192l.52-18.783c.072-2.598-2.487-4.457-4.936-3.586l-4.647 1.654c-7.309 2.601-13.505-5.927-8.773-12.075l3.009-3.909c1.585-2.059.607-5.068-1.885-5.802l-18.024-5.31c-3.537-1.042-3.537-6.052 0-7.094l18.024-5.31c2.493-.734 3.47-3.743 1.885-5.802l-3.009-3.909c-4.732-6.148 1.464-14.676 8.773-12.075l4.647 1.654c2.448.871 5.008-.988 4.936-3.586l-.52-18.783c-.102-3.686 4.663-5.234 6.747-2.192l10.62 15.501c1.468 2.144 4.632 2.144 6.101 0zm-93.61 297.562c-4.593-5.088-13.032-1.593-12.682 5.253.22 4.311-3.336 7.867-7.647 7.647-6.846-.35-10.341 8.089-5.253 12.682 3.204 2.893 3.204 7.921 0 10.814-5.088 4.593-1.593 13.032 5.253 12.682 4.311-.22 7.867 3.336 7.647 7.647-.35 6.846 8.089 10.341 12.682 5.253 2.893-3.204 7.921-3.204 10.814 0 4.593 5.088 13.032 1.593 12.682-5.253-.22-4.311 3.336-7.867 7.647-7.647 6.846.35 10.341-8.089 5.253-12.682-3.204-2.893-3.204-7.921 0-10.814 5.088-4.593 1.593-13.032-5.253-12.682-4.311.22-7.867-3.336-7.647-7.647.35-6.846-8.089-10.341-12.682-5.253-2.893 3.204-7.921 3.204-10.814 0z" fill="#f76c57"/><path d="m243 60c9.389 0 17 7.611 17 17s-7.611 17-17 17-17-7.611-17-17 7.611-17 17-17zm173 147c0 9.389 7.611 17 17 17s17-7.611 17-17-7.611-17-17-17-17 7.611-17 17zm-283.315-164.023c12.991 0 23.522 10.531 23.522 23.522s-10.531 23.521-23.522 23.521-23.522-10.531-23.522-23.522 10.531-23.521 23.522-23.521zm-102.685 314.023c0 9.389 7.611 17 17 17s17-7.611 17-17-7.611-17-17-17-17 7.611-17 17zm90 80c0 9.389 7.611 17 17 17s17-7.611 17-17-7.611-17-17-17-17 7.611-17 17z" fill="#e5554e"/><path d="m151.806 445.36c-2.919 5.158-8.456 8.64-14.806 8.64-9.389 0-17-7.611-17-17 0-6.35 3.481-11.887 8.64-14.806-1.397 2.469-2.194 5.321-2.194 8.36 0 9.389 7.611 17 17 17 3.038.001 5.891-.797 8.36-2.194zm249.116-63.784-10.62-15.501c-2.084-3.042-6.849-1.494-6.747 2.192l.52 18.783c.072 2.598-2.487 4.457-4.936 3.586l-4.648-1.654c-7.309-2.601-13.505 5.927-8.773 12.075l3.009 3.909c1.585 2.059.607 5.068-1.885 5.802l-18.024 5.31c-3.537 1.042-3.537 6.052 0 7.094l18.024 5.31c2.493.734 3.47 3.743 1.885 5.802l-3.009 3.909c-4.732 6.148 1.464 14.676 8.773 12.075l4.648-1.654c2.448-.871 5.008.988 4.936 3.586l-.52 18.783c-.102 3.686 4.663 5.234 6.747 2.192l10.62-15.501c1.469-2.144 4.632-2.144 6.101 0l2.788 4.069c4.385 6.4 14.41 3.143 14.195-4.612l-.136-4.931c-.072-2.598 2.487-4.457 4.936-3.586l17.703 6.299c3.474 1.236 6.419-2.817 4.17-5.739l-11.461-14.89c-1.585-2.059-.607-5.068 1.885-5.802l4.732-1.394c7.442-2.192 7.442-12.733 0-14.926l-4.732-1.394c-2.493-.734-3.47-3.743-1.885-5.802l11.461-14.89c2.249-2.922-.696-6.975-4.17-5.739l-17.703 6.299c-2.448.871-5.008-.988-4.936-3.586l.136-4.931c.215-7.755-9.81-11.012-14.195-4.612l-2.788 4.069c-1.469 2.144-4.632 2.144-6.101 0zm-48.515-379.155c4.593-5.088 13.032-1.593 12.682 5.253-.22 4.311 3.336 7.867 7.647 7.647 6.846-.35 10.341 8.089 5.253 12.682-3.204 2.893-3.204 7.921 0 10.814 5.088 4.593 1.593 13.032-5.253 12.682-4.311-.22-7.867 3.336-7.647 7.647.35 6.846-8.089 10.341-12.682 5.253-2.893-3.204-7.921-3.204-10.814 0-4.593 5.088-13.032 1.593-12.682-5.253.22-4.311-3.336-7.867-7.647-7.647-6.846.35-10.341-8.089-5.253-12.682 3.204-2.893 3.204-7.921 0-10.814-5.088-4.593-1.593-13.032 5.253-12.682 4.311.22 7.867-3.336 7.647-7.647-.35-6.846 8.089-10.341 12.682-5.253 2.893 3.204 7.921 3.204 10.814 0zm-210.804 78.681c-12.991 0-23.522-10.531-23.522-23.522 0-4.205 1.103-8.152 3.036-11.567-7.137 4.039-11.954 11.7-11.954 20.485 0 12.991 10.531 23.522 23.522 23.522 8.786 0 16.447-4.817 20.485-11.954-3.415 1.933-7.362 3.036-11.567 3.036zm-122.564 69.089c0-5.881 4.768-10.649 10.649-10.649s10.649 4.768 10.649 10.649-4.768 10.649-10.649 10.649-10.649-4.767-10.649-10.649zm195.932 290.109c-8.201 0-14.85 6.648-14.85 14.85s6.649 14.85 14.85 14.85 14.85-6.648 14.85-14.85-6.649-14.85-14.85-14.85zm-180-180.3c-8.201 0-14.85 6.648-14.85 14.85s6.649 14.85 14.85 14.85 14.85-6.648 14.85-14.85-6.649-14.85-14.85-14.85zm380-170c-8.201 0-14.85 6.648-14.85 14.85s6.649 14.85 14.85 14.85 14.85-6.648 14.85-14.85-6.649-14.85-14.85-14.85zm-165.526-2.445c-9.389 0-17-7.611-17-17 0-3.039.797-5.892 2.194-8.36-5.157 2.918-8.639 8.455-8.639 14.805 0 9.389 7.611 17 17 17 6.35 0 11.887-3.481 14.806-8.64-2.469 1.397-5.322 2.195-8.361 2.195zm190 130c-9.389 0-17-7.611-17-17 0-3.039.797-5.892 2.194-8.36-5.157 2.918-8.639 8.455-8.639 14.805 0 9.389 7.611 17 17 17 6.35 0 11.887-3.481 14.806-8.64-2.469 1.397-5.322 2.195-8.361 2.195zm-377.639 147.805c-2.919 5.158-8.456 8.64-14.806 8.64-9.389 0-17-7.611-17-17 0-6.35 3.481-11.887 8.64-14.806-1.397 2.469-2.194 5.321-2.194 8.36 0 9.389 7.611 17 17 17 3.038.001 5.891-.797 8.36-2.194z" fill="#d63030"/><path d="m390 256c0 74.006-59.994 134-134 134s-134-59.994-134-134 59.994-134 134-134 134 59.994 134 134z" fill="#a6aee5"/><path d="m370.366 325.866c-23.549 38.467-65.96 64.134-114.366 64.134-74.006 0-134-59.994-134-134 0-48.406 25.667-90.817 64.134-114.366-12.455 20.343-19.634 44.266-19.634 69.866 0 74.006 59.994 134 134 134 25.6 0 49.523-7.179 69.866-19.634z" fill="#8c96dd"/><path d="m393.981 123.929-21.213 21.213c-1.953 1.953-5.118 1.953-7.071 0s-1.953-5.118 0-7.071l21.213-21.213c1.953-1.953 5.118-1.953 7.071 0s1.953 5.118 0 7.071zm12.803 26.087h-20c-2.761 0-5 2.239-5 5s2.239 5 5 5h20c2.761 0 5-2.239 5-5s-2.238-5-5-5zm-51.568-50.355c-2.761 0-5 2.239-5 5v20c0 2.761 2.239 5 5 5s5-2.239 5-5v-20c0-2.761-2.239-5-5-5zm-215.984 264.875-21.213 21.213c-1.953 1.953-1.953 5.118 0 7.071s5.118 1.953 7.071 0l21.213-21.213c1.953-1.953 1.953-5.118 0-7.071s-5.118-1.953-7.071 0zm-9.016-9.875c0-2.761-2.239-5-5-5h-20c-2.761 0-5 2.239-5 5s2.239 5 5 5h20c2.761 0 5-2.238 5-5zm26.568 25.355c-2.761 0-5 2.239-5 5v20c0 2.761 2.239 5 5 5s5-2.239 5-5v-20c0-2.761-2.238-5-5-5z" fill="#ffeee5"/><path d="m310.338 429.191c0 5.881-4.768 10.649-10.649 10.649s-10.649-4.768-10.649-10.649 4.768-10.649 10.649-10.649 10.649 4.768 10.649 10.649zm-40.649-410.649c-5.881 0-10.649 4.768-10.649 10.649s4.768 10.649 10.649 10.649 10.649-4.768 10.649-10.649-4.768-10.649-10.649-10.649zm210 100c-5.881 0-10.649 4.768-10.649 10.649s4.768 10.649 10.649 10.649 10.649-4.768 10.649-10.649-4.768-10.649-10.649-10.649zm-404.718 81.458c-8.201 0-14.85 6.648-14.85 14.85s6.649 14.85 14.85 14.85 14.85-6.648 14.85-14.85-6.649-14.85-14.85-14.85zm390 80c-8.201 0-14.85 6.648-14.85 14.85s6.649 14.85 14.85 14.85 14.85-6.648 14.85-14.85-6.649-14.85-14.85-14.85z" fill="#f76c57"/><path d="m404.505 396.104c12.991 0 23.522 10.531 23.522 23.522s-10.531 23.522-23.522 23.522-23.522-10.531-23.522-23.522 10.532-23.522 23.522-23.522zm-74.505-362.694c0 9.389 7.611 17 17 17s17-7.611 17-17-7.611-17-17-17-17 7.611-17 17z" fill="#f76c57"/><path d="m424.991 431.192c-4.039 7.137-11.7 11.954-20.485 11.954-12.991 0-23.522-10.531-23.522-23.522 0-8.786 4.817-16.447 11.954-20.485-1.933 3.416-3.036 7.363-3.036 11.567 0 12.991 10.531 23.522 23.522 23.522 4.204.001 8.151-1.103 11.567-3.036zm-71.546-387.227c-9.389 0-17-7.611-17-17 0-3.039.797-5.892 2.194-8.36-5.157 2.918-8.639 8.455-8.639 14.805 0 9.389 7.611 17 17 17 6.35 0 11.887-3.481 14.806-8.64-2.469 1.397-5.322 2.195-8.361 2.195z" fill="#e5554e"/><path d="m236.631 263.034c6.026 0 10.912 4.885 10.912 10.912v58.197c0 6.026-4.885 10.912-10.912 10.912-6.026 0-10.912-4.885-10.912-10.912v-58.197c.001-6.027 4.886-10.912 10.912-10.912z" fill="#3d4ec6"/><path d="m286.28 274.18v58.197c0 6.026-4.885 10.912-10.912 10.912-6.026 0-10.912-4.885-10.912-10.912v-58.197c0-6.026 4.885-10.912 10.912-10.912 6.027 0 10.912 4.886 10.912 10.912zm-78.652-65.038c-4.261-4.261-11.17-4.261-15.432 0s-4.261 11.17 0 15.432l33.524 33.524v28.302c0 6.026 4.885 10.912 10.912 10.912 6.026 0 10.912-4.885 10.912-10.912v-32.822c0-3.013-1.221-5.741-3.196-7.716zm40.538 8.331c-4.261 4.261-11.17 4.261-15.432 0l-18.899-18.9c-4.261-4.261-4.261-11.17 0-15.432 4.261-4.261 11.17-4.261 15.432 0l18.899 18.899c4.261 4.262 4.261 11.171 0 15.433z" fill="#5766ce"/><path d="m319.804 224.573-33.523 33.524v28.45c0 6.026-4.885 10.912-10.912 10.912-6.026 0-10.912-4.885-10.912-10.912v-32.822c0-2.776 1.037-5.309 2.744-7.235.114-.229.263-.44.452-.629l36.72-36.719c4.261-4.261 11.17-4.261 15.432 0s4.26 11.17-.001 15.431zm-40.538-7.1 18.899-18.9c4.261-4.261 4.261-11.17 0-15.432-4.261-4.261-11.17-4.261-15.432 0l-18.899 18.899c-4.261 4.261-4.261 11.17 0 15.432 4.262 4.262 11.171 4.262 15.432.001z" fill="#717ed6"/><path d="m256 397.5c-78.023 0-141.5-63.477-141.5-141.5s63.477-141.5 141.5-141.5 141.5 63.477 141.5 141.5-63.477 141.5-141.5 141.5zm0-268c-69.752 0-126.5 56.748-126.5 126.5s56.748 126.5 126.5 126.5 126.5-56.748 126.5-126.5-56.748-126.5-126.5-126.5z" fill="#fccfc9"/><path d="m397.494 254.717c.09 10.048-.874 19.861-2.787 29.333-.702 3.475-3.797 5.949-7.342 5.949-4.708 0-8.296-4.296-7.364-8.911 1.86-9.205 2.717-18.769 2.452-28.573-1.859-68.801-57.681-123.045-126.507-123.016-12.593.005-24.761 1.861-36.248 5.308-4.831 1.45-9.698-2.122-9.698-7.166v-.004c0-3.287 2.131-6.219 5.278-7.166 12.298-3.702 25.296-5.772 38.741-5.958 78.103-1.077 142.779 62.097 143.475 140.204z" fill="#ffeee5"/></g></svg>