<svg id="Capa_1" enable-background="new 0 0 512 512" height="512" viewBox="0 0 512 512" width="512" xmlns="http://www.w3.org/2000/svg"><g><path d="m512 256c0 141.385-114.615 256-256 256s-256-114.615-256-256 114.615-256 256-256 256 114.615 256 256z" fill="#55a4f9"/><path d="m463.091 265.781c0 114.373-92.718 207.091-207.091 207.091s-207.091-92.717-207.091-207.091 92.718-207.091 207.091-207.091 207.091 92.718 207.091 207.091z" fill="#76b6fa"/><path d="m151 86.933c0 7.136-5.785 12.92-12.92 12.92s-12.92-5.784-12.92-12.92 5.784-12.92 12.92-12.92 12.92 5.784 12.92 12.92zm218.08-1.92c-7.135 0-12.92 5.784-12.92 12.92s5.784 12.92 12.92 12.92 12.92-5.784 12.92-12.92-5.785-12.92-12.92-12.92zm-298.994 44.987c-4.93 0-8.927 3.997-8.927 8.927s3.996 8.927 8.927 8.927c4.93 0 8.927-3.997 8.927-8.927s-3.997-8.927-8.927-8.927zm5-67c-4.93 0-8.927 3.997-8.927 8.927s3.996 8.927 8.927 8.927c4.93 0 8.927-3.997 8.927-8.927s-3.997-8.927-8.927-8.927zm369 67c-4.93 0-8.927 3.997-8.927 8.927s3.996 8.927 8.927 8.927c4.93 0 8.927-3.997 8.927-8.927s-3.997-8.927-8.927-8.927zm-3.073-60.073c0-4.93-3.997-8.927-8.927-8.927s-8.927 3.997-8.927 8.927 3.996 8.927 8.927 8.927c4.93-.001 8.927-3.997 8.927-8.927z" fill="#5766ce"/><path d="m244 167.249v176.058c0 34.94-19.082 67.091-49.752 83.829l-103.062 56.242c-14.228 7.765-31.947 4.406-42.381-7.999-30.457-36.207-48.805-82.937-48.805-133.953-.001-115.183 93.641-208.545 208.824-208.214.609.002 1.217.006 1.825.013 18.528.213 33.351 15.494 33.351 34.024zm59.176-34.037c-.609.002-1.217.006-1.825.013-18.528.213-33.351 15.494-33.351 34.024v176.058c0 34.94 19.082 67.091 49.752 83.829l103.062 56.242c14.228 7.765 31.947 4.406 42.381-7.999 30.457-36.207 48.805-82.937 48.805-133.953.001-115.183-93.641-208.544-208.824-208.214z" fill="#e09380"/><path d="m211.5 218c11.721 0 22.775-2.861 32.5-7.922v133.228c0 22.571-7.964 43.978-21.87 60.818-25.104-.05-49.9-3.814-73.608-10.985-10.689 11.597-26.007 18.861-43.022 18.861-32.309 0-58.5-26.191-58.5-58.5 0-16.201 6.586-30.864 17.226-41.457-.058-1.06-.093-2.124-.106-3.192-10.578-10.585-17.12-25.204-17.12-41.351 0-26.589 17.738-49.034 42.026-56.148 1.977-3.678 4.064-7.3 6.262-10.86 13.943-22.586 45.914-25.893 63.581-6.084 12.912 14.476 31.707 23.592 52.631 23.592zm299.487 102.773c-8.12-82.376-64.299-150.665-140.059-176.484.048 1.065.072 2.135.072 3.211 0 27.814-16.107 51.866-39.502 63.337-15.768 7.732-25.498 24.051-25.498 41.613v64.857c0 .871.012 1.74.035 2.607 1.302 47.649 45.896 80.777 91.06 71.673 10.729 12.496 26.642 20.413 44.405 20.413 32.309 0 58.5-26.191 58.5-58.5 0-6.532-1.071-12.815-3.046-18.681 4.856-4.5 9.538-9.186 14.033-14.046z" fill="#faa68e"/><path d="m415.697 230.172c0 4.142-3.358 7.5-7.5 7.5h-43.222l34.222 34.222c2.929 2.929 2.929 7.678 0 10.607s-7.678 2.929-10.607 0l-34.222-34.222v47.221c0 4.142-3.358 7.5-7.5 7.5s-7.5-3.358-7.5-7.5v-27.5h-13.171c-4.142 0-7.5-3.358-7.5-7.5s3.358-7.5 7.5-7.5h13.171v-19.358c0-.119.003-.238.009-.355l-39.18-39.18c-2.929-2.929-2.929-7.678 0-10.607s7.678-2.929 10.606 0l39.18 39.18c.118-.005.236-.009.355-.009h15.429v-26.171c0-4.142 3.358-7.5 7.5-7.5 4.142 0 7.5 3.358 7.5 7.5v26.171h27.429c4.143.001 7.501 3.358 7.501 7.501zm-173.947-158.819c-8.284 0-15 6.716-15 15v62.756l-30.962 30.962c-3.911 3.911-5.21 9.444-3.899 14.434l-28.175 28.176c-.118-.005-.236-.009-.355-.009h-15.429v-12.172c0-4.142-3.358-7.5-7.5-7.5s-7.5 3.358-7.5 7.5v12.171h-27.43c-4.142 0-7.5 3.358-7.5 7.5s3.358 7.5 7.5 7.5h43.222l-34.222 34.222c-2.929 2.929-2.929 7.678 0 10.607s7.678 2.929 10.606 0l34.222-34.222v47.222c0 4.142 3.358 7.5 7.5 7.5s7.5-3.358 7.5-7.5v-27.5h28.172c4.142 0 7.5-3.358 7.5-7.5s-3.358-7.5-7.5-7.5h-28.172v-19.358c0-.119-.003-.238-.009-.355l28.134-28.134c5.019 1.362 10.607.072 14.548-3.869l35.355-35.355c2.972-2.972 4.436-6.88 4.392-10.775 0-.051.001-.103.001-.154v-68.647c.001-8.284-6.715-15-14.999-15z" fill="#d47f6c"/><path d="m226.75 95v-80c0-8.284 6.716-15 15-15 8.284 0 15 6.716 15 15v80c0 8.284-6.716 15-15 15-8.284 0-15-6.716-15-15z" fill="#e09380"/><path d="m316.212 201.284c-5.858 5.858-15.355 5.858-21.213 0l-35.355-35.355c-2.972-2.972-4.436-6.88-4.392-10.775 0-.051-.001-.103-.001-.154v-66.647c0-8.284 6.716-15 15-15s15 6.716 15 15v60.756l30.962 30.962c5.857 5.858 5.857 15.355-.001 21.213z" fill="#faa68e"/><path d="m270.25 110c-8.284 0-15-6.716-15-15v-80c0-8.284 6.716-15 15-15 8.284 0 15 6.716 15 15v80c0 8.284-6.716 15-15 15z" fill="#ffbeaa"/><path d="m158.989 403.407c5.088 4.593 1.593 13.032-5.253 12.682-4.311-.22-7.867 3.336-7.646 7.647.35 6.846-8.089 10.341-12.682 5.253-2.893-3.204-7.921-3.204-10.814 0-4.594 5.088-13.032 1.593-12.682-5.253.22-4.311-3.335-7.867-7.646-7.647-6.846.35-10.341-8.089-5.253-12.682 3.204-2.893 3.204-7.921 0-10.814-5.088-4.593-1.593-13.032 5.253-12.682 4.311.22 7.867-3.336 7.646-7.647-.35-6.846 8.089-10.341 12.682-5.253 2.893 3.204 7.921 3.204 10.814 0 4.594-5.088 13.032-1.593 12.682 5.253-.22 4.311 3.335 7.867 7.646 7.647 6.846-.35 10.341 8.089 5.253 12.682-3.204 2.893-3.204 7.921 0 10.814zm321-103c-3.204-2.893-3.204-7.921 0-10.814 5.088-4.593 1.593-13.032-5.253-12.682-4.311.22-7.867-3.336-7.646-7.647.35-6.846-8.089-10.341-12.682-5.253-2.893 3.204-7.921 3.204-10.814 0-4.594-5.088-13.032-1.593-12.682 5.253.22 4.311-3.335 7.867-7.646 7.647-6.846-.35-10.341 8.089-5.253 12.682 3.204 2.893 3.204 7.921 0 10.814-5.088 4.593-1.593 13.032 5.253 12.682 4.311-.22 7.867 3.336 7.646 7.647-.35 6.846 8.089 10.341 12.682 5.253 2.893-3.204 7.921-3.204 10.814 0 4.594 5.088 13.032 1.593 12.682-5.253-.22-4.311 3.335-7.867 7.646-7.647 6.846.35 10.341-8.089 5.253-12.682z" fill="#d63030"/><path d="m145 398c0 9.389-7.611 17-17 17s-17-7.611-17-17 7.611-17 17-17 17 7.611 17 17zm304-120c-9.389 0-17 7.611-17 17s7.611 17 17 17 17-7.611 17-17-7.611-17-17-17z" fill="#f76c57"/><path d="m134.445 408.555c3.039 0 5.892-.797 8.36-2.194-2.918 5.157-8.455 8.639-14.805 8.639-9.389 0-17-7.611-17-17 0-6.35 3.481-11.887 8.64-14.806-1.397 2.469-2.195 5.321-2.195 8.36 0 9.389 7.612 17.001 17 17.001zm321-103c-9.389 0-17-7.611-17-17 0-3.039.798-5.892 2.195-8.36-5.159 2.918-8.64 8.455-8.64 14.805 0 9.389 7.611 17 17 17 6.35 0 11.887-3.482 14.806-8.64-2.469 1.397-5.322 2.195-8.361 2.195zm-371.715 21.865c0 12.991-10.531 23.522-23.521 23.522-12.991 0-23.521-10.531-23.521-23.522s10.531-23.522 23.521-23.522 23.521 10.531 23.521 23.522zm309.321 52.516c-12.99 0-23.521 10.531-23.521 23.522s10.531 23.522 23.521 23.522 23.522-10.531 23.522-23.522-10.532-23.522-23.522-23.522z" fill="#e5554e"/><path d="m69.126 342.023c4.205 0 8.152-1.103 11.567-3.036-4.039 7.137-11.699 11.954-20.485 11.954-12.991 0-23.521-10.531-23.521-23.522 0-8.786 4.817-16.447 11.954-20.485-1.933 3.416-3.036 7.363-3.036 11.567 0 12.991 10.531 23.522 23.521 23.522zm332.843 76.038c-12.991 0-23.522-10.531-23.522-23.522 0-4.205 1.103-8.152 3.036-11.567-7.137 4.039-11.954 11.7-11.954 20.485 0 12.991 10.531 23.522 23.521 23.522 8.786 0 16.447-4.817 20.485-11.954-3.415 1.933-7.362 3.036-11.566 3.036z" fill="#d63030"/><path d="m212 338.933c0 7.136-5.785 12.92-12.92 12.92s-12.92-5.784-12.92-12.92 5.784-12.92 12.92-12.92 12.92 5.784 12.92 12.92zm-151.914 49.067c-4.93 0-8.927 3.997-8.927 8.927s3.996 8.927 8.927 8.927c4.93 0 8.927-3.997 8.927-8.927s-3.997-8.927-8.927-8.927zm310.5-79.5c-4.93 0-8.927 3.997-8.927 8.927s3.996 8.927 8.927 8.927c4.93 0 8.927-3.997 8.927-8.927s-3.997-8.927-8.927-8.927zm43-117c-4.93 0-8.927 3.997-8.927 8.927s3.996 8.927 8.927 8.927c4.93 0 8.927-3.997 8.927-8.927s-3.997-8.927-8.927-8.927zm44 215c-4.93 0-8.927 3.997-8.927 8.927s3.996 8.927 8.927 8.927c4.93 0 8.927-3.997 8.927-8.927s-3.997-8.927-8.927-8.927z" fill="#e5554e"/><path d="m330 345.933c0 7.136-5.785 12.92-12.92 12.92s-12.92-5.784-12.92-12.92 5.784-12.92 12.92-12.92 12.92 5.784 12.92 12.92zm139.08 9.08c-7.135 0-12.92 5.784-12.92 12.92s5.784 12.92 12.92 12.92 12.92-5.784 12.92-12.92-5.785-12.92-12.92-12.92zm-331.494-44.513c-4.93 0-8.927 3.997-8.927 8.927s3.996 8.927 8.927 8.927c4.93 0 8.927-3.997 8.927-8.927s-3.997-8.927-8.927-8.927zm-67.5-67.5c-4.93 0-8.927 3.997-8.927 8.927s3.996 8.927 8.927 8.927c4.93 0 8.927-3.997 8.927-8.927s-3.997-8.927-8.927-8.927z" fill="#f87b67"/></g></svg>