<svg id="Capa_1" enable-background="new 0 0 512 512" height="512" viewBox="0 0 512 512" width="512" xmlns="http://www.w3.org/2000/svg"><g><path d="m512 256c0 141.385-114.615 256-256 256s-256-114.615-256-256 114.615-256 256-256 256 114.615 256 256z" fill="#55a4f9"/><path d="m461.16 260.853c0 108.33-87.819 196.149-196.149 196.149s-196.149-87.819-196.149-196.149 87.819-196.149 196.149-196.149 196.149 87.819 196.149 196.149z" fill="#76b6fa"/><path d="m88.234 268.225c0 6.503-5.272 11.775-11.775 11.775s-11.775-5.272-11.775-11.775 5.272-11.775 11.775-11.775c6.504 0 11.775 5.272 11.775 11.775zm227.416 177.002c0 6.503-5.272 11.775-11.775 11.775s-11.775-5.272-11.775-11.775 5.272-11.775 11.775-11.775c6.503.001 11.775 5.272 11.775 11.775z" fill="#199a8e"/><path d="m424.074 321.417c-.86 1.791-2.648 2.836-4.511 2.836-.726 0-1.463-.158-2.161-.494-45.974-22.083-98.668-28.379-148.372-17.731-2.706.581-5.358-1.142-5.937-3.841-.579-2.7 1.142-5.358 3.841-5.937 51.862-11.112 106.836-4.543 154.798 18.495 2.49 1.196 3.539 4.183 2.342 6.672z" fill="#ffeee5"/><path d="m454.533 283.794c-96.81-23.715-199.927-15.063-292.135 25.958 41.021-92.208 49.673-195.325 25.958-292.135-2.728-11.136 8.131-20.71 18.862-16.675 58.491 21.993 113.343 56.52 160.407 103.584 47.063 47.063 81.591 101.915 103.584 160.407 4.034 10.73-5.541 21.588-16.676 18.861z" fill="#ffc14f"/><path d="m454.533 283.793c-24.574-6.02-49.555-9.954-74.66-11.803-94.073-6.927-136.651-121.047-70.552-188.344.548-.558 1.098-1.113 1.652-1.667 4.948-4.948 10.049-9.652 15.287-14.111 14.34 11.232 28.159 23.45 41.364 36.655 47.063 47.063 81.591 101.915 103.584 160.407 4.035 10.733-5.539 21.591-16.675 18.863z" fill="#ffcd71"/><path d="m201.371 291.991-135.471 135.471c-6.738-7.466-13.042-15.33-18.873-23.554l133.131-133.131z" fill="#2b3894"/><path d="m406.515 230.649c-55.327-1.423-116.622 12.179-177.722 38.913 33.363-24.322 63.694-43.676 89.203-56.772 2.457-1.262 3.426-4.275 2.165-6.731-1.262-2.457-4.275-3.427-6.731-2.165-31.032 15.931-69.007 40.913-110.804 72.702l147.239-147.24c1.953-1.952 1.953-5.118 0-7.07-1.951-1.953-5.119-1.953-7.07 0l-147.241 147.238c31.788-41.797 56.771-79.773 72.702-110.805 1.261-2.456.292-5.47-2.165-6.731-2.455-1.261-5.471-.293-6.731 2.165-13.097 25.51-32.452 55.843-56.776 89.208 26.732-61.103 40.328-122.401 38.916-177.728-.07-2.76-2.352-4.936-5.126-4.87-2.761.07-4.941 2.365-4.871 5.126 1.726 67.606-19.644 144.546-60.505 218.97-6.475 8.182-13.187 16.486-20.119 24.892-7.719 9.359.841 20.35 9.566 13.133 9.074-7.506 18.032-14.757 26.847-21.734 74.424-40.86 151.372-62.226 218.967-60.505 2.715.082 5.055-2.109 5.126-4.87.07-2.76-2.111-5.055-4.87-5.126z" fill="#f29500"/><path d="m209.969 297.535-33.347 33.347c-5.783 5.783-13.695 8.141-21.214 7.072l-72.444 72.444c-2.947 2.947-7.726 2.947-10.673 0-2.948-2.947-2.948-7.726 0-10.673l68.91-68.91c-9.696-9.768-9.674-25.547.066-35.288l33.347-33.347c3.062-3.062 8.026-3.062 11.088 0l24.267 24.267c3.062 3.062 3.062 8.026 0 11.088z" fill="#3342ae"/><path d="m209.969 297.535-19.205 19.205c-9.763 9.763-25.592 9.763-35.355 0-9.763-9.763-9.763-25.592 0-35.355l19.205-19.205c3.062-3.062 8.026-3.062 11.088 0l24.267 24.267c3.062 3.062 3.062 8.026 0 11.088z" fill="#3d4ec6"/><path d="m223.292 299.769c-2.929 2.929-7.678 2.929-10.607 0l-40.305-40.305c-2.929-2.929-2.929-7.678 0-10.607s7.678-2.929 10.607 0l40.305 40.305c2.929 2.929 2.929 7.678 0 10.607z" fill="#5766ce"/><path d="m450.356 125.723c-2.368 0-4.641.41-6.75 1.163-2.119-18.381-17.734-32.652-36.683-32.652-20.395 0-36.928 16.533-36.928 36.928 0 16.657 11.029 30.738 26.182 35.339-.408 1.846-.624 3.764-.624 5.733 0 14.594 11.831 26.426 26.426 26.426 14.594 0 26.426-11.831 26.426-26.426 0-2.254-.282-4.441-.813-6.529.904.125 1.827.189 2.765.189 11.093 0 20.085-8.992 20.085-20.085s-8.993-20.086-20.086-20.086zm-179.928 246.417c0 9.495-7.697 17.191-17.192 17.191s-17.192-7.697-17.192-17.191c0-9.495 7.697-17.192 17.192-17.192s17.192 7.697 17.192 17.192zm82.887-42.976c-3.504 0-6.843.706-9.883 1.982-1.495-4.787-5.962-8.262-11.242-8.262-6.503 0-11.775 5.272-11.775 11.775 0 5.493 3.762 10.108 8.85 11.408-.971 2.701-1.501 5.612-1.501 8.647 0 14.111 11.439 25.55 25.55 25.55s25.55-11.439 25.55-25.55-11.438-25.55-25.549-25.55zm141.494-163.27c-9.495 0-17.192 7.697-17.192 17.191 0 9.495 7.697 17.191 17.192 17.191s17.191-7.697 17.191-17.191-7.697-17.191-17.191-17.191zm-154.973-79.301c9.382 0 16.988-7.606 16.988-16.988s-7.606-16.988-16.988-16.988-16.988 7.606-16.988 16.988 7.605 16.988 16.988 16.988z" fill="#7c665d"/><path d="m441.242 190.323c-4.82 5.131-11.667 8.337-19.263 8.337-14.594 0-26.426-11.831-26.426-26.426 0-1.969.216-3.887.624-5.733-15.153-4.602-26.182-18.682-26.182-35.339 0-20.395 16.533-36.928 36.928-36.928.904 0 1.801.033 2.689.097-8.705 6.756-14.307 17.318-14.307 29.19 0 16.657 11.029 30.738 26.182 35.339-.408 1.846-.624 3.764-.624 5.733 0 12.514 8.699 22.996 20.379 25.73z" fill="#69564e"/><path d="m362.617 14.24c0 7.865-6.375 14.24-14.24 14.24s-14.24-6.376-14.24-14.24 6.375-14.24 14.24-14.24 14.24 6.376 14.24 14.24zm71.136 357.9c-6.503 0-11.775 5.272-11.775 11.775s5.272 11.775 11.775 11.775 11.775-5.272 11.775-11.775-5.271-11.775-11.775-11.775zm-287.571-226.133c.473-2.209.723-4.501.723-6.851 0-17.979-14.575-32.554-32.554-32.554s-32.554 14.575-32.554 32.554 14.575 32.554 32.554 32.554c5.253 0 10.215-1.245 14.608-3.454 2.474 5.661 8.124 9.617 14.698 9.617 8.855 0 16.033-7.178 16.033-16.033-.002-7.994-5.854-14.621-13.508-15.833z" fill="#8f766c"/><path d="m159.357 165.096c-1.504 7.294-7.963 12.778-15.702 12.778-6.573 0-12.223-3.956-14.698-9.617-4.393 2.21-9.355 3.454-14.608 3.454-17.979 0-32.554-14.575-32.554-32.554 0-11.129 5.585-20.953 14.104-26.824-2.306 4.467-3.609 9.537-3.609 14.911 0 17.979 14.575 32.554 32.554 32.554 5.253 0 10.215-1.245 14.607-3.454 2.475 5.661 8.124 9.617 14.698 9.617 1.824 0 3.575-.305 5.208-.865z" fill="#7c665d"/></g></svg>