<svg id="Capa_1" enable-background="new 0 0 512 512" height="512" viewBox="0 0 512 512" width="512" xmlns="http://www.w3.org/2000/svg"><g><path d="m512 256c0 141.385-114.615 256-256 256s-256-114.615-256-256 114.615-256 256-256 256 114.615 256 256z" fill="#3342ae"/><path d="m449.169 256c0 106.684-86.485 193.169-193.169 193.169s-193.169-86.485-193.169-193.169 86.485-193.169 193.169-193.169 193.169 86.485 193.169 193.169z" fill="#3d4ec6"/><path d="m290.211 248.329c-6.833 2.026-10.743 9.234-8.717 16.067 1.178 3.971-1.087 8.145-5.058 9.323s-8.145-1.087-9.323-5.058c-4.378-14.763 4.07-30.335 18.833-34.713 3.971-1.178 8.145 1.087 9.323 5.058s-1.087 8.145-5.058 9.323zm-197.825-161.029c-3.971 1.178-6.236 5.352-5.058 9.323s5.352 6.236 9.323 5.058c6.833-2.027 14.041 1.884 16.067 8.717 1.178 3.971 5.352 6.236 9.323 5.058s6.236-5.352 5.058-9.323c-4.378-14.763-19.95-23.211-34.713-18.833z" fill="#8c96dd"/><path d="m334.821 327.809c0 5.881-4.768 10.649-10.649 10.649s-10.649-4.768-10.649-10.649 4.768-10.649 10.649-10.649 10.649 4.768 10.649 10.649zm-282.64-21.298c-5.881 0-10.649 4.768-10.649 10.649s4.768 10.649 10.649 10.649 10.649-4.768 10.649-10.649c.001-5.881-4.767-10.649-10.649-10.649zm421.017-71.81c-5.881 0-10.649 4.768-10.649 10.649s4.767 10.65 10.649 10.65c5.881 0 10.649-4.768 10.649-10.649s-4.768-10.65-10.649-10.65zm-93.283-161.645c-6.833 2.027-14.041-1.884-16.067-8.717-1.178-3.971-5.352-6.236-9.323-5.058s-6.236 5.352-5.058 9.323c4.378 14.762 19.95 23.211 34.713 18.833 3.971-1.178 6.236-5.352 5.058-9.323s-5.352-6.236-9.323-5.058z" fill="#5766ce"/><path d="m424.602 149.56c7.166 9.902 5.053 22.516 4.152 28.706-5.549 38.121-1.614 79.626 2.293 98.317 6.373 30.487 15.044 41.897 7.342 54.57-6.329 10.415-20.897 16.565-33.103 14.934-30.938-4.136-52.073-58.633-53.014-101.798-1.13-51.79 27.399-106.267 51.207-106.464 7.271-.06 16.195 4.926 21.123 11.735zm-86.028 288.418c8.177-27.434-44.372-79.454-104.3-96.435-49.947-14.153-120.047-9.095-135.721 25.007-6.183 13.454-4.256 32.37 5.482 43.32 11.849 13.325 28.024 7.386 65.316 10.821 22.863 2.106 71.959 12.232 113.818 32.065 6.797 3.22 20.55 10.1 34.461 5.359 9.566-3.26 18.446-11.758 20.944-20.137zm-269.478-179.709c33.649 26.966 114.792-4.524 162.243-53.921 41.323-43.017 72.901-116.068 47.181-149.726-10.226-13.383-30.265-21.524-46.458-17.572-20.001 4.881-21.191 25.051-45.676 59.878-9.371 13.33-38.678 55.014-86.673 83.435-24.708 14.631-42.056 18.456-46.504 35.058-3.939 14.702 3.896 33.238 15.887 42.848z" fill="#199a8e"/><path d="m427.268 248.837c1.39 16.319-8.039 31.59-23.256 37.646-.224.089-.447.178-.671.266-22.653 8.943-47.83-6.084-50.304-30.313-.42-4.113-.677-8.178-.764-12.147-1.13-51.79 27.399-106.267 51.207-106.464 7.271-.06 16.195 4.926 21.123 11.735 7.166 9.902 5.053 22.516 4.152 28.706-3.558 24.433-3.218 50.255-1.487 70.571zm-192.994 92.706c-2.329-.66-4.702-1.278-7.111-1.853-29.266-6.99-56.773 16.702-54.41 46.698.029.368.058.735.088 1.102 1.559 19.344 15.517 35.373 34.436 39.696 23.088 5.276 50.791 13.678 75.892 25.571 6.797 3.22 20.55 10.1 34.461 5.359 9.566-3.261 18.446-11.758 20.944-20.138 8.177-27.434-44.372-79.454-104.3-96.435zm-2.213-304.493c-20.001 4.881-21.191 25.051-45.676 59.878-5.966 8.486-20.011 28.462-41.813 49.193-18.253 17.356-21.137 45.532-6.514 66.039.187.262.374.524.562.785 16.816 23.396 50.018 27.84 72.498 9.818 7.197-5.77 13.998-11.939 20.22-18.416 41.324-43.016 72.902-116.067 47.182-149.725-10.227-13.382-30.265-21.524-46.459-17.572z" fill="#20b7a1"/><path d="m322.57 385.857c-19.903-20.773-50.841-41.494-86.241-51.527-1.311-6.483 2.537-13.029 8.996-14.944 3.971-1.178 6.236-5.352 5.058-9.323s-5.352-6.236-9.323-5.058c-11.765 3.489-19.52 14.089-19.968 25.722-16.348-3.166-34.564-4.616-52.153-3.725-2.462-5.336-1.025-11.869 3.811-15.624 3.272-2.54 3.864-7.252 1.324-10.524s-7.252-3.864-10.524-1.324c-9.014 6.999-12.562 18.467-9.95 28.886-20.055 2.742-38.214 8.994-50.381 19.777-12.501-6.47-28.177-2.592-36.112 9.41-2.284 3.455-1.335 8.108 2.12 10.393 3.455 2.284 8.108 1.335 10.393-2.12 3.046-4.607 8.557-6.628 13.651-5.474-.548.981-1.06 1.986-1.534 3.016-2.308 5.021-3.647 10.562-4.072 16.202-.264.288-.509.6-.731.936-3.931 5.945-11.965 7.584-17.911 3.653-3.455-2.284-8.108-1.335-10.393 2.12-2.284 3.455-1.335 8.108 2.12 10.393 8.895 5.881 19.954 5.991 28.734 1.238 1.8 6.379 4.812 12.248 8.944 16.895 10.259 11.537 23.152 11.724 40.997 11.981 8.257.119 17.615.254 29.236 1.325 3.233.298 6.997.761 11.193 1.392-1.015 12.38 6.391 24.392 18.655 28.661 3.912 1.362 8.187-.706 9.549-4.618s-.706-8.187-4.617-9.549c-5.213-1.815-8.53-6.652-8.673-11.868 21.836 4.35 49.86 11.973 75.888 23.16-3.919 14.064 3.749 28.986 17.726 33.851 3.912 1.362 8.187-.706 9.549-4.617 1.362-3.912-.706-8.187-4.617-9.549-5.686-1.979-9.117-7.555-8.632-13.296 7.197 3.179 18.091 6.995 29.847 4.908 1.823-.323 3.668-.789 5.521-1.421 11.949-4.073 22.521-14.392 25.711-25.094 2.677-8.981.766-19.482-5.681-31.212-1.978-3.6-4.429-7.339-7.307-11.147 4.855-1.34 10.267.239 13.586 4.428 2.572 3.247 7.289 3.793 10.536 1.221s3.793-7.289 1.221-10.536c-8.628-10.891-23.798-13.615-35.546-7.018zm8.816 49.979c-1.798 6.034-8.903 12.702-16.176 15.181-10.614 3.624-22.058-1.819-28.205-4.741l-.624-.297c-42.364-20.072-92.786-30.586-116.342-32.756-12.199-1.124-22.288-1.269-30.395-1.386-17.932-.259-24.419-.668-30.005-6.95-7.434-8.361-9.351-24.154-4.272-35.204 6.147-13.372 23.376-21.828 44.978-25.662 24.918-4.423 55.654-2.693 81.883 4.739 44.375 12.574 81.914 44.097 94.706 67.373 4.317 7.854 5.898 14.851 4.452 19.703zm147.428-134.394c-8.629-10.891-23.803-13.614-35.552-7.014-1.596-5.565-3.297-11.834-4.875-19.38-2.42-11.576-4.808-32.073-4.879-54.891.405-.477.756-1.014 1.039-1.604 3.088-6.424 10.826-9.138 17.249-6.05 3.733 1.794 8.214.223 10.009-3.51 1.794-3.733.223-8.214-3.51-10.009-7.924-3.809-16.774-3.531-24.151-.009.428-6.565 1.089-13.156 2.031-19.629l.081-.551c1.027-6.995 3.164-21.55-5.579-33.631-6.339-8.759-17.445-14.838-27.073-14.838-.063 0-.125 0-.188.001-8.144.067-16.328 4.279-24.324 12.52-9.642 9.936-17.923 24.513-23.938 41.044-3.774-4.007-4.699-10.162-1.861-15.206 2.031-3.61.75-8.183-2.86-10.214s-8.183-.75-10.214 2.86c-7.463 13.267-2.88 30.09 10.191 37.767-3.896 14.834-5.961 30.502-5.637 45.357.163 7.468.908 15.227 2.167 22.987-5.792.57-11.455-2.856-13.464-8.587-1.371-3.909-5.651-5.966-9.56-4.595s-5.966 5.651-4.595 9.559c4.52 12.888 17.592 20.382 30.629 18.356 2.7 10.943 6.367 21.514 10.803 30.865 11.322 23.865 26.785 38.242 43.539 40.482 1.639.219 3.299.325 4.968.325 3.553 0 7.143-.482 10.636-1.384 3.237 5.361 2.175 12.447-2.773 16.588-3.177 2.658-3.597 7.388-.938 10.565s7.388 3.597 10.565.938c10.195-8.532 12.756-22.852 6.905-34.205 4.577-3.041 8.46-6.885 11.143-11.3 5.074-8.35 4.817-16.206 2.66-25.496.502-.239.986-.538 1.441-.898 5.587-4.426 13.732-3.482 18.158 2.104 2.572 3.247 7.289 3.793 10.536 1.221 3.247-2.574 3.793-7.291 1.221-10.538zm-46.834 25.816c-4.596 7.563-16.122 12.672-25.7 11.395-11.547-1.543-22.903-12.924-31.974-32.044-8.646-18.225-14.081-41.583-14.537-62.483-.829-38.005 14.883-75.166 30.087-90.834 4.954-5.105 9.813-7.935 13.684-7.967h.073c4.785 0 11.457 3.857 14.912 8.632 5.168 7.142 3.742 16.855 2.89 22.659l-.083.569c-5.64 38.744-1.671 81.588 2.373 100.933 2.095 10.021 4.45 18.104 6.342 24.599 4.057 13.922 5.289 19.019 1.933 24.541zm-367.574-63.136c9.629 7.717 22.587 11.589 38.04 11.589 8.682 0 18.153-1.224 28.26-3.675-1.686 4.629-5.958 8.092-11.182 8.485-4.13.311-7.227 3.911-6.916 8.042.311 4.13 3.911 7.227 8.042 6.916 14.736-1.109 25.969-13.523 25.83-28.094.348-.12.696-.241 1.045-.363 23.495-8.245 46.947-21.428 67.235-37.538 7.107.023 12.882 5.813 12.882 12.926 0 4.142 3.358 7.5 7.5 7.5s7.5-3.358 7.5-7.5c0-10.516-5.843-19.692-14.452-24.455 2.954-2.745 5.811-5.551 8.559-8.411 17.798-18.528 33.754-42.444 44.413-66.19.087.003.175.005.263.005 7.127 0 12.925 5.798 12.925 12.926 0 4.142 3.358 7.5 7.5 7.5s7.5-3.358 7.5-7.5c0-13.495-9.622-24.784-22.365-27.369.052-.147.105-.294.157-.441 7.765-21.964 9.949-41.635 6.602-57.505 5.357-3.82 12.865-3.008 17.261 2.062 2.714 3.129 7.451 3.466 10.58.753 3.129-2.714 3.466-7.451.753-10.58-8.55-9.86-22.548-12.266-33.7-6.628-1.219-2.303-2.604-4.475-4.158-6.509-5.858-7.667-14.204-13.661-23.347-17.351 4.884-9.161 4.456-20.707-2.063-29.639-2.442-3.346-7.134-4.078-10.48-1.636s-4.078 7.134-1.636 10.48c3.841 5.263 3.113 12.485-1.439 16.896-5.212-.518-10.382-.238-15.231.945-16.007 3.906-22.339 15.537-31.102 31.635-3.448 6.335-7.528 13.828-12.961 22.317-4.765-8.599-13.936-14.432-24.443-14.432-4.142 0-7.5 3.358-7.5 7.5s3.358 7.5 7.5 7.5c7.127 0 12.925 5.798 12.925 12.926 0 .896.157 1.756.446 2.552-9.614 13.169-27.32 35.512-52.87 55.883-3.797-10.918-14.191-18.775-26.385-18.775-4.142 0-7.5 3.358-7.5 7.5s3.358 7.5 7.5 7.5c7.127 0 12.925 5.798 12.925 12.926 0 .274.015.544.044.811-4.154 2.863-8.478 5.643-12.97 8.303-6.354 3.763-12.325 6.851-17.593 9.575-15.759 8.15-28.207 14.588-32.334 29.996-2.467 9.207-1.211 19.893 2.891 29.655-4.246 4.317-11.104 5.177-16.341 1.715-3.455-2.284-8.108-1.335-10.393 2.12-2.284 3.455-1.335 8.108 2.12 10.393 10.173 6.726 23.177 5.904 32.365-1.11 2.314 2.91 4.926 5.567 7.798 7.869zm-3.953-46.759c2.311-8.626 9.66-12.757 24.736-20.554 5.447-2.817 11.621-6.01 18.345-9.992 49.381-29.242 79.191-71.642 88.987-85.575 9.081-12.917 15.044-23.87 19.835-32.671 8.481-15.579 12.289-21.99 21.484-24.234 2.204-.538 4.523-.795 6.902-.795 11.59 0 24.541 6.11 31.818 15.635 22.273 29.146-6.249 97.94-46.629 139.977-22.193 23.103-53.36 43.183-83.373 53.715-30.146 10.58-55.214 10.415-68.772-.451-10.316-8.268-16.297-23.993-13.333-35.055z" fill="#24d3b5"/><path d="m266.634 101.976c-5.333 16.514-20.398 26.432-33.649 22.152-13.251-4.279-19.669-21.135-14.336-37.649s20.398-26.432 33.649-22.152c13.251 4.279 19.669 21.135 14.336 37.649zm-145.201 280.026c1.056 13.884 15.94 24.073 33.244 22.756s30.475-13.639 29.418-27.524c-1.056-13.884-15.94-24.073-33.244-22.756s-30.475 13.64-29.418 27.524zm291.324-62.754c7.539-4.386 9.22-15.559 3.754-24.955s-16.009-13.458-23.549-9.071c-7.539 4.386-9.22 15.559-3.754 24.955 5.467 9.396 16.01 13.457 23.549 9.071z" fill="#adebdc"/><path d="m247.233 105.575c-2.079 6.438-7.953 10.305-13.119 8.637s-7.669-8.24-5.589-14.679 7.953-10.305 13.119-8.637 7.668 8.24 5.589 14.679zm-97.175 276.228c.412 5.413 6.215 9.385 12.961 8.872s11.881-5.318 11.47-10.731c-.412-5.413-6.215-9.385-12.961-8.872-6.747.514-11.882 5.318-11.47 10.731zm254.772-78.639c2.939-1.71 3.595-6.066 1.464-9.729s-6.242-5.247-9.181-3.537-3.595 6.066-1.464 9.729 6.242 5.247 9.181 3.537z" fill="#126e66"/><path d="m201.935 150.014c-2.079 6.438-7.953 10.305-13.119 8.637s-7.669-8.24-5.589-14.679c2.079-6.438 7.953-10.305 13.119-8.637s7.668 8.24 5.589 14.679zm-31.916 53.666c.412 5.413 6.215 9.385 12.961 8.872s11.881-5.318 11.47-10.731c-.412-5.413-6.215-9.385-12.961-8.872s-11.882 5.318-11.47 10.731zm50.683 176.868c.412 5.413 6.215 9.385 12.961 8.872s11.881-5.318 11.47-10.731-6.215-9.385-12.961-8.872-11.882 5.318-11.47 10.731zm56.103 19.904c-4.328 1.53-6.291 7.143-4.384 12.537s6.962 8.526 11.29 6.996 6.291-7.143 4.384-12.537-6.962-8.526-11.29-6.996zm105.192-154.219c-4.328 1.53-6.291 7.143-4.384 12.537s6.962 8.526 11.29 6.996 6.291-7.143 4.384-12.537c-1.908-5.394-6.962-8.526-11.29-6.996zm22.588-59.616c-3.043-3.437-8.982-3.15-13.266.642s-5.29 9.653-2.248 13.09c3.043 3.437 8.982 3.15 13.266-.642 4.284-3.791 5.291-9.652 2.248-13.09z" fill="#199a8e"/></g></svg>