<svg id="Capa_1" enable-background="new 0 0 512 512" height="512" viewBox="0 0 512 512" width="512" xmlns="http://www.w3.org/2000/svg"><g><path d="m512 256c0 141.385-114.615 256-256 256s-256-114.615-256-256 114.615-256 256-256 256 114.615 256 256z" fill="#faa68e"/><path d="m512 256c0 52.799-15.984 101.865-43.378 142.622-40.757 27.394-89.823 43.378-142.622 43.378-141.385 0-256-114.615-256-256 0-52.799 15.984-101.865 43.378-142.622 40.757-27.394 89.823-43.378 142.622-43.378 141.385 0 256 114.615 256 256z" fill="#ffbeaa"/><path d="m366.316 85.753c38.1 18.222 70.991 45.589 95.829 79.26 15.54 21.066 15.45 49.891-.104 70.946-46.623 63.112-121.553 104.041-206.041 104.041s-159.417-40.929-206.041-104.041c-15.555-21.055-15.644-49.88-.104-70.946 24.838-33.671 57.729-61.038 95.829-79.26 33.928-16.226 73.471-14.78 106.674 2.882 1.208.643 2.422 1.276 3.642 1.9 1.22-.624 2.434-1.257 3.642-1.9 33.203-17.663 72.746-19.109 106.674-2.882z" fill="#f87b67"/><path d="m61.232 197.306c-13.98-3.713-20.08-20.376-11.55-32.058.057-.079.115-.157.173-.236 24.701-33.485 57.366-60.736 95.2-78.957 34.082-16.415 73.835-15.24 107.225 2.538 1.234.657 2.474 1.304 3.72 1.942 1.286-.658 2.565-1.326 3.838-2.004 33.265-17.733 72.88-18.915 106.86-2.594 37.938 18.222 70.692 45.518 95.447 79.076.058.079.116.157.173.236 8.53 11.682 2.43 28.345-11.55 32.058-59.063 15.687-125.091 24.46-194.768 24.46s-135.705-8.775-194.768-24.461z" fill="#fa9084"/><path d="m421 206c0 27.614-22.386 50-50 50h-230c-27.614 0-50-22.386-50-50 0-27.614 22.386-50 50-50h50c5.801 3.305 12.362 5.043 19.038 5.043h21.925c6.676 0 13.237-1.738 19.038-5.043h10l1.831.826c5.974 2.695 12.452 4.089 19.006 4.089h18.425c7.202 0 14.304-1.683 20.739-4.915h50c27.612 0 49.998 22.386 49.998 50z" fill="#fb5858"/><path d="m181.624 256h-40.624c-27.614 0-50-22.386-50-50 0-27.614 22.386-50 50-50h40.624c-27.614 0-50 22.386-50 50 0 27.614 22.386 50 50 50z" fill="#f44545"/><path d="m397.511 248.401c-7.686 4.815-16.773 7.599-26.511 7.599h-230c-9.738 0-18.825-2.784-26.511-7.599 40.537-26.939 89.191-42.635 141.511-42.635s100.974 15.696 141.511 42.635z" fill="#c42d2d"/><path d="m191 156h60v9c0 8.284-6.716 15-15 15h-30c-8.284 0-15-6.716-15-15zm70 0v9c0 8.284 6.716 15 15 15h30c8.284 0 15-6.716 15-15v-9z" fill="#c8e2fd"/><path d="m306 180h-16.042c-8.284 0-15-6.716-15-15v-9h46.042v9c0 8.284-6.716 15-15 15zm-55-15v-9h-46.042v9c0 8.284 6.716 15 15 15h16.042c8.284 0 15-6.716 15-15z" fill="#e9f3fe"/><path d="m400.959 256.121c-.572 7.865-7.407 13.9-15.292 13.879-18.585-.049-33.667 15.003-33.667 33.576v16.424c0 11.046-8.954 20-20 20h-2.904v65c0 8.525-7.111 15.388-15.725 14.983-8.068-.38-14.275-7.33-14.275-15.407v-50.076c0-8.008-6.492-14.5-14.5-14.5h-.096c-8.008 0-14.5 6.492-14.5 14.5v80.5c0 8.525-7.111 15.389-15.725 14.983-8.068-.38-14.275-7.33-14.275-15.406v-80.077c0-8.241-6.874-14.876-15.201-14.483-7.799.367-13.799 7.085-13.799 14.892v40.091c0 8.525-7.111 15.388-15.725 14.983-8.068-.38-14.275-7.33-14.275-15.407v-54.576h-1c-11.046 0-20-8.954-20-20v-16.424c0-18.543-15.033-33.576-33.576-33.576h-.424c-8.525 0-15.389-7.111-14.983-15.725.38-8.068 7.33-14.275 15.407-14.275h43.612c5.535 0 10.735-2.288 14.806-6.037 2.672-2.461 6.24-3.963 10.158-3.963s7.486 1.503 10.158 3.963c4.071 3.749 9.271 6.037 14.806 6.037h.072c5.535 0 10.735-2.288 14.806-6.037 2.672-2.461 6.24-3.963 10.158-3.963s7.486 1.503 10.158 3.963c4.071 3.749 9.271 6.037 14.806 6.037h20.072c5.535 0 10.735-2.288 14.806-6.037 2.672-2.461 6.24-3.963 10.158-3.963s7.486 1.503 10.158 3.963c4.071 3.749 9.271 6.037 14.806 6.037h46.036c8.655 0 15.598 7.33 14.959 16.121z" fill="#fff68e"/><path d="m299.096 404.576v-50.076c0-8.008-6.492-14.5-14.5-14.5h-.096c-8.008 0-14.5 6.492-14.5 14.5v80.5c0 8.525-7.111 15.389-15.725 14.983-8.068-.38-14.275-7.33-14.275-15.406v-80.077c0-8.241-6.874-14.876-15.201-14.483-1.428.067-2.796.348-4.078.809 2.895-39.094 14.569-75.745 33.059-107.988.482.348.942.724 1.378 1.126 4.071 3.749 9.271 6.037 14.806 6.037h20.072c5.535 0 10.735-2.288 14.806-6.037 2.672-2.461 6.24-3.963 10.158-3.963s7.486 1.503 10.158 3.963c4.071 3.749 9.271 6.037 14.806 6.037h46.036c8.655 0 15.598 7.33 14.959 16.121-.572 7.865-7.407 13.9-15.292 13.879-18.585-.05-33.667 15.002-33.667 33.575v16.424c0 11.046-8.954 20-20 20h-2.904v65c0 8.525-7.111 15.388-15.725 14.983-8.068-.38-14.275-7.33-14.275-15.407z" fill="#fffac1"/><path d="m270.021 485v12c0 8.284-6.716 15-15 15s-15-6.716-15-15v-12c0-8.284 6.716-15 15-15s15 6.716 15 15zm-29.553-140c0-8.284-6.716-15-15-15s-15 6.716-15 15v30c0 8.284 6.716 15 15 15s15-6.716 15-15zm44.298-45c-8.284 0-15 6.716-15 15v60c0 8.284 6.716 15 15 15s15-6.716 15-15v-60c0-8.284-6.716-15-15-15zm.255-50c-8.284 0-15 6.716-15 15v10c0 8.284 6.716 15 15 15s15-6.716 15-15v-10c0-8.284-6.716-15-15-15zm70 10c-8.284 0-15 6.716-15 15v10c0 8.284 6.716 15 15 15s15-6.716 15-15v-10c0-8.284-6.716-15-15-15zm0 110c-8.284 0-15 6.716-15 15v10c0 8.284 6.716 15 15 15s15-6.716 15-15v-10c0-8.284-6.716-15-15-15zm-200-90c-8.284 0-15 6.716-15 15v20c0 8.284 6.716 15 15 15s15-6.716 15-15v-20c0-8.284-6.716-15-15-15zm0 70c-8.284 0-15 6.716-15 15s6.716 15 15 15 15-6.716 15-15-6.716-15-15-15zm70-50c8.284 0 15-6.716 15-15v-10c0-8.284-6.716-15-15-15s-15 6.716-15 15v10c0 8.284 6.716 15 15 15z" fill="#ffd993"/></g></svg>