<svg id="Capa_1" enable-background="new 0 0 512 512" height="512" viewBox="0 0 512 512" width="512" xmlns="http://www.w3.org/2000/svg"><g><path d="m41.162 395.269c-26.529-40.84-41.729-89.717-41.145-142.18 1.584-142.546 118.19-255.633 260.721-253.045 139.199 2.526 251.262 116.154 251.262 255.956 0 51.374-15.133 99.213-41.184 139.304-5.955 9.163-16.14 14.696-27.068 14.696h-375.496c-10.943 0-21.129-5.554-27.09-14.731z" fill="#3342ae"/><path d="m472 256c0 119.293-96.706 216-216 216s-216-96.706-216-216 96.706-216 216-216 216 96.707 216 216z" fill="#3d4ec6"/><path d="m353.487 440c27.065 0 35.086 36.715 10.556 48.151-32.826 15.303-69.436 23.849-108.043 23.849-37.57 0-73.249-8.093-105.39-22.631-25.285-11.437-16.929-49.369 10.822-49.369z" fill="#a7d0fc"/><path d="m82.447 440h347.106v4.191c-20.4 18.823-43.868 34.371-69.569 45.809h-207.968c-25.701-11.438-49.169-26.986-69.569-45.809z" fill="#86befb"/><path d="m472 190v203.464c-13.498 21.165-30.021 40.214-48.961 56.536h-334.078c-18.94-16.322-35.463-35.371-48.961-56.536v-203.464z" fill="#717ed6"/><path d="m472 393.464c-13.498 21.165-30.021 40.214-48.961 56.536h-120.848c-18.939-16.322-35.463-35.371-48.961-56.536v-203.464h218.77z" fill="#8c96dd"/><path d="m70 190v241.898c-11.167-11.805-21.223-24.672-30-38.434v-203.464z" fill="#5766ce"/><path d="m76.34 200h-41.34c-2.761 0-5-2.239-5-5v-10c0-2.761 2.239-5 5-5h41.34c2.761 0 5 2.239 5 5v10c0 2.762-2.238 5-5 5z" fill="#86befb"/><path d="m477 200h-408.957c-2.761 0-5-2.239-5-5v-10c0-2.761 2.239-5 5-5h408.957c2.761 0 5 2.239 5 5v10c0 2.762-2.239 5-5 5z" fill="#a7d0fc"/><path d="m352 85.383v364.617h-175.181v-364.617z" fill="#a6aee5"/><path d="m196 85.383v364.617h-36v-364.617z" fill="#8c96dd"/><path d="m312 450h-112v-110h112z" fill="#ffd993"/><path d="m223.383 450h-23.383v-110h23.383z" fill="#ffcd71"/><path d="m216 145h-20c-2.761 0-5-2.239-5-5v-10c0-2.761 2.239-5 5-5h20c2.761 0 5 2.239 5 5v10c0 2.762-2.239 5-5 5zm5 67.5v-10c0-2.761-2.239-5-5-5h-20c-2.761 0-5 2.239-5 5v10c0 2.761 2.239 5 5 5h20c2.761 0 5-2.238 5-5zm100 0v-10c0-2.761-2.239-5-5-5h-20c-2.761 0-5 2.239-5 5v10c0 2.761 2.239 5 5 5h20c2.761 0 5-2.238 5-5zm0-72.5v-10c0-2.761-2.239-5-5-5h-20c-2.761 0-5 2.239-5 5v10c0 2.761 2.239 5 5 5h20c2.761 0 5-2.238 5-5zm-80 62.5v10c0 2.761 2.239 5 5 5h20c2.761 0 5-2.239 5-5v-10c0-2.761-2.239-5-5-5h-20c-2.761 0-5 2.239-5 5zm0 72.5v10c0 2.761 2.239 5 5 5h20c2.761 0 5-2.239 5-5v-10c0-2.761-2.239-5-5-5h-20c-2.761 0-5 2.239-5 5zm-110 88.75v-10c0-2.761-2.239-5-5-5h-60c-2.761 0-5 2.239-5 5v10c0 2.761 2.239 5 5 5h60c2.761 0 5-2.238 5-5zm0-108.75v-10c0-2.761-2.239-5-5-5h-60c-2.761 0-5 2.239-5 5v10c0 2.761 2.239 5 5 5h60c2.761 0 5-2.238 5-5zm320 36.25v-10c0-2.761-2.239-5-5-5h-60c-2.761 0-5 2.239-5 5v10c0 2.761 2.239 5 5 5h60c2.761 0 5-2.238 5-5z" fill="#e9f3fe"/><path d="m221 275v10c0 2.761-2.239 5-5 5h-20c-2.761 0-5-2.239-5-5v-10c0-2.761 2.239-5 5-5h20c2.761 0 5 2.239 5 5zm-5-41.25h-20c-2.761 0-5 2.239-5 5v10c0 2.761 2.239 5 5 5h20c2.761 0 5-2.239 5-5v-10c0-2.761-2.239-5-5-5zm0-72.5h-20c-2.761 0-5 2.239-5 5v10c0 2.761 2.239 5 5 5h20c2.761 0 5-2.239 5-5v-10c0-2.761-2.239-5-5-5zm100 108.75h-20c-2.761 0-5 2.239-5 5v10c0 2.761 2.239 5 5 5h20c2.761 0 5-2.239 5-5v-10c0-2.761-2.239-5-5-5zm0-36.25h-20c-2.761 0-5 2.239-5 5v10c0 2.761 2.239 5 5 5h20c2.761 0 5-2.239 5-5v-10c0-2.761-2.239-5-5-5zm0-72.5h-20c-2.761 0-5 2.239-5 5v10c0 2.761 2.239 5 5 5h20c2.761 0 5-2.239 5-5v-10c0-2.761-2.239-5-5-5zm-50-36.25h-20c-2.761 0-5 2.239-5 5v10c0 2.761 2.239 5 5 5h20c2.761 0 5-2.239 5-5v-10c0-2.761-2.239-5-5-5zm0 36.25h-20c-2.761 0-5 2.239-5 5v10c0 2.761 2.239 5 5 5h20c2.761 0 5-2.239 5-5v-10c0-2.761-2.239-5-5-5zm0 72.5h-20c-2.761 0-5 2.239-5 5v10c0 2.761 2.239 5 5 5h20c2.761 0 5-2.239 5-5v-10c0-2.761-2.239-5-5-5zm-135 83.75v10c0 2.761-2.239 5-5 5h-60c-2.761 0-5-2.239-5-5v-10c0-2.761 2.239-5 5-5h60c2.761 0 5 2.239 5 5zm-5-41.25h-60c-2.761 0-5 2.239-5 5v10c0 2.761 2.239 5 5 5h60c2.761 0 5-2.239 5-5v-10c0-2.761-2.239-5-5-5zm320 72.5h-60c-2.761 0-5 2.239-5 5v10c0 2.761 2.239 5 5 5h60c2.761 0 5-2.239 5-5v-10c0-2.761-2.239-5-5-5zm0-36.25h-60c-2.761 0-5 2.239-5 5v10c0 2.761 2.239 5 5 5h60c2.761 0 5-2.239 5-5v-10c0-2.761-2.239-5-5-5zm0-72.5h-60c-2.761 0-5 2.239-5 5v10c0 2.761 2.239 5 5 5h60c2.761 0 5-2.239 5-5v-10c0-2.761-2.239-5-5-5z" fill="#ffd993"/><path d="m263.5 450h-15v-110h15zm60-110h-15v110h15z" fill="#8c96dd"/><path d="m382 445v10c0 2.761-2.239 5-5 5h-242c-2.761 0-5-2.239-5-5v-10c0-2.761 2.239-5 5-5h53.5v-100h15v100h173.5c2.761 0 5 2.239 5 5z" fill="#717ed6"/><path d="m158.234 460h-23.234c-2.761 0-5-2.239-5-5v-10c0-2.761 2.239-5 5-5h23.234c-2.761 0-5 2.239-5 5v10c0 2.761 2.239 5 5 5z" fill="#5766ce"/><path d="m209.872 350h-54.872c-2.761 0-5-2.239-5-5v-20c0-2.761 2.239-5 5-5h54.872c2.761 0 5 2.239 5 5v20c0 2.762-2.238 5-5 5z" fill="#a7d0fc"/><path d="m357 350h-173.383c-2.761 0-5-2.239-5-5v-20c0-2.761 2.239-5 5-5h173.383c2.761 0 5 2.239 5 5v20c0 2.762-2.239 5-5 5z" fill="#c8e2fd"/><path d="m198.638 90h-43.638c-2.761 0-5-2.239-5-5v-10c0-2.761 2.239-5 5-5h43.638c2.761 0 5 2.239 5 5v10c0 2.762-2.238 5-5 5z" fill="#86befb"/><path d="m357 90h-163.681c-2.761 0-5-2.239-5-5v-10c0-2.761 2.239-5 5-5h163.681c2.761 0 5 2.239 5 5v10c0 2.762-2.239 5-5 5z" fill="#a7d0fc"/><path d="m255.319 100h-44.319c-2.761 0-5-2.239-5-5v-90c0-2.761 2.239-5 5-5h44.319c2.761 0 5 2.239 5 5v90c0 2.762-2.238 5-5 5z" fill="#c8e2fd"/><path d="m301 100h-66c-2.761 0-5-2.239-5-5v-90c0-2.761 2.239-5 5-5h66c2.761 0 5 2.239 5 5v90c0 2.762-2.239 5-5 5z" fill="#e9f3fe"/><path d="m286 45v10c0 2.761-2.239 5-5 5h-15v15c0 2.761-2.239 5-5 5h-10c-2.761 0-5-2.239-5-5v-15h-15c-2.761 0-5-2.239-5-5v-10c0-2.761 2.239-5 5-5h15v-15c0-2.761 2.239-5 5-5h10c2.761 0 5 2.239 5 5v15h15c2.761.001 5 2.239 5 5z" fill="#f44545"/></g></svg>