<svg id="Capa_1" enable-background="new 0 0 512 512" height="512" viewBox="0 0 512 512" width="512" xmlns="http://www.w3.org/2000/svg"><g><path d="m512 256c0 141.385-114.615 256-256 256s-256-114.615-256-256 114.615-256 256-256 256 114.615 256 256z" fill="#76b6fa"/><path d="m452 256c0 108.248-87.752 196-196 196s-196-87.752-196-196 87.752-196 196-196 196 87.752 196 196z" fill="#86befb"/><path d="m205.273 425.354c6.649-20.141 25.595-33.642 46.804-33.35l82.287 1.133c4.614.064 7.248 5.293 4.552 9.038l-48.078 66.79c-12.391 17.214-34.518 24.4-54.659 17.752-25.48-8.41-39.317-35.883-30.906-61.363zm-78.04 45.94c-14.469 3.429-29.49-2.924-37.107-15.695l-29.554-49.549c-1.657-2.778.498-6.272 3.725-6.038l57.543 4.17c14.831 1.075 27.25 11.647 30.68 26.116 4.337 18.303-6.984 36.658-25.287 40.996z" fill="#199a8e"/><path d="m152.519 430.297c1.842 7.771.861 15.55-2.278 22.263-16.621-4.477-31.733-13.279-48.305-24.07-11.631-7.574-26.906-16.565-41.285-26.663.745-1.15 2.067-1.929 3.646-1.815l57.542 4.17c14.831 1.074 27.251 11.646 30.68 26.115zm181.844-37.159-82.287-1.133c-21.208-.292-40.155 13.208-46.803 33.35-3.113 9.431-3.177 19.136-.732 28.045 45.379-6.904 93.789-28.504 132.82-59.374-.846-.543-1.861-.873-2.998-.888z" fill="#20b7a1"/><path d="m265.722 438.464-82.222 41.411v21.714c-5.067-1.494-10.069-3.14-15-4.933v-19.393l-78.968-48.707c-3.525-2.174-4.621-6.795-2.446-10.321 2.174-3.526 6.795-4.621 10.321-2.446l71.094 43.85v-124.852h15v128.293l75.475-38.012c3.699-1.863 8.209-.375 10.072 3.325 1.862 3.699.373 8.208-3.326 10.071z" fill="#168c80"/><path d="m143.114 383.165c-14.357-14.357-17.741-36.369-8.359-54.376l36.401-69.865c2.041-3.917 7.647-3.917 9.688 0l36.401 69.865c9.382 18.007 5.998 40.018-8.359 54.376-18.162 18.163-47.609 18.163-65.772 0z" fill="#fb5858"/><path d="m208.886 58.409c14.357 14.357 17.741 36.369 8.359 54.376l-36.401 69.864c-2.041 3.917-7.647 3.917-9.688 0l-36.401-69.864c-9.382-18.007-5.998-40.018 8.359-54.376 18.163-18.162 47.61-18.162 65.772 0z" fill="#fb5858"/><path d="m137.862 225.631-69.865 36.401c-18.007 9.382-40.018 5.998-54.375-8.359-18.162-18.162-18.162-47.609 0-65.772 14.357-14.357 36.369-17.741 54.375-8.359l69.865 36.401c3.917 2.042 3.917 7.647 0 9.688zm23.264-40.294-3.408-78.705c-.878-20.285-14.815-37.656-34.427-42.911-24.81-6.648-50.312 8.076-56.96 32.886-5.255 19.612 2.82 40.367 19.949 51.27l66.457 42.304c3.725 2.372 8.58-.431 8.389-4.844z" fill="#f44545"/><path d="m338.378 253.673c-14.357 14.357-36.369 17.741-54.376 8.359l-69.865-36.401c-3.917-2.041-3.917-7.647 0-9.688l69.865-36.401c18.007-9.382 40.018-5.998 54.376 8.359 18.163 18.163 18.163 47.61 0 65.772z" fill="#f87b67"/><path d="m285.669 344.968c-6.648 24.81-32.15 39.534-56.96 32.886-19.612-5.255-33.549-22.626-34.427-42.911l-3.408-78.705c-.191-4.413 4.663-7.216 8.39-4.844l66.457 42.304c17.128 10.903 25.203 31.658 19.948 51.27zm-132.933-93.574-66.457 42.304c-17.128 10.903-25.204 31.658-19.949 51.27 6.648 24.81 32.15 39.534 56.96 32.886 19.612-5.255 33.549-22.626 34.427-42.911l3.408-78.705c.192-4.413-4.663-7.216-8.389-4.844z" fill="#f44545"/><path d="m145.393 244.051-42.304 66.457c-10.903 17.128-31.658 25.204-51.27 19.949-24.81-6.648-39.534-32.15-32.886-56.96 5.255-19.612 22.626-33.549 42.911-34.427l78.705-3.408c4.414-.192 7.216 4.663 4.844 8.389zm-126.46-75.973c5.255 19.612 22.626 33.549 42.911 34.427l78.705 3.408c4.413.191 7.216-4.663 4.844-8.39l-42.304-66.457c-10.903-17.128-31.658-25.204-51.27-19.949-24.81 6.649-39.533 32.151-32.886 56.961z" fill="#fb5858"/><path d="m333.067 168.078c-5.255 19.612-22.626 33.549-42.911 34.427l-78.705 3.408c-4.413.191-7.216-4.663-4.844-8.39l42.304-66.457c10.903-17.128 31.658-25.204 51.27-19.949 24.81 6.649 39.533 32.151 32.886 56.961z" fill="#fa9084"/><path d="m300.181 330.456c-19.612 5.255-40.367-2.82-51.27-19.949l-42.304-66.457c-2.372-3.726.431-8.581 4.844-8.39l78.705 3.408c20.285.878 37.656 14.815 42.911 34.427 6.647 24.812-8.076 50.313-32.886 56.961z" fill="#fb5858"/><path d="m285.669 96.606c5.255 19.612-2.82 40.367-19.949 51.27l-66.457 42.304c-3.726 2.372-8.581-.431-8.39-4.844l3.408-78.705c.878-20.285 14.815-37.656 34.427-42.911 24.811-6.647 50.313 8.076 56.961 32.886z" fill="#f87b67"/><path d="m316 220.787c0 4.142-3.358 7.5-7.5 7.5h-57.655c1.496 3.08 3.973 5.774 7.431 7.575 6.543 3.409 3.886 13.326-3.485 13.007-3.895-.169-7.387.926-10.223 2.845l49.93 28.827c3.587 2.071 4.816 6.658 2.745 10.245s-6.658 4.816-10.245 2.745l-49.93-28.827c-.244 3.415.554 6.987 2.648 10.276 3.962 6.224-3.298 13.484-9.522 9.522-3.289-2.094-6.86-2.891-10.276-2.648l28.827 49.93c2.071 3.587.842 8.174-2.745 10.245s-8.174.842-10.245-2.745l-28.827-49.93c-1.919 2.836-3.014 6.328-2.845 10.223.319 7.371-9.598 10.028-13.007 3.485-1.802-3.458-4.495-5.934-7.575-7.431v57.655c0 4.142-3.358 7.5-7.5 7.5s-7.5-3.358-7.5-7.5v-57.655c-3.08 1.497-5.774 3.973-7.575 7.431-3.409 6.543-13.326 3.886-13.007-3.485.169-3.895-.926-7.387-2.845-10.223l-28.827 49.93c-2.071 3.587-6.658 4.816-10.245 2.745s-4.816-6.658-2.745-10.245l28.827-49.93c-3.416-.244-6.987.554-10.276 2.648-6.224 3.962-13.484-3.298-9.522-9.522 2.094-3.289 2.892-6.86 2.648-10.276l-49.93 28.827c-3.587 2.071-8.174.842-10.245-2.745s-.842-8.174 2.745-10.245l49.93-28.827c-2.836-1.919-6.328-3.014-10.223-2.845-7.371.319-10.028-9.598-3.485-13.007 3.458-1.802 5.934-4.495 7.431-7.575h-57.657c-4.142 0-7.5-3.358-7.5-7.5s3.358-7.5 7.5-7.5h57.655c-1.496-3.08-3.973-5.774-7.431-7.575-6.543-3.409-3.886-13.326 3.485-13.007 3.895.169 7.387-.926 10.223-2.845l-49.93-28.827c-3.587-2.071-4.816-6.658-2.745-10.245s6.658-4.816 10.245-2.745l49.93 28.827c.244-3.415-.554-6.987-2.648-10.276-3.962-6.224 3.298-13.484 9.522-9.522 3.289 2.094 6.86 2.891 10.276 2.648l-28.827-49.93c-2.071-3.587-.842-8.174 2.745-10.245s8.174-.842 10.245 2.745l28.827 49.93c1.919-2.836 3.014-6.328 2.845-10.223-.319-7.371 9.598-10.028 13.007-3.485 1.802 3.458 4.495 5.934 7.575 7.431v-57.656c0-4.142 3.358-7.5 7.5-7.5s7.5 3.358 7.5 7.5v57.655c3.08-1.497 5.774-3.973 7.575-7.431 3.409-6.543 13.326-3.886 13.007 3.485-.169 3.895.926 7.387 2.845 10.223l28.827-49.93c2.071-3.587 6.658-4.816 10.245-2.745s4.816 6.658 2.745 10.245l-28.827 49.93c3.415.244 6.987-.554 10.276-2.648 6.224-3.962 13.484 3.298 9.522 9.522-2.094 3.289-2.892 6.86-2.648 10.276l49.93-28.827c3.587-2.071 8.174-.842 10.245 2.745s.842 8.174-2.745 10.245l-49.93 28.827c2.836 1.919 6.328 3.014 10.223 2.845 7.371-.319 10.028 9.598 3.485 13.007-3.458 1.802-5.934 4.495-7.431 7.575h57.657c4.142.001 7.5 3.359 7.5 7.501z" fill="#d63030"/><path d="m230.491 220.787c0 30.094-24.396 54.491-54.491 54.491s-54.491-24.396-54.491-54.491 24.396-54.491 54.491-54.491 54.491 24.397 54.491 54.491z" fill="#ffb52d"/><path d="m230.491 220.787c0 9.962-2.673 19.299-7.342 27.334-8.035 4.668-17.372 7.342-27.334 7.342-30.094 0-54.491-24.396-54.491-54.491 0-9.962 2.673-19.299 7.342-27.334 8.035-4.668 17.372-7.342 27.334-7.342 30.094.001 54.491 24.397 54.491 54.491z" fill="#ffcd71"/><path d="m334.34 182.83c0 3.96-3.21 7.17-7.17 7.17s-7.17-3.21-7.17-7.17 3.21-7.17 7.17-7.17 7.17 3.21 7.17 7.17zm-78.079-47.323c-5.94 0-10.755 4.815-10.755 10.755s4.815 10.755 10.755 10.755 10.755-4.815 10.755-10.755-4.815-10.755-10.755-10.755zm34.494-117.016c-5.94 0-10.755 4.815-10.755 10.755 0 5.939 4.815 10.754 10.755 10.754s10.755-4.815 10.755-10.755c0-5.939-4.816-10.754-10.755-10.754zm88.49 117.016c-5.94 0-10.755 4.815-10.755 10.755s4.815 10.755 10.755 10.755 10.755-4.815 10.755-10.755-4.815-10.755-10.755-10.755z" fill="#ffc14f"/><path d="m164.528 230.825c0 3.96-3.21 7.17-7.17 7.17s-7.17-3.21-7.17-7.17 3.21-7.17 7.17-7.17 7.17 3.21 7.17 7.17zm35.849-43.019c-3.96 0-7.17 3.21-7.17 7.17s3.21 7.17 7.17 7.17 7.17-3.21 7.17-7.17-3.21-7.17-7.17-7.17zm-7.169 57.359c-3.96 0-7.17 3.21-7.17 7.17s3.21 7.17 7.17 7.17 7.17-3.21 7.17-7.17c-.001-3.96-3.211-7.17-7.17-7.17zm0-25.095c0-5.94-4.815-10.755-10.755-10.755s-10.755 4.815-10.755 10.755 4.815 10.755 10.755 10.755 10.755-4.815 10.755-10.755zm-32.265-39.434c-5.94 0-10.755 4.815-10.755 10.755s4.815 10.755 10.755 10.755 10.755-4.815 10.755-10.755-4.815-10.755-10.755-10.755zm53.774 35.849c-3.96 0-7.17 3.21-7.17 7.17s3.21 7.17 7.17 7.17 7.17-3.21 7.17-7.17-3.21-7.17-7.17-7.17z" fill="#ffb52d"/><path d="m354.561 48.812c6.834 6.834 6.834 17.915 0 24.749-5.606 5.606-14.068 6.613-20.701 3.023l-6.349 6.349c-1.953 1.953-5.118 1.953-7.071 0s-1.953-5.118 0-7.071l6.349-6.349c-3.59-6.633-2.583-15.095 3.023-20.701 6.834-6.834 17.914-6.834 24.749 0zm101.194 118.688c-7.927 0-14.624 5.271-16.775 12.5h-8.98c-2.761 0-5 2.239-5 5s2.239 5 5 5h8.979c2.151 7.229 8.848 12.5 16.775 12.5 9.665 0 17.5-7.835 17.5-17.5s-7.834-17.5-17.499-17.5z" fill="#ffb52d"/><path d="m207.547 102.83c0 3.96-3.21 7.17-7.17 7.17s-7.17-3.21-7.17-7.17 3.21-7.17 7.17-7.17 7.17 3.21 7.17 7.17zm192.453 125.661c-5.94 0-10.755 4.815-10.755 10.755s4.815 10.755 10.755 10.755 10.755-4.815 10.755-10.755-4.815-10.755-10.755-10.755zm-150-49.246c-5.94 0-10.755 4.815-10.755 10.755s4.815 10.755 10.755 10.755 10.755-4.815 10.755-10.755-4.815-10.755-10.755-10.755zm85.507-134.238c-2.614 6.339-1.346 13.903 3.805 19.054s12.715 6.419 19.054 3.805c2.614-6.339 1.346-13.903-3.805-19.054-5.152-5.151-12.715-6.419-19.054-3.805zm126.965 123.829c-6.331 2.634-10.782 8.879-10.782 16.164s4.451 13.53 10.782 16.164c6.331-2.634 10.782-8.879 10.782-16.164.001-7.285-4.451-13.53-10.782-16.164z" fill="#ffcd71"/><path d="m434.874 29.874c-5.606 5.606-14.068 6.613-20.701 3.023l-6.349 6.349c-1.953 1.953-5.118 1.953-7.071 0-1.953-1.953-1.953-5.118 0-7.071l6.349-6.349c-3.59-6.633-2.583-15.095 3.023-20.701 6.834-6.834 17.915-6.834 24.749 0s6.834 17.915 0 24.749zm17.626 50.126c-9.665 0-17.5 7.835-17.5 17.5s7.835 17.5 17.5 17.5 17.5-7.835 17.5-17.5-7.835-17.5-17.5-17.5z" fill="#f29500"/><path d="m434.874 5.126c5.151 5.151 6.419 12.715 3.805 19.054-6.339 2.614-13.903 1.346-19.054-3.805s-6.419-12.715-3.805-19.054c6.34-2.615 13.903-1.347 19.054 3.805zm24.344 76.21c-6.331 2.634-10.782 8.879-10.782 16.164s4.451 13.53 10.782 16.164c6.331-2.634 10.782-8.879 10.782-16.164s-4.451-13.53-10.782-16.164z" fill="#ffb52d"/></g></svg>