<svg id="Capa_1" enable-background="new 0 0 512 512" height="512" viewBox="0 0 512 512" width="512" xmlns="http://www.w3.org/2000/svg"><g><path d="m0 256c0-129.773 96.561-236.992 221.754-253.729 11.202-1.498 22.634 10.942 34.246 10.942 12.844 0 25.47-12.26 37.813-10.421 123.692 18.431 218.846 125.838 218.184 254.555-.482 93.627-51.226 175.364-126.627 219.607-5.255 3.084-11.823 2.842-16.856-.591-41.043-27.995-90.649-44.363-144.078-44.363-40.42 0-78.652 9.368-112.643 26.05-4.97 2.439-10.903 1.7-15.232-1.75-58.847-46.904-96.561-119.198-96.561-200.3z" fill="#20b7a1"/><path d="m262.169 43.825c116.198 0 210.396 94.198 210.396 210.396s-94.198 210.396-210.396 210.396-210.396-94.197-210.396-210.396 94.198-210.396 210.396-210.396z" fill="#24d3b5"/><path d="m166 299.25h33.723s2.158.666-3.093 1.924c-30.763 7.371-53.63 35.053-53.63 68.076v38.592c0 19.032-21.586 30.175-37 19.011-.176-.127-.352-.255-.527-.383-5.992-4.363-9.473-11.382-9.473-18.794v-38.426c0-38.66 31.34-70 70-70z" fill="#3d4ec6"/><path d="m512 340.586v9.362c0 25.572-20.73 46.302-46.302 46.302h-79.422v80.168c-38.164 22.605-82.704 35.582-130.276 35.582-32.904 0-64.358-6.208-93.255-17.516-22.23-8.699-36.745-30.274-36.745-54.146v-71.088c0-38.66 31.34-70 70-70h267.987c26.517 0 38.034 16.421 48.013 41.336z" fill="#5766ce"/><path d="m163.5 494.778c-24.56-9.521-47.286-22.722-67.5-38.926v-49.633h67.5z" fill="#ffcdbe"/><path d="m126 476.582c-10.505-6.204-20.528-13.138-30-20.731v-49.633h30z" fill="#ffbeaa"/><path d="m386 162.5c0 53.848-43.652 97.5-97.5 97.5-11.396 0-22.335-1.955-32.5-5.548-10.165 3.593-21.104 5.548-32.5 5.548-53.848 0-97.5-43.652-97.5-97.5v-65c0-43.499 28.486-80.345 67.821-92.901.971-.31 18.296-4.599 28.627-4.599 2.614 0 4.757.733 6.041 1.638 42.187 29.742 157.511 160.862 157.511 160.862z" fill="#554640"/><path d="m171 174.25v10c0 13.807-11.193 25-25 25s-25-11.193-25-25v-10c0-13.807 11.193-25 25-25s25 11.193 25 25z" fill="#faa68e"/><path d="m136 169.25v20c0 8.178 3.927 15.439 9.998 20-13.806-.001-24.998-11.194-24.998-25v-10c0-13.806 11.192-24.999 24.998-25-6.071 4.561-9.998 11.822-9.998 20zm120-150c-60.752 0-110 49.249-110 110v40c0 50.351 33.83 92.8 80 105.859v34.141c0 16.569 13.431 30 30 30s30-13.431 30-30v-34.141c46.17-13.059 80-55.508 80-105.859v-40c0-60.751-49.249-110-110-110z" fill="#e09380"/><path d="m366 129.25v40c0 50.792-34.425 93.543-81.216 106.195-9.023 2.44-18.545 2.44-27.568 0-46.791-12.652-81.216-55.403-81.216-106.195v-40c0-55.663 41.345-101.669 95-108.985 53.655 7.316 95 53.322 95 108.985z" fill="#faa68e"/><path d="m386 97.5v61.891c-34.637-8.182-62.135-34.837-71.522-68.992-23.602-.964-46.92-10.456-64.94-28.475l-36.497-36.497s-.11-.114-.314-.326c-9.012-9.338-2.515-25.06 10.463-25.101h.31c11.396 0 22.335 1.955 32.5 5.548 10.165-3.593 21.104-5.548 32.5-5.548 53.848 0 97.5 43.652 97.5 97.5z" fill="#69564e"/><path d="m238.496 136.049-21.046 9.169c-.976.425-1.992.626-2.992.626-2.894 0-5.65-1.685-6.88-4.507-1.654-3.797.083-8.217 3.88-9.871l6.804-2.964-23.283-12.38c-3.657-1.944-5.046-6.485-3.101-10.143s6.486-5.046 10.143-3.102l37 19.673c2.541 1.352 4.085 4.038 3.973 6.914-.112 2.877-1.86 5.435-4.498 6.585zm3.004 39.932c3.875 3.875 9.024 6.009 14.5 6.009s10.625-2.134 14.5-6.009c2.929-2.93 2.929-7.678 0-10.607-2.929-2.928-7.678-2.928-10.606 0-1.042 1.042-2.424 1.616-3.893 1.616s-2.851-.574-3.893-1.616c-2.929-2.928-7.678-2.928-10.606 0-2.931 2.93-2.931 7.678-.002 10.607zm14.5 25.405c-10.974 0-21.949 4.177-30.303 12.531-2.929 2.93-2.929 7.678 0 10.607 2.929 2.928 7.678 2.928 10.606 0 10.861-10.861 28.532-10.861 39.394 0 2.929 2.928 7.678 2.928 10.606 0 2.929-2.93 2.929-7.678 0-10.607-8.354-8.354-19.329-12.531-30.303-12.531zm70.12-95.407c-1.945-3.658-6.486-5.046-10.143-3.102l-37 19.673c-2.542 1.352-4.085 4.038-3.973 6.914s1.86 5.435 4.499 6.584l21.046 9.169c.976.425 1.992.626 2.992.626 2.894 0 5.65-1.685 6.88-4.507 1.654-3.797-.083-8.217-3.88-9.871l-6.804-2.964 23.283-12.38c3.657-1.943 5.045-6.484 3.1-10.142z" fill="#f87b67"/><path d="m296.629 60.731 6.408-3.896c14.157-8.608 32.612-4.109 41.219 10.048l163.373 258.237c8.608 14.157 4.109 32.612-10.048 41.219l-6.408 3.896c-14.157 8.608-32.612 4.109-41.219-10.048l-163.373-258.237c-8.608-14.157-4.109-32.611 10.048-41.219z" fill="#ffbeaa"/><path d="m416.082 277.275c-11.569 0-22.332-5.927-28.517-15.703 0 0-100.986-159.625-100.987-159.627l-25.497-41.934c-2.152-3.539-1.027-8.153 2.512-10.305 2.413-1.467 5.325-1.411 7.617-.105-.105-2.635 1.185-5.247 3.598-6.714s5.325-1.411 7.617-.105c-.105-2.635 1.185-5.247 3.598-6.714s5.325-1.411 7.617-.105c-.105-2.635 1.185-5.247 3.598-6.714 3.539-2.152 8.153-1.027 10.305 2.512l6.923 11.386c.365-2.045 1.573-3.929 3.487-5.093 3.539-2.152 8.153-1.027 10.305 2.512l16.001 26.316 100.342 158.606c14.212 22.47-1.932 51.787-28.519 51.787z" fill="#ffcdbe"/><path d="m166.002 123.626c-3.164-3.164-3.91-8.015-1.842-11.983l8.022-15.396c.45-.863 1.685-.863 2.135 0l8.022 15.396c2.068 3.968 1.322 8.819-1.842 11.983-4.003 4.003-10.492 4.003-14.495 0zm-17.5-30.5c-3.164-3.164-3.91-8.015-1.842-11.983l8.022-15.396c.45-.863 1.685-.863 2.135 0l8.022 15.396c2.068 3.968 1.322 8.819-1.842 11.983-4.003 4.003-10.492 4.003-14.495 0z" fill="#a6aee5"/><path d="m180.497 123.626c-4.003 4.003-10.492 4.003-14.494 0-2.717-2.717-3.651-6.679-2.551-10.257.48 1.564 1.337 3.026 2.551 4.239 4.003 4.003 10.492 4.003 14.494 0 1.213-1.213 2.071-2.674 2.551-4.239 1.099 3.578.166 7.54-2.551 10.257zm-14.95-40.757c-.48 1.564-1.337 3.026-2.551 4.239-4.002 4.003-10.492 4.003-14.494 0-1.213-1.213-2.071-2.674-2.551-4.239-1.1 3.578-.167 7.54 2.551 10.257 4.003 4.002 10.492 4.002 14.494 0 2.718-2.717 3.651-6.679 2.551-10.257z" fill="#8c96dd"/><path d="m109 126c0 2.761-2.239 5-5 5h-30c-2.761 0-5-2.239-5-5s2.239-5 5-5h30c2.761 0 5 2.239 5 5zm-11.464-18.358c1.953 1.953 5.118 1.953 7.071 0 1.953-1.953 1.953-5.118 0-7.071l-14.143-14.142c-1.953-1.953-5.118-1.953-7.071 0s-1.953 5.118 0 7.071zm.857 36.716-14.142 14.142c-1.953 1.953-1.953 5.118 0 7.071s5.118 1.953 7.071 0l14.142-14.142c1.953-1.953 1.953-5.118 0-7.071s-5.118-1.953-7.071 0zm337.607-23.358h-30c-2.761 0-5 2.239-5 5s2.239 5 5 5h30c2.761 0 5-2.239 5-5s-2.239-5-5-5zm-23.536 23.358c-1.953-1.953-5.118-1.953-7.071 0s-1.953 5.118 0 7.071l14.142 14.142c1.953 1.953 5.118 1.953 7.071 0s1.953-5.118 0-7.071zm-7.928-36.716c1.953 1.953 5.118 1.953 7.071 0l14.142-14.142c1.953-1.953 1.953-5.118 0-7.071s-5.118-1.953-7.071 0l-14.142 14.142c-1.953 1.953-1.953 5.119 0 7.071z" fill="#fff5f5"/></g></svg>