<svg id="Capa_1" enable-background="new 0 0 512 512" height="512" viewBox="0 0 512 512" width="512" xmlns="http://www.w3.org/2000/svg"><g><path d="m0 256c0-141.2 114.316-255.701 255.446-255.999 141.758-.3 256.12 113.444 256.552 255.202.302 99.219-55.842 185.355-138.138 228.112-6.208 3.225-13.53 3.448-19.994.772-30.15-12.484-63.204-19.373-97.867-19.373-34.438 0-67.289 6.8-97.281 19.131-6.838 2.811-14.577 2.608-21.13-.816-81.774-42.74-137.588-128.367-137.588-227.029z" fill="#ffc14f"/><path d="m465.814 264.991c0 115.877-93.937 209.814-209.814 209.814s-209.814-93.937-209.814-209.814 93.937-209.814 209.814-209.814 209.814 93.937 209.814 209.814z" fill="#ffcd71"/><path d="m431 355c0 49.977-20.95 95.061-54.547 126.949-35.901 19.178-76.907 30.051-120.453 30.051s-84.552-10.873-120.453-30.051c-33.597-31.888-54.547-76.972-54.547-126.949 0-86.421 62.644-158.211 145-172.438v-122.562h60v122.562c82.356 14.227 145 86.017 145 172.438z" fill="#717ed6"/><path d="m406.644 444.111c-8.29 13.983-18.471 26.713-30.191 37.837-35.901 19.179-76.907 30.052-120.453 30.052s-84.552-10.873-120.453-30.051c-33.597-31.888-54.547-76.972-54.547-126.949 0-64.107 34.471-120.163 85.888-150.644-15.473 26.101-24.356 56.568-24.356 89.111 0 96.65 78.35 175 175 175 32.543.001 63.011-8.883 89.112-24.356z" fill="#5766ce"/><path d="m302 50v10c0 5.523-4.477 10-10 10h-6v60c0 16.568-13.431 30-30 30s-30-13.432-30-30v-60h-6c-5.523 0-10-4.477-10-10v-10c0-5.523 4.477-10 10-10h72c5.523 0 10 4.477 10 10z" fill="#8c96dd"/><path d="m302 50v10c0 5.523-4.477 10-10 10h-42c-5.523 0-10-4.477-10-10v-10c0-5.523 4.477-10 10-10h42c5.523 0 10 4.477 10 10z" fill="#a6aee5"/><path d="m260 215c0-8.284 6.716-15 15-15s15 6.716 15 15-6.716 15-15 15-15-6.716-15-15zm10-105c5.523 0 10-4.477 10-10s-4.477-10-10-10-10 4.477-10 10 4.477 10 10 10zm-30 60c5.523 0 10-4.477 10-10s-4.477-10-10-10-10 4.477-10 10 4.477 10 10 10zm-40 70c5.523 0 10-4.477 10-10s-4.477-10-10-10-10 4.477-10 10 4.477 10 10 10zm-30 50c11.046 0 20-8.954 20-20s-8.954-20-20-20-20 8.954-20 20 8.954 20 20 20zm201.904-23.794c-7.89-10.284-20.204-16.206-33.166-16.206h-11.568c-30.825 0-61.03 8.663-87.17 25-26.14 16.337-56.345 25-87.17 25-21.064 0-39.018 15.573-41.665 36.471-.84 6.633-1.235 13.404-1.154 20.283.952 81.073 66.946 145.336 148.017 144.232 79.699-1.085 143.972-66.029 143.972-145.986 0-33.406-11.219-64.191-30.096-88.794z" fill="#3342ae"/><path d="m351.893 465.095c-25.178 21.949-57.956 35.402-93.866 35.891-81.071 1.104-147.065-63.159-148.017-144.232-.081-6.879.314-13.65 1.154-20.283 2.21-17.446 15.088-31.18 31.537-35.242 4.061 93.048 80.782 167.239 174.831 167.239 11.761 0 23.251-1.161 34.361-3.373z" fill="#2b3894"/><path d="m260 30c0 11.046-8.954 20-20 20s-20-8.954-20-20 8.954-20 20-20 20 8.954 20 20zm20-30c-5.523 0-10 4.477-10 10s4.477 10 10 10 10-4.477 10-10-4.477-10-10-10z" fill="#3d4ec6"/><path d="m220.149 290v100c0 5.523-4.477 10-10 10h-40.149c-5.523 0-10-4.477-10-10v-100c0-5.523 4.477-10 10-10h40.149c5.523 0 10 4.477 10 10z" fill="#c8e2fd"/><path d="m352 290v100c0 5.523-4.477 10-10 10h-139.247c-5.523 0-10-4.477-10-10v-100c0-5.523 4.477-10 10-10h139.247c5.523 0 10 4.477 10 10z" fill="#e9f3fe"/><path d="m231.628 355.819c-1.678 9.399-11.098 16.487-21.91 16.487-9.04 0-17.858-3.776-23.589-10.101-1.854-2.047-1.698-5.209.349-7.063 2.046-1.854 5.208-1.698 7.063.348 3.866 4.268 9.914 6.815 16.178 6.815 6.881 0 11.353-4.248 12.066-8.245.733-4.103-2.49-7.8-8.842-10.143-8.783-3.24-16.578-6.71-16.906-6.855-.241-.107-.473-.234-.694-.378-5.313-3.465-8.05-9.543-7.143-15.864.975-6.79 5.975-12.332 13.048-14.463 14.498-4.37 26.469 5.506 26.972 5.929 2.114 1.776 2.387 4.931.61 7.044-1.772 2.107-4.914 2.385-7.027.626-.167-.137-8.467-6.795-17.671-4.024-3.356 1.012-5.611 3.37-6.034 6.311-.336 2.345.564 4.512 2.419 5.867 1.707.75 8.529 3.713 15.886 6.426 13.16 4.856 16.494 14.178 15.225 21.283zm92.502 20.493h-.064c-.952.013-1.94.022-2.922.031.951-1.315 2.043-2.849 3.292-4.634 1.763-2.519 2.874-4.839 3.396-7.091.038-.165.068-.331.089-.498l.122-.954c.027-.209.04-.421.04-.632 0-6.236-5.074-11.311-11.311-11.311-5.392 0-10.059 3.837-11.098 9.124-.532 2.709 1.232 5.338 3.942 5.87 2.711.529 5.338-1.232 5.871-3.942.103-.522.577-1.052 1.286-1.052.655 0 1.199.483 1.295 1.111l-.028.223c-.193.69-.666 1.802-1.796 3.418-3.881 5.545-6.194 8.573-7.437 10.2-1.642 2.149-2.938 3.848-2.128 6.481.485 1.576 1.719 2.832 3.301 3.359.658.22 1.079.36 6.105.36 1.931 0 4.542-.021 8.106-.065 2.761-.035 4.972-2.302 4.937-5.063-.035-2.738-2.266-4.935-4.998-4.935zm-21.88-37.534c0 18.487-15.041 33.528-33.529 33.528s-33.529-15.041-33.529-33.528c0-18.488 15.041-33.529 33.529-33.529s33.529 15.041 33.529 33.529zm-10 0c0-12.974-10.555-23.529-23.529-23.529s-23.529 10.556-23.529 23.529 10.555 23.528 23.529 23.528 23.529-10.554 23.529-23.528z" fill="#168c80"/></g></svg>