<svg id="Capa_1" enable-background="new 0 0 512 512" height="512" viewBox="0 0 512 512" width="512" xmlns="http://www.w3.org/2000/svg"><g><path d="m512 256c0 90.305-46.758 169.689-117.385 215.262-5.8 3.742-99.147-29.788-99.147-29.788s-92.149 65.752-110.552 60.528c-106.932-30.354-184.916-129.282-184.916-246.002 0-141.385 114.615-256 256-256s256 114.615 256 256z" fill="#3342ae"/><path d="m465.617 225.617c0 113.559-92.058 205.617-205.617 205.617s-205.617-92.058-205.617-205.617 92.058-205.617 205.617-205.617 205.617 92.058 205.617 205.617z" fill="#3d4ec6"/><path d="m176.681 10v48.362c0 5.523-4.477 10-10 10h-39.34c-5.523 0-10-4.477-10-10v-48.362c0-5.523 4.477-10 10-10h39.34c5.523 0 10 4.477 10 10z" fill="#ffc14f"/><path d="m166.681 68.362h-20.702c-5.523 0-10-4.477-10-10v-48.362c0-5.523 4.477-10 10-10h20.702c5.523 0 10 4.477 10 10v48.362c0 5.523-4.477 10-10 10z" fill="#ffcd71"/><path d="m243.638 304.258v133.607c0 42.584-42.997 71.762-82.544 55.967-44.376-17.724-82.63-47.507-110.711-85.3v-104.274c0-35.366 10.555-69.927 30.314-99.258 19.759-29.331 30.314-63.892 30.314-99.258v-47.742h72v47.742c0 35.366 10.555 69.927 30.314 99.258 19.758 29.331 30.313 63.892 30.313 99.258z" fill="#199a8e"/><path d="m243.638 304.258v49.183c0 44.256-35.877 80.133-80.133 80.133-44.256 0-80.133-35.877-80.133-80.133v-49.183c0-35.366 10.555-69.927 30.314-99.258 19.759-29.331 30.314-63.892 30.314-99.258v-47.742h39.011v47.742c0 35.366 10.555 69.927 30.314 99.258 19.758 29.331 30.313 63.892 30.313 99.258z" fill="#20b7a1"/><path d="m193.011 50c0 5.523-4.477 10-10 10h-72c-5.523 0-10-4.477-10-10s4.477-10 10-10h72c5.523 0 10 4.477 10 10z" fill="#168c80"/><path d="m149.661 433.574c-40.412 0-73.172-32.76-73.172-73.172v-30.931c0-40.412 32.76-73.172 73.172-73.172 40.412 0 73.172 32.76 73.172 73.172v30.931c0 40.412-32.76 73.172-73.172 73.172z" fill="#f87b67"/><path d="m222.833 329.472v30.931c0 32.55-21.253 60.135-50.64 69.637-29.386-9.501-50.64-37.087-50.64-69.637v-30.931c0-32.55 21.253-60.135 50.64-69.637 29.386 9.501 50.64 37.087 50.64 69.637z" fill="#fa9084"/><path d="m126.657 369.497h-50.168v-52.09h50.168c14.384 0 26.045 11.661 26.045 26.045 0 14.385-11.661 26.045-26.045 26.045z" fill="#e5554e"/><path d="m179.891 369.497h-54.378c-14.384 0-26.045-11.661-26.045-26.045 0-14.384 11.661-26.045 26.045-26.045h54.378c14.384 0 26.045 11.661 26.045 26.045 0 14.385-11.661 26.045-26.045 26.045z" fill="#f76c57"/><path d="m149.661 441.074c-44.482 0-80.672-36.189-80.672-80.672v-30.931c0-44.482 36.189-80.672 80.672-80.672s80.672 36.189 80.672 80.672v30.931c0 44.483-36.189 80.672-80.672 80.672zm0-177.274c-36.211 0-65.672 29.46-65.672 65.672v30.931c0 36.212 29.46 65.672 65.672 65.672s65.672-29.46 65.672-65.672v-30.931c0-36.212-29.46-65.672-65.672-65.672z" fill="#f44545"/><path d="m431.714 240.5h-11.714v-40.5h-260v293.392c9.718 3.934 19.732 7.288 30 10.02 8.863 2.358 23.62-12.237 32.833-10.833 12.676 1.931 25.657 2.932 38.872 2.932 36.604 0 71.414-7.682 102.904-21.523 10.774-4.735 15.454 6.298 25.39.182 10.527-6.48 20.55-13.7 29.996-21.588 40.607-13.354 70.005-51.635 70.005-96.654v-57.143c0-32.138-26.147-58.285-58.286-58.285zm35.429 115.428c0 32.207-19.408 59.966-47.143 72.197v-164.768h11.714c19.535 0 35.429 15.893 35.429 35.429z" fill="#8c96dd"/><path d="m490 298.786v9.283c0 6.312-5.117 11.429-11.429 11.429-6.312 0-11.429-5.117-11.429-11.429v-9.283c0-19.567-15.862-35.429-35.429-35.429h-11.713v78.099c0 53.395-42.945 96.854-96.336 97.506-.922.011-1.845.021-2.767.029-54.067.479-98.064-43.438-98.064-97.507v-141.484h197.167v40.5h11.714c32.191 0 58.286 26.095 58.286 58.286z" fill="#a6aee5"/><path d="m390 310v164.17c-38.978 23.992-84.873 37.83-134 37.83-22.821 0-44.944-2.986-66-8.589v-193.411c0-5.523 4.477-10 10-10h180c5.523 0 10 4.477 10 10z" fill="#ffc14f"/><path d="m284.404 466.343c0 4.865-3.944 8.809-8.809 8.809s-8.809-3.944-8.809-8.809 3.944-8.81 8.809-8.81 8.809 3.945 8.809 8.81zm-48.723-35.109c-8.155 0-14.766 6.611-14.766 14.766s6.611 14.766 14.766 14.766 14.766-6.611 14.766-14.766-6.611-14.766-14.766-14.766zm154.319-121.234v101.813c-17.247 16.553-40.575 26.833-66.336 27.148-.922.011-1.845.021-2.767.029-54.067.479-98.064-43.438-98.064-97.507v-41.483h157.167c5.523 0 10 4.477 10 10zm-105.596 25.62c0-4.865-3.944-8.809-8.809-8.809s-8.809 3.944-8.809 8.809 3.944 8.81 8.809 8.81 8.809-3.945 8.809-8.81zm40.596 57.494c0-8.155-6.611-14.766-14.766-14.766s-14.766 6.611-14.766 14.766 6.611 14.766 14.766 14.766 14.766-6.61 14.766-14.766zm36.17-44.609c0-6.722-5.449-12.17-12.17-12.17s-12.17 5.449-12.17 12.17 5.449 12.17 12.17 12.17 12.17-5.448 12.17-12.17z" fill="#ffcd71"/><path d="m440 210c0 13.807-11.193 25-25 25h-250c-13.807 0-25-11.193-25-25 0-13.807 11.193-25 25-25h15.31c2.461-19.731 19.292-35 39.69-35 5.181 0 10.131.985 14.674 2.777 8.538-19.305 27.859-32.777 50.326-32.777 26.582 0 48.759 18.857 53.884 43.924 4.824-2.507 10.304-3.924 16.116-3.924 15.855 0 29.248 10.542 33.551 25h26.449c13.807 0 25 11.193 25 25z" fill="#ffd993"/><path d="m439.995 209.517c.266 14.013-11.542 25.483-25.558 25.483h-101.604c-5.523 0-10 4.477-10 10v9.576c0 8.077-6.207 15.027-14.275 15.407-8.614.406-15.725-6.458-15.725-14.983v-10c0-5.523-4.477-10-10-10-5.523 0-10 4.477-10 10v89.576c0 8.077-6.207 15.027-14.275 15.407-8.614.406-15.725-6.458-15.725-14.983v-100.604c-11.294-2.529-19.702-12.7-19.51-24.801.217-13.743 11.82-24.595 25.564-24.595h14.742c2.461-19.731 19.292-35 39.69-35 5.181 0 10.131.985 14.674 2.777 4.059-9.177 10.554-17.036 18.666-22.756 11.237 7.923 19.372 19.951 22.225 33.903 4.824-2.507 10.304-3.924 16.116-3.924 15.855 0 29.248 10.542 33.551 25h26.449c13.646 0 24.738 10.933 24.995 24.517z" fill="#ffe7c0"/><path d="m359.575 92.106c11.457 0 20.745 9.288 20.745 20.745s-9.288 20.745-20.745 20.745-20.745-9.288-20.745-20.745 9.288-20.745 20.745-20.745z" fill="#ffcd71"/><path d="m419.064 105.894c7.65 0 13.851 6.201 13.851 13.851s-6.201 13.851-13.851 13.851-13.851-6.201-13.851-13.851 6.201-13.851 13.851-13.851zm-13.851-44.107c0 7.65 6.201 13.851 13.851 13.851s13.851-6.201 13.851-13.851-6.201-13.851-13.851-13.851-13.851 6.201-13.851 13.851zm-45.638 30.319c-3.121 0-6.081.689-8.736 1.924-1.234 2.655-1.924 5.615-1.924 8.735 0 11.457 9.288 20.745 20.745 20.745 3.121 0 6.081-.689 8.736-1.924 1.234-2.655 1.924-5.615 1.924-8.735-.001-11.457-9.289-20.745-20.745-20.745z" fill="#ffd993"/></g></svg>