<svg id="Capa_1" enable-background="new 0 0 512 512" height="512" viewBox="0 0 512 512" width="512" xmlns="http://www.w3.org/2000/svg"><g><path d="m512 256c0 141.385-114.615 256-256 256s-256-114.615-256-256 114.615-256 256-256 256 114.615 256 256z" fill="#55a4f9"/><path d="m478 235c0 104.934-85.066 190-190 190s-190-85.066-190-190 85.066-190 190-190 190 85.066 190 190z" fill="#76b6fa"/><path d="m255.838 255.404c-9.673 34.719-28.577 64.422-52.87 87.404-95.321 90.174-235.95-50.455-145.776-145.776 22.982-24.293 52.685-43.197 87.405-52.87 42.33-11.794 85.507-17.422 128.054-16.813.609 42.548-5.019 85.724-16.813 128.055z" fill="#ffe1aa"/><path d="m227.87 314.139c-7.404 10.445-15.772 20.032-24.902 28.669-95.321 90.174-235.95-50.455-145.776-145.776 8.637-9.13 18.224-17.499 28.669-24.902-55.963 87.824 54.185 197.972 142.009 142.009zm-58.914-149.057c-1.113-3.991-5.248-6.324-9.238-5.212-22.563 6.287-43.089 18.701-59.358 35.898-2.798 2.957-2.719 7.594.142 10.455.05.05.101.099.152.147 3.009 2.847 7.756 2.715 10.603-.294 14.398-15.22 32.548-26.201 52.487-31.756 3.989-1.112 6.323-5.248 5.212-9.238zm71.174 75.201c-6.287 22.563-18.7 43.088-35.898 59.358-2.957 2.798-7.594 2.718-10.455-.142-.05-.05-.099-.1-.148-.152-2.846-3.009-2.715-7.756.294-10.603 15.22-14.398 26.201-32.548 31.756-52.487 1.112-3.99 5.248-6.324 9.238-5.212 3.993 1.113 6.324 5.248 5.213 9.238zm-32.887-36.92-42.426 42.426c-2.929 2.929-7.678 2.929-10.607 0s-2.929-7.677 0-10.606l42.427-42.427c2.929-2.929 7.677-2.929 10.606 0 2.929 2.93 2.93 7.678 0 10.607z" fill="#ffcd71"/><path d="m426.964 463.766-11.841 11.841c-5.858 5.858-15.355 5.858-21.213 0l-38.975-38.975c-9.128-9.128-9.128-23.927 0-33.054 9.128-9.128 23.927-9.128 33.054 0l38.975 38.975c5.858 5.857 5.858 15.355 0 21.213z" fill="#ffcd71"/><path d="m412.604 418.82-42.427 42.427c-3.905 3.905-10.237 3.905-14.142 0-3.905-3.905-3.905-10.237 0-14.143l42.427-42.426c3.905-3.905 10.237-3.905 14.142 0 3.906 3.905 3.906 10.237 0 14.142z" fill="#ffb52d"/><path d="m412.822 395.272-66.192 66.192c-13.668 13.668-35.829 13.668-49.498 0-22.842-22.842-22.842-59.877 0-82.72l32.97-32.97c22.843-22.842 59.877-22.842 82.72 0 13.668 13.669 13.668 35.83 0 49.498z" fill="#ffcd71"/><path d="m412.822 395.272-38.096 38.096c-13.668 13.668-35.829 13.668-49.497 0-22.843-22.842-22.843-59.877 0-82.72l4.874-4.874c22.843-22.842 59.877-22.842 82.72 0 13.667 13.669 13.667 35.83-.001 49.498z" fill="#ffd993"/><path d="m204.679 217.521c-3.762-3.597-7.505-7.256-11.224-10.976-41.591-41.591-75.605-86.038-100.919-129.82-6.348-10.979-3.162-24.927 7.131-32.336 71.661-51.577 172.166-45.137 236.624 19.32 7.27 7.27 13.801 14.998 19.595 23.091 70.844 98.969-63.235 214.831-151.207 130.721z" fill="#69564e"/><path d="m355.219 300.83c-7.286 10.05-21.093 12.896-31.841 6.686-43.822-25.321-88.313-59.36-129.943-100.99-.308-.308-.615-.615-.921-.923-49.021-49.203-20.416-133.35 48.398-142.758 32.161-4.397 64.895-3.612 96.851 2.355 63.216 64.665 69.034 164.492 17.456 235.63z" fill="#7c665d"/><path d="m232.5 137.195c0 12.258-6.956 22.195-15.537 22.195s-15.537-9.937-15.537-22.195 6.956-22.195 15.537-22.195 15.537 9.937 15.537 22.195zm49.875-48.795c-7.52 0-13.617 8.709-13.617 19.452s6.097 19.452 13.617 19.452 13.617-8.709 13.617-19.452-6.097-19.452-13.617-19.452zm1.248 81.6c0-5.747-6.655-10.406-14.865-10.406s-14.865 4.659-14.865 10.406 6.655 10.406 14.865 10.406c8.209 0 14.865-4.659 14.865-10.406z" fill="#69564e"/></g></svg>