<svg id="Capa_1" enable-background="new 0 0 512 512" height="512" viewBox="0 0 512 512" width="512" xmlns="http://www.w3.org/2000/svg"><g><path d="m512 256c0 141.385-114.615 256-256 256s-256-114.615-256-256 114.615-256 256-256 256 114.615 256 256z" fill="#ffc14f"/><path d="m431.372 284.097c0 111.315-90.238 201.553-201.553 201.553s-201.553-90.238-201.553-201.553 90.238-201.553 201.553-201.553 201.553 90.239 201.553 201.553z" fill="#ffcd71"/><path d="m182.055 344.513-7.765 28.978c-2.144 8.002-10.369 12.75-18.371 10.606l-57.956-15.529c-8.002-2.144-12.751-10.369-10.607-18.371l7.765-28.978c2.144-8.002 10.369-12.751 18.371-10.606l57.956 15.529c8.002 2.144 12.751 10.369 10.607 18.371z" fill="#717ed6"/><path d="m200.151 354.252-9.13 34.075c-2.144 8.002-10.369 12.751-18.371 10.607l-57.956-15.529c-8.002-2.144-12.751-10.369-10.606-18.371l9.13-34.075c2.144-8.002 10.369-12.75 18.371-10.606l57.956 15.529c8.001 2.143 12.75 10.368 10.606 18.37z" fill="#8c96dd"/><path d="m203.961 340.03-5.177 19.319c-2.144 8.002-10.369 12.75-18.371 10.606l-57.956-15.529c-8.002-2.144-12.751-10.369-10.607-18.371l5.177-19.318c2.144-8.002 10.369-12.751 18.371-10.607l57.956 15.529c8.003 2.144 12.751 10.369 10.607 18.371z" fill="#a6aee5"/><path d="m386.598 36.974-10.353 38.637c-2.144 8.002-10.369 12.751-18.371 10.606l-37.648-10.087c-8.002-2.145-12.751-10.37-10.607-18.372l10.353-38.637c2.144-8.002 10.369-12.751 18.371-10.607l37.648 10.088c8.002 2.145 12.751 10.37 10.607 18.372z" fill="#20b7a1"/><path d="m428.155 48.109-10.353 38.637c-2.144 8.002-10.369 12.751-18.371 10.606l-49.262-13.2c-8.002-2.144-12.751-10.369-10.607-18.371l10.353-38.637c2.144-8.002 10.369-12.751 18.371-10.607l49.262 13.2c8.003 2.145 12.752 10.37 10.607 18.372z" fill="#24d3b5"/><path d="m403.845 220.698-58.752 219.265c-2.144 8.002-10.369 12.75-18.371 10.606l-134.626-36.073-22.035-5.904c-8.002-2.145-12.751-10.369-10.607-18.371l18.117-67.615c2.144-8.002 10.369-12.75 18.371-10.606l22.035 5.904 36.752-137.162c2.144-8.002 10.369-12.75 18.371-10.606l120.137 32.191c8.004 2.144 12.752 10.369 10.608 18.371z" fill="#c8e2fd"/><path d="m403.586 221.664-22.129 82.586c-6.504 24.273-31.453 38.677-55.726 32.173l-16.481-4.416c-24.273-6.504-38.677-31.453-32.173-55.726l22.129-82.587c2.144-8.002 10.369-12.75 18.371-10.606l75.403 20.204c8.002 2.145 12.75 10.37 10.606 18.372z" fill="#e9f3fe"/><path d="m435.68 101.889-27.694 103.354c-2.144 8.002-10.369 12.751-18.371 10.606l-120.137-32.19c-8.002-2.144-12.751-10.369-10.607-18.371l27.694-103.354c2.144-8.002 10.369-12.751 18.371-10.607l120.137 32.191c8.002 2.144 12.751 10.369 10.607 18.371z" fill="#93e2c6"/><path d="m435.68 101.889-4.723 17.628c-6.504 24.272-31.453 38.677-55.726 32.173l-16.481-4.416c-24.273-6.504-38.677-31.453-32.173-55.726l4.723-17.628c2.144-8.002 10.369-12.75 18.371-10.606l75.403 20.204c8.001 2.144 12.75 10.369 10.606 18.371z" fill="#adebdc"/><path d="m408.375 203.794-5.047 18.835-149.115-39.955 5.047-18.835z" fill="#24d3b5"/><path d="m305.159 375.773-3.451 12.879c-2.144 8.002-10.369 12.751-18.371 10.607l-21.25-5.694c-8.002-2.144-12.751-10.369-10.607-18.371l3.451-12.879c2.144-8.002 10.369-12.751 18.371-10.606l21.25 5.694c8.002 2.143 12.751 10.368 10.607 18.37z" fill="#8c96dd"/><path d="m312.886 377.844-3.451 12.879c-2.144 8.002-10.369 12.75-18.371 10.606l-15.026-4.026c-8.002-2.145-12.751-10.369-10.607-18.371l3.451-12.879c2.144-8.002 10.369-12.75 18.371-10.606l15.026 4.026c8.002 2.144 12.751 10.369 10.607 18.371z" fill="#a6aee5"/><path d="m80.614 332.861c-.715 2.667-3.456 4.25-6.124 3.536l-28.978-7.765c-2.667-.714-4.25-3.456-3.536-6.124s3.456-4.25 6.124-3.536l28.978 7.765c2.668.716 4.251 3.457 3.536 6.124zm-8.167 16.818c-1.381-2.392-4.439-3.211-6.83-1.83l-17.321 10c-2.391 1.381-3.211 4.438-1.83 6.83s4.439 3.211 6.83 1.83l17.321-10c2.392-1.381 3.211-4.439 1.83-6.83zm10.505-42.517-10-17.321c-1.381-2.391-4.439-3.21-6.83-1.83-2.392 1.381-3.211 4.439-1.83 6.83l10 17.321c1.381 2.391 4.439 3.211 6.83 1.83s3.21-4.439 1.83-6.83z" fill="#fff5f5"/></g></svg>