<svg id="Capa_1" enable-background="new 0 0 512 512" height="512" viewBox="0 0 512 512" width="512" xmlns="http://www.w3.org/2000/svg"><g><path d="m512 256c0 141.385-114.615 256-256 256s-256-114.615-256-256 114.615-256 256-256 256 114.615 256 256z" fill="#76b6fa"/><path d="m462.641 255.481c0 115.693-93.788 209.481-209.481 209.481s-209.482-93.787-209.482-209.481 93.788-209.481 209.482-209.481 209.481 93.788 209.481 209.481z" fill="#86befb"/><path d="m190.038 251.182c0 8.796-7.13 15.926-15.926 15.926s-15.926-7.13-15.926-15.926 7.13-15.926 15.926-15.926 15.926 7.13 15.926 15.926zm101.21-221.108c-8.796 0-15.926 7.13-15.926 15.926s7.13 15.926 15.926 15.926 15.926-7.13 15.926-15.926-7.13-15.926-15.926-15.926z" fill="#55a4f9"/><path d="m305.926 318.801c0 8.796-7.13 15.926-15.926 15.926s-15.926-7.13-15.926-15.926 7.13-15.926 15.926-15.926 15.926 7.131 15.926 15.926zm156.715-89.918c-5.523 0-10 4.477-10 10s4.477 10 10 10 10-4.477 10-10-4.477-10-10-10zm-406.455 88.802c-5.523 0-10 4.477-10 10s4.477 10 10 10 10-4.477 10-10-4.477-10-10-10zm421.507 75.465-86-69c-.236-.189-.479-.361-.729-.518v-142.863c0-2.68-1.43-5.155-3.75-6.495l-130.304-75.232c-2.32-1.34-5.18-1.34-7.5 0l-120.314 69.463c-.272-.304-.573-.591-.902-.855l-86-69c-3.229-2.593-7.951-2.074-10.543 1.156s-2.074 7.951 1.157 10.543l83.413 66.924c-.558 1.06-.864 2.255-.864 3.495v150.463c0 2.68 1.43 5.155 3.75 6.495l130.304 75.231c1.16.67 2.455 1.005 3.75 1.005s2.59-.335 3.75-1.005l128.811-74.369 82.586 66.261c1.384 1.111 3.042 1.65 4.688 1.65 2.196 0 4.374-.96 5.855-2.807 2.591-3.229 2.073-7.95-1.158-10.542zm-101.729-66.249-122.804 70.902-122.804-70.901v-141.803l122.804-70.901 122.804 70.901z" fill="#1380e2"/><path d="m68.038 101.832c0 18.685-15.147 33.832-33.831 33.832-18.685 0-33.832-15.147-33.832-33.832s15.147-33.832 33.831-33.832c18.685 0 33.832 15.147 33.832 33.832z" fill="#3d4ec6"/><path d="m299.41 400c0 25.543-20.707 46.25-46.251 46.25s-46.251-20.707-46.251-46.25 20.707-46.25 46.251-46.25 46.251 20.707 46.251 46.25zm-176.387-273.229c-25.543 0-46.251 20.707-46.251 46.25s20.707 46.25 46.251 46.25 46.251-20.707 46.251-46.25-20.707-46.25-46.251-46.25zm260.273 0c-25.543 0-46.251 20.707-46.251 46.25s20.707 46.25 46.251 46.25 46.251-20.707 46.251-46.25-20.708-46.25-46.251-46.25z" fill="#3342ae"/><path d="m299.41 400c0 7.608-1.837 14.787-5.092 21.117-6.33 3.254-13.509 5.092-21.117 5.092-25.544 0-46.251-20.707-46.251-46.25 0-7.608 1.837-14.787 5.092-21.117 6.33-3.254 13.509-5.092 21.117-5.092 25.544 0 46.251 20.706 46.251 46.25zm-176.387-273.229c-7.608 0-14.786 1.837-21.117 5.092-3.254 6.33-5.092 13.509-5.092 21.117 0 25.543 20.707 46.25 46.251 46.25 7.608 0 14.787-1.837 21.117-5.092 3.254-6.33 5.092-13.509 5.092-21.117 0-25.543-20.707-46.25-46.251-46.25zm260.273 0c-7.608 0-14.787 1.837-21.117 5.092-3.254 6.33-5.092 13.509-5.092 21.117 0 25.543 20.707 46.25 46.251 46.25 7.608 0 14.787-1.837 21.117-5.092 3.254-6.33 5.092-13.509 5.092-21.117 0-25.543-20.707-46.25-46.251-46.25z" fill="#3d4ec6"/><path d="m68.038 101.832c0 5.565-1.344 10.816-3.724 15.447-4.631 2.38-9.882 3.724-15.447 3.724-18.685 0-33.831-15.147-33.831-33.832 0-5.565 1.344-10.816 3.724-15.446 4.63-2.381 9.881-3.725 15.446-3.725 18.685 0 33.832 15.146 33.832 33.832zm79.21 46.622c6.06 6.06 7.961 13.982 4.247 17.696s-11.637 1.812-17.696-4.247c-6.06-6.06-7.961-13.982-4.247-17.696s11.636-1.813 17.696 4.247zm110.65 222.982c-3.714 3.714-1.812 11.637 4.247 17.696 6.06 6.06 13.982 7.961 17.696 4.247s1.812-11.637-4.247-17.696-13.982-7.961-17.696-4.247zm133.101-227.23c-3.714 3.714-1.812 11.637 4.247 17.696 6.06 6.06 13.982 7.961 17.696 4.247s1.812-11.637-4.247-17.696c-6.06-6.059-13.983-7.96-17.696-4.247z" fill="#5766ce"/><path d="m412.038 464.832c0 18.685-15.147 33.832-33.831 33.832-18.685 0-33.832-15.147-33.832-33.832s15.147-33.832 33.831-33.832c18.685 0 33.832 15.147 33.832 33.832zm-242.332-410.832c-11.229 0-20.332 9.103-20.332 20.332s9.103 20.332 20.332 20.332 20.331-9.103 20.331-20.332c.001-11.229-9.102-20.332-20.331-20.332z" fill="#147d73"/><path d="m412.038 464.832c0 5.565-1.344 10.816-3.724 15.447-4.631 2.38-9.882 3.724-15.447 3.724-18.685 0-33.831-15.147-33.831-33.832 0-5.565 1.344-10.816 3.724-15.446 4.631-2.381 9.882-3.725 15.447-3.725 18.684 0 33.831 15.146 33.831 33.832zm-242.332-410.832c-3.344 0-6.5.808-9.283 2.238-1.431 2.783-2.238 5.938-2.238 9.283 0 11.229 9.103 20.332 20.331 20.332 3.344 0 6.5-.808 9.283-2.238 1.431-2.783 2.238-5.938 2.238-9.283.001-11.229-9.102-20.332-20.331-20.332z" fill="#199a8e"/><path d="m405.038 33.832c0 18.685-15.147 33.832-33.831 33.832-18.685 0-33.832-15.147-33.832-33.832s15.147-33.832 33.831-33.832c18.685 0 33.832 15.147 33.832 33.832zm-266.332 364.168c-11.229 0-20.332 9.103-20.332 20.332s9.103 20.332 20.332 20.332 20.331-9.103 20.331-20.332c.001-11.229-9.102-20.332-20.331-20.332z" fill="#199a8e"/><path d="m405.038 33.832c0 5.565-1.344 10.816-3.724 15.447-4.631 2.38-9.882 3.724-15.447 3.724-18.685 0-33.831-15.147-33.831-33.832 0-5.565 1.344-10.816 3.724-15.446 4.63-2.381 9.881-3.725 15.446-3.725 18.685 0 33.832 15.146 33.832 33.832zm-266.332 364.168c-3.344 0-6.5.808-9.283 2.238-1.431 2.783-2.238 5.938-2.238 9.283 0 11.229 9.103 20.332 20.331 20.332 3.344 0 6.5-.808 9.283-2.238 1.431-2.783 2.238-5.938 2.238-9.283.001-11.229-9.102-20.332-20.331-20.332z" fill="#20b7a1"/><path d="m512 397.832c0 18.685-15.147 33.832-33.832 33.832s-33.831-15.147-33.831-33.832 15.147-33.832 33.831-33.832c18.685 0 33.832 15.147 33.832 33.832z" fill="#e5554e"/><path d="m291.248 112.714c0 21.036-17.053 38.089-38.089 38.089s-38.089-17.053-38.089-38.089 17.053-38.089 38.089-38.089 38.089 17.053 38.089 38.089zm-165.248 179.483c-21.036 0-38.089 17.053-38.089 38.089s17.053 38.089 38.089 38.089 38.089-17.053 38.089-38.089-17.053-38.089-38.089-38.089zm260 0c-21.036 0-38.089 17.053-38.089 38.089s17.053 38.089 38.089 38.089 38.089-17.053 38.089-38.089-17.053-38.089-38.089-38.089z" fill="#f44545"/><path d="m291.248 112.714c0 6.265-1.513 12.177-4.193 17.39-5.213 2.68-11.125 4.193-17.39 4.193-21.036 0-38.089-17.053-38.089-38.089 0-6.265 1.513-12.177 4.193-17.39 5.213-2.68 11.125-4.193 17.39-4.193 21.036 0 38.089 17.053 38.089 38.089zm-165.248 179.483c-6.265 0-12.177 1.513-17.39 4.193-2.68 5.213-4.193 11.125-4.193 17.39 0 21.036 17.053 38.089 38.089 38.089 6.265 0 12.177-1.513 17.39-4.193 2.68-5.213 4.193-11.125 4.193-17.39 0-21.036-17.053-38.089-38.089-38.089zm260 0c-6.265 0-12.177 1.513-17.39 4.193-2.68 5.213-4.193 11.125-4.193 17.39 0 21.036 17.053 38.089 38.089 38.089 6.265 0 12.177-1.513 17.39-4.193 2.68-5.213 4.193-11.125 4.193-17.39 0-21.036-17.053-38.089-38.089-38.089z" fill="#fb5858"/><path d="m512 397.832c0 5.565-1.344 10.816-3.724 15.447-4.631 2.38-9.882 3.724-15.447 3.724-18.685 0-33.832-15.147-33.832-33.832 0-5.565 1.344-10.816 3.724-15.446 4.631-2.381 9.882-3.725 15.447-3.725 18.685 0 33.832 15.146 33.832 33.832zm-366.363-89.308c4.051 4.051 5.323 9.348 2.84 11.831s-7.78 1.212-11.831-2.84c-4.051-4.051-5.323-9.348-2.84-11.831 2.482-2.483 7.779-1.212 11.831 2.84zm113.048-221.484c-2.483 2.483-1.212 7.78 2.84 11.831 4.051 4.051 9.348 5.323 11.831 2.84s1.212-7.78-2.84-11.831c-4.051-4.052-9.348-5.323-11.831-2.84zm134.184 218.644c-2.483 2.483-1.212 7.78 2.84 11.831 4.051 4.051 9.348 5.323 11.831 2.84s1.212-7.78-2.84-11.831c-4.051-4.052-9.348-5.323-11.831-2.84z" fill="#f87b67"/></g></svg>