<svg id="Capa_1" enable-background="new 0 0 512 512" height="512" viewBox="0 0 512 512" width="512" xmlns="http://www.w3.org/2000/svg"><g><path d="m0 256c0-141.2 114.316-255.701 255.446-255.999 140.973-.299 255.034 112.236 256.539 253.202.826 77.304-32.616 146.816-86.073 194.284-2.271 2.017-5.676 2.109-8.028.187-44.111-36.05-100.472-57.674-161.884-57.674-61.598 0-118.114 21.755-162.285 58.001-2.117 1.737-5.187 1.645-7.238-.169-53.036-46.904-86.477-115.463-86.477-191.832z" fill="#55a4f9"/><path d="m472 234c0 119.294-96.706 216-216 216s-216-96.706-216-216 96.706-216 216-216 216 96.706 216 216z" fill="#76b6fa"/><path d="m355 290h-100c-8.284 0-15-6.716-15-15 0-8.284 6.716-15 15-15h100c8.284 0 15 6.716 15 15 0 8.284-6.716 15-15 15zm-215.028-64.5c0-8.284-6.716-15-15-15h-67.781c-8.284 0-15 6.716-15 15 0 8.284 6.716 15 15 15h67.781c8.285 0 15-6.716 15-15zm265.028-25.5v-15c0-8.284-6.716-15-15-15h-35c-8.284 0-15 6.716-15 15v15c-8.284 0-15 6.716-15 15 0 8.284 6.716 15 15 15h65c8.284 0 15-6.716 15-15 0-8.284-6.716-15-15-15z" fill="#a7d0fc"/><path d="m490 224v22c0 2.209-1.791 4-4 4h-72c-2.209 0-4-1.791-4-4v-22c0-2.209 1.791-4 4-4h72c2.209 0 4 1.791 4 4z" fill="#c83c50"/><path d="m486 300h-72c-2.209 0-4-1.791-4-4v-22c0-2.209 1.791-4 4-4h72c2.209 0 4 1.791 4 4v22c0 2.209-1.791 4-4 4z" fill="#ffc14f"/><path d="m338 305v50c0 8.284-6.716 15-15 15h-70c-8.284 0-15-6.716-15-15v-50c0-8.284 6.716-15 15-15h25v-10c0-5.523 4.477-10 10-10s10 4.477 10 10v10h25c8.284 0 15 6.716 15 15zm-131-15h-25v-10c0-5.523-4.477-10-10-10s-10 4.477-10 10v10h-25c-8.284 0-15 6.716-15 15v50c0 8.284 6.716 15 15 15h70c8.284 0 15-6.716 15-15v-50c0-8.284-6.716-15-15-15z" fill="#274c91"/><path d="m86 92h20v242h-20zm320 0v242h20v-242z" fill="#9c7955"/><path d="m426 330v117.409c-45.211 40.183-104.755 64.591-170 64.591s-124.789-24.408-170-64.591v-117.409z" fill="#ac8a67"/><path d="m114 469.039c-9.835-6.569-19.19-13.8-28-21.631v-117.408h28zm36 .961c-5.523 0-10-4.477-10-10v-90c0-5.523 4.477-10 10-10 5.523 0 10 4.477 10 10v90c0 5.523-4.477 10-10 10zm60 0v-100c0-5.523-4.477-10-10-10-5.523 0-10 4.477-10 10v100c0 5.523 4.477 10 10 10 5.523 0 10-4.477 10-10zm150 0v-100c0-5.523-4.477-10-10-10-5.523 0-10 4.477-10 10v100c0 5.523 4.477 10 10 10 5.523 0 10-4.477 10-10zm-50 0v-100c0-5.523-4.477-10-10-10-5.523 0-10 4.477-10 10v100c0 5.523 4.477 10 10 10 5.523 0 10-4.477 10-10zm-50 10v-110c0-5.523-4.477-10-10-10-5.523 0-10 4.477-10 10v110c0 5.523 4.477 10 10 10 5.523 0 10-4.477 10-10z" fill="#9c7955"/><path d="m441 80v100c0 16.569-13.431 30-30 30h-15.458c-14.212 0-26.115-9.882-29.214-23.15-3.099 13.268-15.002 23.15-29.214 23.15h-15.458c-14.212 0-26.115-9.882-29.214-23.15-3.099 13.268-15.002 23.15-29.214 23.15h-15.458c-14.212 0-26.115-9.882-29.214-23.15-3.099 13.268-15.002 23.15-29.214 23.15h-15.458c-14.212 0-26.115-9.882-29.214-23.15-3.099 13.268-15.002 23.15-29.214 23.15h-15.456c-16.569 0-30-13.431-30-30v-100c0-22.091 17.909-40 40-40h291c22.091 0 40 17.909 40 40z" fill="#c83c50"/><path d="m366.328 40v148.692c-3.727 12.329-15.169 21.308-28.714 21.308h-15.458c-14.212 0-26.115-9.882-29.214-23.15-.146.623-.316 1.235-.5 1.842v-148.692zm-221.656 148.692c.184-.607.354-1.22.5-1.842 3.099 13.268 15.002 23.15 29.214 23.15h15.458c13.545 0 24.987-8.979 28.714-21.308v-148.692h-73.885v148.692z" fill="#fb5858"/><path d="m100 188.412c0 8.167 2.455 15.671 6.56 21.588h-6.56c-16.569 0-30-13.431-30-30v-100c0-22.091 17.909-40 40-40h2.164c-7.501 8.383-12.164 20.122-12.164 33.118z" fill="#b03244"/><path d="m316 430h-52c-2.209 0-4-1.791-4-4v-92c0-2.209 1.791-4 4-4h52c2.209 0 4 1.791 4 4v92c0 2.209-1.791 4-4 4z" fill="#c83c50"/><path d="m316 430h-32c-2.209 0-4-1.791-4-4v-92c0-2.209 1.791-4 4-4h32c2.209 0 4 1.791 4 4v92c0 2.209-1.791 4-4 4z" fill="#f44545"/><path d="m275 355c0-2.761 2.239-5 5-5h20c2.761 0 5 2.239 5 5s-2.239 5-5 5h-20c-2.761 0-5-2.239-5-5zm25 45h-20c-2.761 0-5 2.239-5 5s2.239 5 5 5h20c2.761 0 5-2.239 5-5s-2.239-5-5-5zm.5-31.768c-2.761 0-5 2.239-5 5v13.536c0 2.761 2.239 5 5 5s5-2.239 5-5v-13.536c0-2.761-2.239-5-5-5zm-21 23.536c2.761 0 5-2.239 5-5v-13.536c0-2.761-2.239-5-5-5s-5 2.239-5 5v13.536c0 2.761 2.239 5 5 5z" fill="#962a3a"/><path d="m452 150c0 5.523-4.477 10-10 10h-372c-5.523 0-10-4.477-10-10s4.477-10 10-10h372c5.523 0 10 4.477 10 10z" fill="#962a3a"/><path d="m396 450h-52c-2.209 0-4-1.791-4-4v-112c0-2.209 1.791-4 4-4h52c2.209 0 4 1.791 4 4v112c0 2.209-1.791 4-4 4z" fill="#ffc14f"/><path d="m396 450h-33.106c-2.209 0-4-1.791-4-4v-112c0-2.209 1.791-4 4-4h33.106c2.209 0 4 1.791 4 4v112c0 2.209-1.791 4-4 4z" fill="#ffcd71"/><path d="m380 430h-20c-2.761 0-5-2.239-5-5 0-2.761 2.239-5 5-5h20c2.761 0 5 2.239 5 5 0 2.761-2.239 5-5 5zm5-25c0-2.761-2.239-5-5-5h-20c-2.761 0-5 2.239-5 5 0 2.761 2.239 5 5 5h20c2.761 0 5-2.239 5-5zm-5-45c-2.761 0-5 2.239-5 5v20c0 2.761 2.239 5 5 5 2.761 0 5-2.239 5-5v-20c0-2.761-2.239-5-5-5zm-20 0c-2.761 0-5 2.239-5 5v20c0 2.761 2.239 5 5 5 2.761 0 5-2.239 5-5v-20c0-2.761-2.239-5-5-5z" fill="#f29500"/><path d="m442 340h-372c-5.523 0-10-4.477-10-10 0-5.523 4.477-10 10-10h372c5.523 0 10 4.477 10 10 0 5.523-4.477 10-10 10z" fill="#5f4e47"/><path d="m263.796 70.622c2.929 2.929 2.929 7.677 0 10.607l-10.607 10.606c-2.929 2.929-7.678 2.929-10.607 0-2.929-2.929-2.929-7.678 0-10.606l10.607-10.607c2.929-2.929 7.678-2.929 10.607 0zm-176.599 121.575c-2.929-2.929-7.677-2.929-10.606 0s-2.929 7.678 0 10.606l10.606 10.607c2.929 2.929 7.678 2.929 10.607 0s2.929-7.678 0-10.607zm6.213 194.393c-2.929-2.929-7.678-2.929-10.607 0l-10.607 10.606c-2.929 2.929-2.929 7.678 0 10.606 2.929 2.929 7.677 2.929 10.606 0l10.607-10.607c2.93-2.927 2.93-7.676.001-10.605z" fill="#fff5f5"/></g></svg>